<svg width="758" height="768" viewBox="0 0 758 768" fill="none" xmlns="http://www.w3.org/2000/svg">
<g opacity="0.08">
<path d="M9.80292 754.805C11.4999 754.805 12.8798 756.185 12.8798 757.882C12.8798 759.579 11.4999 760.959 9.80292 760.959C8.09004 760.959 6.72607 759.579 6.72607 757.882C6.72607 756.185 8.09004 754.805 9.80292 754.805Z" fill="#DBE2E8"/>
<path d="M9.78693 733.125C11.4839 733.125 12.8638 734.505 12.8638 736.202C12.8638 737.899 11.4839 739.278 9.78693 739.278C8.07405 739.278 6.71008 737.899 6.71008 736.202C6.71008 734.505 8.07405 733.125 9.78693 733.125Z" fill="#DBE2E8"/>
<path d="M9.78693 711.444C11.4839 711.444 12.8638 712.824 12.8638 714.521C12.8638 716.218 11.4839 717.598 9.78693 717.598C8.07405 717.598 6.71008 716.218 6.71008 714.521C6.71008 712.824 8.07405 711.444 9.78693 711.444Z" fill="#DBE2E8"/>
<path d="M9.78693 689.764C11.4839 689.764 12.8638 691.144 12.8638 692.841C12.8638 694.538 11.4839 695.918 9.78693 695.918C8.07405 695.918 6.71008 694.538 6.71008 692.841C6.71008 691.144 8.07405 689.764 9.78693 689.764Z" fill="#DBE2E8"/>
<path d="M24.2038 762.275C25.9008 762.275 27.2806 763.655 27.2806 765.352C27.2806 767.049 25.9008 768.429 24.2038 768.429C22.5068 768.429 21.127 767.065 21.127 765.352C21.127 763.655 22.5068 762.275 24.2038 762.275Z" fill="#DBE2E8"/>
<path d="M24.2038 740.61C25.9008 740.61 27.2806 741.99 27.2806 743.687C27.2806 745.384 25.9008 746.764 24.2038 746.764C22.5068 746.764 21.127 745.384 21.127 743.687C21.127 741.99 22.5068 740.61 24.2038 740.61Z" fill="#DBE2E8"/>
<path d="M24.1879 718.93C25.8849 718.93 27.2648 720.31 27.2648 722.007C27.2648 723.719 25.8849 725.083 24.1879 725.083C22.4909 725.083 21.1111 723.719 21.1111 722.007C21.1111 720.31 22.4909 718.93 24.1879 718.93Z" fill="#DBE2E8"/>
<path d="M24.1879 697.249C25.8849 697.249 27.2648 698.629 27.2648 700.326C27.2648 702.039 25.8849 703.403 24.1879 703.403C22.4909 703.403 21.1111 702.039 21.1111 700.326C21.1111 698.629 22.4909 697.249 24.1879 697.249Z" fill="#DBE2E8"/>
<path d="M24.1879 675.569C25.8849 675.569 27.2648 676.949 27.2648 678.646C27.2648 680.359 25.8849 681.723 24.1879 681.723C22.4909 681.723 21.1111 680.359 21.1111 678.646C21.1111 676.949 22.4909 675.569 24.1879 675.569Z" fill="#DBE2E8"/>
<path d="M9.78693 664.118C11.4839 664.118 12.8638 665.498 12.8638 667.195C12.8638 668.892 11.4839 670.272 9.78693 670.272C8.08991 670.272 6.71008 668.892 6.71008 667.195C6.71008 665.498 8.07405 664.118 9.78693 664.118Z" fill="#DBE2E8"/>
<path d="M9.78693 642.437C11.4839 642.437 12.8638 643.817 12.8638 645.514C12.8638 647.211 11.4839 648.591 9.78693 648.591C8.07405 648.591 6.71008 647.211 6.71008 645.514C6.71008 643.817 8.07405 642.437 9.78693 642.437Z" fill="#DBE2E8"/>
<path d="M9.78693 620.757C11.4839 620.757 12.8638 622.136 12.8638 623.833C12.8638 625.53 11.4839 626.91 9.78693 626.91C8.08991 626.91 6.71008 625.53 6.71008 623.833C6.71008 622.136 8.07405 620.757 9.78693 620.757Z" fill="#DBE2E8"/>
<path d="M9.78693 599.093C11.4839 599.093 12.8638 600.472 12.8638 602.169C12.8638 603.866 11.4839 605.246 9.78693 605.246C8.08991 605.246 6.71008 603.866 6.71008 602.169C6.71008 600.472 8.08991 599.093 9.78693 599.093Z" fill="#DBE2E8"/>
<path d="M9.78693 577.411C11.4839 577.411 12.8638 578.79 12.8638 580.487C12.8638 582.185 11.4839 583.564 9.78693 583.564C8.08991 583.564 6.71008 582.185 6.71008 580.487C6.71008 578.79 8.08991 577.411 9.78693 577.411Z" fill="#DBE2E8"/>
<path d="M9.78693 555.73C11.4839 555.73 12.8638 557.11 12.8638 558.807C12.8638 560.504 11.4839 561.884 9.78693 561.884C8.08991 561.884 6.71008 560.504 6.71008 558.807C6.71008 557.11 8.08991 555.73 9.78693 555.73Z" fill="#DBE2E8"/>
<path d="M9.78693 534.066C11.4839 534.066 12.8638 535.446 12.8638 537.143C12.8638 538.84 11.4839 540.22 9.78693 540.22C8.08991 540.22 6.71008 538.84 6.71008 537.143C6.71008 535.446 8.07405 534.066 9.78693 534.066Z" fill="#DBE2E8"/>
<path d="M24.1879 649.923C25.8849 649.923 27.2648 651.303 27.2648 653C27.2648 654.713 25.8849 656.077 24.1879 656.077C22.4909 656.077 21.1111 654.697 21.1111 653C21.1111 651.303 22.4909 649.923 24.1879 649.923Z" fill="#DBE2E8"/>
<path d="M24.1879 628.243C25.8849 628.243 27.2648 629.623 27.2648 631.32C27.2648 633.017 25.8849 634.397 24.1879 634.397C22.4909 634.397 21.1111 633.017 21.1111 631.32C21.1111 629.623 22.4909 628.243 24.1879 628.243Z" fill="#DBE2E8"/>
<path d="M24.1879 606.562C25.8849 606.562 27.2648 607.942 27.2648 609.639C27.2648 611.336 25.8849 612.716 24.1879 612.716C22.4909 612.716 21.1111 611.352 21.1111 609.639C21.1111 607.942 22.4909 606.562 24.1879 606.562Z" fill="#DBE2E8"/>
<path d="M24.1879 584.897C25.8849 584.897 27.2648 586.277 27.2648 587.974C27.2648 589.687 25.8849 591.051 24.1879 591.051C22.4909 591.051 21.1111 589.687 21.1111 587.974C21.1111 586.277 22.4909 584.897 24.1879 584.897Z" fill="#DBE2E8"/>
<path d="M24.1879 563.217C25.8849 563.217 27.2648 564.596 27.2648 566.293C27.2648 568.006 25.8849 569.37 24.1879 569.37C22.4909 569.37 21.1111 568.006 21.1111 566.293C21.1111 564.596 22.4909 563.217 24.1879 563.217Z" fill="#DBE2E8"/>
<path d="M24.1879 541.552C25.8849 541.552 27.2648 542.932 27.2648 544.629C27.2648 546.341 25.8849 547.705 24.1879 547.705C22.4909 547.705 21.1111 546.341 21.1111 544.629C21.1111 542.932 22.4909 541.552 24.1879 541.552Z" fill="#DBE2E8"/>
<path d="M24.1879 519.871C25.8849 519.871 27.2648 521.251 27.2648 522.948C27.2648 524.661 25.8849 526.025 24.1879 526.025C22.4909 526.025 21.1111 524.645 21.1111 522.948C21.1111 521.251 22.4909 519.871 24.1879 519.871Z" fill="#DBE2E8"/>
<path d="M752.36 741.445C751.154 740.24 751.17 738.289 752.36 737.1C753.565 735.894 755.516 735.894 756.705 737.1C757.91 738.305 757.91 740.24 756.705 741.445C755.5 742.651 753.549 742.651 752.36 741.445Z" fill="#DBE2E8"/>
<path d="M737.023 756.766C735.818 755.561 735.818 753.61 737.023 752.421C738.228 751.215 740.179 751.215 741.369 752.421C742.574 753.626 742.574 755.561 741.369 756.766C740.163 757.972 738.212 757.972 737.023 756.766Z" fill="#DBE2E8"/>
<path d="M721.702 772.087C720.497 770.882 720.497 768.931 721.702 767.741C722.908 766.536 724.858 766.536 726.048 767.741C727.253 768.947 727.253 770.882 726.048 772.087C724.843 773.292 722.892 773.292 721.702 772.087Z" fill="#DBE2E8"/>
<path d="M737.641 737.306C736.436 736.1 736.436 734.15 737.641 732.96C738.847 731.755 740.797 731.755 741.987 732.96C743.192 734.166 743.192 736.116 741.987 737.322C740.782 738.527 738.831 738.527 737.641 737.322V737.306Z" fill="#DBE2E8"/>
<path d="M722.305 752.627C721.099 751.422 721.115 749.471 722.305 748.281C723.51 747.076 725.445 747.076 726.65 748.281C727.856 749.487 727.856 751.437 726.65 752.627C725.445 753.832 723.494 753.832 722.305 752.627Z" fill="#DBE2E8"/>
<path d="M706.984 767.964C705.779 766.758 705.779 764.808 706.984 763.618C708.189 762.413 710.14 762.413 711.33 763.618C712.535 764.823 712.535 766.774 711.33 767.98C710.124 769.185 708.174 769.185 706.984 767.98V767.964Z" fill="#DBE2E8"/>
<path d="M732.741 721.843C731.535 720.638 731.535 718.687 732.741 717.481C733.946 716.276 735.897 716.276 737.086 717.481C738.292 718.687 738.292 720.638 737.086 721.843C735.881 723.032 733.93 723.032 732.741 721.843Z" fill="#DBE2E8"/>
<path d="M717.42 737.163C716.215 735.958 716.215 734.023 717.42 732.818C718.625 731.612 720.576 731.612 721.766 732.818C722.971 734.023 722.971 735.958 721.766 737.163C720.56 738.369 718.609 738.369 717.42 737.163Z" fill="#DBE2E8"/>
<path d="M702.083 752.485C700.878 751.279 700.878 749.329 702.083 748.139C703.289 746.934 705.239 746.934 706.429 748.139C707.634 749.329 707.634 751.279 706.429 752.485C705.224 753.69 703.273 753.69 702.083 752.485Z" fill="#DBE2E8"/>
<path d="M686.763 767.805C685.557 766.6 685.557 764.665 686.763 763.46C687.968 762.254 689.919 762.27 691.108 763.46C692.314 764.665 692.314 766.6 691.108 767.805C689.903 769.011 687.952 768.995 686.763 767.805Z" fill="#DBE2E8"/>
<path d="M718.023 717.704C716.817 716.498 716.817 714.547 718.023 713.358C719.228 712.153 721.179 712.153 722.368 713.358C723.574 714.547 723.574 716.514 722.368 717.704C721.163 718.909 719.212 718.893 718.023 717.704Z" fill="#DBE2E8"/>
<path d="M702.702 733.024C701.497 731.834 701.497 729.868 702.702 728.678C703.907 727.473 705.858 727.473 707.047 728.678C708.253 729.884 708.253 731.834 707.047 733.04C705.842 734.229 703.891 734.229 702.702 733.04V733.024Z" fill="#DBE2E8"/>
<path d="M687.365 748.345C686.16 747.139 686.16 745.188 687.365 743.999C688.57 742.794 690.521 742.794 691.711 743.999C692.916 745.204 692.916 747.155 691.711 748.345C690.505 749.55 688.555 749.55 687.365 748.345Z" fill="#DBE2E8"/>
<path d="M672.044 763.681C670.839 762.476 670.839 760.525 672.044 759.335C673.25 758.13 675.201 758.13 676.39 759.335C677.595 760.541 677.595 762.492 676.39 763.681C675.185 764.886 673.234 764.886 672.044 763.681Z" fill="#DBE2E8"/>
<path d="M713.138 702.224C711.932 701.018 711.932 699.067 713.138 697.878C714.343 696.673 716.294 696.673 717.483 697.878C718.689 699.083 718.689 701.018 717.483 702.224C716.278 703.429 714.327 703.429 713.138 702.224Z" fill="#DBE2E8"/>
<path d="M697.801 717.561C696.596 716.356 696.596 714.405 697.801 713.215C699.006 712.01 700.957 712.01 702.147 713.215C703.352 714.421 703.352 716.371 702.147 717.577C700.941 718.782 698.991 718.766 697.801 717.577V717.561Z" fill="#DBE2E8"/>
<path d="M682.48 732.866C681.275 731.66 681.275 729.709 682.48 728.52C683.686 727.315 685.636 727.315 686.826 728.52C688.031 729.725 688.031 731.676 686.826 732.866C685.621 734.071 683.67 734.071 682.48 732.866Z" fill="#DBE2E8"/>
<path d="M667.159 748.202C665.954 746.997 665.954 745.046 667.159 743.856C668.365 742.651 670.316 742.651 671.505 743.856C672.71 745.062 672.71 747.013 671.505 748.202C670.3 749.407 668.349 749.407 667.159 748.202Z" fill="#DBE2E8"/>
<path d="M651.823 763.523C650.617 762.317 650.617 760.367 651.823 759.177C653.028 757.972 654.979 757.972 656.168 759.177C657.374 760.383 657.374 762.317 656.168 763.523C654.963 764.728 653.012 764.728 651.823 763.523Z" fill="#DBE2E8"/>
<path d="M698.42 698.084C697.214 696.879 697.214 694.928 698.42 693.738C699.625 692.533 701.576 692.533 702.765 693.738C703.971 694.944 703.971 696.894 702.765 698.084C701.56 699.289 699.609 699.289 698.42 698.084Z" fill="#DBE2E8"/>
<path d="M683.083 713.421C681.878 712.215 681.878 710.265 683.083 709.075C684.288 707.87 686.239 707.87 687.429 709.075C688.634 710.281 688.634 712.231 687.429 713.421C686.223 714.626 684.272 714.626 683.083 713.421Z" fill="#DBE2E8"/>
<path d="M667.762 728.742C666.557 727.552 666.557 725.585 667.762 724.396C668.968 723.191 670.918 723.191 672.108 724.396C673.313 725.601 673.313 727.552 672.108 728.757C670.903 729.947 668.952 729.947 667.762 728.757V728.742Z" fill="#DBE2E8"/>
<path d="M652.441 744.062C651.236 742.872 651.236 740.906 652.441 739.716C653.647 738.527 655.598 738.527 656.787 739.716C657.992 740.922 657.992 742.872 656.787 744.062C655.582 745.267 653.631 745.267 652.441 744.062Z" fill="#DBE2E8"/>
<path d="M637.105 759.399C635.899 758.194 635.899 756.243 637.105 755.053C638.31 753.848 640.261 753.848 641.45 755.053C642.656 756.259 642.656 758.21 641.45 759.399C640.245 760.604 638.294 760.604 637.105 759.399Z" fill="#DBE2E8"/>
<path d="M693.519 682.605C692.314 681.4 692.314 679.449 693.519 678.259C694.724 677.054 696.675 677.054 697.865 678.259C699.07 679.465 699.07 681.415 697.865 682.605C696.659 683.81 694.708 683.81 693.519 682.605Z" fill="#DBE2E8"/>
<path d="M678.198 697.942C676.993 696.736 676.993 694.786 678.198 693.596C679.404 692.391 681.354 692.391 682.544 693.596C683.749 694.802 683.749 696.736 682.544 697.942C681.339 699.147 679.388 699.147 678.198 697.942Z" fill="#DBE2E8"/>
<path d="M662.877 713.262C661.672 712.056 661.672 710.105 662.877 708.916C664.083 707.711 666.034 707.711 667.223 708.916C668.428 710.121 668.428 712.056 667.223 713.262C666.018 714.467 664.067 714.467 662.877 713.262Z" fill="#DBE2E8"/>
<path d="M647.541 728.583C646.336 727.394 646.336 725.443 647.541 724.238C648.746 723.032 650.681 723.032 651.887 724.238C653.092 725.427 653.092 727.378 651.887 728.583C650.681 729.788 648.73 729.788 647.541 728.583Z" fill="#DBE2E8"/>
<path d="M632.22 743.92C631.015 742.714 631.015 740.763 632.22 739.574C633.425 738.369 635.376 738.369 636.566 739.574C637.771 740.779 637.771 742.73 636.566 743.92C635.376 745.109 633.41 745.125 632.22 743.92Z" fill="#DBE2E8"/>
<path d="M616.883 759.241C615.678 758.035 615.678 756.084 616.883 754.895C618.089 753.69 620.04 753.705 621.229 754.895C622.434 756.1 622.434 758.035 621.229 759.241C620.024 760.446 618.073 760.446 616.883 759.241Z" fill="#DBE2E8"/>
<path d="M678.801 678.482C677.595 677.276 677.595 675.325 678.801 674.136C680.006 672.931 681.941 672.931 683.146 674.136C684.352 675.341 684.352 677.292 683.146 678.497C681.957 679.687 680.006 679.687 678.801 678.497V678.482Z" fill="#DBE2E8"/>
<path d="M663.48 693.803C662.275 692.598 662.291 690.647 663.48 689.457C664.686 688.252 666.62 688.252 667.826 689.457C669.031 690.663 669.031 692.613 667.826 693.803C666.62 695.008 664.67 695.008 663.48 693.803Z" fill="#DBE2E8"/>
<path d="M648.159 709.123C646.954 707.917 646.954 705.967 648.159 704.777C649.365 703.572 651.3 703.572 652.505 704.777C653.71 705.982 653.71 707.933 652.505 709.123C651.3 710.328 649.365 710.328 648.159 709.123Z" fill="#DBE2E8"/>
<path d="M632.823 724.459C631.617 723.254 631.617 721.303 632.823 720.113C634.028 718.908 635.963 718.908 637.168 720.113C638.374 721.319 638.374 723.27 637.168 724.459C635.963 725.665 634.012 725.665 632.807 724.459H632.823Z" fill="#DBE2E8"/>
<path d="M617.502 739.78C616.297 738.575 616.297 736.624 617.502 735.434C618.707 734.229 620.642 734.229 621.848 735.434C623.053 736.64 623.053 738.59 621.848 739.796C620.642 740.985 618.707 740.985 617.502 739.796V739.78Z" fill="#DBE2E8"/>
<path d="M602.165 755.117C600.96 753.911 600.976 751.961 602.165 750.771C603.371 749.582 605.306 749.566 606.511 750.771C607.716 751.976 607.716 753.927 606.511 755.133C605.306 756.322 603.371 756.338 602.165 755.133V755.117Z" fill="#DBE2E8"/>
<path d="M586.845 770.438C585.639 769.233 585.639 767.282 586.845 766.092C588.05 764.903 589.985 764.887 591.19 766.092C592.396 767.298 592.396 769.249 591.19 770.438C589.985 771.643 588.034 771.643 586.845 770.438Z" fill="#DBE2E8"/>
<path d="M673.916 663.002C672.71 661.796 672.726 659.846 673.916 658.64C675.121 657.435 677.056 657.435 678.261 658.64C679.467 659.846 679.467 661.796 678.261 663.002C677.056 664.191 675.105 664.207 673.9 663.002H673.916Z" fill="#DBE2E8"/>
<path d="M658.595 678.323C657.39 677.118 657.39 675.167 658.595 673.977C659.801 672.772 661.736 672.772 662.941 673.977C664.146 675.183 664.146 677.133 662.941 678.323C661.736 679.528 659.785 679.528 658.595 678.323Z" fill="#DBE2E8"/>
<path d="M643.259 693.659C642.053 692.453 642.053 690.503 643.259 689.313C644.464 688.108 646.399 688.108 647.604 689.313C648.81 690.519 648.81 692.469 647.604 693.659C646.399 694.864 644.448 694.864 643.259 693.659Z" fill="#DBE2E8"/>
<path d="M627.938 708.98C626.732 707.775 626.732 705.824 627.938 704.634C629.143 703.429 631.078 703.429 632.283 704.634C633.489 705.84 633.489 707.791 632.283 708.98C631.078 710.185 629.127 710.185 627.938 708.98Z" fill="#DBE2E8"/>
<path d="M612.601 724.317C611.396 723.111 611.396 721.16 612.601 719.971C613.807 718.766 615.741 718.766 616.947 719.971C618.152 721.176 618.152 723.111 616.947 724.317C615.741 725.522 613.791 725.522 612.601 724.317Z" fill="#DBE2E8"/>
<path d="M597.28 739.638C596.075 738.432 596.075 736.482 597.28 735.292C598.486 734.087 600.421 734.087 601.626 735.292C602.831 736.498 602.831 738.432 601.626 739.638C600.421 740.843 598.47 740.843 597.28 739.638Z" fill="#DBE2E8"/>
<path d="M581.96 754.958C580.754 753.752 580.754 751.802 581.96 750.612C583.165 749.407 585.1 749.407 586.305 750.612C587.511 751.817 587.511 753.752 586.305 754.958C585.1 756.163 583.149 756.163 581.96 754.958Z" fill="#DBE2E8"/>
<path d="M566.623 770.295C565.418 769.09 565.418 767.139 566.623 765.95C567.828 764.744 569.763 764.744 570.969 765.95C572.174 767.155 572.174 769.106 570.969 770.295C569.763 771.501 567.813 771.501 566.623 770.295Z" fill="#DBE2E8"/>
<path d="M659.198 658.862C657.993 657.657 658.008 655.722 659.198 654.517C660.403 653.311 662.338 653.311 663.544 654.517C664.749 655.722 664.749 657.673 663.544 658.878C662.338 660.084 660.387 660.084 659.182 658.878L659.198 658.862Z" fill="#DBE2E8"/>
<path d="M643.861 674.183C642.656 672.978 642.672 671.027 643.861 669.838C645.067 668.632 647.002 668.632 648.207 669.838C649.412 671.043 649.412 672.994 648.207 674.199C647.002 675.389 645.051 675.404 643.846 674.199L643.861 674.183Z" fill="#DBE2E8"/>
<path d="M628.54 689.52C627.335 688.314 627.351 686.364 628.54 685.174C629.746 683.969 631.681 683.969 632.886 685.174C634.091 686.379 634.091 688.33 632.886 689.536C631.681 690.725 629.73 690.725 628.525 689.536L628.54 689.52Z" fill="#DBE2E8"/>
<path d="M613.204 704.84C611.999 703.635 612.014 701.684 613.204 700.495C614.409 699.305 616.344 699.289 617.55 700.495C618.755 701.7 618.755 703.651 617.55 704.84C616.344 706.046 614.393 706.046 613.188 704.84H613.204Z" fill="#DBE2E8"/>
<path d="M597.883 720.161C596.678 718.956 596.694 717.021 597.883 715.815C599.088 714.61 601.023 714.61 602.229 715.815C603.434 717.021 603.434 718.972 602.229 720.177C601.023 721.382 599.073 721.382 597.867 720.177L597.883 720.161Z" fill="#DBE2E8"/>
<path d="M582.562 735.498C581.357 734.293 581.373 732.358 582.562 731.152C583.768 729.947 585.703 729.947 586.908 731.152C588.113 732.358 588.113 734.308 586.908 735.514C585.703 736.719 583.752 736.719 582.547 735.514L582.562 735.498Z" fill="#DBE2E8"/>
<path d="M567.226 750.819C566.02 749.613 566.036 747.678 567.226 746.473C568.431 745.268 570.366 745.268 571.571 746.473C572.777 747.678 572.777 749.629 571.571 750.819C570.366 752.024 568.415 752.024 567.21 750.819H567.226Z" fill="#DBE2E8"/>
<path d="M654.297 643.383C653.092 642.194 653.092 640.227 654.297 639.038C655.503 637.832 657.453 637.832 658.643 639.038C659.848 640.243 659.848 642.194 658.643 643.383C657.437 644.589 655.503 644.589 654.297 643.383Z" fill="#DBE2E8"/>
<path d="M638.977 658.72C637.787 657.515 637.771 655.564 638.977 654.374C640.182 653.169 642.133 653.169 643.322 654.374C644.527 655.58 644.527 657.515 643.322 658.72C642.117 659.925 640.182 659.925 638.977 658.72Z" fill="#DBE2E8"/>
<path d="M623.64 674.04C622.434 672.834 622.434 670.884 623.64 669.694C624.845 668.489 626.796 668.489 627.985 669.694C629.191 670.899 629.191 672.834 627.985 674.04C626.78 675.245 624.845 675.245 623.64 674.04Z" fill="#DBE2E8"/>
<path d="M608.319 689.361C607.113 688.172 607.113 686.221 608.319 685.016C609.524 683.81 611.475 683.81 612.664 685.016C613.87 686.221 613.87 688.156 612.664 689.361C611.459 690.567 609.524 690.567 608.319 689.361Z" fill="#DBE2E8"/>
<path d="M592.998 704.698C591.793 703.492 591.793 701.542 592.998 700.352C594.203 699.147 596.154 699.147 597.344 700.352C598.549 701.557 598.549 703.508 597.344 704.714C596.154 705.903 594.203 705.919 592.998 704.714V704.698Z" fill="#DBE2E8"/>
<path d="M577.662 720.019C576.456 718.813 576.456 716.862 577.662 715.673C578.867 714.468 580.818 714.483 582.007 715.673C583.213 716.878 583.213 718.829 582.007 720.019C580.802 721.224 578.867 721.224 577.662 720.019Z" fill="#DBE2E8"/>
<path d="M562.341 735.356C561.136 734.15 561.136 732.199 562.341 731.01C563.546 729.805 565.497 729.82 566.687 731.01C567.892 732.215 567.892 734.15 566.687 735.356C565.481 736.561 563.546 736.561 562.341 735.356Z" fill="#DBE2E8"/>
<path d="M547.004 750.676C545.799 749.471 545.799 747.52 547.004 746.331C548.209 745.125 550.16 745.125 551.35 746.331C552.555 747.536 552.555 749.471 551.35 750.676C550.144 751.882 548.209 751.882 547.004 750.676Z" fill="#DBE2E8"/>
<path d="M639.579 639.244C638.374 638.054 638.374 636.088 639.579 634.898C640.784 633.693 642.735 633.709 643.925 634.898C645.13 636.103 645.13 638.054 643.925 639.26C642.719 640.449 640.784 640.465 639.579 639.26V639.244Z" fill="#DBE2E8"/>
<path d="M624.258 654.58C623.053 653.375 623.053 651.424 624.258 650.234C625.464 649.029 627.414 649.029 628.604 650.234C629.809 651.44 629.809 653.39 628.604 654.58C627.398 655.785 625.464 655.785 624.258 654.58Z" fill="#DBE2E8"/>
<path d="M608.922 669.901C607.716 668.695 607.716 666.745 608.922 665.555C610.127 664.35 612.078 664.35 613.267 665.555C614.473 666.761 614.473 668.711 613.267 669.901C612.062 671.106 610.127 671.106 608.922 669.901Z" fill="#DBE2E8"/>
<path d="M593.601 685.237C592.396 684.032 592.396 682.097 593.601 680.892C594.806 679.686 596.741 679.686 597.947 680.892C599.152 682.097 599.152 684.048 597.947 685.237C596.741 686.443 594.806 686.443 593.601 685.237Z" fill="#DBE2E8"/>
<path d="M578.28 700.558C577.075 699.353 577.075 697.402 578.28 696.213C579.485 695.007 581.436 695.007 582.626 696.213C583.831 697.418 583.831 699.369 582.626 700.558C581.42 701.764 579.485 701.764 578.28 700.558Z" fill="#DBE2E8"/>
<path d="M562.944 715.895C561.738 714.69 561.738 712.739 562.944 711.549C564.149 710.344 566.1 710.344 567.289 711.549C568.495 712.755 568.495 714.705 567.289 715.911C566.084 717.1 564.149 717.116 562.944 715.911V715.895Z" fill="#DBE2E8"/>
<path d="M547.623 731.216C546.418 730.026 546.418 728.06 547.623 726.87C548.828 725.681 550.779 725.681 551.969 726.87C553.174 728.076 553.174 730.026 551.969 731.216C550.763 732.421 548.828 732.421 547.623 731.216Z" fill="#DBE2E8"/>
<path d="M549.098 768.963C547.892 767.757 547.908 765.822 549.098 764.617C550.303 763.412 552.238 763.412 553.443 764.617C554.649 765.822 554.649 767.773 553.443 768.963C552.254 770.168 550.303 770.168 549.098 768.963Z" fill="#DBE2E8"/>
<path d="M528.876 768.82C527.671 767.615 527.671 765.68 528.876 764.474C530.082 763.269 532.032 763.269 533.222 764.474C534.427 765.68 534.427 767.615 533.222 768.82C532.017 770.025 530.082 770.025 528.876 768.82Z" fill="#DBE2E8"/>
<path d="M529.479 749.36C528.274 748.154 528.274 746.203 529.479 745.014C530.684 743.809 532.619 743.809 533.825 745.014C535.03 746.219 535.03 748.17 533.825 749.36C532.619 750.565 530.684 750.565 529.479 749.36Z" fill="#DBE2E8"/>
<path d="M514.158 764.68C512.953 763.475 512.953 761.524 514.158 760.335C515.363 759.129 517.314 759.129 518.504 760.335C519.709 761.54 519.709 763.491 518.504 764.68C517.298 765.87 515.363 765.886 514.158 764.68Z" fill="#DBE2E8"/>
<path d="M200.051 286.952C199.147 301.606 210.265 314.231 224.904 315.135C239.527 316.039 252.12 304.889 253.024 290.235C253.928 275.58 242.81 262.955 228.171 262.051C213.548 261.147 200.955 272.297 200.051 286.952Z" fill="#DBE2E8"/>
<path d="M0.659576 220.319C-36.1515 220.319 -66 190.471 -66 153.66C-66 116.849 -36.1515 87 0.659576 87C37.4706 87 67.3192 116.849 67.3192 153.66C67.3192 190.471 37.4706 220.319 0.659576 220.319Z" fill="#DBE2E8"/>
<path d="M18 394.097L81.8206 377L64.7235 440.821L18 394.097Z" fill="white"/>
</g>
</svg>
