<svg xmlns="http://www.w3.org/2000/svg" width="329.594" height="85.784" viewBox="0 0 329.594 85.784">
  <path id="_75678898a_Converted_copy" data-name="75678898a [Converted] copy" d="M55.525,72.715c-4.223,3.28-7.374,8.11-7.545,12.862h-.3a12.987,12.987,0,0,1,.659-3.609,20.289,20.289,0,0,1,6.974-9.424c5.774-4.487,13.416-7.16,20.808-9.747.993-.347,2.021-.707,3.028-1.064,8.442-3.005,16.914-6.628,21.713-12.745.822-1.05,1.556-2.2,2.263-3.3,1.753-2.741,3.568-5.578,6.9-7.208,3.423-1.674,7.62-1.678,11.676-1.685.91,0,1.85,0,2.76-.021,4.9-.11,11.931-.964,17.657-4.4,5.256-3.153,8.257-8.141,7.646-12.7a20.405,20.405,0,0,0-2.259-6.114,24.017,24.017,0,0,1-2.153-5.424A11.282,11.282,0,0,1,147.014-.19h.347A11.109,11.109,0,0,0,145.656,8.1a23.61,23.61,0,0,0,2.136,5.38,20.514,20.514,0,0,1,2.276,6.175,10.83,10.83,0,0,1-1.745,7.184,17.889,17.889,0,0,1-6.02,5.736c-5.792,3.475-12.9,4.337-17.837,4.45-.914.021-1.854.021-2.769.024-4.017,0-8.165.007-11.514,1.647-3.261,1.6-5.054,4.4-6.789,7.112-.712,1.112-1.45,2.264-2.276,3.321a30.072,30.072,0,0,1-9.593,7.613,88.185,88.185,0,0,1-12.256,5.222c-1.006.357-2.035.717-3.028,1.067C68.876,65.592,61.26,68.255,55.525,72.715Zm15.728-3.149c1.868-.672,3.8-1.311,5.664-1.925a99.224,99.224,0,0,0,12.406-4.714,40.432,40.432,0,0,0,13.434-10.361c.729-.885,1.433-1.825,2.118-2.734,2.54-3.383,5.168-6.879,9.641-8.5,2.922-1.057,6.253-1.142,9.479-1.228.545-.014,1.107-.031,1.657-.048,6.7-.237,12.124-1.249,16.585-3.091a24.008,24.008,0,0,0,6.772-4.144,13.971,13.971,0,0,0,4.087-5.829c1.437-4.186.167-8.567-1.055-12.8-1.217-4.213-2.478-8.567-1.055-12.7a11.461,11.461,0,0,1,.734-1.685h-.334a12.1,12.1,0,0,0-.7,1.623c-1.441,4.189-.171,8.574,1.055,12.811,1.217,4.21,2.474,8.56,1.059,12.687-1.371,4-5.273,7.575-10.7,9.822-4.421,1.825-9.8,2.827-16.453,3.064-.549.021-1.112.034-1.652.048-3.256.086-6.622.175-9.6,1.252-4.561,1.65-7.216,5.181-9.778,8.594-.681.906-1.384,1.846-2.109,2.724A40.175,40.175,0,0,1,89.169,62.721a98.809,98.809,0,0,1-12.362,4.7c-1.868.618-3.8,1.256-5.673,1.928A59.623,59.623,0,0,0,62.376,73.2a25.8,25.8,0,0,0-7.044,5.465,13.522,13.522,0,0,0-3.269,6.91h.308A13.049,13.049,0,0,1,55.587,78.8C59.665,74.107,66.481,71.28,71.253,69.565Zm-5.963,7.3c4.887-3.527,11.1-5.771,17.1-7.942.677-.244,1.38-.5,2.065-.748,6.332-2.312,13.478-5.177,18.158-9.915a41.03,41.03,0,0,0,4.337-5.5c2.03-2.9,4.126-5.9,7.449-7.983,5.388-3.379,12.7-3.692,19.771-3.99l1.4-.062A55.632,55.632,0,0,0,146.772,39.3a24.429,24.429,0,0,0,4.992-1.811,14.234,14.234,0,0,0,3.986-2.909,11.493,11.493,0,0,0,3.041-7.16,22.343,22.343,0,0,0-.962-7.788c-.29-1.036-.62-2.093-.94-3.112-1.23-3.928-2.5-7.99-1.815-12.011a13.51,13.51,0,0,1,1.793-4.7h-.33a13.572,13.572,0,0,0-1.767,4.669c-.694,4.062.584,8.148,1.824,12.1.321,1.019.65,2.072.94,3.1,1.828,6.525,1.165,11.353-2.03,14.756-4.478,4.769-13.016,5.736-19.951,6.045l-1.4.062a92.584,92.584,0,0,0-10.547.847,24.736,24.736,0,0,0-9.4,3.2c-3.366,2.11-5.48,5.132-7.523,8.056a40.964,40.964,0,0,1-4.311,5.472c-4.636,4.7-11.746,7.544-18.044,9.846-.686.25-1.384.5-2.061.748-6.025,2.179-12.256,4.433-17.178,7.983a20.726,20.726,0,0,0-6.407,7.215,13.571,13.571,0,0,0-.708,1.671h.334A18.717,18.717,0,0,1,65.29,76.866ZM83.7,72.351c.7-.281,1.415-.57,2.1-.844,4.372-1.743,8.89-3.544,12.674-6.069,4.078-2.721,7.211-6.22,10.244-9.606.817-.913,1.661-1.856,2.514-2.769,3.5-3.764,8.38-8.33,15.047-10.262,4.667-1.352,9.8-1.307,14.757-1.266,1.784.014,3.63.031,5.427-.017a37.564,37.564,0,0,0,10.2-1.564c3.507-1.125,6.047-2.8,7.554-4.975a9.248,9.248,0,0,0,1.437-6.827,19.916,19.916,0,0,0-2.615-6.906c-.628-1.088-1.327-2.182-2-3.242-2-3.125-4.056-6.357-4.61-9.84A12.245,12.245,0,0,1,158.3-.19h-.356a12.388,12.388,0,0,0-1.824,8.385c.558,3.523,2.632,6.772,4.641,9.915.672,1.057,1.371,2.148,2,3.235,2.189,3.784,4.175,9.2,1.191,13.521-3.639,5.263-12.524,6.278-17.494,6.416-1.793.048-3.634.034-5.414.017-4.988-.041-10.142-.086-14.867,1.283a27.021,27.021,0,0,0-8.5,4.261,46.513,46.513,0,0,0-6.688,6.086c-.853.913-1.7,1.859-2.514,2.772-3.019,3.372-6.143,6.862-10.191,9.562-3.753,2.5-8.257,4.3-12.612,6.038-.69.274-1.406.563-2.109.844a77.064,77.064,0,0,0-7.488,3.407,29.19,29.19,0,0,0-6.407,4.474,14.852,14.852,0,0,0-3.77,5.558h.308a15.11,15.11,0,0,1,3.7-5.407C73.67,76.581,79,74.252,83.7,72.351Zm7.985-.532.576-.264c5.647-2.607,10.626-5.057,14.366-8.646a44.312,44.312,0,0,0,5.128-6.271c2.483-3.455,5.054-7.03,9.281-9.232,3.973-2.069,8.965-2.669,13.368-3.2l17.27-2.076a64.677,64.677,0,0,0,6.737-1.06,19.4,19.4,0,0,0,6.06-2.336,11.4,11.4,0,0,0,5.348-8.141,17.312,17.312,0,0,0-1.525-9.627c-.655-1.441-1.45-2.875-2.224-4.261-1.679-3.023-3.414-6.148-3.731-9.452a12,12,0,0,1,1.9-7.445h-.356a13.433,13.433,0,0,0-1.424,3.2,11.3,11.3,0,0,0-.422,4.258c.316,3.345,2.065,6.491,3.753,9.531.769,1.383,1.564,2.817,2.215,4.247,2.667,5.877,2.549,13.565-3.726,17.5-3.6,2.257-8.618,2.861-12.652,3.345l-17.27,2.076c-4.434.532-9.461,1.136-13.491,3.235a19.647,19.647,0,0,0-5.344,4.168,53.2,53.2,0,0,0-4.034,5.143,43.645,43.645,0,0,1-5.1,6.237c-3.709,3.558-8.661,5.994-14.282,8.591l-.576.264c-5,2.306-10.164,4.686-14.115,8.066a18.476,18.476,0,0,0-4.7,5.9h.325a18.132,18.132,0,0,1,4.6-5.736C81.558,76.485,86.708,74.111,91.683,71.819Zm-9.316,7.973c3.876-2.824,8.767-4.7,13.491-6.512.738-.281,1.5-.576,2.246-.865,5.515-2.155,11.1-4.693,14.594-8.676a31.418,31.418,0,0,0,4.113-6.608c1.8-3.523,3.507-6.851,7.145-9.092,4.368-2.686,10.3-2.954,15.517-3,.9-.007,1.824-.01,2.711-.01,5.831-.014,11.856-.027,17.49-1.376a25.915,25.915,0,0,0,8.938-3.918,12.135,12.135,0,0,0,5.04-6.687c.976-3.908-.839-7.788-2.593-11.538-.439-.94-.9-1.914-1.3-2.868A23.143,23.143,0,0,1,167.94,5.265,17.527,17.527,0,0,1,169.988-.19h-.347a17.636,17.636,0,0,0-2,5.417,23.37,23.37,0,0,0,1.837,13.493c.4.957.857,1.932,1.3,2.875,1.74,3.722,3.542,7.568,2.58,11.411-1.151,4.6-6.552,8.694-13.768,10.423-5.59,1.338-11.593,1.352-17.4,1.365-.892,0-1.811,0-2.716.01a57.575,57.575,0,0,0-8.275.539,19.818,19.818,0,0,0-7.431,2.508,14.864,14.864,0,0,0-4.351,4.158,40.043,40.043,0,0,0-2.892,5.033,31.06,31.06,0,0,1-4.082,6.56c-3.454,3.939-9,6.46-14.475,8.6-.743.292-1.507.583-2.241.865-4.746,1.822-9.655,3.705-13.566,6.549a17.284,17.284,0,0,0-5.3,5.963h.347A17.019,17.019,0,0,1,82.367,79.792Zm19.885-6.724c.308-.12.615-.237.918-.357a60.417,60.417,0,0,0,7.558-3.41,19.239,19.239,0,0,0,5.955-4.813,23.134,23.134,0,0,0,2.72-4.961,24.84,24.84,0,0,1,2.448-4.59c2.58-3.554,7.33-6.323,13.377-7.8,5.5-1.341,11.417-1.516,16.993-1.5.589,0,1.191,0,1.771.007,4.786.027,9.734.055,14.4-.943a23.607,23.607,0,0,0,7.348-2.83,11.669,11.669,0,0,0,4.768-5.019c1.288-2.882.905-6.354-1.134-10.323-.769-1.492-1.7-2.957-2.6-4.374a47.436,47.436,0,0,1-2.988-5.174A20.684,20.684,0,0,1,173.569-.2h-.325a20.875,20.875,0,0,0,.259,17.257,47.548,47.548,0,0,0,3,5.2c.9,1.413,1.824,2.872,2.588,4.357,2.008,3.911,2.391,7.328,1.129,10.155-1.6,3.568-6.042,6.443-11.9,7.7-4.627.988-9.554.961-14.317.937-.58,0-1.182-.007-1.771-.007-5.6-.014-11.549.161-17.086,1.513a30.738,30.738,0,0,0-7.769,2.985,17.774,17.774,0,0,0-5.783,4.927,24.95,24.95,0,0,0-2.47,4.628,23.1,23.1,0,0,1-2.694,4.913c-3,3.86-8.481,6.223-13.386,8.134-.3.12-.611.237-.918.357-4.873,1.89-9.91,3.846-13.364,7.143a11.115,11.115,0,0,0-3.234,5.582h.316A10.954,10.954,0,0,1,89,80.142C92.4,76.89,97.409,74.948,102.252,73.068ZM50.8,70.975c6.174-4.584,14.146-7.428,21.858-10.176.76-.271,1.551-.552,2.32-.83a113.62,113.62,0,0,0,12.533-5.18,38.771,38.771,0,0,0,10.437-7.266,52.421,52.421,0,0,0,3.665-4.316c2.268-2.875,4.614-5.846,8.183-7.767,3.766-2.028,8.495-2.669,13.043-3.064.637-.055,1.283-.106,1.912-.158A53.013,53.013,0,0,0,136.436,30.4a17.415,17.415,0,0,0,5.809-3.05,8.229,8.229,0,0,0,3.072-4.748c.58-3.246-1.49-6.247-3.489-9.15-.686-.995-1.4-2.028-1.982-3.047a17.3,17.3,0,0,1-2.228-10.6h-.308a17.457,17.457,0,0,0,2.254,10.7c.593,1.026,1.305,2.062,2,3.06,1.978,2.868,4.021,5.836,3.454,9-.681,3.794-4.935,6.419-8.692,7.61a52.7,52.7,0,0,1-11.606,1.8c-.628.051-1.279.1-1.912.158-4.588.395-9.36,1.043-13.183,3.1-3.621,1.952-5.985,4.944-8.27,7.839a53.088,53.088,0,0,1-3.647,4.3c-5.805,5.918-14.84,9.49-22.86,12.375-.769.278-1.56.559-2.32.83-7.734,2.758-15.732,5.613-21.942,10.22a24.568,24.568,0,0,0-7.791,9.256,14.559,14.559,0,0,0-1.345,5.517h.277C41.889,79.751,46.279,74.33,50.8,70.975ZM51.4,66.5c6.381-3.719,13.715-6.45,20.8-9.092,4.017-1.5,8.169-3.043,12.111-4.755A38.842,38.842,0,0,0,94.64,46.63a38.04,38.04,0,0,0,5.458-6.515c2.588-3.606,5.032-7.009,9.378-9.02,3.678-1.7,8.081-2.01,12.34-2.312,1.666-.117,3.384-.24,5.045-.443a23.953,23.953,0,0,0,8.574-2.614c2.72-1.523,4.258-3.472,4.456-5.633.233-2.587-1.49-4.927-3.155-7.191-.347-.47-.7-.954-1.033-1.427A23.789,23.789,0,0,1,131.462-.19h-.316c.057.738.154,1.479.286,2.22a24.141,24.141,0,0,0,4,9.562c.33.477.69.964,1.037,1.434,1.644,2.23,3.344,4.539,3.116,7.054-.189,2.089-1.683,3.976-4.329,5.455a23.55,23.55,0,0,1-8.442,2.573c-1.648.2-3.366.323-5.023.443-4.293.305-8.732.621-12.471,2.343a17.644,17.644,0,0,0-5.454,4A47.181,47.181,0,0,0,99.83,40a38.028,38.028,0,0,1-5.423,6.474,38.6,38.6,0,0,1-10.239,5.97c-3.937,1.709-8.086,3.256-12.1,4.748-7.1,2.649-14.449,5.383-20.856,9.119a45.648,45.648,0,0,0-7.022,5.006,33.852,33.852,0,0,0-5.515,6.035,21.583,21.583,0,0,0-3.252,6.759c-.132.491-.237.981-.321,1.468H35.4C36.756,77.7,44.034,70.793,51.4,66.5ZM38.817,70.255c6.7-5.126,15.288-8.515,23.6-11.8,1.428-.563,2.9-1.146,4.346-1.726A106.791,106.791,0,0,0,81,49.972a37.993,37.993,0,0,0,11.136-9.366c.923-1.208,1.749-2.5,2.549-3.76,1.938-3.047,3.946-6.2,7.444-8.21,4.786-2.755,11.175-2.793,17.367-2.426l.505.031a32.789,32.789,0,0,0,7.695-.137,11.76,11.76,0,0,0,3.8-1.338,5.948,5.948,0,0,0,2.5-2.518,4.958,4.958,0,0,0,.167-3.523,16.893,16.893,0,0,0-1.525-3.445L124.206-.193h-.334l8.468,15.572c1.23,2.261,2.347,4.649,1.349,6.79-.98,2.107-3.779,3.294-6.073,3.7a32.354,32.354,0,0,1-7.6.13l-.505-.031a59.017,59.017,0,0,0-9.2.038,20.808,20.808,0,0,0-8.371,2.432c-3.56,2.048-5.581,5.225-7.537,8.3-.8,1.252-1.622,2.546-2.536,3.743-5.682,7.438-15.49,12.1-25.242,16.036-1.441.58-2.918,1.163-4.346,1.726C53.943,61.53,45.326,64.93,38.6,70.083a37.329,37.329,0,0,0-9.088,9.9,31.771,31.771,0,0,0-2.773,5.592h.312A35.172,35.172,0,0,1,38.817,70.255Zm.255-4.584a105.364,105.364,0,0,1,15.754-6.748c3.621-1.324,7.361-2.693,10.828-4.264a45.7,45.7,0,0,0,9.571-5.616c3.946-3.122,6.86-6.975,9.672-10.7,1.336-1.767,2.716-3.6,4.192-5.325C93.054,28.378,99.611,22.7,108.316,22a45.147,45.147,0,0,1,5.862.048,47.515,47.515,0,0,0,5.682.065,14.989,14.989,0,0,0,5.612-1.455,5.854,5.854,0,0,0,3.3-3.523c.54-2.086-.773-4.247-1.731-5.826l-6.987-11.5h-.338l7.049,11.61c1.217,2.007,2.188,3.818,1.705,5.675-.76,2.926-5.014,4.532-8.64,4.786a46.815,46.815,0,0,1-5.638-.065,45.338,45.338,0,0,0-5.915-.048,24.624,24.624,0,0,0-11.114,3.794,36.472,36.472,0,0,0-8.336,7.332c-1.481,1.733-2.865,3.565-4.2,5.335-2.8,3.712-5.7,7.548-9.624,10.653-5.642,4.463-13.1,7.191-20.311,9.833a105.347,105.347,0,0,0-15.8,6.772A40.968,40.968,0,0,0,25.564,77.439a32.864,32.864,0,0,0-4.17,8.141h.3C24.4,77.669,30.547,70.529,39.072,65.671ZM58.61,51.752c.91-.2,1.846-.391,2.755-.576,3.6-.731,7.321-1.486,10.389-3.173,5.278-2.906,7.616-7.87,9.879-12.673.163-.343.321-.683.483-1.022,2.228-4.693,5.634-10.323,12.208-12.193a33.3,33.3,0,0,1,8.371-.861c3.3-.065,6.724-.13,9.694-1.321a10.685,10.685,0,0,0,5.88-5.513,11.154,11.154,0,0,0,.65-7.452,20.8,20.8,0,0,0-3.74-7.16h-.36a20.776,20.776,0,0,1,3.8,7.208,10.661,10.661,0,0,1-6.372,12.7c-2.9,1.163-6.288,1.228-9.558,1.293a33.72,33.72,0,0,0-8.468.875c-6.693,1.9-10.138,7.592-12.392,12.337-.163.34-.321.679-.483,1.022-2.246,4.769-4.566,9.7-9.765,12.56-3.023,1.664-6.719,2.412-10.292,3.139-.91.185-1.846.374-2.76.576a65.662,65.662,0,0,0-16.295,5.949A59.769,59.769,0,0,0,28.9,66.937a48.382,48.382,0,0,0-9.36,12.025,39.434,39.434,0,0,0-2.856,6.618h.334C22.215,69.836,38.58,56.2,58.61,51.752Zm-9.066-.237c2.008-.672,4.118-1.3,6.157-1.9a108.132,108.132,0,0,0,10.375-3.458,28.2,28.2,0,0,0,8.67-5.253c2.936-2.745,4.671-6.141,6.35-9.424.523-1.022,1.063-2.079,1.63-3.1,3.067-5.506,6.816-8.827,11.461-10.148a33.275,33.275,0,0,1,5.058-.882,23.034,23.034,0,0,0,6.943-1.582,8.775,8.775,0,0,0,4.605-4.913,9.548,9.548,0,0,0,.1-6.326A16.654,16.654,0,0,0,108.312-.2h-.356A16.566,16.566,0,0,1,110.6,4.582a8.875,8.875,0,0,1-4.57,10.972A22.74,22.74,0,0,1,99.2,17.1a33.9,33.9,0,0,0-5.115.9,16.844,16.844,0,0,0-7.058,4.144,25.9,25.9,0,0,0-4.583,6.141c-.571,1.022-1.112,2.083-1.635,3.108-1.67,3.266-3.4,6.645-6.3,9.363-4.746,4.436-11.953,6.573-18.918,8.639-2.043.607-4.157,1.232-6.17,1.908a73.945,73.945,0,0,0-26.16,15.12A55.342,55.342,0,0,0,9.339,85.58h.325C16.028,70.594,30.973,57.736,49.544,51.516Zm-9.308.288c2.571-1.036,5.344-1.935,8.029-2.806a99.557,99.557,0,0,0,9.848-3.578,25.51,25.51,0,0,0,8.051-5.311c2.65-2.738,4.14-6.124,5.585-9.4,1.982-4.5,3.85-8.745,8.455-11.49,2.777-1.654,6.218-2.477,9.545-3.27,1.4-.333,2.848-.679,4.227-1.084a21.761,21.761,0,0,0,6.579-3.064c2.043-1.5,3.168-3.184,3.344-5.009a6.576,6.576,0,0,0-1.094-4.059A22.355,22.355,0,0,0,100.582-.2h-.369c1.942,2.24,3.63,4.409,3.384,6.971-.461,4.8-7.558,7.236-9.721,7.867-1.375.4-2.817.744-4.21,1.077-3.353.8-6.82,1.626-9.641,3.307a16.22,16.22,0,0,0-5.309,5.194,44.09,44.09,0,0,0-3.252,6.409c-1.433,3.259-2.918,6.628-5.537,9.335-4.3,4.443-11.153,6.666-17.776,8.814-2.689.871-5.471,1.774-8.051,2.813A62.729,62.729,0,0,0,15.966,69.38a115.277,115.277,0,0,0-11.311,16.2h.338A114.718,114.718,0,0,1,16.221,69.514,62.382,62.382,0,0,1,40.237,51.8Zm-10.621-.292c3.458-1.636,7.194-3,10.806-4.313,3.313-1.208,6.741-2.453,9.958-3.915a40.931,40.931,0,0,0,9.286-5.627A18.038,18.038,0,0,0,65.439,29.9a26.9,26.9,0,0,0,.725-2.686,11.975,11.975,0,0,1,2.364-5.575c2.193-2.46,5.84-3.383,9.707-4.361a37.047,37.047,0,0,0,6.93-2.237,12.888,12.888,0,0,0,5.41-4.762,9.244,9.244,0,0,0,1.411-6.268A9.554,9.554,0,0,0,90.2-.193h-.343A9.491,9.491,0,0,1,91.678,4.04c.633,4.22-2.052,8.56-6.675,10.8a36.677,36.677,0,0,1-6.864,2.213,46.02,46.02,0,0,0-5.511,1.636,11.167,11.167,0,0,0-4.355,2.817,12.107,12.107,0,0,0-2.413,5.671,26.009,26.009,0,0,1-.721,2.666c-2.2,6.337-9.329,10.7-14.919,13.239-3.2,1.455-6.622,2.7-9.931,3.9-3.621,1.317-7.361,2.679-10.837,4.323A50.967,50.967,0,0,0,9.55,67.658a37.716,37.716,0,0,0-7,17.923h.308C4.264,71.781,14.4,58.71,29.615,51.512Zm-1.3-4.738c2.285-.858,4.706-1.558,7.053-2.237,2.395-.693,4.869-1.41,7.211-2.3a29.2,29.2,0,0,0,6.5-3.335A13.289,13.289,0,0,0,53.5,34.046,17.709,17.709,0,0,0,54.809,29.5a14.645,14.645,0,0,1,1.762-5.328c2.087-3.249,6.442-5.074,10.652-6.841a54.074,54.074,0,0,0,6.288-2.954,12.433,12.433,0,0,0,4.561-4.148A8.108,8.108,0,0,0,79.211,5.8,11.432,11.432,0,0,0,78.1,1.309C77.862.8,77.594.3,77.3-.193h-.338a16.818,16.818,0,0,1,.844,1.585c1.472,3.173,1.468,6.275-.013,8.735-2.013,3.345-6.438,5.2-10.718,7-4.254,1.784-8.653,3.63-10.784,6.944a14.8,14.8,0,0,0-1.793,5.4,17.7,17.7,0,0,1-1.288,4.5c-1.982,4.052-6.948,6.621-10.766,8.066-2.325.878-4.794,1.6-7.181,2.285C32.916,45,30.49,45.7,28.192,46.562A45.472,45.472,0,0,0,6.013,64.24,46.493,46.493,0,0,0-.1,78.667v1.365A46.849,46.849,0,0,1,6.281,64.343,45.166,45.166,0,0,1,28.319,46.774ZM18.66,48.706A90.677,90.677,0,0,1,29.782,44.03c2.6-.961,5.291-1.956,7.835-3.084a37.587,37.587,0,0,0,8.626-5.115,15.73,15.73,0,0,0,5.273-7.14,25.659,25.659,0,0,0,.716-3.122c.492-2.659,1-5.41,3.6-7.043a15.236,15.236,0,0,1,5.089-1.65,26.592,26.592,0,0,0,3.467-.868,11.131,11.131,0,0,0,5.383-3.973A10.356,10.356,0,0,0,71.75,6.318,13.841,13.841,0,0,0,70.528.537q-.158-.36-.33-.731h-.325a13.924,13.924,0,0,1,1.569,6.5,10.532,10.532,0,0,1-7.181,9.476,26.421,26.421,0,0,1-3.419.854,15.67,15.67,0,0,0-5.2,1.695c-2.694,1.695-3.212,4.491-3.713,7.2a25.938,25.938,0,0,1-.708,3.1c-1.863,5.791-8.508,9.778-13.75,12.1-2.531,1.122-5.216,2.117-7.813,3.074a91.386,91.386,0,0,0-11.162,4.7,40.7,40.7,0,0,0-9.215,6.68,41.265,41.265,0,0,0-6.653,8.381,44.249,44.249,0,0,0-2.716,5.3v.744A41.205,41.205,0,0,1,18.66,48.706Zm-4.755,1.208c4.548-2.985,9.549-5.64,14.387-8.206,3.942-2.089,8.016-4.254,11.83-6.587,3.832-2.343,8.306-5.578,8.89-9.809A13.47,13.47,0,0,0,49,22.457a10,10,0,0,1,.171-3.668c.677-2.24,2.834-3.959,4.917-5.62a35.746,35.746,0,0,0,2.769-2.36,13.3,13.3,0,0,0,2.689-3.733,12.316,12.316,0,0,0,1.173-4.189A11.87,11.87,0,0,0,60.605-.2h-.294a12.233,12.233,0,0,1-3.691,10.855A35.96,35.96,0,0,1,53.873,13c-2.114,1.685-4.3,3.424-5,5.729a10.2,10.2,0,0,0-.18,3.736,13.412,13.412,0,0,1,.018,2.817c-.571,4.141-4.988,7.332-8.771,9.644-3.806,2.326-7.875,4.487-11.812,6.577-4.843,2.57-9.852,5.229-14.414,8.22A54.434,54.434,0,0,0,2.642,59.05,33.336,33.336,0,0,0-.1,62.614v.5Q4.275,56.25,13.905,49.913Zm-1.573-2.089c2.478-1.393,5.1-2.7,7.638-3.969A100.073,100.073,0,0,0,33.127,36.43a29.691,29.691,0,0,0,7.849-7.915,13.94,13.94,0,0,0,2.443-9.538c-.07-.5-.176-1.026-.277-1.53-.352-1.746-.712-3.551.242-5.112.831-1.355,2.421-2.2,4.1-3.088a15.6,15.6,0,0,0,3.48-2.24A6.679,6.679,0,0,0,52.774.753c-.062-.319-.141-.635-.233-.947h-.316a9.744,9.744,0,0,1,.242.981,6.48,6.48,0,0,1-1.74,6.066,15.431,15.431,0,0,1-3.415,2.2c-1.644.868-3.344,1.767-4.21,3.18-.993,1.626-.624,3.469-.268,5.253.1.5.2,1.019.272,1.52.809,5.788-2.909,12.073-10.2,17.25a99.606,99.606,0,0,1-13.113,7.4c-2.54,1.269-5.164,2.583-7.651,3.98a48.325,48.325,0,0,0-9.5,6.718A26.815,26.815,0,0,0-.1,57.324v.443C2.51,54.315,6.628,51.028,12.332,47.824ZM35.649,27.829A10.183,10.183,0,0,0,37.3,24.762a6.217,6.217,0,0,0,.149-3.287A12.392,12.392,0,0,0,36.176,18.5a11.044,11.044,0,0,1-1.323-3.266c-.562-3.513,2.659-6.666,5.5-9.445.127-.124.255-.247.378-.371A17.485,17.485,0,0,0,44.508.428c.1-.209.18-.419.255-.621h-.308A16.082,16.082,0,0,1,40.5,5.272c-.127.124-.25.247-.378.371-2.878,2.817-6.143,6.007-5.563,9.623a11.023,11.023,0,0,0,1.34,3.328,12.3,12.3,0,0,1,1.257,2.926c1.02,4.415-3.415,8.443-7.4,11.459A253.831,253.831,0,0,1-.1,52.411v.3A254.6,254.6,0,0,0,29.971,33.154,30,30,0,0,0,35.649,27.829ZM31.98,26.491a7.889,7.889,0,0,0,1.213-3.331,5.433,5.433,0,0,0-.686-3.372,12.466,12.466,0,0,0-2.048-2.4,13.485,13.485,0,0,1-1.885-2.144c-1.767-2.748-1.011-6.3,2.254-10.557.4-.528.835-1.067,1.252-1.585.861-1.077,1.736-2.168,2.487-3.294h-.347c-.729,1.081-1.569,2.131-2.4,3.167-.417.521-.848,1.06-1.252,1.588a16.509,16.509,0,0,0-2.892,5.321,6.455,6.455,0,0,0,.624,5.465,13.4,13.4,0,0,0,1.92,2.185,12.241,12.241,0,0,1,2.013,2.35,6.25,6.25,0,0,1-.523,6.5,22.127,22.127,0,0,1-5.4,5.294A140.979,140.979,0,0,1-.1,47.57v.278a141.384,141.384,0,0,0,26.626-16A22.21,22.21,0,0,0,31.98,26.491Zm-7.936,1.523c2.413-2.6,3.379-5.551,2.663-8.09a13.534,13.534,0,0,0-1.863-3.575,19.266,19.266,0,0,1-1.477-2.535c-1.314-2.916-.967-6.464.971-9.99a25.085,25.085,0,0,1,2.8-4.017h-.365a25.825,25.825,0,0,0-2.72,3.918c-1.969,3.582-2.316,7.191-.98,10.165a19.78,19.78,0,0,0,1.494,2.566,13.445,13.445,0,0,1,1.837,3.52c.7,2.474-.255,5.352-2.615,7.9a36.375,36.375,0,0,1-7.866,5.8L-.1,43.446v.305L16.12,33.861A36.907,36.907,0,0,0,24.043,28.015Zm-2.329-3.05c1.336-1.558,3.015-3.891,2.166-6.141a8.607,8.607,0,0,0-2.975-3.294,11.738,11.738,0,0,1-2.553-2.477c-1.538-2.33-.782-5.4,2.237-9.109.224-.274.457-.559.686-.834A35.877,35.877,0,0,0,23.8-.19H23.45a37.113,37.113,0,0,1-2.435,3.17c-.224.274-.461.556-.686.834-3.081,3.791-3.841,6.937-2.25,9.349A12.052,12.052,0,0,0,20.686,15.7a8.324,8.324,0,0,1,2.9,3.194c.809,2.155-.826,4.422-2.127,5.942A47.515,47.515,0,0,1-.1,38.609v.257a53.332,53.332,0,0,0,10.441-4.618A43.721,43.721,0,0,0,21.714,24.965Zm-4.926-.038a12.115,12.115,0,0,0,2.865-3.685,3.855,3.855,0,0,0-.18-3.99A10.023,10.023,0,0,0,16.63,14.9c-1.5-.971-2.914-1.887-3.032-3.29a4.443,4.443,0,0,1,1.134-2.734,6.056,6.056,0,0,0,1.182-2.395c.193-1.348-.633-2.772-2.457-4.23-.382-.309-.791-.607-1.187-.9a21.482,21.482,0,0,1-1.934-1.54h-.4a19.779,19.779,0,0,0,2.114,1.712c.391.288.8.587,1.178.892,1.753,1.4,2.553,2.762,2.369,4.038a5.861,5.861,0,0,1-1.147,2.309,4.64,4.64,0,0,0-1.169,2.861c.127,1.5,1.661,2.5,3.142,3.458A9.815,9.815,0,0,1,19.2,17.365a3.677,3.677,0,0,1,.163,3.8,11.946,11.946,0,0,1-2.808,3.609A45.334,45.334,0,0,1-.1,34.152v.264a49.527,49.527,0,0,0,7.115-2.875A42.68,42.68,0,0,0,16.788,24.927Zm-5.735-.83A9.649,9.649,0,0,0,13.8,20.7a3.218,3.218,0,0,0-.422-3.644,7.991,7.991,0,0,0-1.27-1.06,4.365,4.365,0,0,1-1.591-1.6,3.269,3.269,0,0,1,.439-2.625,8.739,8.739,0,0,0,.479-1.215C12.288,7.574,9.594,4.826,7.217,2.4a18.132,18.132,0,0,1-2.14-2.6H4.734a17.674,17.674,0,0,0,2.25,2.741c2.338,2.381,4.983,5.081,4.162,7.956a9.109,9.109,0,0,1-.47,1.187,3.467,3.467,0,0,0-.439,2.782,4.621,4.621,0,0,0,1.674,1.695,7.408,7.408,0,0,1,1.226,1.022c1.837,2.058-.092,4.916-2.3,6.742A33.718,33.718,0,0,1-.1,29.792v.264a37.078,37.078,0,0,0,4.047-1.561A32.208,32.208,0,0,0,11.053,24.1ZM7.5,22.354c1.27-2.906.58-6.121-.163-8.9A55.4,55.4,0,0,0,3.561,3.093C2.985,1.941,2.378.846,1.732-.193H1.4A49.322,49.322,0,0,1,7.032,13.5c.738,2.752,1.419,5.928.176,8.776A8.362,8.362,0,0,1-.1,26.9v.24A8.544,8.544,0,0,0,4.048,26,8.175,8.175,0,0,0,7.5,22.354ZM2.062,22.2a9.556,9.556,0,0,0,2.852-5.856A10.369,10.369,0,0,0,3.4,10.236,16.513,16.513,0,0,0-.1,6.1v.36c3.243,2.9,4.979,6.5,4.7,9.87A9.962,9.962,0,0,1-.1,23.589v.326A11.6,11.6,0,0,0,2.062,22.2ZM108.87,74.217a47.875,47.875,0,0,0,7.862-6.639,40.424,40.424,0,0,0,3.656-5.146,32.777,32.777,0,0,1,4.733-6.265c4.425-4.264,11.1-6.282,15.912-7.222a119.73,119.73,0,0,1,15.411-1.623c1.059-.065,2.153-.134,3.226-.206,4.843-.326,10.428-.817,15.42-2.532,5.392-1.849,9.338-4.982,10.832-8.587,1.23-2.971.967-6.481-.8-10.728-.589-1.417-1.3-2.83-1.982-4.2a46.278,46.278,0,0,1-2.663-6.018,21.331,21.331,0,0,1,.782-15.25h-.308a23.034,23.034,0,0,0-.879,2.422,21.239,21.239,0,0,0,.11,12.886,46.294,46.294,0,0,0,2.676,6.045c.681,1.362,1.389,2.772,1.973,4.186,1.749,4.2,2.008,7.658.8,10.581-1.468,3.544-5.352,6.621-10.665,8.443-4.948,1.7-10.5,2.185-15.324,2.511-1.072.072-2.166.141-3.226.206a119.431,119.431,0,0,0-15.46,1.63,42.919,42.919,0,0,0-8.837,2.662,24.359,24.359,0,0,0-7.242,4.642,32.943,32.943,0,0,0-4.772,6.309,40.578,40.578,0,0,1-3.634,5.115,47.8,47.8,0,0,1-7.818,6.6c-1.749,1.276-3.56,2.6-5.185,4.007a20.62,20.62,0,0,0-5.115,6.32,11.427,11.427,0,0,0-.51,1.2h.316a19.783,19.783,0,0,1,5.541-7.366C105.319,76.811,107.125,75.494,108.87,74.217Zm25.013-19.809c6.034-3.928,14.357-4.261,22.407-4.584.809-.031,1.644-.065,2.452-.1a91.845,91.845,0,0,0,10.345-.964,44.252,44.252,0,0,0,9.786-2.607,25.222,25.222,0,0,0,8.09-5.132,13.467,13.467,0,0,0,4.131-7.308c.65-4.007-1.077-7.942-2.747-11.747-1.551-3.534-3.155-7.188-2.861-10.893.338-4.275,3.015-7.946,6.719-11.263h-.4c-.365.329-.721.666-1.063,1.005-3.467,3.427-5.287,6.776-5.563,10.241-.3,3.753,1.314,7.431,2.874,10.985,1.661,3.781,3.375,7.688,2.733,11.641-.791,4.861-5.41,9.555-12.058,12.255-6.486,2.635-14.1,3.28-20,3.544-.809.038-1.644.069-2.452.1a103.314,103.314,0,0,0-12,.947,26.926,26.926,0,0,0-10.591,3.695c-3.516,2.288-5.818,5.589-7.853,8.5-5.12,7.328-10.371,14.852-13.974,22.853h.325c3.595-7.953,8.824-15.442,13.917-22.736C128.122,59.945,130.411,56.665,133.883,54.408Zm6.5,1.444c3.006-1.218,6.517-1.379,9.914-1.537.409-.017.831-.038,1.244-.058a115.447,115.447,0,0,0,19.353-2.631c6.71-1.5,11.68-3.318,15.644-5.709a24.078,24.078,0,0,0,5.946-4.961,14.074,14.074,0,0,0,3.182-6.251c.738-3.654-.36-7.342-1.419-10.907a47.66,47.66,0,0,1-1.4-5.513,23.562,23.562,0,0,1,5.1-18.478H197.6a26.928,26.928,0,0,0-3.01,4.879,22.731,22.731,0,0,0-2.057,13.634,47.736,47.736,0,0,0,1.411,5.537c1.055,3.544,2.144,7.2,1.415,10.814-.822,4.069-4.1,8.1-9.013,11.057C182.42,48.1,177.481,49.9,170.81,51.4a115.074,115.074,0,0,1-19.287,2.621c-.413.021-.835.041-1.239.058-3.428.158-6.974.322-10.037,1.564a15.375,15.375,0,0,0-4.526,2.885,30.688,30.688,0,0,0-3.441,3.76,85.989,85.989,0,0,0-9.448,14.639,78.527,78.527,0,0,0-3.762,8.652h.312a82.573,82.573,0,0,1,13.157-23.165C134.608,59.818,136.99,57.228,140.382,55.852Zm7.686,1.451c4.153-1.355,8.789-1.451,13.271-1.547,1.709-.038,3.476-.075,5.194-.182a54.411,54.411,0,0,0,12.441-2.2,39.589,39.589,0,0,0,10.881-5.091c6.7-4.584,10.613-11.143,10.472-17.545a32.481,32.481,0,0,0-1-6.368,42.263,42.263,0,0,1-.9-4.81C197.66,12.446,200.96,5.2,206.937-.2h-.4c-5.919,5.428-9.176,12.67-8.411,19.782a43.516,43.516,0,0,0,.9,4.834,31.863,31.863,0,0,1,1,6.33c.136,6.333-3.74,12.821-10.367,17.36-6,4.107-14.216,6.673-23.141,7.225-1.709.106-3.472.144-5.177.178-4.509.1-9.176.2-13.381,1.568a23.22,23.22,0,0,0-8.213,4.786,35.809,35.809,0,0,0-5.818,6.8,58.26,58.26,0,0,0-6.117,11.63,53.864,53.864,0,0,0-1.736,5.28h.321a56.932,56.932,0,0,1,7.8-16.8C138.317,62.69,142.725,59.046,148.068,57.3Zm16.782,2.34c1.806-.1,3.656-.1,5.445-.093A55.6,55.6,0,0,0,179,59.122a28.726,28.726,0,0,0,5.928-1.6,33.521,33.521,0,0,0,5.309-2.645,48.553,48.553,0,0,0,8.894-7.167c2.663-2.652,5.515-5.863,6.442-9.541a21.393,21.393,0,0,0-.022-7.983c-.123-.971-.255-1.976-.33-2.957C204.449,17.139,209.367,7.039,218.3-.193h-.413A38.162,38.162,0,0,0,209.121,10a29.763,29.763,0,0,0-4.206,17.243c.075.988.207,1.993.33,2.968a21.288,21.288,0,0,1,.026,7.911c-.918,3.63-3.744,6.807-6.385,9.438-6.579,6.556-13.1,10.262-19.942,11.325a55.148,55.148,0,0,1-8.644.422c-1.793-.007-3.652-.01-5.471.093-9.883.573-19.34,4.6-25.3,10.78a24.115,24.115,0,0,0-6.97,15.394h.308a23.906,23.906,0,0,1,6.908-15.25C145.682,64.2,155.056,60.209,164.851,59.643ZM142.29,76.585c3.612-4.642,10.476-7.548,21.594-9.15,1.389-.2,2.812-.388,4.192-.566,6.992-.913,14.225-1.859,20.118-4.968,4.342-2.288,7.589-5.551,10.731-8.707L211.5,40.568c1.455-1.462,3.1-3.115,3.652-5.071s-.053-3.976-.642-5.925c-.114-.374-.233-.765-.338-1.142-2.821-10.083,1.477-21.045,10.367-28.623h-.413a34.294,34.294,0,0,0-7.132,8.443c-3.845,6.488-4.953,13.672-3.12,20.228.105.381.224.772.338,1.146.58,1.921,1.182,3.908.642,5.819s-2.162,3.534-3.595,4.975L198.684,53.042c-3.125,3.139-6.359,6.388-10.661,8.656-5.836,3.077-13.034,4.017-19.995,4.93-1.38.182-2.808.367-4.2.566a59.2,59.2,0,0,0-12.366,2.94,27.657,27.657,0,0,0-5.326,2.631,16.7,16.7,0,0,0-4.109,3.688,13.028,13.028,0,0,0-2.747,7.819c-.013.429,0,.861.022,1.3h.3A13.14,13.14,0,0,1,142.29,76.585ZM159.05,74.19a81.622,81.622,0,0,1,11.456-2.134c1.072-.148,2.184-.3,3.269-.463,4.6-.686,9.879-1.705,14.163-4.062,4.5-2.47,7.537-6.179,10.476-9.767,2.694-3.287,5.48-6.687,9.378-9.129a51.181,51.181,0,0,1,5.853-2.981c3.6-1.647,7.326-3.352,9.518-6.155,2.914-3.726,2.364-8.289,1.833-12.7-.1-.81-.2-1.647-.272-2.456A35.222,35.222,0,0,1,231.959-.193h-.4a36.865,36.865,0,0,0-3.16,4.975,36.032,36.032,0,0,0-3.436,9.606,34.31,34.31,0,0,0-.545,9.97c.075.813.176,1.65.272,2.46.527,4.374,1.072,8.9-1.789,12.553-2.153,2.751-5.84,4.439-9.413,6.073a51.861,51.861,0,0,0-5.893,3c-3.937,2.467-6.737,5.884-9.444,9.184-2.922,3.568-5.946,7.256-10.393,9.7-4.241,2.33-9.479,3.342-14.045,4.021-1.085.161-2.193.316-3.265.463A81.867,81.867,0,0,0,158.94,73.96a27.92,27.92,0,0,0-6.71,2.848,14.482,14.482,0,0,0-4.843,4.491,8.339,8.339,0,0,0-1.318,4.275h.29a8.16,8.16,0,0,1,1.305-4.168C149.642,78.3,153.685,75.741,159.05,74.19Zm11.483,3.63c1.055-.11,2.14-.206,3.186-.3a50.912,50.912,0,0,0,11.5-1.894,26.475,26.475,0,0,0,9.048-5.266,71.639,71.639,0,0,0,7-7.318,57.142,57.142,0,0,1,9.523-9.342c1.507-1.081,3.173-2.058,4.786-3,1.6-.937,3.247-1.908,4.75-2.978a28.574,28.574,0,0,0,5.73-5.4,27.788,27.788,0,0,0,3.823-6.364,29.543,29.543,0,0,0,2.268-14.042c-.132-1.6-.378-3.225-.62-4.8-.523-3.434-1.068-6.982-.4-10.437A19.886,19.886,0,0,1,234.007-.2h-.352a19.759,19.759,0,0,0-2.843,6.844c-.668,3.486-.123,7.05.4,10.5.242,1.568.488,3.191.615,4.786a28.274,28.274,0,0,1-11.72,25.611c-1.49,1.064-3.138,2.028-4.728,2.961-1.617.95-3.291,1.932-4.808,3.019A57.126,57.126,0,0,0,201,62.909c-4.539,5.218-8.828,10.148-15.917,12.5a50.7,50.7,0,0,1-11.408,1.877c-1.05.093-2.136.189-3.195.3a41.811,41.811,0,0,0-7.374,1.331,17.266,17.266,0,0,0-6.275,3.077,8.389,8.389,0,0,0-2.575,3.589h.316a8.145,8.145,0,0,1,2.478-3.421C160.742,79.147,166.512,78.242,170.533,77.82Zm-1.375,3.746a36.026,36.026,0,0,1,7.479-.494c1.516,0,3.08.01,4.61-.1a28.183,28.183,0,0,0,11.065-3.146,21,21,0,0,0,7.84-6.858,33.3,33.3,0,0,0,1.7-3.029,21.685,21.685,0,0,1,2.887-4.594c2.834-3.208,7.242-4.93,11.913-6.755a46.983,46.983,0,0,0,9.479-4.529,19.577,19.577,0,0,0,6.31-7.17,24.156,24.156,0,0,0,2.527-8.635,62.388,62.388,0,0,0-.3-12.159c-.158-1.777-.325-3.613-.417-5.417-.255-5.009-.07-11.479,3.656-17.085a17.1,17.1,0,0,1,1.371-1.787H238.9a17.618,17.618,0,0,0-1.27,1.678,21.728,21.728,0,0,0-3.261,8.368,38.8,38.8,0,0,0-.431,8.841c.092,1.808.259,3.647.417,5.424a62.049,62.049,0,0,1,.3,12.124c-.716,6.7-3.819,12.255-8.736,15.644a46.72,46.72,0,0,1-9.413,4.494,68.809,68.809,0,0,0-6.649,2.865,18.212,18.212,0,0,0-5.379,3.969,21.785,21.785,0,0,0-2.918,4.642,33.471,33.471,0,0,1-1.688,3.009C196.32,76.3,189,80.177,181.212,80.739c-1.512.11-3.072.1-4.579.1a36.477,36.477,0,0,0-7.563.5,11.268,11.268,0,0,0-5.247,2.6,5.919,5.919,0,0,0-1.27,1.643h.334C163.9,83.693,166.446,82.139,169.157,81.566Zm27.022.491c3.34-.851,5.691-2.155,7.189-3.983a13.451,13.451,0,0,0,2.276-5.136,16.758,16.758,0,0,1,1.551-4.1c1.582-2.679,4.715-4.9,9.852-6.978,1.116-.453,2.276-.885,3.4-1.3a49.426,49.426,0,0,0,8.569-3.829,21.6,21.6,0,0,0,7.378-7.558,25.146,25.146,0,0,0,3.164-9.356c.686-5.03.127-10.165-.417-15.13-.145-1.338-.3-2.721-.422-4.076-.54-5.911-.681-12.78,2.373-18.924.316-.642.668-1.266,1.042-1.877H241.8q-.541.89-.989,1.791c-3.076,6.186-2.936,13.089-2.395,19.027.123,1.359.277,2.741.422,4.079.541,4.954,1.1,10.076.417,15.085-.993,7.277-4.7,13.226-10.428,16.753a49.1,49.1,0,0,1-8.512,3.8c-1.125.419-2.285.854-3.41,1.307-5.2,2.107-8.376,4.361-9.993,7.091a17.191,17.191,0,0,0-1.573,4.144,13.242,13.242,0,0,1-2.237,5.06c-3.2,3.911-10.037,4.7-16.185,5.129a48.19,48.19,0,0,0-9.215,1.362,18.953,18.953,0,0,0-3.107,1.142h.62c3.313-1.458,7.633-1.98,11.729-2.264A53.962,53.962,0,0,0,196.179,82.057Zm10.252-1.149a17.565,17.565,0,0,0,3.634-4.8c.461-.916.835-1.877,1.2-2.806a16.73,16.73,0,0,1,2.865-5.3c2.7-3.029,7.1-4.343,11.746-5.733a46.02,46.02,0,0,0,8.543-3.17,18.368,18.368,0,0,0,8.147-8.742,25.105,25.105,0,0,0,2.079-11.123,76.572,76.572,0,0,0-1.112-9.63,58.573,58.573,0,0,1-1.072-12.485,31.6,31.6,0,0,1,6.8-17.3h-.334c-.1.127-.193.25-.286.377A31.642,31.642,0,0,0,242.154,17.1a58.331,58.331,0,0,0,1.072,12.526,77.026,77.026,0,0,1,1.112,9.606c.127,4.206-.606,14.547-10.094,19.662a45.688,45.688,0,0,1-8.477,3.143,59.72,59.72,0,0,0-6.622,2.261,14.8,14.8,0,0,0-5.269,3.561,16.9,16.9,0,0,0-2.9,5.369c-.36.926-.734,1.88-1.191,2.789-2.079,4.134-6.148,7.513-11.118,9.562h.584q.969-.422,1.89-.909A23.944,23.944,0,0,0,206.431,80.907Zm7.229-.075a20.837,20.837,0,0,0,1.815-4.515,18.119,18.119,0,0,1,2.131-5c2.773-4.069,8.134-5.976,13.812-7.994,3.968-1.41,8.068-2.868,11.223-5.136a17.681,17.681,0,0,0,6.623-9.239,26.463,26.463,0,0,0,.874-10.948c-.308-2.734-.883-5.5-1.441-8.172-.91-4.354-1.85-8.858-1.626-13.325a28.817,28.817,0,0,1,6.767-16.7H253.5c-.312.384-.611.775-.905,1.17A28.614,28.614,0,0,0,246.764,16.5c-.22,4.491.721,9.006,1.63,13.373.558,2.669,1.134,5.428,1.437,8.155.567,5.071.36,14.409-7.4,19.988-3.12,2.244-7.2,3.692-11.14,5.095a65.874,65.874,0,0,0-8.007,3.239,15.534,15.534,0,0,0-5.946,4.861,18.347,18.347,0,0,0-2.158,5.05,20.647,20.647,0,0,1-1.793,4.47,15.932,15.932,0,0,1-4.869,4.848H209A15.7,15.7,0,0,0,213.66,80.832ZM229,67.767a32.827,32.827,0,0,1,6.895-3.314c1.094-.425,2.228-.868,3.309-1.348,10.718-4.765,17.516-14.43,16.919-24.046a42.463,42.463,0,0,0-2.408-10.251,47.541,47.541,0,0,1-2.316-9.181c-.782-7.013,2.07-14.159,7.44-19.82h-.391a30.926,30.926,0,0,0-2.852,3.52,26.513,26.513,0,0,0-3.779,7.911,21.891,21.891,0,0,0-.725,8.412,47.422,47.422,0,0,0,2.325,9.219,42.021,42.021,0,0,1,2.4,10.2c.589,9.527-6.148,19.1-16.765,23.824-1.072.477-2.2.916-3.291,1.341a33.044,33.044,0,0,0-6.961,3.352c-3.472,2.436-5.326,5.976-6.965,9.1l-4.658,8.886h.334l4.61-8.8C223.737,73.682,225.578,70.169,229,67.767Zm2.681,4.024a41.906,41.906,0,0,1,7.1-3.867c1.094-.511,2.228-1.04,3.309-1.592,13.966-7.15,22.126-20.66,20.3-33.618a57.528,57.528,0,0,0-1.885-7.877,50.607,50.607,0,0,1-2.008-8.917A25.518,25.518,0,0,1,262.54-.193h-.321q-.422.674-.8,1.369a25.41,25.41,0,0,0-3.234,14.763,50.522,50.522,0,0,0,2.013,8.951,57.506,57.506,0,0,1,1.881,7.85c1.815,12.872-6.288,26.294-20.162,33.392-1.077.552-2.206,1.077-3.3,1.585a42.494,42.494,0,0,0-7.15,3.9,15.656,15.656,0,0,0-4.179,4.525,14,14,0,0,0-1.916,5.39,13.1,13.1,0,0,0,.07,4.041h.3A14.125,14.125,0,0,1,231.678,71.792Zm3.089,1.259c2.593-2.148,5.968-3.64,9.233-5.084a50.357,50.357,0,0,0,7.831-4.017,25.447,25.447,0,0,0,6.57-6.584,52.9,52.9,0,0,0,4.368-7.75c2.035-4.234,4.241-9.174,4.623-14.248.374-4.937-.967-9.87-2.263-14.643-.677-2.494-1.375-5.071-1.828-7.62-.492-2.81-1-8.289,1.213-13.3H264.2a18.513,18.513,0,0,0-.708,1.9A24.578,24.578,0,0,0,263,13.135c.448,2.559,1.151,5.139,1.828,7.637,1.292,4.755,2.628,9.671,2.254,14.577-.382,5.04-2.575,9.96-4.605,14.176C260.1,54.47,257.1,60.051,251.62,63.76a50.225,50.225,0,0,1-7.783,3.99c-3.283,1.451-6.68,2.954-9.307,5.129a14.121,14.121,0,0,0-3.608,4.463,12.893,12.893,0,0,0-1.406,5.177,12.613,12.613,0,0,0,.2,3.05h.3A13.039,13.039,0,0,1,234.767,73.051Zm.286,2.885c1.7-1.523,4.166-2.364,6.552-3.177.589-.2,1.2-.408,1.78-.621a39.985,39.985,0,0,0,10.85-6.014,41.1,41.1,0,0,0,8.064-8.347c3.85-5.318,6.574-11.579,8.574-19.7,1.02-4.148,1.925-9.023.879-13.733a38.177,38.177,0,0,0-2.421-6.735A47.444,47.444,0,0,1,267.22,12.1a21.768,21.768,0,0,1,.158-12.3h-.343c0,.01,0,.021-.009.031a21.932,21.932,0,0,0-.105,12.32,46.382,46.382,0,0,0,2.118,5.53,38.352,38.352,0,0,1,2.413,6.7c1.037,4.673.136,9.52-.879,13.648-2,8.093-4.707,14.33-8.538,19.628a40.2,40.2,0,0,1-18.778,14.262c-.58.213-1.187.419-1.775.618-2.417.823-4.917,1.674-6.662,3.239a7.193,7.193,0,0,0-2.29,4.059,8.791,8.791,0,0,0,.391,4.515,12.788,12.788,0,0,0,.505,1.225h.33a12.737,12.737,0,0,1-.541-1.29A7.61,7.61,0,0,1,235.053,75.936Zm9.132.206a50.874,50.874,0,0,1,5.7-2.751c1.578-.683,3.2-1.389,4.72-2.2A37.167,37.167,0,0,0,267.479,59.2a55.356,55.356,0,0,0,6.161-11.476,52.264,52.264,0,0,0,3.155-12.2,49.922,49.922,0,0,0-2.966-24.661c-.369-.95-.773-1.914-1.169-2.844a36.726,36.726,0,0,1-2.733-8.213h-.312A36.758,36.758,0,0,0,272.366,8.1c.391.93.8,1.89,1.165,2.837,6.2,15.957,3.9,33.509-6.324,48.151a36.918,36.918,0,0,1-12.779,11.9c-1.5.8-3.124,1.506-4.693,2.185A51.667,51.667,0,0,0,244,75.946a15.086,15.086,0,0,0-4.206,3.554,6.552,6.552,0,0,0-1.578,4.532,5.718,5.718,0,0,0,.343,1.54h.316a5.709,5.709,0,0,1-.352-1.554C238.225,80.111,242.382,77.209,244.184,76.142Zm.549,7.778c.237-3.527,4.408-5.963,8.095-8.114l.563-.329c11.869-6.958,20.834-17.1,25.246-28.561a48,48,0,0,0,3.208-17.387,50.684,50.684,0,0,0-3.164-17.418c-.352-.95-.734-1.914-1.1-2.844-1.222-3.06-2.483-6.227-2.72-9.459h-.308v.01c.237,3.263,1.507,6.443,2.733,9.52.369.93.756,1.89,1.1,2.837a49.211,49.211,0,0,1-.04,34.672c-4.394,11.411-13.32,21.511-25.136,28.438-.185.11-.374.22-.562.329-3.735,2.182-7.972,4.656-8.213,8.292a4.942,4.942,0,0,0,.18,1.671h.321A4.592,4.592,0,0,1,244.734,83.92Zm5.858.57c.123-2.717,3.037-4.8,5.6-6.632a95.528,95.528,0,0,0,15.315-13.486,66.186,66.186,0,0,0,10.81-15.857c5.616-11.823,6.306-24.4,1.947-35.423-.527-1.335-1.138-2.673-1.727-3.966A41.23,41.23,0,0,1,279.555,1.2c-.105-.47-.189-.937-.246-1.4H279c.062.477.145.957.255,1.438a41.363,41.363,0,0,0,3,7.959c.589,1.29,1.2,2.628,1.723,3.956,4.337,10.972,3.647,23.5-1.942,35.269-5.005,10.539-14.01,20.653-26.046,29.251-2.61,1.866-5.572,3.983-5.7,6.8a4.188,4.188,0,0,0,.092,1.1h.316A4.071,4.071,0,0,1,250.591,84.489Zm13.091-4.264c1.507-5.009,5.621-9.243,9.6-13.339,1.2-1.239,2.443-2.515,3.595-3.794a56.144,56.144,0,0,0,10.4-16.485,48.233,48.233,0,0,0,3.608-18.159,48.249,48.249,0,0,0-3.63-18.159A54.7,54.7,0,0,0,281.59-.193h-.352a50.539,50.539,0,0,1,9.347,28.633c.009,12.238-4.948,24.493-13.952,34.51-1.147,1.276-2.386,2.553-3.59,3.788-4,4.117-8.139,8.375-9.659,13.432a7.493,7.493,0,0,0,.088,5.407h.33A7.237,7.237,0,0,1,263.682,80.225Zm8.227-6.011c1.446-2.889,3.841-5.465,6.157-7.956.312-.336.637-.683.949-1.026a75.09,75.09,0,0,0,12.9-18.314,39.812,39.812,0,0,0,3.265-9.96,29.24,29.24,0,0,0,.053-10.234,57.015,57.015,0,0,0-3.015-9.816c-.461-1.235-.94-2.511-1.371-3.77C289.562,9.4,288.23,4.534,289.175-.2h-.312a19.016,19.016,0,0,0-.088,6.491A37.6,37.6,0,0,0,290.55,13.2c.435,1.263.914,2.542,1.375,3.777a56.811,56.811,0,0,1,3.006,9.781c2.052,11.569-3.384,24.469-16.163,38.336-.316.343-.637.69-.949,1.022-2.329,2.5-4.737,5.088-6.2,8.007a11.764,11.764,0,0,0-1.314,5.266,8.178,8.178,0,0,0,1.718,5.081,7.574,7.574,0,0,0,1.059,1.1h.422a7.313,7.313,0,0,1-1.217-1.225C270.213,81.676,270.072,77.888,271.909,74.214Zm4.223.9c.286-3.06,2.769-5.657,5.172-8.169.119-.124.237-.247.352-.371a88.762,88.762,0,0,0,9.571-11.8,57.441,57.441,0,0,0,6.57-12.941A40.748,40.748,0,0,0,300.13,28a33.958,33.958,0,0,0-2.984-13.689c-.4-.889-.853-1.787-1.292-2.655-1.27-2.522-2.584-5.132-2.821-7.853a11.39,11.39,0,0,1,.391-4h-.312a11.472,11.472,0,0,0-.387,4.011c.237,2.758,1.56,5.386,2.839,7.925.435.865.888,1.76,1.288,2.645,3.7,8.186,3.924,17.909.642,27.385-2.812,8.117-8.226,16.413-16.088,24.657-.119.124-.233.247-.352.371-2.426,2.539-4.939,5.163-5.229,8.3a7.676,7.676,0,0,0,1.991,5.592,15.86,15.86,0,0,0,5.563,4.1c.628.288,1.279.549,1.942.786h.76a24.418,24.418,0,0,1-2.549-.995C278.707,82.376,275.8,78.657,276.132,75.113Zm15.539,8c-4.412-.827-9.7-2.227-11.465-5.719-1.033-2.048-.624-4.638,1.129-7.109a29.743,29.743,0,0,1,4.61-4.731c.422-.377.861-.765,1.283-1.153a50.6,50.6,0,0,0,15.126-24.537,42.991,42.991,0,0,0-1.7-27.2c-.246-.6-.51-1.211-.76-1.8-1.121-2.6-2.281-5.294-2.259-8.049A10.549,10.549,0,0,1,298.118-.2h-.312a10.678,10.678,0,0,0-.479,3.012c-.022,2.8,1.143,5.506,2.272,8.128.255.59.519,1.2.76,1.8,7.084,17.408,1.837,37.626-13.372,51.507-.422.384-.861.772-1.283,1.149a29.984,29.984,0,0,0-4.645,4.772c-1.8,2.532-2.215,5.2-1.147,7.311a9,9,0,0,0,4.772,3.932,32.7,32.7,0,0,0,6.908,1.935l.158.031a40.212,40.212,0,0,1,8.385,2.2h.615a37.68,37.68,0,0,0-8.93-2.429Zm11.962-.175c-1.784-.271-3.625-.552-5.339-.926a20,20,0,0,1-8.393-3.63c-2.373-1.938-3.52-4.57-2.993-6.872.659-2.861,3.551-4.93,6.35-6.927a42.115,42.115,0,0,0,3.524-2.707,18.8,18.8,0,0,0,4.452-6.035,27.933,27.933,0,0,0,2.127-6.851c.352-1.877.58-3.8.8-5.657a58.661,58.661,0,0,1,1.375-8.224c.334-1.252.756-2.518,1.169-3.743a29.461,29.461,0,0,0,1.846-7.778c.193-4.072-1.375-8.052-2.892-11.9-.69-1.75-1.4-3.558-1.942-5.352a20.049,20.049,0,0,1-.831-6.525h-.312a19.44,19.44,0,0,0,.844,6.58c.541,1.8,1.257,3.616,1.947,5.369,1.507,3.829,3.067,7.788,2.878,11.823a29.072,29.072,0,0,1-1.837,7.726c-.413,1.225-.835,2.494-1.169,3.753a59.207,59.207,0,0,0-1.38,8.251c-.22,1.856-.448,3.774-.8,5.647-1.05,5.623-3.177,9.8-6.5,12.763a42.349,42.349,0,0,1-3.5,2.69c-2.834,2.024-5.77,4.12-6.447,7.061a5.918,5.918,0,0,0,.461,3.8,9.3,9.3,0,0,0,2.61,3.28,20.263,20.263,0,0,0,8.534,3.695c1.727.377,3.573.659,5.361.933,3.524.539,7.132,1.091,10.046,2.4h.6a18.578,18.578,0,0,0-2.9-1.112A57.055,57.055,0,0,0,303.633,82.942Zm-1.336-3.6-.312-.048c-3.085-.463-6.579-.988-8.332-3.005-1.731-1.993-1.033-4.628.2-6.429a23.134,23.134,0,0,1,3.792-3.942c.532-.473,1.085-.964,1.6-1.462A25.144,25.144,0,0,0,307.315,48.4c.114-1.479.079-3,.048-4.457a23.785,23.785,0,0,1,.743-8.076,27.48,27.48,0,0,1,3.2-5.987c1.507-2.336,3.063-4.752,3.564-7.376.883-4.618-1.551-9.1-3.907-13.435-.237-.439-.488-.9-.725-1.341A25.158,25.158,0,0,1,307.3-.193H307c.026.175.053.35.088.528a25.8,25.8,0,0,0,2.874,7.486c.237.446.483.9.725,1.341,2.338,4.3,4.755,8.755,3.885,13.308-.492,2.587-2.039,4.985-3.538,7.3a27.588,27.588,0,0,0-3.226,6.035,23.957,23.957,0,0,0-.751,8.138,44.04,44.04,0,0,1-.048,4.439,24.919,24.919,0,0,1-8,15.919c-.519.491-1.068.981-1.6,1.455a23.228,23.228,0,0,0-3.836,3.99,6.944,6.944,0,0,0-1.252,3.372,4.446,4.446,0,0,0,1.072,3.3c1.824,2.1,5.388,2.635,8.53,3.1l.312.048a83.032,83.032,0,0,1,20.9,6h.628a79.108,79.108,0,0,0-8.042-3.084A83.755,83.755,0,0,0,302.3,79.343Zm17.718-62.784c-.246,3.167-2.215,6.062-4.118,8.862-1.591,2.343-3.239,4.765-3.92,7.373a21.651,21.651,0,0,0-.387,6.244c.026.714.053,1.451.053,2.175,0,8.323-3.5,16.588-9.857,23.268l-.51.532c-1.8,1.87-3.665,3.8-3.608,6.107a5.224,5.224,0,0,0,2.03,3.74,12.4,12.4,0,0,0,4.474,2.371,39.237,39.237,0,0,0,7.106,1.215c1.09.117,2.219.24,3.313.4a39.074,39.074,0,0,1,14.888,5.4V83.93a35.6,35.6,0,0,0-3.955-2.113,40.184,40.184,0,0,0-10.876-3.208c-1.1-.161-2.237-.285-3.331-.4a38.484,38.484,0,0,1-7.04-1.2c-3.089-.937-6.24-3.122-6.311-5.891-.057-2.22,1.775-4.12,3.546-5.956.171-.178.343-.353.51-.532,6.4-6.721,9.923-15.037,9.918-23.412,0-.727-.026-1.465-.053-2.182a21.385,21.385,0,0,1,.378-6.189c.672-2.577,2.307-4.982,3.889-7.311,1.92-2.824,3.9-5.74,4.153-8.961a11.969,11.969,0,0,0-1.551-6.436A42.6,42.6,0,0,0,314.8,4.184L311.516-.193h-.356l3.388,4.5C317.141,7.752,320.367,12.037,320.015,16.559Zm5.752-5.6c.5,5.8-1.942,11.606-4.478,17.055-.163.347-.325.693-.488,1.043-2.4,5.132-4.887,10.443-5.133,15.953-.062,1.338.009,2.717.075,4.052.167,3.376.338,6.868-1.556,9.888-1.472,2.343-4.039,4.134-6.521,5.867-1.274.892-2.6,1.811-3.762,2.8-1.261,1.067-2.61,2.662-1.89,4.182.734,1.547,3.063,2.052,5.471,2.367a115.031,115.031,0,0,1,22.008,5.081v-.261a115.365,115.365,0,0,0-21.959-5.057c-2.316-.3-4.557-.779-5.234-2.213-.664-1.407.628-2.916,1.828-3.935,1.156-.981,2.47-1.9,3.744-2.786,2.5-1.75,5.1-3.554,6.6-5.942,1.929-3.074,1.758-6.6,1.591-10-.066-1.331-.132-2.707-.075-4.035.246-5.472,2.72-10.762,5.115-15.878.163-.347.325-.7.488-1.043a63.66,63.66,0,0,0,3.4-8.44,23.105,23.105,0,0,0,1.1-8.714,16.04,16.04,0,0,0-3.388-8.45A16.433,16.433,0,0,0,320.024-.2h-.435A16.155,16.155,0,0,1,325.768,10.957ZM327.389,21.1c-.813,2.669-1.846,5.355-2.843,7.953-1.925,5.009-3.915,10.189-4.416,15.487-.145,1.52-.167,3.071-.189,4.573a28.959,28.959,0,0,1-1.068,8.934c-.756,2.24-2.782,3.863-4.926,5.582-1.855,1.486-3.771,3.023-4.759,4.985a1.6,1.6,0,0,0,.207,1.832,7.8,7.8,0,0,0,3.59,1.986,22.548,22.548,0,0,0,4.663.9,46.325,46.325,0,0,0,5.256.014,42.68,42.68,0,0,1,5.581.045c.334.031.668.075,1.006.134v-.247c-.321-.051-.646-.093-.971-.124a42.913,42.913,0,0,0-5.634-.048,45.546,45.546,0,0,1-5.212-.014c-2.413-.189-6.724-1.112-8.02-2.769a1.425,1.425,0,0,1-.18-1.619c.962-1.918,2.861-3.438,4.693-4.906,2.079-1.664,4.223-3.386,5-5.688a29.132,29.132,0,0,0,1.081-8.992c.022-1.5.044-3.05.189-4.56.5-5.27,2.483-10.437,4.4-15.435,1-2.6,2.035-5.29,2.848-7.966a32.612,32.612,0,0,0,1.551-12.142A19.139,19.139,0,0,0,326.106-.2h-.347C330.351,6.534,329.257,14.964,327.389,21.1Zm-1.582,18.821c-.105,1.036-.2,2.093-.286,3.115-.453,5.2-.918,10.577-3.467,15.428a23.308,23.308,0,0,1-1.982,2.913,18.475,18.475,0,0,0-2.558,4.055,2.5,2.5,0,0,0,.971,3.355,7.328,7.328,0,0,0,4.047.992,31.715,31.715,0,0,0,4.623-.48c.773-.12,1.564-.24,2.338-.329v-.244c-.8.093-1.6.216-2.4.336-3.054.47-6.214.954-8.411-.463-2.474-1.592-.374-4.395,1.657-7.105a23.722,23.722,0,0,0,2-2.944c2.566-4.885,3.037-10.282,3.494-15.5.088-1.022.18-2.079.286-3.112.422-4.1,1.191-8.574,3.375-12.574v-.59a23.319,23.319,0,0,0-1.727,3.729A38.869,38.869,0,0,0,325.807,39.923Zm-1.824,24.9a2.156,2.156,0,0,0,1.248.274,22.305,22.305,0,0,0,3.41-.439c.281-.051.567-.1.848-.148v-.247l-.914.158c-1.859.329-3.784.669-4.381.226a.521.521,0,0,1-.163-.59,93.439,93.439,0,0,1,5.458-16.684v-.724a92.966,92.966,0,0,0-5.761,17.367A.729.729,0,0,0,323.983,64.827Z" transform="translate(0.1 0.2)" fill="#80ffd5" opacity="0.35"/>
</svg>
