<svg xmlns="http://www.w3.org/2000/svg" width="40" height="40" viewBox="0 0 40 40">
  <g id="Group_113336" data-name="Group 113336" transform="translate(-261 -267)">
    <rect id="Rectangle_58946" data-name="Rectangle 58946" width="40" height="40" transform="translate(261 267)" fill="none"/>
    <path id="icons8-service" d="M21.077,0a8.157,8.157,0,0,0-1.922.23.779.779,0,0,0-.384.236.727.727,0,0,0-.179.4l-.076.6a1.1,1.1,0,0,1-.186.488,1.157,1.157,0,0,1-.394.357,1.222,1.222,0,0,1-1.054.059l-.577-.235a.8.8,0,0,0-.452-.052.785.785,0,0,0-.4.2,7.438,7.438,0,0,0-1.926,3.179.713.713,0,0,0,.019.438.746.746,0,0,0,.273.352l.507.365a1.141,1.141,0,0,1,.348.4,1.086,1.086,0,0,1,0,1.011,1.141,1.141,0,0,1-.348.4l-.507.365a.748.748,0,0,0-.273.352.715.715,0,0,0-.019.438,7.437,7.437,0,0,0,1.927,3.183.785.785,0,0,0,.4.2.8.8,0,0,0,.452-.052l.577-.235a1.222,1.222,0,0,1,1.054.059,1.157,1.157,0,0,1,.394.357,1.1,1.1,0,0,1,.186.488l.076.6a.731.731,0,0,0,.18.4.783.783,0,0,0,.384.236,8.171,8.171,0,0,0,3.842,0,.778.778,0,0,0,.384-.236.726.726,0,0,0,.179-.4l.076-.6a1.1,1.1,0,0,1,.187-.487,1.161,1.161,0,0,1,.394-.356,1.225,1.225,0,0,1,1.052-.061l.575.235a.8.8,0,0,0,.452.052.787.787,0,0,0,.4-.2,7.441,7.441,0,0,0,1.929-3.183.715.715,0,0,0-.019-.438.747.747,0,0,0-.274-.351l-.507-.363a1.145,1.145,0,0,1-.347-.4,1.088,1.088,0,0,1,0-1.01,1.145,1.145,0,0,1,.347-.4l.507-.363a.749.749,0,0,0,.273-.352.715.715,0,0,0,.019-.438A7.436,7.436,0,0,0,26.7,2.288a.787.787,0,0,0-.4-.2.806.806,0,0,0-.454.051l-.575.235a1.22,1.22,0,0,1-1.054-.058,1.156,1.156,0,0,1-.395-.356,1.1,1.1,0,0,1-.185-.488l-.061-.6a.728.728,0,0,0-.18-.4A.78.78,0,0,0,23.006.23,8.1,8.1,0,0,0,21.077,0Zm0,5.548a2.132,2.132,0,0,1,1.149.334,2,2,0,0,1,.762.889,1.905,1.905,0,0,1,.118,1.145,1.958,1.958,0,0,1-.566,1.015,2.1,2.1,0,0,1-1.059.542,2.151,2.151,0,0,1-1.195-.113,2.052,2.052,0,0,1-.928-.73,1.913,1.913,0,0,1-.192-1.86,1.977,1.977,0,0,1,.448-.643,2.074,2.074,0,0,1,.671-.43A2.145,2.145,0,0,1,21.077,5.548ZM33.56,15.073a4.541,4.541,0,0,0-2.587.916c-.84.6-3.363,2.4-5.546,3.966a3.583,3.583,0,0,0-1.339-1.814,3.839,3.839,0,0,0-2.2-.706H18.259a19.509,19.509,0,0,1-4.345-.37,14.321,14.321,0,0,0-3.335-.423,9.995,9.995,0,0,0-4.053,1.126,9.563,9.563,0,0,0-3.168,2.672A17.849,17.849,0,0,0,.912,24.079a1.144,1.144,0,0,0-.033.91,1.211,1.211,0,0,0,.648.666,1.291,1.291,0,0,0,.949.032,1.222,1.222,0,0,0,.695-.621,15.51,15.51,0,0,1,2.085-3.1,7.265,7.265,0,0,1,2.323-2.028,7.6,7.6,0,0,1,2.993-.916,11.411,11.411,0,0,1,2.82.37,22.777,22.777,0,0,0,4.856.423H21.88a1.28,1.28,0,0,1,.709.215,1.2,1.2,0,0,1,.454.565,1.144,1.144,0,0,1,.035.712,1.185,1.185,0,0,1-.4.6l-.035.025-.069.055a1.291,1.291,0,0,1-.7.2H16.1a1.269,1.269,0,0,0-.877.348,1.154,1.154,0,0,0,0,1.682,1.269,1.269,0,0,0,.877.348h5.789a3.794,3.794,0,0,0,2.1-.635,1.278,1.278,0,0,0,.15-.092s7.071-5.06,8.308-5.942a2.056,2.056,0,0,1,1.131-.446.983.983,0,0,1,.421.082.941.941,0,0,1,.34.251,1.165,1.165,0,0,1,.273.38,1.121,1.121,0,0,1,.006.9,1.166,1.166,0,0,1-.268.383c-4.428,3.569-7.214,5.946-9.054,7.34s-2.645,1.747-3.41,1.747c-3.02,0-6.366-.793-9.923-.793a5.537,5.537,0,0,0-2.4.538A5.3,5.3,0,0,0,7.668,29.8a6.1,6.1,0,0,0-1.043,2.01,1.142,1.142,0,0,0-.034.47,1.157,1.157,0,0,0,.159.446,1.207,1.207,0,0,0,.327.352,1.269,1.269,0,0,0,.444.2,1.293,1.293,0,0,0,.491.021,1.273,1.273,0,0,0,.461-.163,1.221,1.221,0,0,0,.359-.322,1.167,1.167,0,0,0,.2-.43,3.643,3.643,0,0,1,.615-1.166,2.591,2.591,0,0,1,1.005-.848,2.716,2.716,0,0,1,1.311-.261c3.149,0,6.48.793,9.923.793a8.318,8.318,0,0,0,4.949-2.253c1.957-1.482,4.708-3.831,9.108-7.383a1.224,1.224,0,0,0,.151-.122.021.021,0,0,1,.012-.018l.043-.043a1.184,1.184,0,0,0,.273-.423,3.432,3.432,0,0,0,.707-2.339A3.472,3.472,0,0,0,36.092,16.1a3.6,3.6,0,0,0-1.16-.753A3.725,3.725,0,0,0,33.56,15.073Z" transform="translate(261.987 270.302)" fill="#b8d4f6" stroke="#b8d4f6" stroke-width="0.4"/>
  </g>
</svg>
