<svg xmlns="http://www.w3.org/2000/svg" width="336" height="85.032" viewBox="0 0 336 85.032">
  <path id="_75678898a_Converted_copy" data-name="75678898a [Converted] copy" d="M56.606,72.076c-4.305,3.251-7.517,8.039-7.692,12.749h-.309a12.555,12.555,0,0,1,.672-3.578,20.157,20.157,0,0,1,7.11-9.342c5.887-4.448,13.677-7.1,21.212-9.662,1.012-.343,2.061-.7,3.087-1.054,8.606-2.979,17.243-6.57,22.135-12.634.838-1.041,1.586-2.176,2.307-3.272,1.787-2.717,3.638-5.53,7.038-7.145,3.49-1.66,7.768-1.663,11.9-1.67.927,0,1.886,0,2.813-.02,4.991-.109,12.163-.956,18-4.36,5.358-3.125,8.418-8.07,7.8-12.593a19.878,19.878,0,0,0-2.3-6.06,23.424,23.424,0,0,1-2.2-5.377,10.93,10.93,0,0,1,1.693-8.25h.354a10.765,10.765,0,0,0-1.738,8.213,23.026,23.026,0,0,0,2.177,5.332,19.982,19.982,0,0,1,2.321,6.121,10.5,10.5,0,0,1-1.778,7.121,18.025,18.025,0,0,1-6.137,5.686c-5.9,3.445-13.148,4.3-18.184,4.411-.932.02-1.891.02-2.822.024-4.095,0-8.324.007-11.737,1.632-3.324,1.581-5.152,4.36-6.921,7.05-.726,1.1-1.478,2.244-2.321,3.292a30.519,30.519,0,0,1-9.78,7.546,91.3,91.3,0,0,1-12.494,5.176c-1.026.354-2.074.711-3.087,1.058C70.216,65.016,62.453,67.655,56.606,72.076ZM72.64,68.954c1.9-.667,3.871-1.3,5.775-1.908a102.951,102.951,0,0,0,12.647-4.673,41.09,41.09,0,0,0,13.7-10.27c.744-.877,1.46-1.809,2.159-2.71,2.589-3.353,5.268-6.819,9.829-8.424,2.979-1.047,6.375-1.132,9.663-1.217.555-.014,1.129-.031,1.689-.048,6.832-.235,12.36-1.238,16.907-3.064a24.6,24.6,0,0,0,6.9-4.108,13.851,13.851,0,0,0,4.166-5.778c1.465-4.149.17-8.492-1.075-12.692-1.241-4.176-2.527-8.492-1.075-12.586a11.2,11.2,0,0,1,.748-1.67h-.34a11.82,11.82,0,0,0-.712,1.609c-1.469,4.152-.175,8.5,1.075,12.7,1.241,4.173,2.522,8.485,1.08,12.576-1.4,3.962-5.376,7.509-10.913,9.736-4.507,1.809-9.99,2.8-16.773,3.037-.56.02-1.133.034-1.684.048-3.32.085-6.751.173-9.784,1.241-4.65,1.636-7.356,5.135-9.968,8.519-.694.9-1.411,1.83-2.15,2.7a40.828,40.828,0,0,1-13.6,10.2,102.52,102.52,0,0,1-12.6,4.656c-1.9.612-3.875,1.245-5.784,1.911a61.674,61.674,0,0,0-8.928,3.819,26.209,26.209,0,0,0-7.181,5.417,13.247,13.247,0,0,0-3.333,6.849h.314a12.783,12.783,0,0,1,3.279-6.716C60.826,73.457,67.775,70.654,72.64,68.954Zm-6.079,7.237c4.982-3.5,11.312-5.72,17.431-7.873.69-.241,1.407-.493,2.106-.741,6.456-2.292,13.74-5.132,18.511-9.828a40.865,40.865,0,0,0,4.422-5.455c2.07-2.877,4.207-5.853,7.593-7.914,5.492-3.35,12.947-3.659,20.155-3.955l1.425-.061a58.238,58.238,0,0,0,11.424-1.411,25.363,25.363,0,0,0,5.089-1.8,14.5,14.5,0,0,0,4.063-2.884,11.239,11.239,0,0,0,3.1-7.1,21.57,21.57,0,0,0-.981-7.72c-.3-1.027-.632-2.074-.959-3.084-1.254-3.894-2.553-7.92-1.85-11.906a13.169,13.169,0,0,1,1.828-4.659h-.336a13.227,13.227,0,0,0-1.8,4.628c-.708,4.026.6,8.077,1.859,11.994.327,1.01.663,2.054.959,3.078,1.864,6.468,1.187,11.253-2.07,14.627-4.565,4.727-13.269,5.686-20.339,5.992l-1.425.061a97.012,97.012,0,0,0-10.752.84,25.7,25.7,0,0,0-9.582,3.17c-3.432,2.091-5.586,5.088-7.67,7.985a40.8,40.8,0,0,1-4.395,5.424c-4.726,4.656-11.975,7.478-18.394,9.76-.7.248-1.411.5-2.1.741-6.142,2.159-12.494,4.394-17.512,7.914a20.739,20.739,0,0,0-6.532,7.152,13.253,13.253,0,0,0-.721,1.656h.34A18.647,18.647,0,0,1,66.561,76.191Zm18.766-4.475c.712-.279,1.443-.565,2.146-.837,4.457-1.728,9.063-3.513,12.92-6.016,4.157-2.7,7.351-6.166,10.443-9.522.833-.9,1.693-1.84,2.562-2.744,3.57-3.731,8.543-8.257,15.339-10.172,4.758-1.34,9.986-1.3,15.043-1.255,1.819.014,3.7.031,5.533-.017a39.3,39.3,0,0,0,10.4-1.551c3.575-1.115,6.164-2.775,7.7-4.931a8.965,8.965,0,0,0,1.465-6.767,19.406,19.406,0,0,0-2.666-6.846c-.641-1.078-1.353-2.163-2.043-3.214-2.034-3.1-4.135-6.3-4.7-9.753A11.87,11.87,0,0,1,161.382-.19h-.363a12,12,0,0,0-1.859,8.311c.569,3.493,2.683,6.713,4.731,9.828.685,1.047,1.4,2.129,2.038,3.207,2.231,3.751,4.256,9.124,1.214,13.4-3.709,5.217-12.768,6.223-17.834,6.359-1.828.048-3.7.034-5.519.017-5.085-.041-10.34-.085-15.155,1.272a27.86,27.86,0,0,0-8.664,4.224,46.978,46.978,0,0,0-6.818,6.033c-.869.9-1.729,1.843-2.562,2.748-3.078,3.343-6.263,6.8-10.389,9.478-3.826,2.483-8.418,4.265-12.857,5.985-.7.272-1.434.558-2.15.837a79.664,79.664,0,0,0-7.634,3.377,29.777,29.777,0,0,0-6.532,4.435,14.708,14.708,0,0,0-3.844,5.509H67.5a14.971,14.971,0,0,1,3.772-5.36C75.1,75.908,80.538,73.6,85.327,71.715Zm8.14-.527.587-.262c5.757-2.585,10.832-5.013,14.645-8.57a44.2,44.2,0,0,0,5.228-6.217c2.531-3.425,5.152-6.968,9.462-9.151,4.05-2.051,9.139-2.646,13.628-3.169l17.606-2.057a67.672,67.672,0,0,0,6.868-1.051,20.11,20.11,0,0,0,6.178-2.316,11.291,11.291,0,0,0,5.452-8.07,16.738,16.738,0,0,0-1.555-9.542c-.668-1.428-1.478-2.85-2.267-4.224-1.711-3-3.481-6.094-3.8-9.369A11.636,11.636,0,0,1,167.43-.19h-.363a13.134,13.134,0,0,0-1.451,3.176,10.9,10.9,0,0,0-.43,4.22c.323,3.316,2.106,6.434,3.826,9.447.784,1.371,1.595,2.792,2.258,4.21,2.719,5.825,2.6,13.447-3.8,17.351-3.669,2.238-8.785,2.836-12.9,3.316l-17.606,2.057c-4.52.527-9.645,1.126-13.753,3.207a19.965,19.965,0,0,0-5.448,4.132,52.973,52.973,0,0,0-4.113,5.1,43.533,43.533,0,0,1-5.2,6.183c-3.781,3.527-8.83,5.941-14.56,8.515l-.587.262c-5.094,2.285-10.362,4.645-14.389,8a18.407,18.407,0,0,0-4.789,5.849h.332a18.068,18.068,0,0,1,4.686-5.686C83.145,75.813,88.4,73.46,93.467,71.188Zm-9.5,7.9c3.951-2.8,8.937-4.656,13.753-6.455.753-.279,1.528-.571,2.289-.857,5.622-2.136,11.316-4.652,14.878-8.6a31.019,31.019,0,0,0,4.193-6.55c1.837-3.493,3.575-6.791,7.284-9.012,4.453-2.663,10.5-2.928,15.819-2.969.918-.007,1.859-.01,2.764-.01,5.945-.014,12.087-.027,17.83-1.364a26.8,26.8,0,0,0,9.112-3.884,12.063,12.063,0,0,0,5.138-6.628c.995-3.873-.856-7.72-2.643-11.437-.448-.932-.914-1.9-1.322-2.843a22.366,22.366,0,0,1-1.859-13.266A17.079,17.079,0,0,1,173.294-.19h-.354A17.18,17.18,0,0,0,170.9,5.18a22.584,22.584,0,0,0,1.873,13.375c.408.949.874,1.915,1.322,2.85,1.774,3.69,3.611,7.5,2.63,11.311-1.174,4.564-6.68,8.618-14.035,10.331-5.7,1.326-11.818,1.34-17.74,1.353-.909,0-1.846,0-2.769.01a60.338,60.338,0,0,0-8.436.534,20.591,20.591,0,0,0-7.575,2.486,14.981,14.981,0,0,0-4.435,4.122,39.427,39.427,0,0,0-2.948,4.989,30.664,30.664,0,0,1-4.162,6.5c-3.521,3.9-9.175,6.4-14.757,8.522-.757.289-1.537.578-2.285.857-4.838,1.806-9.842,3.673-13.829,6.492a17.3,17.3,0,0,0-5.407,5.911H78.7A17.033,17.033,0,0,1,83.969,79.092Zm20.271-6.665c.314-.119.627-.235.936-.354a62.465,62.465,0,0,0,7.705-3.38,19.511,19.511,0,0,0,6.07-4.771A22.747,22.747,0,0,0,121.726,59a24.4,24.4,0,0,1,2.5-4.55c2.63-3.523,7.472-6.268,13.637-7.733,5.6-1.33,11.639-1.5,17.324-1.49.6,0,1.214,0,1.805.007,4.879.027,9.923.054,14.681-.935a24.479,24.479,0,0,0,7.49-2.806,11.706,11.706,0,0,0,4.861-4.975c1.313-2.857.923-6.3-1.156-10.233-.784-1.479-1.729-2.931-2.648-4.336a46.715,46.715,0,0,1-3.046-5.128A19.988,19.988,0,0,1,176.945-.2h-.332a20.172,20.172,0,0,0,.264,17.106,46.825,46.825,0,0,0,3.06,5.152c.914,1.4,1.859,2.846,2.639,4.319,2.047,3.877,2.437,7.264,1.151,10.066-1.626,3.537-6.16,6.387-12.136,7.628-4.717.979-9.739.952-14.6.928-.591,0-1.205-.007-1.805-.007-5.707-.014-11.773.16-17.418,1.5a31.88,31.88,0,0,0-7.92,2.959,17.989,17.989,0,0,0-5.9,4.883,24.512,24.512,0,0,0-2.518,4.588,22.712,22.712,0,0,1-2.746,4.87c-3.055,3.826-8.646,6.169-13.646,8.063-.309.119-.623.235-.936.354-4.968,1.874-10.1,3.812-13.623,7.08a10.951,10.951,0,0,0-3.3,5.533h.323a10.794,10.794,0,0,1,3.217-5.383C94.2,76.215,99.3,74.29,104.241,72.426ZM51.786,70.352c6.294-4.543,14.421-7.363,22.283-10.087.775-.269,1.581-.548,2.365-.823a117.7,117.7,0,0,0,12.777-5.135,39.55,39.55,0,0,0,10.64-7.2,52.367,52.367,0,0,0,3.736-4.278c2.312-2.85,4.7-5.795,8.342-7.7,3.839-2.01,8.66-2.646,13.3-3.037.65-.054,1.308-.105,1.949-.156a55.464,55.464,0,0,0,11.917-1.8,17.928,17.928,0,0,0,5.922-3.023,8.136,8.136,0,0,0,3.131-4.707c.591-3.217-1.519-6.193-3.557-9.07-.7-.986-1.425-2.01-2.02-3.02A16.756,16.756,0,0,1,140.3-.193h-.314a16.909,16.909,0,0,0,2.3,10.607c.6,1.017,1.331,2.044,2.034,3.033,2.016,2.843,4.1,5.785,3.521,8.924-.694,3.761-5.031,6.363-8.861,7.543A55.136,55.136,0,0,1,127.142,31.7c-.641.051-1.3.1-1.949.156-4.677.391-9.542,1.034-13.44,3.078-3.691,1.935-6.1,4.9-8.431,7.771A53.035,53.035,0,0,1,99.6,46.958c-5.918,5.866-15.129,9.406-23.3,12.266-.784.275-1.59.554-2.365.823C66.05,62.782,57.9,65.611,51.566,70.178a24.53,24.53,0,0,0-7.943,9.175,14.107,14.107,0,0,0-1.371,5.468h.282C42.705,79.051,47.181,73.678,51.786,70.352Zm.618-4.438c6.5-3.686,13.982-6.393,21.208-9.012,4.095-1.483,8.328-3.016,12.347-4.713A39.876,39.876,0,0,0,96.482,46.22a37.98,37.98,0,0,0,5.564-6.458c2.639-3.574,5.129-6.948,9.56-8.941,3.75-1.683,8.238-1.993,12.579-2.292,1.7-.116,3.45-.238,5.143-.439a24.925,24.925,0,0,0,8.74-2.591c2.773-1.51,4.341-3.442,4.543-5.584.237-2.564-1.519-4.883-3.217-7.128-.354-.466-.717-.945-1.053-1.415A23.176,23.176,0,0,1,134.019-.19H133.7a21.9,21.9,0,0,0,.291,2.2,23.577,23.577,0,0,0,4.077,9.478c.336.473.7.956,1.057,1.422,1.675,2.21,3.409,4.5,3.176,6.992-.193,2.071-1.716,3.941-4.413,5.407a24.505,24.505,0,0,1-8.606,2.551c-1.68.2-3.432.32-5.121.439-4.377.3-8.9.616-12.714,2.323a17.972,17.972,0,0,0-5.56,3.962,46.994,46.994,0,0,0-4.113,5.067,37.967,37.967,0,0,1-5.528,6.417,39.628,39.628,0,0,1-10.438,5.917c-4.014,1.694-8.243,3.227-12.333,4.707-7.24,2.625-14.73,5.336-21.262,9.039a46.542,46.542,0,0,0-7.159,4.962,33.918,33.918,0,0,0-5.622,5.982,21.144,21.144,0,0,0-3.315,6.7c-.134.486-.242.973-.327,1.456h.3C37.473,77.021,44.891,70.171,52.4,65.914Zm-12.83,3.724C46.4,64.557,55.159,61.2,63.635,57.946c1.456-.558,2.961-1.136,4.431-1.711a110.284,110.284,0,0,0,14.506-6.7,38.471,38.471,0,0,0,11.352-9.284c.941-1.2,1.783-2.483,2.6-3.727,1.976-3.02,4.023-6.145,7.589-8.138,4.879-2.731,11.392-2.768,17.7-2.4l.515.031a34.37,34.37,0,0,0,7.844-.136,12.213,12.213,0,0,0,3.871-1.326,5.977,5.977,0,0,0,2.545-2.5,4.789,4.789,0,0,0,.17-3.493,16.515,16.515,0,0,0-1.555-3.414L126.622-.193h-.34l8.633,15.436c1.254,2.241,2.392,4.608,1.375,6.73-1,2.088-3.853,3.265-6.191,3.669a33.914,33.914,0,0,1-7.75.129l-.515-.031a61.871,61.871,0,0,0-9.381.037,21.661,21.661,0,0,0-8.534,2.411c-3.629,2.03-5.689,5.179-7.683,8.226-.811,1.241-1.653,2.523-2.585,3.71-5.792,7.373-15.792,12-25.732,15.9-1.469.575-2.975,1.153-4.431,1.711C54.994,60.989,46.209,64.36,39.35,69.467a37.409,37.409,0,0,0-9.264,9.815,31.147,31.147,0,0,0-2.827,5.543h.318A34.994,34.994,0,0,1,39.574,69.637Zm.26-4.543A109.061,109.061,0,0,1,55.894,58.4c3.691-1.313,7.5-2.67,11.038-4.227a46.9,46.9,0,0,0,9.757-5.567c4.023-3.095,6.993-6.914,9.86-10.6,1.362-1.751,2.769-3.564,4.274-5.278,4.041-4.6,10.725-10.233,19.6-10.923a47.331,47.331,0,0,1,5.976.048,49.814,49.814,0,0,0,5.792.065,15.625,15.625,0,0,0,5.721-1.442,5.867,5.867,0,0,0,3.369-3.493c.551-2.068-.788-4.21-1.765-5.774l-7.123-11.4h-.345l7.186,11.508c1.241,1.989,2.231,3.785,1.738,5.625-.775,2.9-5.112,4.492-8.807,4.744a49.079,49.079,0,0,1-5.748-.065,47.531,47.531,0,0,0-6.03-.048,25.582,25.582,0,0,0-11.33,3.761,36.886,36.886,0,0,0-8.5,7.267c-1.51,1.717-2.921,3.533-4.283,5.288-2.858,3.68-5.815,7.482-9.811,10.559-5.752,4.424-13.35,7.128-20.706,9.747a109.041,109.041,0,0,0-16.11,6.713A41.386,41.386,0,0,0,26.062,76.759a32.25,32.25,0,0,0-4.251,8.07h.309C24.875,76.987,31.143,69.91,39.834,65.094ZM59.751,51.3c.927-.2,1.882-.388,2.809-.571,3.669-.724,7.463-1.473,10.59-3.146,5.38-2.88,7.764-7.8,10.071-12.562.166-.34.327-.677.493-1.013,2.271-4.652,5.743-10.233,12.445-12.086a34.877,34.877,0,0,1,8.534-.854c3.369-.065,6.854-.129,9.883-1.309A10.709,10.709,0,0,0,121.233,6.9a20.426,20.426,0,0,0-3.812-7.1h-.367a20.407,20.407,0,0,1,3.871,7.145,10.492,10.492,0,0,1-6.5,12.593c-2.961,1.153-6.411,1.217-9.744,1.282a35.315,35.315,0,0,0-8.633.867c-6.823,1.887-10.335,7.526-12.633,12.229-.166.337-.327.673-.493,1.013-2.289,4.727-4.655,9.614-9.954,12.45-3.082,1.649-6.85,2.391-10.492,3.112-.927.184-1.882.371-2.813.571a68.168,68.168,0,0,0-16.611,5.9,60.945,60.945,0,0,0-13.592,9.383,48.162,48.162,0,0,0-9.542,11.92,38.527,38.527,0,0,0-2.912,6.56h.34C22.649,69.223,39.332,55.7,59.751,51.3Zm-9.242-.235c2.047-.667,4.2-1.285,6.276-1.887,3.562-1.027,7.24-2.088,10.577-3.428A28.9,28.9,0,0,0,76.2,40.541c2.993-2.721,4.762-6.087,6.473-9.342.533-1.013,1.084-2.061,1.662-3.074,3.127-5.458,6.948-8.75,11.684-10.059a34.8,34.8,0,0,1,5.156-.874,24.044,24.044,0,0,0,7.078-1.568,8.8,8.8,0,0,0,4.695-4.87,9.218,9.218,0,0,0,.1-6.271A16.375,16.375,0,0,0,110.419-.2h-.363a16.294,16.294,0,0,1,2.7,4.737,8.7,8.7,0,0,1-4.659,10.876,23.739,23.739,0,0,1-6.962,1.534,35.448,35.448,0,0,0-5.215.888,17.285,17.285,0,0,0-7.195,4.108,25.751,25.751,0,0,0-4.673,6.087c-.582,1.013-1.133,2.064-1.667,3.081-1.7,3.238-3.463,6.587-6.424,9.281-4.838,4.4-12.185,6.516-19.286,8.563-2.083.6-4.238,1.221-6.29,1.891A75.915,75.915,0,0,0,23.715,65.835,54.944,54.944,0,0,0,9.523,84.829h.332C16.341,69.974,31.577,57.228,50.509,51.063Zm-9.488.286c2.621-1.027,5.448-1.918,8.185-2.782a103.381,103.381,0,0,0,10.039-3.547,26.07,26.07,0,0,0,8.207-5.264c2.7-2.714,4.22-6.07,5.694-9.318,2.02-4.458,3.924-8.669,8.619-11.389,2.831-1.639,6.339-2.455,9.73-3.241,1.425-.33,2.9-.673,4.31-1.075a22.484,22.484,0,0,0,6.706-3.037c2.083-1.483,3.23-3.156,3.409-4.965a6.381,6.381,0,0,0-1.115-4.023,22.231,22.231,0,0,0-2.267-2.9h-.376c1.98,2.221,3.7,4.37,3.45,6.91-.47,4.761-7.705,7.172-9.909,7.8-1.4.4-2.872.738-4.292,1.068-3.418.792-6.953,1.612-9.829,3.278a16.331,16.331,0,0,0-5.412,5.149,43.253,43.253,0,0,0-3.315,6.353c-1.46,3.231-2.975,6.57-5.645,9.253-4.386,4.4-11.37,6.608-18.121,8.737-2.742.864-5.577,1.758-8.207,2.789a63.876,63.876,0,0,0-24.6,17.633A114.275,114.275,0,0,0,4.747,84.825h.345A113.725,113.725,0,0,1,16.538,68.9,63.522,63.522,0,0,1,41.021,51.348Zm-10.828-.289c3.526-1.622,7.334-2.969,11.016-4.275,3.378-1.2,6.872-2.432,10.151-3.88a41.961,41.961,0,0,0,9.466-5.577,17.921,17.921,0,0,0,5.887-7.689,26.077,26.077,0,0,0,.739-2.663,11.7,11.7,0,0,1,2.41-5.526c2.235-2.438,5.954-3.353,9.9-4.322a38.537,38.537,0,0,0,7.065-2.217,13.028,13.028,0,0,0,5.515-4.72,8.96,8.96,0,0,0,1.438-6.213A9.334,9.334,0,0,0,91.957-.193h-.349A9.275,9.275,0,0,1,93.462,4c.645,4.183-2.092,8.485-6.8,10.706a38.153,38.153,0,0,1-7,2.193,47.925,47.925,0,0,0-5.618,1.622,11.417,11.417,0,0,0-4.44,2.792,11.831,11.831,0,0,0-2.459,5.621,25.219,25.219,0,0,1-.735,2.642C64.164,35.861,56.9,40.184,51.2,42.7c-3.266,1.442-6.751,2.676-10.125,3.87-3.691,1.306-7.5,2.656-11.047,4.285a51.666,51.666,0,0,0-20.289,16.2A36.789,36.789,0,0,0,2.6,84.829h.314C4.349,71.151,14.679,58.194,30.193,51.059Zm-1.322-4.7c2.33-.85,4.8-1.544,7.19-2.217,2.442-.687,4.964-1.4,7.352-2.275a30.08,30.08,0,0,0,6.63-3.306,13.308,13.308,0,0,0,4.5-4.819,17.184,17.184,0,0,0,1.331-4.509,14.242,14.242,0,0,1,1.8-5.281c2.128-3.221,6.568-5.03,10.859-6.781a55.854,55.854,0,0,0,6.411-2.928,12.547,12.547,0,0,0,4.65-4.112,7.865,7.865,0,0,0,1.16-4.387A11.079,11.079,0,0,0,79.62,1.3a16.837,16.837,0,0,0-.811-1.49h-.345a16.52,16.52,0,0,1,.86,1.571c1.5,3.146,1.5,6.22-.013,8.658-2.052,3.316-6.563,5.156-10.926,6.934-4.337,1.768-8.821,3.6-10.994,6.883a14.4,14.4,0,0,0-1.828,5.353,17.173,17.173,0,0,1-1.313,4.462c-2.02,4.016-7.083,6.563-10.976,8-2.37.871-4.888,1.581-7.32,2.265-2.4.673-4.87,1.371-7.213,2.224A46.148,46.148,0,0,0,6.131,63.676,45.417,45.417,0,0,0-.1,77.976V79.33A44.513,44.513,0,0,1,28.871,46.363Zm-9.847,1.915a93.9,93.9,0,0,1,11.339-4.635c2.652-.952,5.394-1.938,7.988-3.057a38.559,38.559,0,0,0,8.794-5.071,15.623,15.623,0,0,0,5.376-7.077,24.839,24.839,0,0,0,.73-3.095c.5-2.636,1.021-5.363,3.669-6.982a15.842,15.842,0,0,1,5.188-1.636,27.744,27.744,0,0,0,3.535-.86,11.329,11.329,0,0,0,5.488-3.938,10.083,10.083,0,0,0,2.016-5.666A13.4,13.4,0,0,0,71.9.531q-.161-.357-.336-.724h-.332a13.492,13.492,0,0,1,1.6,6.448,10.483,10.483,0,0,1-7.32,9.393,27.566,27.566,0,0,1-3.485.847,16.293,16.293,0,0,0-5.3,1.68c-2.746,1.68-3.275,4.452-3.786,7.135a25.108,25.108,0,0,1-.721,3.071c-1.9,5.74-8.673,9.692-14.018,12-2.58,1.112-5.318,2.1-7.965,3.047A94.631,94.631,0,0,0,18.854,48.08,40.94,40.94,0,0,0,2.678,63.009,43.42,43.42,0,0,0-.091,68.264V69A41.264,41.264,0,0,1,19.025,48.277Zm-4.847,1.2c4.637-2.959,9.735-5.591,14.667-8.135,4.018-2.071,8.171-4.217,12.06-6.529,3.906-2.323,8.467-5.53,9.063-9.723a12.985,12.985,0,0,0-.013-2.829,9.643,9.643,0,0,1,.175-3.635c.69-2.221,2.89-3.924,5.013-5.57a36.193,36.193,0,0,0,2.822-2.34,13.2,13.2,0,0,0,2.742-3.7A11.949,11.949,0,0,0,61.9,2.86,11.445,11.445,0,0,0,61.785-.2h-.3a11.924,11.924,0,0,1-3.763,10.76c-.847.809-1.841,1.578-2.8,2.323-2.155,1.67-4.386,3.394-5.1,5.679a9.833,9.833,0,0,0-.184,3.7,12.929,12.929,0,0,1,.018,2.792c-.582,4.1-5.085,7.267-8.942,9.56-3.88,2.306-8.028,4.448-12.042,6.519-4.937,2.547-10.044,5.183-14.694,8.148A55.128,55.128,0,0,0,2.7,58.531,33.166,33.166,0,0,0-.1,62.064v.5Q4.36,55.756,14.177,49.474Zm-1.6-2.071c2.527-1.381,5.2-2.68,7.786-3.935A102.848,102.848,0,0,0,33.772,36.11a29.845,29.845,0,0,0,8-7.846,13.526,13.526,0,0,0,2.491-9.454c-.072-.5-.179-1.017-.282-1.517-.358-1.731-.726-3.52.246-5.067.847-1.343,2.468-2.176,4.184-3.061a15.961,15.961,0,0,0,3.548-2.221A6.5,6.5,0,0,0,53.8.745c-.063-.316-.143-.629-.237-.939h-.323a9.439,9.439,0,0,1,.246.973,6.308,6.308,0,0,1-1.774,6.013,15.79,15.79,0,0,1-3.481,2.176c-1.675.86-3.409,1.751-4.292,3.152-1.012,1.612-.636,3.438-.273,5.207.1.5.206,1.01.278,1.507.824,5.737-2.966,11.967-10.393,17.1a102.369,102.369,0,0,1-13.368,7.332c-2.589,1.258-5.264,2.561-7.8,3.945A49.276,49.276,0,0,0,2.7,53.868,26.878,26.878,0,0,0-.1,56.82v.439C2.561,53.838,6.759,50.58,12.574,47.4Zm23.77-19.82a10.006,10.006,0,0,0,1.684-3.04,6,6,0,0,0,.152-3.258,12.107,12.107,0,0,0-1.3-2.948A10.777,10.777,0,0,1,35.533,15.1c-.573-3.482,2.71-6.608,5.6-9.362.13-.122.26-.245.385-.367A17.38,17.38,0,0,0,45.375.422c.1-.207.184-.415.26-.616h-.314a15.956,15.956,0,0,1-4.036,5.417c-.13.122-.255.245-.385.367-2.934,2.792-6.263,5.955-5.672,9.539a10.755,10.755,0,0,0,1.366,3.3,12.015,12.015,0,0,1,1.281,2.9c1.039,4.377-3.481,8.369-7.54,11.359A259.659,259.659,0,0,1-.1,51.95v.292A260.452,260.452,0,0,0,30.556,32.862,30.256,30.256,0,0,0,36.344,27.584ZM32.6,26.258a7.684,7.684,0,0,0,1.236-3.3,5.262,5.262,0,0,0-.7-3.343,12.456,12.456,0,0,0-2.088-2.381,13.49,13.49,0,0,1-1.922-2.125c-1.8-2.724-1.03-6.244,2.3-10.464.412-.524.851-1.058,1.277-1.571C33.584,2,34.476.922,35.242-.193h-.354c-.744,1.071-1.6,2.112-2.446,3.139-.426.517-.865,1.051-1.277,1.575a16.225,16.225,0,0,0-2.948,5.275,6.246,6.246,0,0,0,.636,5.417,13.407,13.407,0,0,0,1.958,2.166,12.233,12.233,0,0,1,2.052,2.33c1.093,1.83.9,4.237-.533,6.441a22.272,22.272,0,0,1-5.5,5.247A144.586,144.586,0,0,1-.1,47.152v.275A145.008,145.008,0,0,0,27.048,31.566,22.354,22.354,0,0,0,32.6,26.258Zm-8.091,1.51c2.459-2.578,3.445-5.5,2.715-8.019a13.288,13.288,0,0,0-1.9-3.544,18.978,18.978,0,0,1-1.505-2.513c-1.339-2.891-.986-6.407.99-9.9A24.867,24.867,0,0,1,27.671-.193H27.3A25.6,25.6,0,0,0,24.526,3.69c-2.007,3.55-2.361,7.128-1,10.076A19.484,19.484,0,0,0,25.05,16.31,13.2,13.2,0,0,1,26.923,19.8c.712,2.452-.26,5.305-2.666,7.829a37.038,37.038,0,0,1-8.019,5.747L-.1,43.064v.3l16.531-9.8A37.579,37.579,0,0,0,24.512,27.767Zm-2.374-3.023c1.362-1.544,3.073-3.856,2.209-6.087a8.618,8.618,0,0,0-3.033-3.265,11.82,11.82,0,0,1-2.6-2.455c-1.568-2.309-.8-5.349,2.28-9.029.228-.272.466-.554.7-.826A35.689,35.689,0,0,0,24.262-.19h-.354a36.925,36.925,0,0,1-2.482,3.142c-.228.272-.47.551-.7.826-3.14,3.758-3.915,6.876-2.294,9.267a12.135,12.135,0,0,0,2.657,2.513,8.335,8.335,0,0,1,2.952,3.166c.824,2.136-.842,4.384-2.168,5.89C16.493,30.716,8.8,35.477-.1,38.269v.255a55.162,55.162,0,0,0,10.644-4.577A44.337,44.337,0,0,0,22.138,24.744Zm-5.022-.037a12.064,12.064,0,0,0,2.921-3.652,3.732,3.732,0,0,0-.184-3.955,10.158,10.158,0,0,0-2.9-2.336c-1.528-.962-2.97-1.87-3.091-3.261a4.341,4.341,0,0,1,1.156-2.71,5.938,5.938,0,0,0,1.205-2.374c.2-1.336-.645-2.748-2.5-4.193-.39-.306-.806-.6-1.21-.891A21.81,21.81,0,0,1,10.54-.193h-.4a20.068,20.068,0,0,0,2.155,1.7c.4.286.815.582,1.2.884,1.787,1.391,2.6,2.738,2.415,4a5.747,5.747,0,0,1-1.169,2.289,4.532,4.532,0,0,0-1.192,2.836c.13,1.49,1.693,2.476,3.2,3.428a9.947,9.947,0,0,1,2.822,2.268,3.56,3.56,0,0,1,.166,3.765,11.9,11.9,0,0,1-2.863,3.578A46.573,46.573,0,0,1-.1,33.851v.262a51.327,51.327,0,0,0,7.253-2.85A43.593,43.593,0,0,0,17.116,24.707Zm-5.846-.823a9.617,9.617,0,0,0,2.8-3.37,3.121,3.121,0,0,0-.43-3.612,8.1,8.1,0,0,0-1.295-1.051,4.388,4.388,0,0,1-1.622-1.581,3.165,3.165,0,0,1,.448-2.6,8.522,8.522,0,0,0,.488-1.2c.869-2.959-1.877-5.683-4.3-8.084A18.088,18.088,0,0,1,5.177-.193H4.828A17.629,17.629,0,0,0,7.122,2.524C9.5,4.884,12.2,7.56,11.364,10.41a8.883,8.883,0,0,1-.479,1.177,3.357,3.357,0,0,0-.448,2.758,4.644,4.644,0,0,0,1.707,1.68,7.507,7.507,0,0,1,1.25,1.013c1.873,2.04-.094,4.873-2.343,6.682A34.694,34.694,0,0,1-.1,29.529v.262A38.461,38.461,0,0,0,4.03,28.244,33,33,0,0,0,11.27,23.884ZM7.646,22.156c1.295-2.88.591-6.067-.166-8.825A53.954,53.954,0,0,0,3.632,3.064C3.045,1.922,2.427.837,1.768-.193h-.34A48.155,48.155,0,0,1,7.171,13.379c.753,2.727,1.447,5.876.179,8.7A8.542,8.542,0,0,1-.1,26.659V26.9a8.9,8.9,0,0,0,4.225-1.122A8.2,8.2,0,0,0,7.646,22.156ZM2.1,22A9.371,9.371,0,0,0,5.012,16.2a10.055,10.055,0,0,0-1.546-6.053A16.49,16.49,0,0,0-.1,6.04V6.4C3.211,9.274,4.98,12.838,4.7,16.181A9.856,9.856,0,0,1-.1,23.381V23.7A11.776,11.776,0,0,0,2.1,22ZM110.988,73.565A48.492,48.492,0,0,0,119,66.985a40.1,40.1,0,0,0,3.727-5.1,32.59,32.59,0,0,1,4.825-6.21c4.511-4.227,11.312-6.227,16.222-7.159a125.409,125.409,0,0,1,15.711-1.609c1.08-.065,2.2-.133,3.288-.2,4.937-.323,10.631-.809,15.72-2.51,5.5-1.833,9.52-4.938,11.043-8.512,1.254-2.945.986-6.424-.815-10.634-.6-1.4-1.322-2.806-2.02-4.159a45.238,45.238,0,0,1-2.715-5.965,20.6,20.6,0,0,1,.8-15.116h-.314a22.424,22.424,0,0,0-.9,2.4,20.5,20.5,0,0,0,.112,12.773,45.256,45.256,0,0,0,2.728,5.992c.694,1.35,1.416,2.748,2.011,4.149,1.783,4.163,2.047,7.59.815,10.488-1.5,3.513-5.456,6.563-10.873,8.369-5.044,1.683-10.707,2.166-15.621,2.489-1.093.071-2.209.139-3.288.2a125.1,125.1,0,0,0-15.76,1.615,44.683,44.683,0,0,0-9.009,2.639,24.922,24.922,0,0,0-7.383,4.6,32.756,32.756,0,0,0-4.865,6.254,40.25,40.25,0,0,1-3.7,5.071,48.414,48.414,0,0,1-7.97,6.54c-1.783,1.265-3.629,2.578-5.286,3.972a20.554,20.554,0,0,0-5.215,6.264,11.158,11.158,0,0,0-.52,1.194h.323a19.684,19.684,0,0,1,5.649-7.3C107.368,76.136,109.209,74.83,110.988,73.565Zm25.5-19.636c6.151-3.894,14.636-4.224,22.843-4.543.824-.031,1.676-.065,2.5-.1a96.219,96.219,0,0,0,10.546-.956,46.133,46.133,0,0,0,9.977-2.585,25.815,25.815,0,0,0,8.247-5.088,13.257,13.257,0,0,0,4.211-7.244c.663-3.972-1.1-7.873-2.8-11.644-1.581-3.5-3.217-7.125-2.916-10.8.345-4.237,3.073-7.876,6.85-11.165h-.408c-.372.326-.735.66-1.084,1-3.535,3.4-5.389,6.716-5.672,10.151-.3,3.72,1.339,7.366,2.93,10.889,1.693,3.748,3.441,7.621,2.787,11.539-.806,4.819-5.515,9.471-12.293,12.147-6.612,2.612-14.371,3.251-20.392,3.513-.824.037-1.676.068-2.5.1a108.257,108.257,0,0,0-12.23.939,27.959,27.959,0,0,0-10.8,3.663c-3.584,2.268-5.931,5.54-8.006,8.427-5.219,7.264-10.573,14.722-14.246,22.652h.332c3.665-7.883,9-15.307,14.188-22.537C130.614,59.418,132.948,56.167,136.487,53.929Zm6.626,1.432c3.064-1.207,6.644-1.367,10.107-1.524.417-.017.847-.037,1.268-.058a120.847,120.847,0,0,0,19.729-2.608c6.841-1.49,11.908-3.289,15.948-5.659a24.4,24.4,0,0,0,6.061-4.917,13.811,13.811,0,0,0,3.243-6.2c.753-3.622-.367-7.278-1.447-10.811a46.181,46.181,0,0,1-1.429-5.465c-1.111-6.359.829-12.889,5.2-18.316h-.345a26.577,26.577,0,0,0-3.069,4.836,21.978,21.978,0,0,0-2.1,13.515,46.255,46.255,0,0,0,1.438,5.489c1.075,3.513,2.186,7.142,1.443,10.719-.838,4.033-4.184,8.026-9.188,10.961-4.005,2.35-9.04,4.135-15.841,5.618a120.457,120.457,0,0,1-19.662,2.6c-.421.02-.851.041-1.263.058-3.494.156-7.11.32-10.232,1.551a15.74,15.74,0,0,0-4.614,2.86,30.75,30.75,0,0,0-3.508,3.727,85,85,0,0,0-9.632,14.511,76.732,76.732,0,0,0-3.835,8.577h.318a81.282,81.282,0,0,1,13.413-22.962C137.226,59.292,139.654,56.725,143.113,55.361Zm7.835,1.439c4.233-1.343,8.96-1.439,13.529-1.534,1.743-.037,3.544-.075,5.3-.18a56.894,56.894,0,0,0,12.683-2.176,40.885,40.885,0,0,0,11.092-5.047c6.827-4.543,10.819-11.046,10.676-17.391a31.375,31.375,0,0,0-1.021-6.312,40.851,40.851,0,0,1-.914-4.768c-.784-7.057,2.58-14.242,8.673-19.588h-.412c-6.034,5.38-9.354,12.559-8.575,19.609a42.071,42.071,0,0,0,.918,4.792,30.779,30.779,0,0,1,1.017,6.274c.139,6.278-3.812,12.709-10.568,17.208-6.115,4.071-14.492,6.614-23.591,7.162-1.743.105-3.539.143-5.277.177-4.6.1-9.354.194-13.641,1.554a23.836,23.836,0,0,0-8.373,4.744,35.792,35.792,0,0,0-5.931,6.737,57.215,57.215,0,0,0-6.236,11.529,52.361,52.361,0,0,0-1.77,5.234h.327a55.729,55.729,0,0,1,7.956-16.653C141.007,62.139,145.5,58.527,150.948,56.8Zm17.109,2.319c1.841-.1,3.727-.1,5.551-.092a58.272,58.272,0,0,0,8.875-.425,29.946,29.946,0,0,0,6.043-1.588,34.573,34.573,0,0,0,5.412-2.622,49.28,49.28,0,0,0,9.067-7.1c2.715-2.629,5.622-5.812,6.568-9.457a20.63,20.63,0,0,0-.022-7.914c-.125-.962-.26-1.959-.336-2.931-.788-10,4.225-20.01,13.332-27.179h-.421a38.143,38.143,0,0,0-8.937,10.1A28.857,28.857,0,0,0,208.9,27c.076.979.211,1.976.336,2.942.34,2.591.694,5.271.027,7.842-.936,3.6-3.817,6.747-6.509,9.355-6.706,6.5-13.359,10.172-20.33,11.226a57.8,57.8,0,0,1-8.812.418c-1.828-.007-3.723-.01-5.577.092-10.075.568-19.716,4.56-25.8,10.685a23.608,23.608,0,0,0-7.105,15.259h.314a23.4,23.4,0,0,1,7.042-15.116C148.516,63.639,158.071,59.68,168.057,59.119Zm-23,16.793c3.682-4.6,10.68-7.482,22.014-9.07,1.416-.2,2.867-.384,4.274-.561,7.128-.9,14.5-1.843,20.509-4.924,4.426-2.268,7.737-5.5,10.94-8.631l12.817-12.515c1.483-1.449,3.163-3.088,3.723-5.026s-.054-3.941-.654-5.873c-.116-.371-.237-.758-.345-1.132C215.459,18.184,219.84,7.319,228.9-.193h-.421a34.252,34.252,0,0,0-7.271,8.369c-3.92,6.431-5.049,13.552-3.181,20.051.107.377.228.765.345,1.136.591,1.9,1.205,3.873.654,5.768s-2.2,3.5-3.665,4.931L202.548,52.576c-3.185,3.112-6.482,6.332-10.868,8.58-5.949,3.05-13.287,3.982-20.383,4.887-1.407.18-2.863.364-4.278.561a61.775,61.775,0,0,0-12.606,2.914,28.526,28.526,0,0,0-5.43,2.608,16.869,16.869,0,0,0-4.189,3.656,12.692,12.692,0,0,0-2.8,7.75c-.013.425,0,.854.022,1.285h.3A12.775,12.775,0,0,1,145.057,75.912Zm17.086-2.374a85.336,85.336,0,0,1,11.679-2.115c1.093-.146,2.227-.3,3.333-.459,4.686-.68,10.071-1.69,14.439-4.026,4.583-2.449,7.683-6.125,10.68-9.682,2.746-3.258,5.586-6.628,9.56-9.049a52.755,52.755,0,0,1,5.967-2.955c3.673-1.632,7.468-3.323,9.7-6.1,2.97-3.693,2.41-8.216,1.868-12.59-.1-.8-.2-1.632-.278-2.435A34.238,34.238,0,0,1,236.469-.193h-.408a36.421,36.421,0,0,0-3.221,4.931,35.078,35.078,0,0,0-3.5,9.522,33.087,33.087,0,0,0-.555,9.883c.076.806.179,1.636.278,2.438.538,4.336,1.093,8.818-1.823,12.443-2.2,2.727-5.954,4.4-9.6,6.019a53.459,53.459,0,0,0-6.008,2.976c-4.014,2.445-6.868,5.832-9.627,9.1-2.979,3.537-6.061,7.193-10.595,9.614-4.323,2.309-9.663,3.312-14.318,3.986-1.107.16-2.235.313-3.329.459a85.59,85.59,0,0,0-11.733,2.129,28.9,28.9,0,0,0-6.841,2.823,14.606,14.606,0,0,0-4.937,4.452,8.1,8.1,0,0,0-1.344,4.237h.3a7.931,7.931,0,0,1,1.33-4.132C152.552,77.616,156.674,75.075,162.144,73.538Zm11.706,3.6c1.075-.109,2.182-.2,3.248-.3a53.253,53.253,0,0,0,11.719-1.877,27.181,27.181,0,0,0,9.224-5.22,71.925,71.925,0,0,0,7.136-7.254,57.519,57.519,0,0,1,9.708-9.26c1.537-1.071,3.234-2.04,4.879-2.976,1.626-.928,3.311-1.891,4.843-2.952a28.812,28.812,0,0,0,5.842-5.349,27.4,27.4,0,0,0,3.9-6.308,28.56,28.56,0,0,0,2.312-13.919c-.134-1.585-.385-3.2-.632-4.758-.533-3.4-1.089-6.921-.412-10.345A19.421,19.421,0,0,1,238.557-.2H238.2a19.291,19.291,0,0,0-2.9,6.784c-.681,3.455-.125,6.989.408,10.41.246,1.554.5,3.163.627,4.744a27.729,27.729,0,0,1-11.948,25.387c-1.519,1.054-3.2,2.01-4.82,2.935-1.649.942-3.355,1.915-4.9,2.993a57.5,57.5,0,0,0-9.753,9.3c-4.628,5.173-9,10.059-16.226,12.389a53.032,53.032,0,0,1-11.63,1.86c-1.071.092-2.177.187-3.257.3a43.715,43.715,0,0,0-7.517,1.319,17.8,17.8,0,0,0-6.4,3.05,8.326,8.326,0,0,0-2.625,3.557h.323a8.086,8.086,0,0,1,2.527-3.391C163.868,78.452,169.75,77.554,173.849,77.136Zm-1.4,3.714a37.752,37.752,0,0,1,7.625-.49c1.546,0,3.14.01,4.7-.1a29.352,29.352,0,0,0,11.28-3.118,21.227,21.227,0,0,0,7.992-6.8,32.766,32.766,0,0,0,1.729-3,21.417,21.417,0,0,1,2.943-4.554c2.89-3.18,7.383-4.887,12.145-6.7a48.5,48.5,0,0,0,9.663-4.489,19.589,19.589,0,0,0,6.433-7.108,23.452,23.452,0,0,0,2.576-8.56,60.143,60.143,0,0,0-.3-12.052c-.161-1.762-.332-3.581-.426-5.37-.26-4.965-.072-11.379,3.727-16.936a17.014,17.014,0,0,1,1.4-1.772h-.381a17.519,17.519,0,0,0-1.295,1.663,21.193,21.193,0,0,0-3.324,8.294,37.408,37.408,0,0,0-.439,8.764c.094,1.792.264,3.615.426,5.377a59.815,59.815,0,0,1,.3,12.018c-.73,6.642-3.893,12.147-8.906,15.507a48.234,48.234,0,0,1-9.6,4.455,71.214,71.214,0,0,0-6.778,2.84,18.536,18.536,0,0,0-5.483,3.935,21.515,21.515,0,0,0-2.975,4.6,32.934,32.934,0,0,1-1.72,2.982c-3.624,5.387-11.088,9.23-19.026,9.787-1.541.109-3.131.1-4.668.1a38.224,38.224,0,0,0-7.71.5,11.615,11.615,0,0,0-5.349,2.574,5.889,5.889,0,0,0-1.295,1.629h.34C167.085,82.958,169.683,81.418,172.447,80.85Zm27.547.486c3.4-.843,5.8-2.136,7.329-3.948a13.153,13.153,0,0,0,2.321-5.091,16.331,16.331,0,0,1,1.581-4.061c1.613-2.656,4.807-4.853,10.044-6.917,1.138-.449,2.321-.877,3.467-1.292a51.111,51.111,0,0,0,8.736-3.8,21.706,21.706,0,0,0,7.522-7.492,24.464,24.464,0,0,0,3.226-9.274c.7-4.985.13-10.076-.426-15-.148-1.326-.3-2.7-.43-4.04-.551-5.859-.694-12.668,2.419-18.759.323-.636.681-1.255,1.062-1.86H246.5q-.551.882-1.008,1.775c-3.136,6.132-2.993,12.974-2.442,18.861.125,1.347.282,2.717.43,4.043.551,4.911,1.124,9.988.426,14.953a22.475,22.475,0,0,1-10.631,16.606,50.773,50.773,0,0,1-8.678,3.768c-1.147.415-2.33.847-3.476,1.3-5.3,2.088-8.539,4.322-10.187,7.029a16.752,16.752,0,0,0-1.6,4.108,12.949,12.949,0,0,1-2.28,5.016c-3.266,3.877-10.232,4.656-16.5,5.084a50.432,50.432,0,0,0-9.394,1.35,19.675,19.675,0,0,0-3.167,1.132h.632c3.378-1.445,7.782-1.962,11.957-2.244A56.484,56.484,0,0,0,199.994,81.336ZM210.446,80.2a17.465,17.465,0,0,0,3.7-4.761c.47-.908.851-1.86,1.223-2.782a16.444,16.444,0,0,1,2.921-5.258c2.755-3,7.235-4.305,11.975-5.683a47.766,47.766,0,0,0,8.709-3.142,18.422,18.422,0,0,0,8.306-8.665A24.286,24.286,0,0,0,249.4,38.881a73.89,73.89,0,0,0-1.133-9.546,56.5,56.5,0,0,1-1.093-12.375,30.833,30.833,0,0,1,6.93-17.153h-.34c-.1.126-.2.248-.291.374a30.858,30.858,0,0,0-6.612,16.769,56.266,56.266,0,0,0,1.093,12.416,74.332,74.332,0,0,1,1.133,9.522c.13,4.169-.618,14.419-10.29,19.49a47.422,47.422,0,0,1-8.642,3.115,62.076,62.076,0,0,0-6.751,2.241,15.105,15.105,0,0,0-5.371,3.53,16.609,16.609,0,0,0-2.961,5.322c-.367.918-.748,1.864-1.214,2.765-2.119,4.1-6.267,7.448-11.334,9.478h.6q.988-.418,1.926-.9A24.414,24.414,0,0,0,210.446,80.2Zm7.369-.075a20.328,20.328,0,0,0,1.85-4.475,17.7,17.7,0,0,1,2.173-4.951c2.827-4.033,8.292-5.924,14.08-7.924,4.045-1.4,8.225-2.843,11.442-5.091a17.553,17.553,0,0,0,6.751-9.158A25.537,25.537,0,0,0,255,37.67c-.314-2.71-.9-5.451-1.469-8.1-.927-4.316-1.886-8.781-1.658-13.209a28.14,28.14,0,0,1,6.9-16.551h-.34c-.318.381-.623.769-.923,1.16a27.9,27.9,0,0,0-5.949,15.385c-.224,4.452.735,8.927,1.662,13.256.569,2.646,1.156,5.38,1.465,8.084.578,5.026.367,14.283-7.544,19.813-3.181,2.224-7.338,3.659-11.356,5.05a68.267,68.267,0,0,0-8.162,3.21,15.743,15.743,0,0,0-6.061,4.819,17.923,17.923,0,0,0-2.2,5.006,20.142,20.142,0,0,1-1.828,4.431,16.026,16.026,0,0,1-4.964,4.805h.488A15.775,15.775,0,0,0,217.815,80.122Zm15.635-12.95a33.885,33.885,0,0,1,7.029-3.285c1.115-.422,2.271-.86,3.373-1.337,10.926-4.724,17.857-14.3,17.248-23.836a41.122,41.122,0,0,0-2.455-10.161,46.063,46.063,0,0,1-2.361-9.1c-.8-6.951,2.11-14.035,7.584-19.646h-.4A30.833,30.833,0,0,0,260.562,3.3a25.97,25.97,0,0,0-3.853,7.842,21.124,21.124,0,0,0-.739,8.339,45.948,45.948,0,0,0,2.37,9.138,40.692,40.692,0,0,1,2.446,10.114c.6,9.444-6.267,18.935-17.091,23.615-1.093.473-2.244.908-3.355,1.33a34.107,34.107,0,0,0-7.1,3.323c-3.539,2.415-5.43,5.924-7.1,9.019l-4.749,8.808h.341l4.7-8.72C228.087,73.035,229.964,69.552,233.45,67.172Zm2.733,3.989a43.111,43.111,0,0,1,7.235-3.833c1.115-.507,2.271-1.03,3.373-1.578,14.237-7.087,22.556-20.479,20.693-33.324a55.715,55.715,0,0,0-1.922-7.808,48.986,48.986,0,0,1-2.047-8.839A24.753,24.753,0,0,1,267.645-.193h-.327q-.43.668-.82,1.357A24.614,24.614,0,0,0,263.2,15.8a48.9,48.9,0,0,0,2.052,8.873,55.694,55.694,0,0,1,1.917,7.781c1.85,12.76-6.411,26.063-20.554,33.1-1.1.548-2.249,1.068-3.364,1.571a43.717,43.717,0,0,0-7.289,3.863,15.694,15.694,0,0,0-4.26,4.486,13.626,13.626,0,0,0-1.953,5.343,12.635,12.635,0,0,0,.072,4.006h.309C229.243,79.887,231.358,74.6,236.183,71.161Zm3.149,1.248c2.643-2.129,6.084-3.608,9.412-5.04a51.894,51.894,0,0,0,7.983-3.982,25.6,25.6,0,0,0,6.7-6.526,52.051,52.051,0,0,0,4.453-7.682c2.074-4.2,4.323-9.094,4.713-14.123.381-4.894-.986-9.784-2.307-14.514-.69-2.472-1.4-5.026-1.864-7.553-.5-2.785-1.017-8.216,1.236-13.185h-.323a18.033,18.033,0,0,0-.721,1.887,23.712,23.712,0,0,0-.5,11.328c.457,2.537,1.174,5.094,1.864,7.57,1.317,4.713,2.679,9.587,2.3,14.45-.39,5-2.625,9.872-4.695,14.052-2.424,4.9-5.474,10.434-11.065,14.11a51.758,51.758,0,0,1-7.934,3.955c-3.346,1.439-6.809,2.928-9.488,5.084a14.079,14.079,0,0,0-3.678,4.424,12.508,12.508,0,0,0-1.434,5.132,12.164,12.164,0,0,0,.2,3.023h.3A12.739,12.739,0,0,1,239.332,72.409Zm.291,2.86c1.734-1.51,4.247-2.343,6.679-3.149.6-.2,1.219-.4,1.814-.616A41.313,41.313,0,0,0,267.4,57.269c3.924-5.271,6.7-11.478,8.74-19.527,1.039-4.111,1.962-8.944.9-13.613a37.163,37.163,0,0,0-2.468-6.676,46.238,46.238,0,0,1-2.15-5.458,21.006,21.006,0,0,1,.161-12.188h-.349c0,.01,0,.02-.009.031a21.164,21.164,0,0,0-.108,12.212,45.208,45.208,0,0,0,2.159,5.482,37.336,37.336,0,0,1,2.459,6.642c1.057,4.632.139,9.437-.9,13.528-2.034,8.022-4.8,14.2-8.7,19.456a40.834,40.834,0,0,1-19.143,14.137c-.591.211-1.21.415-1.81.612-2.464.816-5.013,1.66-6.792,3.21a7.084,7.084,0,0,0-2.334,4.023,8.486,8.486,0,0,0,.4,4.475,12.474,12.474,0,0,0,.515,1.214h.336a12.434,12.434,0,0,1-.551-1.279A7.4,7.4,0,0,1,239.623,75.269Zm9.309.2a52.515,52.515,0,0,1,5.81-2.727c1.608-.677,3.266-1.377,4.811-2.18A37.505,37.505,0,0,0,272.68,58.68,54.394,54.394,0,0,0,278.961,47.3a50.658,50.658,0,0,0,3.217-12.093,48.217,48.217,0,0,0-3.024-24.445c-.376-.942-.788-1.9-1.192-2.819a35.708,35.708,0,0,1-2.786-8.141h-.318a35.738,35.738,0,0,0,2.8,8.216c.4.922.811,1.874,1.187,2.812,6.321,15.817,3.974,33.215-6.447,47.73a37.253,37.253,0,0,1-13.027,11.8c-1.528.8-3.185,1.493-4.784,2.166a53.328,53.328,0,0,0-5.846,2.748,15.275,15.275,0,0,0-4.287,3.523,6.381,6.381,0,0,0-1.608,4.492,5.536,5.536,0,0,0,.349,1.527h.323a5.528,5.528,0,0,1-.358-1.541C242.858,79.408,247.1,76.531,248.932,75.473Zm.56,7.709c.242-3.5,4.493-5.91,8.252-8.043l.573-.326c12.1-6.9,21.239-16.953,25.737-28.311a46.414,46.414,0,0,0,3.27-17.235A49,49,0,0,0,284.1,12c-.358-.942-.748-1.9-1.124-2.819C281.73,6.149,280.444,3.01,280.2-.193h-.314v.01c.242,3.234,1.537,6.387,2.787,9.437.376.922.771,1.874,1.124,2.812a47.519,47.519,0,0,1-.04,34.368c-4.48,11.311-13.578,21.323-25.625,28.189-.188.109-.381.218-.573.326-3.808,2.163-8.127,4.615-8.373,8.22a4.771,4.771,0,0,0,.184,1.656h.327A4.434,4.434,0,0,1,249.492,83.183Zm5.972.565c.125-2.693,3.1-4.754,5.712-6.574a96.587,96.587,0,0,0,15.612-13.368,65.55,65.55,0,0,0,11.02-15.718c5.725-11.719,6.429-24.186,1.985-35.113-.538-1.323-1.16-2.649-1.761-3.931a40.17,40.17,0,0,1-3.042-7.852c-.107-.466-.193-.928-.251-1.384h-.314c.063.473.148.949.26,1.425a40.3,40.3,0,0,0,3.055,7.89c.6,1.279,1.223,2.6,1.756,3.921,4.422,10.876,3.718,23.292-1.98,34.96-5.1,10.447-14.282,20.473-26.552,28.995-2.661,1.85-5.68,3.948-5.815,6.74a4.041,4.041,0,0,0,.094,1.088h.323A3.928,3.928,0,0,1,255.464,83.747ZM268.81,79.52c1.537-4.965,5.73-9.162,9.789-13.222,1.227-1.228,2.491-2.493,3.665-3.761a55.458,55.458,0,0,0,10.6-16.341,46.662,46.662,0,0,0,3.678-18,46.68,46.68,0,0,0-3.7-18A53.76,53.76,0,0,0,287.065-.193h-.358a49.164,49.164,0,0,1,9.529,28.383c.009,12.13-5.044,24.278-14.224,34.208-1.169,1.265-2.433,2.53-3.66,3.754-4.077,4.081-8.3,8.3-9.847,13.314a7.237,7.237,0,0,0,.09,5.36h.336A6.989,6.989,0,0,1,268.81,79.52Zm8.386-5.958c1.474-2.863,3.915-5.417,6.276-7.886.318-.333.65-.677.968-1.017a74.448,74.448,0,0,0,13.153-18.153,38.7,38.7,0,0,0,3.328-9.872,28.194,28.194,0,0,0,.054-10.144,55.367,55.367,0,0,0-3.073-9.73c-.47-1.224-.959-2.489-1.4-3.737-1.313-3.71-2.67-8.529-1.707-13.219h-.318a18.337,18.337,0,0,0-.09,6.434,36.436,36.436,0,0,0,1.81,6.846c.444,1.251.932,2.52,1.4,3.744a55.17,55.17,0,0,1,3.064,9.7c2.092,11.467-3.45,24.254-16.477,38-.323.34-.65.684-.968,1.013-2.374,2.479-4.829,5.043-6.317,7.937a11.4,11.4,0,0,0-1.339,5.22,7.963,7.963,0,0,0,1.752,5.037,7.605,7.605,0,0,0,1.08,1.092h.43a7.354,7.354,0,0,1-1.241-1.214C275.467,80.959,275.323,77.2,277.2,73.562Zm4.305.891c.291-3.033,2.822-5.608,5.273-8.1.121-.122.242-.245.358-.367A88.5,88.5,0,0,0,296.889,54.3a56.35,56.35,0,0,0,6.7-12.828,39.382,39.382,0,0,0,2.379-13.715,32.876,32.876,0,0,0-3.042-13.569c-.408-.881-.869-1.772-1.317-2.632-1.295-2.5-2.634-5.088-2.876-7.784a10.991,10.991,0,0,1,.4-3.962h-.318a11.071,11.071,0,0,0-.394,3.975c.242,2.734,1.59,5.339,2.894,7.856.443.857.9,1.745,1.313,2.622,3.768,8.114,4,17.752.654,27.145-2.867,8.046-8.386,16.269-16.4,24.441-.121.122-.237.245-.358.367-2.473,2.517-5.035,5.118-5.331,8.223a7.481,7.481,0,0,0,2.029,5.543,16.144,16.144,0,0,0,5.672,4.067c.641.286,1.3.544,1.98.779h.775a25.324,25.324,0,0,1-2.6-.986C284.126,81.652,281.165,77.966,281.5,74.453Zm15.841,7.934c-4.5-.82-9.892-2.207-11.688-5.669-1.053-2.03-.636-4.6,1.151-7.046a29.885,29.885,0,0,1,4.7-4.69c.43-.374.878-.758,1.308-1.143a49.955,49.955,0,0,0,15.42-24.322A41.511,41.511,0,0,0,306.5,12.556c-.251-.6-.52-1.2-.775-1.785-1.142-2.581-2.325-5.247-2.3-7.978A10.191,10.191,0,0,1,303.914-.2H303.6a10.316,10.316,0,0,0-.488,2.986c-.022,2.772,1.165,5.458,2.316,8.056.26.585.529,1.19.775,1.782,7.222,17.255,1.873,37.3-13.632,51.055-.43.381-.878.765-1.308,1.139a30.124,30.124,0,0,0-4.735,4.73c-1.832,2.51-2.258,5.152-1.169,7.247.829,1.592,2.419,2.867,4.865,3.9a34.068,34.068,0,0,0,7.042,1.918l.161.031a41.932,41.932,0,0,1,8.548,2.177h.627a39.274,39.274,0,0,0-9.1-2.408Zm12.194-.173c-1.819-.269-3.7-.548-5.443-.918a20.68,20.68,0,0,1-8.557-3.6c-2.419-1.921-3.588-4.53-3.051-6.812.672-2.836,3.62-4.887,6.473-6.866a42.817,42.817,0,0,0,3.593-2.683,18.681,18.681,0,0,0,4.538-5.982,27.136,27.136,0,0,0,2.168-6.791c.358-1.86.591-3.768.815-5.608a56.675,56.675,0,0,1,1.4-8.152c.34-1.241.771-2.5,1.192-3.71a28.532,28.532,0,0,0,1.882-7.709c.2-4.037-1.4-7.982-2.948-11.8-.7-1.734-1.429-3.527-1.98-5.305a19.362,19.362,0,0,1-.847-6.468h-.318a18.772,18.772,0,0,0,.86,6.523c.551,1.785,1.281,3.584,1.985,5.322,1.537,3.8,3.127,7.72,2.934,11.719a28.158,28.158,0,0,1-1.873,7.658c-.421,1.214-.851,2.472-1.192,3.72a57.2,57.2,0,0,0-1.407,8.179c-.224,1.84-.457,3.741-.815,5.6-1.071,5.574-3.239,9.713-6.63,12.651a43.06,43.06,0,0,1-3.57,2.666c-2.889,2.006-5.882,4.084-6.572,7a5.719,5.719,0,0,0,.47,3.768,9.266,9.266,0,0,0,2.661,3.251,20.951,20.951,0,0,0,8.7,3.663c1.761.374,3.642.653,5.466.925,3.593.534,7.271,1.081,10.241,2.377h.614a19.273,19.273,0,0,0-2.957-1.1A59.629,59.629,0,0,0,309.536,82.213Zm-1.362-3.567-.318-.048c-3.145-.459-6.706-.979-8.494-2.979-1.765-1.976-1.053-4.588.2-6.373a23.23,23.23,0,0,1,3.866-3.907c.542-.469,1.107-.956,1.635-1.449a24.68,24.68,0,0,0,8.225-15.915,44.069,44.069,0,0,0,.049-4.418,22.95,22.95,0,0,1,.757-8.005,27,27,0,0,1,3.266-5.934c1.537-2.316,3.122-4.71,3.633-7.312.9-4.577-1.581-9.022-3.983-13.317-.242-.435-.5-.888-.739-1.33a24.51,24.51,0,0,1-3-7.852h-.3c.027.173.054.347.09.524a25.145,25.145,0,0,0,2.93,7.42c.242.442.493.894.739,1.33,2.383,4.265,4.847,8.679,3.96,13.192-.5,2.564-2.079,4.941-3.606,7.24a27.1,27.1,0,0,0-3.288,5.982,23.117,23.117,0,0,0-.766,8.067,42.45,42.45,0,0,1-.049,4.4,24.459,24.459,0,0,1-8.153,15.779c-.529.486-1.089.973-1.631,1.442a23.323,23.323,0,0,0-3.911,3.955,6.766,6.766,0,0,0-1.277,3.343,4.329,4.329,0,0,0,1.093,3.275c1.859,2.081,5.492,2.612,8.7,3.078l.318.048a86.493,86.493,0,0,1,21.3,5.948h.641a82.067,82.067,0,0,0-8.2-3.057A87.429,87.429,0,0,0,308.174,78.646Zm18.063-62.234c-.251,3.139-2.258,6.009-4.2,8.784-1.622,2.323-3.3,4.724-4,7.308a20.88,20.88,0,0,0-.394,6.189c.027.707.054,1.439.054,2.156,0,8.25-3.566,16.443-10.048,23.064l-.52.527c-1.837,1.853-3.736,3.768-3.678,6.053a5.138,5.138,0,0,0,2.07,3.707,12.762,12.762,0,0,0,4.561,2.35,41.037,41.037,0,0,0,7.244,1.2c1.111.116,2.262.238,3.378.4a40.556,40.556,0,0,1,15.178,5.356v-.316a36.649,36.649,0,0,0-4.032-2.095,41.844,41.844,0,0,0-11.088-3.18c-1.124-.16-2.28-.282-3.4-.4a40.251,40.251,0,0,1-7.177-1.19c-3.149-.928-6.361-3.095-6.433-5.839-.058-2.2,1.81-4.084,3.615-5.9.175-.177.349-.35.52-.527,6.527-6.662,10.116-14.905,10.111-23.207,0-.721-.027-1.452-.054-2.163a20.625,20.625,0,0,1,.385-6.135c.685-2.554,2.352-4.938,3.965-7.247,1.958-2.8,3.978-5.689,4.234-8.883a11.6,11.6,0,0,0-1.581-6.38,42.15,42.15,0,0,0-4.032-5.9L317.573-.193h-.363l3.454,4.465C323.307,7.683,326.6,11.93,326.237,16.412Zm5.864-5.553c.506,5.751-1.98,11.5-4.565,16.905-.166.343-.332.687-.5,1.034-2.451,5.088-4.982,10.352-5.233,15.813-.063,1.326.009,2.693.076,4.016.17,3.346.345,6.808-1.586,9.8-1.5,2.323-4.117,4.1-6.648,5.815-1.3.884-2.648,1.8-3.835,2.778-1.286,1.058-2.661,2.639-1.926,4.145.748,1.534,3.123,2.034,5.577,2.347A120.087,120.087,0,0,1,335.9,78.551v-.258a120.441,120.441,0,0,0-22.386-5.013c-2.361-.3-4.646-.772-5.336-2.193-.676-1.394.641-2.891,1.864-3.9,1.178-.973,2.518-1.881,3.817-2.761,2.553-1.734,5.2-3.523,6.724-5.89,1.967-3.047,1.792-6.54,1.622-9.917-.067-1.32-.134-2.683-.076-4,.251-5.424,2.773-10.668,5.215-15.739.166-.343.332-.69.5-1.034a62.1,62.1,0,0,0,3.467-8.366,22.308,22.308,0,0,0,1.12-8.638,15.658,15.658,0,0,0-3.454-8.376A16.525,16.525,0,0,0,326.246-.2H325.8A15.9,15.9,0,0,1,332.1,10.859Zm1.653,10.056c-.829,2.646-1.882,5.309-2.9,7.883-1.962,4.965-3.992,10.1-4.5,15.351-.148,1.507-.17,3.044-.193,4.533a27.955,27.955,0,0,1-1.089,8.856c-.771,2.221-2.836,3.829-5.022,5.533-1.891,1.473-3.844,3-4.852,4.941a1.553,1.553,0,0,0,.211,1.816,8.01,8.01,0,0,0,3.66,1.969,23.568,23.568,0,0,0,4.753.888,48.568,48.568,0,0,0,5.358.014,44.745,44.745,0,0,1,5.69.044c.34.031.681.075,1.026.133V72.63c-.327-.051-.659-.092-.99-.122a44.988,44.988,0,0,0-5.743-.048,47.751,47.751,0,0,1-5.313-.014c-2.459-.187-6.854-1.1-8.176-2.744a1.382,1.382,0,0,1-.184-1.605c.981-1.9,2.916-3.408,4.784-4.863,2.119-1.649,4.305-3.357,5.1-5.638a28.123,28.123,0,0,0,1.1-8.913c.022-1.486.045-3.023.193-4.52.506-5.224,2.531-10.345,4.489-15.3,1.017-2.578,2.074-5.244,2.9-7.9a31.49,31.49,0,0,0,1.582-12.035A18.628,18.628,0,0,0,332.446-.2h-.354C336.774,6.475,335.658,14.831,333.754,20.915Zm-1.613,18.657c-.107,1.027-.2,2.074-.291,3.088-.461,5.156-.936,10.485-3.535,15.293a23.08,23.08,0,0,1-2.02,2.887,18.246,18.246,0,0,0-2.607,4.02,2.447,2.447,0,0,0,.99,3.326,7.639,7.639,0,0,0,4.126.983,33.22,33.22,0,0,0,4.713-.476c.788-.119,1.595-.238,2.383-.326v-.241c-.811.092-1.635.214-2.446.333-3.113.466-6.335.945-8.574-.459-2.522-1.578-.381-4.356,1.689-7.043a23.487,23.487,0,0,0,2.038-2.918c2.616-4.843,3.1-10.192,3.561-15.365.09-1.013.184-2.061.291-3.084.43-4.06,1.214-8.5,3.441-12.464V26.54a22.82,22.82,0,0,0-1.761,3.7A37.61,37.61,0,0,0,332.142,39.571Zm-1.859,24.686a2.248,2.248,0,0,0,1.272.272,23.354,23.354,0,0,0,3.476-.435c.287-.051.578-.1.865-.146V63.7l-.932.156c-1.895.326-3.857.663-4.466.224a.508.508,0,0,1-.166-.585A90.79,90.79,0,0,1,335.9,46.961v-.718a90.355,90.355,0,0,0-5.873,17.215A.711.711,0,0,0,330.283,64.258Z" transform="translate(0.1 0.2)" fill="#0e70eb" opacity="0.12"/>
</svg>
