<svg width="942" height="323" viewBox="0 0 942 323" fill="none" xmlns="http://www.w3.org/2000/svg">
<g clip-path="url(#clip0_1003_61)">
<path d="M292 98.9049C292 94.0417 287.544 90.2014 282.453 91.1436C279.24 91.7358 276.69 94.3289 276.127 97.5052C275.773 99.4881 276.191 101.363 277.107 102.907L277.135 102.934C277.443 103.445 277.824 103.813 278.215 104.351L282.861 110.435C283.442 111.188 284.586 111.188 285.166 110.435L289.731 104.45C289.731 104.45 290.584 103.445 290.893 102.925L290.911 102.907C291.61 101.731 292.018 100.367 292.018 98.9139L292 98.9049ZM284.005 102.35C282.063 102.35 280.483 100.789 280.483 98.869C280.483 96.9489 282.063 95.3876 284.005 95.3876C285.947 95.3876 287.526 96.9489 287.526 98.869C287.526 100.789 285.947 102.35 284.005 102.35Z" fill="#FBAD27"/>
</g>
<g clip-path="url(#clip1_1003_61)">
<path d="M645 31.9049C645 27.0417 640.544 23.2014 635.453 24.1436C632.24 24.7358 629.69 27.3289 629.127 30.5052C628.773 32.4881 629.191 34.3634 630.107 35.9067L630.135 35.9336C630.443 36.445 630.824 36.8129 631.215 37.3513L635.861 43.4347C636.442 44.1884 637.586 44.1884 638.166 43.4347L642.731 37.45C642.731 37.45 643.584 36.445 643.893 35.9246L643.911 35.9067C644.61 34.7313 645.018 33.3674 645.018 31.9139L645 31.9049ZM637.005 35.3504C635.063 35.3504 633.483 33.7891 633.483 31.869C633.483 29.9489 635.063 28.3876 637.005 28.3876C638.947 28.3876 640.526 29.9489 640.526 31.869C640.526 33.7891 638.947 35.3504 637.005 35.3504Z" fill="#FBAD27"/>
</g>
<path d="M650.819 272.763C651.849 273.449 652.481 274.618 652.691 275.834C652.902 277.049 652.715 278.304 652.364 279.489C651.685 281.78 649.929 283.9 648.165 285.505C646.503 283.44 646.581 280.362 646.722 278.811C646.94 276.348 648.837 272.038 650.819 272.763Z" fill="#FBAD27"/>
<path d="M649.765 289.776C649.687 288.397 650.491 287.049 651.669 286.332C652.847 285.607 654.33 285.482 655.664 285.825C656.281 285.981 656.929 286.285 657.194 286.869C657.444 287.407 657.288 288.077 656.921 288.545C656.554 289.013 656.016 289.324 655.462 289.542C653.565 290.306 651.591 290.704 649.765 289.776Z" fill="#FBAD27"/>
<path d="M645.965 296.487C645.965 296.487 646.012 296.315 646.121 296.019C646.246 295.692 646.402 295.271 646.589 294.764C647.003 293.72 647.557 292.216 648.673 290.86C649.773 289.504 651.139 288.607 652.215 288.233C652.754 288.038 653.207 287.945 653.526 287.914C653.683 287.89 653.807 287.89 653.893 287.89C653.979 287.89 654.018 287.89 654.018 287.89C654.018 287.929 653.308 287.929 652.262 288.342C651.217 288.74 649.898 289.636 648.813 290.969C647.721 292.294 647.151 293.774 646.714 294.811C646.495 295.333 646.324 295.754 646.191 296.042C646.058 296.331 645.98 296.487 645.973 296.487H645.965Z" fill="#263238"/>
<path d="M649.671 276.177C649.671 276.177 649.671 276.255 649.656 276.387C649.64 276.543 649.617 276.746 649.586 276.995C649.523 277.525 649.414 278.289 649.281 279.224C649.008 281.102 648.595 283.697 648.072 286.558C647.549 289.41 647.018 291.99 646.605 293.845C646.402 294.772 646.23 295.52 646.097 296.042C646.035 296.284 645.988 296.487 645.949 296.635C645.91 296.767 645.895 296.837 645.887 296.837C645.887 296.837 645.887 296.759 645.918 296.627C645.949 296.471 645.988 296.276 646.035 296.027C646.144 295.481 646.3 294.733 646.488 293.821C646.87 291.958 647.377 289.387 647.9 286.534C648.423 283.682 648.852 281.094 649.156 279.216C649.305 278.296 649.43 277.54 649.515 276.995C649.554 276.746 649.593 276.551 649.617 276.395C649.64 276.255 649.656 276.184 649.664 276.184L649.671 276.177Z" fill="#263238"/>
<path d="M646.105 290.587C646.16 287.68 644.708 284.788 642.352 283.089C641.751 282.661 640.931 282.302 640.299 282.692C639.667 283.082 639.636 283.986 639.776 284.71C640.377 287.734 642.976 290.259 646.027 290.766" fill="#FBAD27"/>
<path d="M642.273 285.365C642.273 285.365 642.414 285.451 642.656 285.622C642.78 285.708 642.929 285.817 643.085 285.957C643.241 286.098 643.436 286.246 643.615 286.441C643.803 286.628 644.013 286.838 644.209 287.08C644.419 287.314 644.614 287.586 644.825 287.875C645.223 288.459 645.605 289.145 645.894 289.909C646.183 290.673 646.354 291.436 646.44 292.138C646.472 292.488 646.511 292.824 646.503 293.143C646.518 293.455 646.487 293.751 646.471 294.016C646.464 294.281 646.409 294.523 646.378 294.733C646.347 294.943 646.308 295.123 646.269 295.263C646.198 295.551 646.152 295.707 646.136 295.707C646.097 295.699 646.284 295.06 646.347 294.008C646.362 293.743 646.378 293.455 646.362 293.151C646.362 292.839 646.323 292.512 646.284 292.169C646.191 291.483 646.019 290.735 645.738 289.979C645.449 289.231 645.075 288.553 644.692 287.976C644.497 287.688 644.302 287.415 644.099 287.181C643.912 286.932 643.709 286.729 643.53 286.534C642.788 285.778 642.25 285.404 642.273 285.373V285.365Z" fill="#263238"/>
<path d="M445.242 311.723L425.858 291.304L409.962 292.2L398.71 296.642L391.577 311.723" fill="#F5F5F5"/>
<path d="M409.962 292.2L426.427 311.723H445.242L425.858 291.304L409.962 292.2Z" fill="#E0E0E0"/>
<path d="M391.577 311.723C391.577 311.723 391.608 311.622 391.686 311.434C391.78 311.224 391.897 310.959 392.045 310.624C392.381 309.884 392.857 308.847 393.45 307.553C394.699 304.88 396.454 301.108 398.569 296.572L398.6 296.51L398.663 296.487C402.026 295.154 405.826 293.634 409.908 292.021L409.939 292.005H409.97C412.42 291.865 414.98 291.717 417.602 291.569C420.458 291.413 423.236 291.257 425.866 291.109H425.959L426.022 291.171C431.547 297.032 436.369 302.145 439.834 305.823C441.528 307.639 442.885 309.104 443.845 310.141C444.29 310.632 444.649 311.021 444.906 311.31C445.148 311.575 445.265 311.723 445.258 311.731C445.25 311.738 445.109 311.614 444.852 311.357C444.579 311.076 444.204 310.702 443.736 310.234C442.753 309.221 441.364 307.787 439.639 306.002C436.151 302.347 431.289 297.274 425.725 291.452L425.881 291.514C423.252 291.662 420.474 291.818 417.618 291.982C414.996 292.13 412.436 292.27 409.986 292.403L410.048 292.387C405.967 293.985 402.151 295.481 398.788 296.806L398.881 296.72C396.712 301.233 394.909 304.981 393.637 307.639C393.005 308.925 392.506 309.946 392.147 310.671C391.983 310.998 391.85 311.255 391.741 311.466C391.647 311.645 391.593 311.731 391.585 311.731L391.577 311.723Z" fill="#263238"/>
<path d="M304.014 311.723L311.411 298.902L324.904 295.138L337.522 305.862V311.723" fill="#EBEBEB"/>
<path d="M311.411 298.902L337.522 305.862L324.903 295.138L311.411 298.902Z" fill="#E0E0E0"/>
<path d="M337.522 311.723C337.522 311.723 337.499 311.59 337.483 311.325C337.475 311.021 337.46 310.647 337.452 310.172C337.436 309.12 337.421 307.662 337.389 305.854L337.436 305.956C334.33 303.337 329.851 299.573 324.771 295.294L324.958 295.333C323.975 295.606 322.937 295.894 321.884 296.19C318.146 297.227 314.603 298.209 311.458 299.082L311.567 298.996C309.367 302.745 307.502 305.924 306.16 308.216C305.512 309.299 304.981 310.172 304.599 310.819C304.427 311.091 304.287 311.317 304.17 311.505C304.068 311.66 304.014 311.731 304.006 311.731C303.998 311.731 304.037 311.637 304.115 311.473C304.217 311.279 304.341 311.045 304.49 310.764C304.856 310.109 305.348 309.213 305.965 308.107C307.276 305.8 309.094 302.597 311.24 298.817L311.279 298.754L311.349 298.731C314.494 297.85 318.029 296.853 321.759 295.808C322.812 295.512 323.85 295.224 324.833 294.951L324.935 294.92L325.013 294.99C330.062 299.315 334.502 303.119 337.584 305.761L337.631 305.8V305.862C337.608 307.67 337.584 309.128 337.569 310.18C337.553 310.647 337.545 311.029 337.538 311.333C337.53 311.598 337.514 311.731 337.499 311.731L337.522 311.723Z" fill="#263238"/>
<path d="M571.893 288.669L553.165 278.016L520.289 289.979L493.718 311.723L587.696 311.247L571.893 288.669Z" fill="#F5F5F5"/>
<path d="M493.718 311.723L527.421 292.2L571.893 288.67L552.416 277.159L520.289 289.979L493.718 311.723Z" fill="#E0E0E0"/>
<path d="M542.139 311.481L558.963 299.962L574.313 298.871L561.476 301.716L554.819 311.419L542.139 311.481Z" fill="#E0E0E0"/>
<path d="M493.718 311.723C493.718 311.723 493.757 311.684 493.835 311.606C493.928 311.52 494.046 311.419 494.194 311.294C494.537 311.006 495.005 310.608 495.622 310.094C496.894 309.034 498.728 307.514 501.037 305.597C505.72 301.739 512.337 296.292 520.172 289.839L520.195 289.823H520.219C527.273 286.955 535.248 283.721 543.66 280.307C546.602 279.115 549.49 277.946 552.307 276.816L552.4 276.777L552.486 276.831C559.595 281.102 566.213 285.069 571.987 288.537L572.018 288.553L572.042 288.584C576.763 295.388 580.688 301.038 583.45 305.013C584.8 306.984 585.87 308.535 586.611 309.611C586.962 310.133 587.235 310.538 587.43 310.826C587.61 311.107 587.696 311.255 587.696 311.255C587.696 311.255 587.586 311.123 587.383 310.858C587.173 310.569 586.892 310.18 586.517 309.673C585.76 308.605 584.668 307.07 583.279 305.129C580.493 301.178 576.529 295.551 571.753 288.779L571.808 288.825C566.017 285.373 559.4 281.422 552.275 277.166L552.455 277.182C549.646 278.32 546.758 279.489 543.816 280.681C535.396 284.079 527.421 287.306 520.359 290.15L520.406 290.119C512.532 296.525 505.883 301.942 501.178 305.768C498.837 307.655 496.987 309.151 495.7 310.187C495.076 310.686 494.584 311.068 494.241 311.349C494.085 311.466 493.96 311.567 493.858 311.637C493.772 311.699 493.726 311.731 493.726 311.731L493.718 311.723Z" fill="#263238"/>
<path d="M574.836 298.832C574.836 298.832 574.407 298.91 573.619 298.996C572.768 299.074 571.636 299.175 570.263 299.292C567.352 299.518 563.412 299.822 558.971 300.165L559.073 300.134C558.48 300.539 557.855 300.968 557.223 301.404C553.087 304.233 549.326 306.782 546.595 308.605C545.268 309.486 544.168 310.211 543.349 310.749C542.997 310.975 542.701 311.162 542.451 311.317C542.241 311.442 542.131 311.505 542.123 311.489C542.116 311.481 542.209 311.395 542.404 311.247C542.639 311.076 542.919 310.865 543.255 310.616C544.059 310.047 545.128 309.291 546.431 308.364C549.123 306.478 552.853 303.898 556.989 301.069C557.621 300.633 558.246 300.212 558.839 299.806L558.885 299.775H558.94C563.388 299.479 567.329 299.222 570.24 299.035C571.613 298.965 572.745 298.902 573.603 298.856C574.391 298.824 574.828 298.817 574.828 298.84L574.836 298.832Z" fill="#263238"/>
<path d="M660.439 300.523L649.194 296.081L630.435 299.487L621.344 311.692L665.855 311.723L660.439 300.523Z" fill="#F5F5F5"/>
<path d="M630.435 299.487C630.981 299.386 660.447 300.531 660.447 300.531L649.194 296.089L630.435 299.495V299.487Z" fill="#E0E0E0"/>
<path d="M621.344 311.692C621.344 311.692 621.383 311.606 621.492 311.45C621.617 311.271 621.773 311.053 621.96 310.78C622.405 310.164 623.014 309.322 623.771 308.262C625.378 306.08 627.618 303.025 630.294 299.378L630.333 299.323L630.404 299.308C634.5 298.56 639.276 297.679 644.364 296.751C645.995 296.455 647.603 296.167 649.163 295.886H649.218L649.273 295.894C653.416 297.546 657.232 299.066 660.51 300.368L660.572 300.391L660.595 300.446C662.195 303.828 663.522 306.626 664.466 308.621C664.903 309.572 665.254 310.336 665.519 310.897C665.629 311.138 665.715 311.333 665.785 311.497C665.839 311.637 665.871 311.707 665.863 311.707C665.863 311.707 665.816 311.645 665.746 311.512C665.66 311.356 665.558 311.162 665.441 310.928C665.16 310.374 664.786 309.626 664.31 308.691C663.335 306.712 661.961 303.929 660.307 300.578L660.393 300.664C657.107 299.378 653.276 297.881 649.124 296.253H649.234C647.673 296.549 646.073 296.837 644.442 297.133C639.354 298.045 634.571 298.902 630.474 299.643L630.583 299.573C627.86 303.181 625.573 306.205 623.942 308.372C623.146 309.4 622.514 310.226 622.054 310.827C621.851 311.084 621.679 311.294 621.547 311.466C621.43 311.606 621.367 311.676 621.359 311.676L621.344 311.692Z" fill="#263238"/>
<path d="M744 311.723C744 311.832 626.916 311.925 482.512 311.925C338.107 311.925 221 311.832 221 311.723C221 311.614 338.061 311.52 482.512 311.52C626.963 311.52 744 311.614 744 311.723Z" fill="#263238"/>
<path d="M422.877 317.919C422.877 318.028 406.107 318.121 385.428 318.121C364.748 318.121 347.979 318.028 347.979 317.919C347.979 317.809 364.74 317.716 385.428 317.716C406.115 317.716 422.877 317.809 422.877 317.919Z" fill="#263238"/>
<path d="M395.12 322.797C395.12 322.906 389.829 323 383.298 323C376.766 323 371.476 322.906 371.476 322.797C371.476 322.688 376.766 322.595 383.298 322.595C389.829 322.595 395.12 322.688 395.12 322.797Z" fill="#263238"/>
<path d="M588.496 8.266C588.496 7.398 588.006 6.852 586.914 6.852H585.276V9.722H586.914C588.006 9.722 588.496 9.148 588.496 8.266ZM583.316 5.228H586.984C589.336 5.228 590.512 6.586 590.512 8.224C590.512 9.414 589.854 10.618 588.286 11.038L590.624 15H588.356L586.2 11.192H585.276V15H583.316V5.228ZM595.616 8.728C594.678 8.728 593.936 9.33 593.782 10.394H597.464C597.436 9.372 596.624 8.728 595.616 8.728ZM599.298 12.564C598.878 13.992 597.59 15.126 595.672 15.126C593.418 15.126 591.78 13.558 591.78 11.122C591.78 8.672 593.376 7.118 595.672 7.118C597.912 7.118 599.494 8.644 599.494 10.954C599.494 11.206 599.48 11.458 599.438 11.71H593.768C593.866 12.858 594.65 13.502 595.63 13.502C596.47 13.502 596.932 13.082 597.184 12.564H599.298ZM600.421 11.094C600.421 8.672 601.989 7.118 603.963 7.118C605.181 7.118 606.063 7.678 606.525 8.35V7.244H608.499V15.056C608.499 17.156 607.211 18.822 604.663 18.822C602.479 18.822 600.953 17.73 600.757 15.952H602.703C602.899 16.652 603.627 17.114 604.607 17.114C605.685 17.114 606.525 16.498 606.525 15.056V13.852C606.063 14.524 605.181 15.126 603.963 15.126C601.989 15.126 600.421 13.516 600.421 11.094ZM606.525 11.122C606.525 9.652 605.545 8.84 604.467 8.84C603.417 8.84 602.423 9.624 602.423 11.094C602.423 12.564 603.417 13.404 604.467 13.404C605.545 13.404 606.525 12.592 606.525 11.122ZM610.413 15V7.244H612.373V15H610.413ZM611.407 6.32C610.707 6.32 610.203 5.816 610.203 5.172C610.203 4.528 610.707 4.024 611.407 4.024C612.093 4.024 612.611 4.528 612.611 5.172C612.611 5.816 612.093 6.32 611.407 6.32ZM620.33 12.788C620.33 14.118 619.168 15.126 617.278 15.126C615.332 15.126 613.974 13.992 613.89 12.55H615.864C615.934 13.138 616.48 13.586 617.264 13.586C618.034 13.586 618.454 13.236 618.454 12.788C618.454 11.402 614.072 12.284 614.072 9.442C614.072 8.154 615.22 7.118 617.138 7.118C619.014 7.118 620.148 8.14 620.26 9.68H618.384C618.328 9.078 617.852 8.672 617.082 8.672C616.354 8.672 615.976 8.966 615.976 9.414C615.976 10.828 620.274 9.946 620.33 12.788ZM622.247 12.592V8.854H621.323V7.244H622.247V5.326H624.221V7.244H625.957V8.854H624.221V12.606C624.221 13.124 624.431 13.348 625.047 13.348H625.957V15H624.725C623.241 15 622.247 14.37 622.247 12.592ZM630.698 8.728C629.76 8.728 629.018 9.33 628.864 10.394H632.546C632.518 9.372 631.706 8.728 630.698 8.728ZM634.38 12.564C633.96 13.992 632.672 15.126 630.754 15.126C628.5 15.126 626.862 13.558 626.862 11.122C626.862 8.672 628.458 7.118 630.754 7.118C632.994 7.118 634.576 8.644 634.576 10.954C634.576 11.206 634.562 11.458 634.52 11.71H628.85C628.948 12.858 629.732 13.502 630.712 13.502C631.552 13.502 632.014 13.082 632.266 12.564H634.38ZM637.967 11.136V15H636.007V7.244H637.967V8.448C638.457 7.65 639.269 7.132 640.347 7.132V9.19H639.829C638.667 9.19 637.967 9.638 637.967 11.136ZM646.417 15L644.135 7.244H646.123L647.495 13.152L648.979 7.244H651.051L652.507 13.138L653.879 7.244H655.755L653.487 15H651.373L649.959 9.582L648.545 15H646.417ZM656.816 15V7.244H658.776V15H656.816ZM657.81 6.32C657.11 6.32 656.606 5.816 656.606 5.172C656.606 4.528 657.11 4.024 657.81 4.024C658.496 4.024 659.014 4.528 659.014 5.172C659.014 5.816 658.496 6.32 657.81 6.32ZM661.02 12.592V8.854H660.096V7.244H661.02V5.326H662.994V7.244H664.73V8.854H662.994V12.606C662.994 13.124 663.204 13.348 663.82 13.348H664.73V15H663.498C662.014 15 661.02 14.37 661.02 12.592ZM666.14 15V4.64H668.1V8.21C668.604 7.552 669.472 7.132 670.508 7.132C672.258 7.132 673.532 8.308 673.532 10.45V15H671.572V10.716C671.572 9.47 670.886 8.798 669.85 8.798C668.786 8.798 668.1 9.47 668.1 10.716V15H666.14ZM686.054 7.244V15H684.08V14.02C683.59 14.678 682.736 15.098 681.77 15.098C679.964 15.098 678.662 13.922 678.662 11.794V7.244H680.622V11.514C680.622 12.76 681.308 13.432 682.344 13.432C683.408 13.432 684.08 12.76 684.08 11.514V7.244H686.054ZM694.007 12.788C694.007 14.118 692.845 15.126 690.955 15.126C689.009 15.126 687.651 13.992 687.567 12.55H689.541C689.611 13.138 690.157 13.586 690.941 13.586C691.711 13.586 692.131 13.236 692.131 12.788C692.131 11.402 687.749 12.284 687.749 9.442C687.749 8.154 688.897 7.118 690.815 7.118C692.691 7.118 693.825 8.14 693.937 9.68H692.061C692.005 9.078 691.529 8.672 690.759 8.672C690.031 8.672 689.653 8.966 689.653 9.414C689.653 10.828 693.951 9.946 694.007 12.788Z" fill="#ADADAD"/>
<path d="M241.309 50.228C244.431 50.228 246.461 52.16 246.461 55.128C246.461 58.082 244.431 60 241.309 60H237.893V50.228H241.309ZM239.853 58.334H241.239C243.297 58.334 244.459 57.158 244.459 55.128C244.459 53.098 243.297 51.88 241.239 51.88H239.853V58.334ZM251.26 53.728C250.322 53.728 249.58 54.33 249.426 55.394H253.108C253.08 54.372 252.268 53.728 251.26 53.728ZM254.942 57.564C254.522 58.992 253.234 60.126 251.316 60.126C249.062 60.126 247.424 58.558 247.424 56.122C247.424 53.672 249.02 52.118 251.316 52.118C253.556 52.118 255.138 53.644 255.138 55.954C255.138 56.206 255.124 56.458 255.082 56.71H249.412C249.51 57.858 250.294 58.502 251.274 58.502C252.114 58.502 252.576 58.082 252.828 57.564H254.942ZM256.065 56.122C256.065 53.686 257.661 52.118 259.901 52.118C261.833 52.118 263.135 53.126 263.555 54.862H261.441C261.217 54.204 260.699 53.784 259.887 53.784C258.795 53.784 258.067 54.61 258.067 56.122C258.067 57.634 258.795 58.446 259.887 58.446C260.699 58.446 261.203 58.082 261.441 57.382H263.555C263.135 59.034 261.833 60.126 259.901 60.126C257.661 60.126 256.065 58.558 256.065 56.122ZM272.48 56.122C272.48 58.558 270.688 60.126 268.434 60.126C266.194 60.126 264.5 58.558 264.5 56.122C264.5 53.672 266.25 52.118 268.49 52.118C270.73 52.118 272.48 53.672 272.48 56.122ZM266.488 56.122C266.488 57.662 267.384 58.418 268.434 58.418C269.47 58.418 270.464 57.662 270.464 56.122C270.464 54.568 269.498 53.826 268.462 53.826C267.426 53.826 266.488 54.568 266.488 56.122ZM273.414 56.094C273.414 53.672 274.982 52.118 276.97 52.118C277.992 52.118 278.972 52.594 279.504 53.322V49.64H281.492V60H279.504V58.852C279.042 59.566 278.174 60.126 276.956 60.126C274.982 60.126 273.414 58.516 273.414 56.094ZM279.518 56.122C279.518 54.652 278.538 53.84 277.46 53.84C276.41 53.84 275.416 54.624 275.416 56.094C275.416 57.564 276.41 58.404 277.46 58.404C278.538 58.404 279.518 57.592 279.518 56.122ZM286.738 53.728C285.8 53.728 285.058 54.33 284.904 55.394H288.586C288.558 54.372 287.746 53.728 286.738 53.728ZM290.42 57.564C290 58.992 288.712 60.126 286.794 60.126C284.54 60.126 282.902 58.558 282.902 56.122C282.902 53.672 284.498 52.118 286.794 52.118C289.034 52.118 290.616 53.644 290.616 55.954C290.616 56.206 290.602 56.458 290.56 56.71H284.89C284.988 57.858 285.772 58.502 286.752 58.502C287.592 58.502 288.054 58.082 288.306 57.564H290.42ZM298.687 57.662L300.717 52.244H302.803L298.001 63.668H295.915L297.595 59.804L294.487 52.244H296.685L298.687 57.662ZM311.35 56.122C311.35 58.558 309.558 60.126 307.304 60.126C305.064 60.126 303.37 58.558 303.37 56.122C303.37 53.672 305.12 52.118 307.36 52.118C309.6 52.118 311.35 53.672 311.35 56.122ZM305.358 56.122C305.358 57.662 306.254 58.418 307.304 58.418C308.34 58.418 309.334 57.662 309.334 56.122C309.334 54.568 308.368 53.826 307.332 53.826C306.296 53.826 305.358 54.568 305.358 56.122ZM320.109 52.244V60H318.135V59.02C317.645 59.678 316.791 60.098 315.825 60.098C314.019 60.098 312.717 58.922 312.717 56.794V52.244H314.677V56.514C314.677 57.76 315.363 58.432 316.399 58.432C317.463 58.432 318.135 57.76 318.135 56.514V52.244H320.109ZM324.003 56.136V60H322.043V52.244H324.003V53.448C324.493 52.65 325.305 52.132 326.383 52.132V54.19H325.865C324.703 54.19 324.003 54.638 324.003 56.136ZM230.713 74.364C231.175 73.706 232.071 73.118 233.275 73.118C235.263 73.118 236.817 74.672 236.817 77.094C236.817 79.516 235.263 81.126 233.275 81.126C232.057 81.126 231.189 80.524 230.713 79.894V84.696H228.753V73.244H230.713V74.364ZM234.815 77.094C234.815 75.624 233.821 74.84 232.757 74.84C231.707 74.84 230.713 75.652 230.713 77.122C230.713 78.592 231.707 79.404 232.757 79.404C233.821 79.404 234.815 78.564 234.815 77.094ZM240.201 77.136V81H238.241V73.244H240.201V74.448C240.691 73.65 241.503 73.132 242.581 73.132V75.19H242.063C240.901 75.19 240.201 75.638 240.201 77.136ZM251.392 77.122C251.392 79.558 249.6 81.126 247.346 81.126C245.106 81.126 243.412 79.558 243.412 77.122C243.412 74.672 245.162 73.118 247.402 73.118C249.642 73.118 251.392 74.672 251.392 77.122ZM245.4 77.122C245.4 78.662 246.296 79.418 247.346 79.418C248.382 79.418 249.376 78.662 249.376 77.122C249.376 75.568 248.41 74.826 247.374 74.826C246.338 74.826 245.4 75.568 245.4 77.122ZM252.325 77.094C252.325 74.672 253.893 73.118 255.881 73.118C256.903 73.118 257.883 73.594 258.415 74.322V70.64H260.403V81H258.415V79.852C257.953 80.566 257.085 81.126 255.867 81.126C253.893 81.126 252.325 79.516 252.325 77.094ZM258.429 77.122C258.429 75.652 257.449 74.84 256.371 74.84C255.321 74.84 254.327 75.624 254.327 77.094C254.327 78.564 255.321 79.404 256.371 79.404C257.449 79.404 258.429 78.592 258.429 77.122ZM269.64 73.244V81H267.666V80.02C267.176 80.678 266.322 81.098 265.356 81.098C263.55 81.098 262.248 79.922 262.248 77.794V73.244H264.208V77.514C264.208 78.76 264.894 79.432 265.93 79.432C266.994 79.432 267.666 78.76 267.666 77.514V73.244H269.64ZM271.069 77.122C271.069 74.686 272.665 73.118 274.905 73.118C276.837 73.118 278.139 74.126 278.559 75.862H276.445C276.221 75.204 275.703 74.784 274.891 74.784C273.799 74.784 273.071 75.61 273.071 77.122C273.071 78.634 273.799 79.446 274.891 79.446C275.703 79.446 276.207 79.082 276.445 78.382H278.559C278.139 80.034 276.837 81.126 274.905 81.126C272.665 81.126 271.069 79.558 271.069 77.122ZM280.303 78.592V74.854H279.379V73.244H280.303V71.326H282.277V73.244H284.013V74.854H282.277V78.606C282.277 79.124 282.487 79.348 283.103 79.348H284.013V81H282.781C281.297 81 280.303 80.37 280.303 78.592ZM288.759 81V73.244H290.719V81H288.759ZM289.753 72.32C289.053 72.32 288.549 71.816 288.549 71.172C288.549 70.528 289.053 70.024 289.753 70.024C290.439 70.024 290.957 70.528 290.957 71.172C290.957 71.816 290.439 72.32 289.753 72.32ZM298.087 81V76.716C298.087 75.47 297.401 74.798 296.365 74.798C295.301 74.798 294.615 75.47 294.615 76.716V81H292.655V73.244H294.615V74.21C295.119 73.552 295.959 73.132 296.953 73.132C298.759 73.132 300.047 74.308 300.047 76.45V81H298.087ZM301.085 73.244H303.185L305.145 79.194L307.105 73.244H309.191L306.321 81H303.941L301.085 73.244ZM317.782 77.122C317.782 79.558 315.99 81.126 313.736 81.126C311.496 81.126 309.802 79.558 309.802 77.122C309.802 74.672 311.552 73.118 313.792 73.118C316.032 73.118 317.782 74.672 317.782 77.122ZM311.79 77.122C311.79 78.662 312.686 79.418 313.736 79.418C314.772 79.418 315.766 78.662 315.766 77.122C315.766 75.568 314.8 74.826 313.764 74.826C312.728 74.826 311.79 75.568 311.79 77.122ZM319.22 81V73.244H321.18V81H319.22ZM320.214 72.32C319.514 72.32 319.01 71.816 319.01 71.172C319.01 70.528 319.514 70.024 320.214 70.024C320.9 70.024 321.418 70.528 321.418 71.172C321.418 71.816 320.9 72.32 320.214 72.32ZM322.612 77.122C322.612 74.686 324.208 73.118 326.448 73.118C328.38 73.118 329.682 74.126 330.102 75.862H327.988C327.764 75.204 327.246 74.784 326.434 74.784C325.342 74.784 324.614 75.61 324.614 77.122C324.614 78.634 325.342 79.446 326.434 79.446C327.246 79.446 327.75 79.082 327.988 78.382H330.102C329.682 80.034 328.38 81.126 326.448 81.126C324.208 81.126 322.612 79.558 322.612 77.122ZM334.87 74.728C333.932 74.728 333.19 75.33 333.036 76.394H336.718C336.69 75.372 335.878 74.728 334.87 74.728ZM338.552 78.564C338.132 79.992 336.844 81.126 334.926 81.126C332.672 81.126 331.034 79.558 331.034 77.122C331.034 74.672 332.63 73.118 334.926 73.118C337.166 73.118 338.748 74.644 338.748 76.954C338.748 77.206 338.734 77.458 338.692 77.71H333.022C333.12 78.858 333.904 79.502 334.884 79.502C335.724 79.502 336.186 79.082 336.438 78.564H338.552Z" fill="#ADADAD"/>
<path d="M51.3306 150.262V144.228H53.2906V150.276C53.2906 151.62 54.0186 152.32 55.2646 152.32C56.5246 152.32 57.2526 151.62 57.2526 150.276V144.228H59.2266V150.262C59.2266 152.838 57.3786 154.098 55.2366 154.098C53.0946 154.098 51.3306 152.838 51.3306 150.262ZM63.0803 147.364C63.5423 146.706 64.4383 146.118 65.6423 146.118C67.6303 146.118 69.1843 147.672 69.1843 150.094C69.1843 152.516 67.6303 154.126 65.6423 154.126C64.4243 154.126 63.5563 153.524 63.0803 152.894V157.696H61.1203V146.244H63.0803V147.364ZM67.1823 150.094C67.1823 148.624 66.1883 147.84 65.1243 147.84C64.0743 147.84 63.0803 148.652 63.0803 150.122C63.0803 151.592 64.0743 152.404 65.1243 152.404C66.1883 152.404 67.1823 151.564 67.1823 150.094ZM70.6086 154V143.64H72.5686V154H70.6086ZM81.9951 150.122C81.9951 152.558 80.2031 154.126 77.9491 154.126C75.7091 154.126 74.0151 152.558 74.0151 150.122C74.0151 147.672 75.7651 146.118 78.0051 146.118C80.2451 146.118 81.9951 147.672 81.9951 150.122ZM76.0031 150.122C76.0031 151.662 76.8991 152.418 77.9491 152.418C78.9851 152.418 79.9791 151.662 79.9791 150.122C79.9791 148.568 79.0131 147.826 77.9771 147.826C76.9411 147.826 76.0031 148.568 76.0031 150.122ZM82.9288 150.094C82.9288 147.672 84.4968 146.118 86.4708 146.118C87.7168 146.118 88.5708 146.706 89.0328 147.35V146.244H91.0068V154H89.0328V152.866C88.5708 153.538 87.6888 154.126 86.4568 154.126C84.4968 154.126 82.9288 152.516 82.9288 150.094ZM89.0328 150.122C89.0328 148.652 88.0528 147.84 86.9748 147.84C85.9248 147.84 84.9308 148.624 84.9308 150.094C84.9308 151.564 85.9248 152.404 86.9748 152.404C88.0528 152.404 89.0328 151.592 89.0328 150.122ZM92.4171 150.094C92.4171 147.672 93.9851 146.118 95.9731 146.118C96.9951 146.118 97.9751 146.594 98.5071 147.322V143.64H100.495V154H98.5071V152.852C98.0451 153.566 97.1771 154.126 95.9591 154.126C93.9851 154.126 92.4171 152.516 92.4171 150.094ZM98.5211 150.122C98.5211 148.652 97.5411 147.84 96.4631 147.84C95.4131 147.84 94.4191 148.624 94.4191 150.094C94.4191 151.564 95.4131 152.404 96.4631 152.404C97.5411 152.404 98.5211 151.592 98.5211 150.122Z" fill="#649DE1"/>
<path d="M105.241 150.094C105.241 147.672 106.809 146.118 108.783 146.118C110.029 146.118 110.883 146.706 111.345 147.35V146.244H113.319V154H111.345V152.866C110.883 153.538 110.001 154.126 108.769 154.126C106.809 154.126 105.241 152.516 105.241 150.094ZM111.345 150.122C111.345 148.652 110.365 147.84 109.287 147.84C108.237 147.84 107.243 148.624 107.243 150.094C107.243 151.564 108.237 152.404 109.287 152.404C110.365 152.404 111.345 151.592 111.345 150.122ZM120.666 154V149.716C120.666 148.47 119.98 147.798 118.944 147.798C117.88 147.798 117.194 148.47 117.194 149.716V154H115.234V146.244H117.194V147.21C117.698 146.552 118.538 146.132 119.532 146.132C121.338 146.132 122.626 147.308 122.626 149.45V154H120.666ZM127.793 151.662L129.823 146.244H131.909L127.107 157.668H125.021L126.701 153.804L123.593 146.244H125.791L127.793 151.662ZM23.5002 168.364C23.9622 167.706 24.8582 167.118 26.0622 167.118C28.0502 167.118 29.6042 168.672 29.6042 171.094C29.6042 173.516 28.0502 175.126 26.0622 175.126C24.8442 175.126 23.9762 174.524 23.5002 173.894V178.696H21.5402V167.244H23.5002V168.364ZM27.6022 171.094C27.6022 169.624 26.6082 168.84 25.5442 168.84C24.4942 168.84 23.5002 169.652 23.5002 171.122C23.5002 172.592 24.4942 173.404 25.5442 173.404C26.6082 173.404 27.6022 172.564 27.6022 171.094ZM32.9885 171.136V175H31.0285V167.244H32.9885V168.448C33.4785 167.65 34.2905 167.132 35.3685 167.132V169.19H34.8505C33.6885 169.19 32.9885 169.638 32.9885 171.136ZM44.1787 171.122C44.1787 173.558 42.3867 175.126 40.1327 175.126C37.8927 175.126 36.1987 173.558 36.1987 171.122C36.1987 168.672 37.9487 167.118 40.1887 167.118C42.4287 167.118 44.1787 168.672 44.1787 171.122ZM38.1867 171.122C38.1867 172.662 39.0827 173.418 40.1327 173.418C41.1687 173.418 42.1627 172.662 42.1627 171.122C42.1627 169.568 41.1967 168.826 40.1607 168.826C39.1247 168.826 38.1867 169.568 38.1867 171.122ZM45.1124 171.094C45.1124 168.672 46.6804 167.118 48.6684 167.118C49.6904 167.118 50.6704 167.594 51.2024 168.322V164.64H53.1904V175H51.2024V173.852C50.7404 174.566 49.8724 175.126 48.6544 175.126C46.6804 175.126 45.1124 173.516 45.1124 171.094ZM51.2164 171.122C51.2164 169.652 50.2364 168.84 49.1584 168.84C48.1084 168.84 47.1144 169.624 47.1144 171.094C47.1144 172.564 48.1084 173.404 49.1584 173.404C50.2364 173.404 51.2164 172.592 51.2164 171.122ZM62.4267 167.244V175H60.4527V174.02C59.9627 174.678 59.1087 175.098 58.1427 175.098C56.3367 175.098 55.0347 173.922 55.0347 171.794V167.244H56.9947V171.514C56.9947 172.76 57.6807 173.432 58.7167 173.432C59.7807 173.432 60.4527 172.76 60.4527 171.514V167.244H62.4267ZM63.8565 171.122C63.8565 168.686 65.4525 167.118 67.6925 167.118C69.6245 167.118 70.9265 168.126 71.3465 169.862H69.2325C69.0085 169.204 68.4905 168.784 67.6785 168.784C66.5865 168.784 65.8585 169.61 65.8585 171.122C65.8585 172.634 66.5865 173.446 67.6785 173.446C68.4905 173.446 68.9945 173.082 69.2325 172.382H71.3465C70.9265 174.034 69.6245 175.126 67.6925 175.126C65.4525 175.126 63.8565 173.558 63.8565 171.122ZM73.0904 172.592V168.854H72.1664V167.244H73.0904V165.326H75.0644V167.244H76.8004V168.854H75.0644V172.606C75.0644 173.124 75.2744 173.348 75.8904 173.348H76.8004V175H75.5684C74.0844 175 73.0904 174.37 73.0904 172.592ZM81.5461 175V167.244H83.5061V175H81.5461ZM82.5401 166.32C81.8401 166.32 81.3361 165.816 81.3361 165.172C81.3361 164.528 81.8401 164.024 82.5401 164.024C83.2261 164.024 83.7441 164.528 83.7441 165.172C83.7441 165.816 83.2261 166.32 82.5401 166.32ZM90.8746 175V170.716C90.8746 169.47 90.1886 168.798 89.1526 168.798C88.0886 168.798 87.4026 169.47 87.4026 170.716V175H85.4426V167.244H87.4026V168.21C87.9066 167.552 88.7466 167.132 89.7406 167.132C91.5466 167.132 92.8346 168.308 92.8346 170.45V175H90.8746ZM93.8724 167.244H95.9724L97.9324 173.194L99.8924 167.244H101.978L99.1084 175H96.7284L93.8724 167.244ZM110.569 171.122C110.569 173.558 108.777 175.126 106.523 175.126C104.283 175.126 102.589 173.558 102.589 171.122C102.589 168.672 104.339 167.118 106.579 167.118C108.819 167.118 110.569 168.672 110.569 171.122ZM104.577 171.122C104.577 172.662 105.473 173.418 106.523 173.418C107.559 173.418 108.553 172.662 108.553 171.122C108.553 169.568 107.587 168.826 106.551 168.826C105.515 168.826 104.577 169.568 104.577 171.122ZM112.007 175V167.244H113.967V175H112.007ZM113.001 166.32C112.301 166.32 111.797 165.816 111.797 165.172C111.797 164.528 112.301 164.024 113.001 164.024C113.687 164.024 114.205 164.528 114.205 165.172C114.205 165.816 113.687 166.32 113.001 166.32ZM115.399 171.122C115.399 168.686 116.995 167.118 119.236 167.118C121.168 167.118 122.47 168.126 122.89 169.862H120.776C120.552 169.204 120.034 168.784 119.222 168.784C118.13 168.784 117.402 169.61 117.402 171.122C117.402 172.634 118.13 173.446 119.222 173.446C120.034 173.446 120.538 173.082 120.776 172.382H122.89C122.47 174.034 121.168 175.126 119.236 175.126C116.995 175.126 115.399 173.558 115.399 171.122ZM127.657 168.728C126.719 168.728 125.977 169.33 125.823 170.394H129.505C129.477 169.372 128.665 168.728 127.657 168.728ZM131.339 172.564C130.919 173.992 129.631 175.126 127.713 175.126C125.459 175.126 123.821 173.558 123.821 171.122C123.821 168.672 125.417 167.118 127.713 167.118C129.953 167.118 131.535 168.644 131.535 170.954C131.535 171.206 131.521 171.458 131.479 171.71H125.809C125.907 172.858 126.691 173.502 127.671 173.502C128.511 173.502 128.973 173.082 129.225 172.564H131.339Z" fill="#ADADAD"/>
<path d="M809.798 152.172C809.798 153.712 808.566 155.098 806.34 155.098C804.31 155.098 802.742 154.034 802.714 152.186H804.814C804.87 152.97 805.388 153.488 806.298 153.488C807.222 153.488 807.768 152.998 807.768 152.298C807.768 150.184 802.728 151.458 802.742 147.916C802.742 146.152 804.17 145.088 806.186 145.088C808.188 145.088 809.56 146.11 809.686 147.874H807.53C807.488 147.23 806.97 146.726 806.13 146.712C805.36 146.684 804.786 147.062 804.786 147.86C804.786 149.82 809.798 148.728 809.798 152.172ZM811.805 152.592V148.854H810.881V147.244H811.805V145.326H813.779V147.244H815.515V148.854H813.779V152.606C813.779 153.124 813.989 153.348 814.605 153.348H815.515V155H814.283C812.799 155 811.805 154.37 811.805 152.592ZM816.421 151.094C816.421 148.672 817.989 147.118 819.963 147.118C821.209 147.118 822.063 147.706 822.525 148.35V147.244H824.499V155H822.525V153.866C822.063 154.538 821.181 155.126 819.949 155.126C817.989 155.126 816.421 153.516 816.421 151.094ZM822.525 151.122C822.525 149.652 821.545 148.84 820.467 148.84C819.417 148.84 818.423 149.624 818.423 151.094C818.423 152.564 819.417 153.404 820.467 153.404C821.545 153.404 822.525 152.592 822.525 151.122ZM828.373 151.136V155H826.413V147.244H828.373V148.448C828.863 147.65 829.675 147.132 830.753 147.132V149.19H830.235C829.073 149.19 828.373 149.638 828.373 151.136ZM832.381 152.592V148.854H831.457V147.244H832.381V145.326H834.355V147.244H836.091V148.854H834.355V152.606C834.355 153.124 834.565 153.348 835.181 153.348H836.091V155H834.859C833.375 155 832.381 154.37 832.381 152.592ZM841.145 152.592V148.854H840.221V147.244H841.145V145.326H843.119V147.244H844.855V148.854H843.119V152.606C843.119 153.124 843.329 153.348 843.945 153.348H844.855V155H843.623C842.139 155 841.145 154.37 841.145 152.592ZM846.265 155V144.64H848.225V148.21C848.729 147.552 849.597 147.132 850.633 147.132C852.383 147.132 853.657 148.308 853.657 150.45V155H851.697V150.716C851.697 149.47 851.011 148.798 849.975 148.798C848.911 148.798 848.225 149.47 848.225 150.716V155H846.265ZM858.853 148.728C857.915 148.728 857.173 149.33 857.019 150.394H860.701C860.673 149.372 859.861 148.728 858.853 148.728ZM862.535 152.564C862.115 153.992 860.827 155.126 858.909 155.126C856.655 155.126 855.017 153.558 855.017 151.122C855.017 148.672 856.613 147.118 858.909 147.118C861.149 147.118 862.731 148.644 862.731 150.954C862.731 151.206 862.717 151.458 862.675 151.71H857.005C857.103 152.858 857.887 153.502 858.867 153.502C859.707 153.502 860.169 153.082 860.421 152.564H862.535ZM881.749 176L879.467 168.244H881.455L882.827 174.152L884.311 168.244H886.383L887.839 174.138L889.211 168.244H891.087L888.819 176H886.705L885.291 170.582L883.877 176H881.749ZM892.148 176V168.244H894.108V176H892.148ZM893.142 167.32C892.442 167.32 891.938 166.816 891.938 166.172C891.938 165.528 892.442 165.024 893.142 165.024C893.828 165.024 894.346 165.528 894.346 166.172C894.346 166.816 893.828 167.32 893.142 167.32ZM896.352 173.592V169.854H895.428V168.244H896.352V166.326H898.326V168.244H900.062V169.854H898.326V173.606C898.326 174.124 898.536 174.348 899.152 174.348H900.062V176H898.83C897.346 176 896.352 175.37 896.352 173.592ZM901.472 176V165.64H903.432V169.21C903.936 168.552 904.804 168.132 905.84 168.132C907.59 168.132 908.864 169.308 908.864 171.45V176H906.904V171.716C906.904 170.47 906.218 169.798 905.182 169.798C904.118 169.798 903.432 170.47 903.432 171.716V176H901.472ZM921.386 168.244V176H919.412V175.02C918.922 175.678 918.068 176.098 917.102 176.098C915.296 176.098 913.994 174.922 913.994 172.794V168.244H915.954V172.514C915.954 173.76 916.64 174.432 917.676 174.432C918.74 174.432 919.412 173.76 919.412 172.514V168.244H921.386ZM929.34 173.788C929.34 175.118 928.178 176.126 926.288 176.126C924.342 176.126 922.984 174.992 922.9 173.55H924.874C924.944 174.138 925.49 174.586 926.274 174.586C927.044 174.586 927.464 174.236 927.464 173.788C927.464 172.402 923.082 173.284 923.082 170.442C923.082 169.154 924.23 168.118 926.148 168.118C928.024 168.118 929.158 169.14 929.27 170.68H927.394C927.338 170.078 926.862 169.672 926.092 169.672C925.364 169.672 924.986 169.966 924.986 170.414C924.986 171.828 929.284 170.946 929.34 173.788Z" fill="#ADADAD"/>
<path d="M867.021 150.1C867.021 147.174 869.163 145.102 871.977 145.102C874.147 145.102 875.911 146.264 876.569 148.266H874.315C873.853 147.328 873.013 146.866 871.963 146.866C870.255 146.866 869.037 148.112 869.037 150.1C869.037 152.074 870.255 153.334 871.963 153.334C873.013 153.334 873.853 152.872 874.315 151.92H876.569C875.911 153.936 874.147 155.084 871.977 155.084C869.163 155.084 867.021 153.026 867.021 150.1ZM877.739 151.094C877.739 148.672 879.307 147.118 881.281 147.118C882.527 147.118 883.381 147.706 883.843 148.35V147.244H885.817V155H883.843V153.866C883.381 154.538 882.499 155.126 881.267 155.126C879.307 155.126 877.739 153.516 877.739 151.094ZM883.843 151.122C883.843 149.652 882.863 148.84 881.785 148.84C880.735 148.84 879.741 149.624 879.741 151.094C879.741 152.564 880.735 153.404 881.785 153.404C882.863 153.404 883.843 152.592 883.843 151.122ZM889.692 151.136V155H887.732V147.244H889.692V148.448C890.182 147.65 890.994 147.132 892.072 147.132V149.19H891.554C890.392 149.19 889.692 149.638 889.692 151.136ZM896.724 148.728C895.786 148.728 895.044 149.33 894.89 150.394H898.572C898.544 149.372 897.732 148.728 896.724 148.728ZM900.406 152.564C899.986 153.992 898.698 155.126 896.78 155.126C894.526 155.126 892.888 153.558 892.888 151.122C892.888 148.672 894.484 147.118 896.78 147.118C899.02 147.118 900.602 148.644 900.602 150.954C900.602 151.206 900.588 151.458 900.546 151.71H894.876C894.974 152.858 895.758 153.502 896.738 153.502C897.578 153.502 898.04 153.082 898.292 152.564H900.406ZM808.636 166.214V167.81H804.926V170.26H808.216V171.814H804.926V174.404H808.636V176H802.966V166.214H808.636ZM814.701 176L813.105 173.592L811.691 176H809.591L812.125 172.108L809.563 168.244H811.775L813.357 170.638L814.785 168.244H816.885L814.337 172.108L816.913 176H814.701ZM819.938 169.364C820.4 168.706 821.296 168.118 822.5 168.118C824.488 168.118 826.042 169.672 826.042 172.094C826.042 174.516 824.488 176.126 822.5 176.126C821.282 176.126 820.414 175.524 819.938 174.894V179.696H817.978V168.244H819.938V169.364ZM824.04 172.094C824.04 170.624 823.046 169.84 821.982 169.84C820.932 169.84 819.938 170.652 819.938 172.122C819.938 173.592 820.932 174.404 821.982 174.404C823.046 174.404 824.04 173.564 824.04 172.094ZM830.798 169.728C829.86 169.728 829.118 170.33 828.964 171.394H832.646C832.618 170.372 831.806 169.728 830.798 169.728ZM834.48 173.564C834.06 174.992 832.772 176.126 830.854 176.126C828.6 176.126 826.962 174.558 826.962 172.122C826.962 169.672 828.558 168.118 830.854 168.118C833.094 168.118 834.676 169.644 834.676 171.954C834.676 172.206 834.662 172.458 834.62 172.71H828.95C829.048 173.858 829.832 174.502 830.812 174.502C831.652 174.502 832.114 174.082 832.366 173.564H834.48ZM835.603 172.094C835.603 169.672 837.171 168.118 839.159 168.118C840.181 168.118 841.161 168.594 841.693 169.322V165.64H843.681V176H841.693V174.852C841.231 175.566 840.363 176.126 839.145 176.126C837.171 176.126 835.603 174.516 835.603 172.094ZM841.707 172.122C841.707 170.652 840.727 169.84 839.649 169.84C838.599 169.84 837.605 170.624 837.605 172.094C837.605 173.564 838.599 174.404 839.649 174.404C840.727 174.404 841.707 173.592 841.707 172.122ZM845.595 176V168.244H847.555V176H845.595ZM846.589 167.32C845.889 167.32 845.385 166.816 845.385 166.172C845.385 165.528 845.889 165.024 846.589 165.024C847.275 165.024 847.793 165.528 847.793 166.172C847.793 166.816 847.275 167.32 846.589 167.32ZM849.799 173.592V169.854H848.875V168.244H849.799V166.326H851.773V168.244H853.509V169.854H851.773V173.606C851.773 174.124 851.983 174.348 852.599 174.348H853.509V176H852.277C850.793 176 849.799 175.37 849.799 173.592ZM854.919 176V168.244H856.879V176H854.919ZM855.913 167.32C855.213 167.32 854.709 166.816 854.709 166.172C854.709 165.528 855.213 165.024 855.913 165.024C856.599 165.024 857.117 165.528 857.117 166.172C857.117 166.816 856.599 167.32 855.913 167.32ZM866.306 172.122C866.306 174.558 864.514 176.126 862.26 176.126C860.02 176.126 858.326 174.558 858.326 172.122C858.326 169.672 860.076 168.118 862.316 168.118C864.556 168.118 866.306 169.672 866.306 172.122ZM860.314 172.122C860.314 173.662 861.21 174.418 862.26 174.418C863.296 174.418 864.29 173.662 864.29 172.122C864.29 170.568 863.324 169.826 862.288 169.826C861.252 169.826 860.314 170.568 860.314 172.122ZM873.175 176V171.716C873.175 170.47 872.489 169.798 871.453 169.798C870.389 169.798 869.703 170.47 869.703 171.716V176H867.743V168.244H869.703V169.21C870.207 168.552 871.047 168.132 872.041 168.132C873.847 168.132 875.135 169.308 875.135 171.45V176H873.175Z" fill="#649DE1"/>
<path d="M478.46 192.2C478.46 192.06 479.8 191.94 481.46 191.94C483.12 191.94 484.46 192.06 484.46 192.2C484.46 192.34 483.12 192.46 481.46 192.46C479.8 192.46 478.46 192.34 478.46 192.2Z" fill="#263238"/>
<path d="M454.48 192.2C454.48 192.06 457.16 191.94 460.47 191.94C463.78 191.94 466.46 192.06 466.46 192.2C466.46 192.34 463.78 192.46 460.47 192.46C457.16 192.46 454.48 192.34 454.48 192.2Z" fill="#263238"/>
<path d="M430.51 192.2C430.51 192.06 433.19 191.94 436.5 191.94C439.81 191.94 442.49 192.06 442.49 192.2C442.49 192.34 439.81 192.46 436.5 192.46C433.19 192.46 430.51 192.34 430.51 192.2Z" fill="#263238"/>
<path d="M406.53 192.2C406.53 192.06 409.21 191.94 412.52 191.94C415.83 191.94 418.51 192.06 418.51 192.2C418.51 192.34 415.83 192.46 412.52 192.46C409.21 192.46 406.53 192.34 406.53 192.2Z" fill="#263238"/>
<path d="M382.56 192.2C382.56 192.06 385.24 191.94 388.55 191.94C391.86 191.94 394.54 192.06 394.54 192.2C394.54 192.34 391.86 192.46 388.55 192.46C385.24 192.46 382.56 192.34 382.56 192.2Z" fill="#263238"/>
<path d="M358.6 191.67C358.62 191.53 361.29 191.71 364.59 191.83C367.89 191.96 370.57 192.05 370.57 192.2C370.57 192.34 367.88 192.48 364.56 192.35C361.24 192.23 358.57 191.81 358.59 191.67H358.6Z" fill="#263238"/>
<path d="M337.4 181.97C337.53 181.86 339.19 183.99 341.86 185.9C344.52 187.83 347.02 188.83 346.95 188.99C346.93 189.05 346.27 188.87 345.27 188.44C344.27 188.01 342.92 187.31 341.56 186.32C338.82 184.35 337.3 182.03 337.41 181.97H337.4Z" fill="#263238"/>
<path d="M330.86 159.31C330.99 159.31 331.16 161.98 331.56 165.25C331.95 168.52 332.52 171.14 332.38 171.18C332.24 171.22 331.44 168.63 331.04 165.32C330.63 162.02 330.69 159.31 330.85 159.31H330.86Z" fill="#263238"/>
<path d="M322.12 137.48C322.21 137.39 324.12 139.34 325.87 142.18C327.64 145.02 328.51 147.6 328.38 147.65C328.24 147.71 327.17 145.25 325.43 142.46C323.7 139.66 322 137.59 322.12 137.49V137.48Z" fill="#263238"/>
<path d="M302.44 124.31C302.47 124.18 305.11 124.85 308.11 126.32C311.11 127.78 313.27 129.44 313.19 129.54C313.1 129.67 310.85 128.22 307.88 126.78C304.93 125.33 302.4 124.45 302.44 124.3V124.31Z" fill="#263238"/>
<path d="M278.72 123.4C278.69 123.27 281.3 122.53 284.63 122.29C286.29 122.16 287.81 122.19 288.89 122.24C289.97 122.29 290.65 122.34 290.65 122.42C290.65 122.49 289.98 122.57 288.89 122.61C287.8 122.65 286.32 122.69 284.67 122.81C281.39 123.05 278.75 123.55 278.72 123.4Z" fill="#263238"/>
<path d="M257.89 134.6C257.79 134.51 259.58 132.46 262.27 130.48C264.95 128.49 267.43 127.37 267.49 127.49C267.56 127.63 265.22 128.94 262.58 130.9C259.93 132.85 258 134.71 257.89 134.6Z" fill="#263238"/>
<path d="M247.42 155.69C247.29 155.69 247.43 152.96 248.41 149.76C249.38 146.55 250.77 144.21 250.88 144.27C251.02 144.34 249.85 146.76 248.9 149.91C247.93 153.05 247.56 155.71 247.41 155.69H247.42Z" fill="#263238"/>
<path d="M246.88 179.66C246.74 179.66 246.66 176.97 246.71 173.66C246.76 170.35 246.91 167.67 247.06 167.67C247.2 167.67 247.28 170.36 247.23 173.67C247.18 176.98 247.03 179.66 246.88 179.66Z" fill="#263238"/>
<path d="M246.53 203.63C246.39 203.63 246.31 200.94 246.36 197.63C246.41 194.32 246.56 191.64 246.71 191.64C246.85 191.64 246.93 194.33 246.88 197.64C246.83 200.95 246.68 203.63 246.53 203.63Z" fill="#263238"/>
<path d="M246.18 227.6C246.04 227.6 245.96 224.91 246.01 221.6C246.06 218.29 246.21 215.61 246.36 215.61C246.5 215.61 246.58 218.3 246.53 221.61C246.48 224.92 246.33 227.6 246.18 227.6Z" fill="#263238"/>
<path d="M239.57 250.19C239.44 250.1 240.96 247.88 242.39 244.92C243.84 241.97 244.63 239.4 244.78 239.45C244.91 239.48 244.33 242.14 242.86 245.15C241.4 248.16 239.68 250.27 239.57 250.19Z" fill="#263238"/>
<path d="M220.77 264.51C220.72 264.36 223.21 263.37 226.09 261.78C228.98 260.2 231.15 258.63 231.24 258.75C231.33 258.85 229.27 260.63 226.34 262.23C223.42 263.84 220.81 264.63 220.77 264.5V264.51Z" fill="#263238"/>
<path d="M197.13 267.29C197.13 267.16 199.81 267.04 203.12 267.04C203.93 267.04 204.7 267.04 205.45 267.05C206.1 267.05 206.73 267.03 207.35 267.03C208.43 267.03 209.11 267.07 209.11 267.14C209.11 267.21 208.45 267.31 207.36 267.4C206.74 267.44 206.11 267.49 205.45 267.54C204.73 267.57 203.94 267.56 203.12 267.57C199.81 267.57 197.12 267.45 197.13 267.3V267.29Z" fill="#263238"/>
<path d="M174.49 260.38C174.58 260.25 176.85 261.67 179.84 263.05C182.82 264.44 185.37 265.27 185.33 265.42C185.3 265.55 182.65 264.93 179.62 263.52C176.59 262.12 174.41 260.49 174.49 260.38Z" fill="#263238"/>
<path d="M159.54 242.14C159.69 242.08 160.68 244.57 162.35 247.41C164.01 250.25 165.68 252.35 165.56 252.45C165.46 252.54 163.59 250.57 161.9 247.68C160.2 244.8 159.41 242.19 159.53 242.15L159.54 242.14Z" fill="#263238"/>
<path d="M157.26 218.44C157.4 218.44 157.52 221.12 157.52 224.43C157.52 227.74 157.4 230.42 157.27 230.42C157.12 230.42 157 227.74 157 224.43C157 221.12 157.12 218.44 157.26 218.44Z" fill="#263238"/>
<path d="M157.26 194.46C157.4 194.46 157.52 197.14 157.52 200.45C157.52 203.76 157.4 206.44 157.26 206.44C157.12 206.44 157 203.76 157 200.45C157 197.14 157.12 194.46 157.26 194.46Z" fill="#263238"/>
<path d="M157.26 170.49C157.4 170.49 157.52 173.17 157.52 176.48C157.52 179.79 157.4 182.47 157.26 182.47C157.12 182.47 157 179.79 157 176.48C157 173.17 157.12 170.49 157.26 170.49Z" fill="#263238"/>
<path d="M157.26 146.51C157.4 146.51 157.52 149.19 157.52 152.5C157.52 155.81 157.4 158.49 157.26 158.49C157.12 158.49 157 155.81 157 152.5C157 149.19 157.12 146.51 157.26 146.51Z" fill="#263238"/>
<path d="M157.21 122.54C157.28 122.54 157.36 123.2 157.44 124.29C157.49 125.38 157.52 126.87 157.52 128.53C157.52 131.84 157.4 134.52 157.26 134.52C157.12 134.52 157 131.84 157 128.53C157 126.88 157.03 125.38 157.07 124.29C157.09 123.21 157.14 122.54 157.21 122.53V122.54Z" fill="#263238"/>
<path d="M485.2 192.27C485.2 192.13 487.88 191.97 491.19 191.93C494.5 191.88 497.18 191.96 497.19 192.11C497.19 192.25 494.51 192.41 491.2 192.45C487.89 192.5 485.21 192.42 485.2 192.27Z" fill="#263238"/>
<path d="M771.89 149.02C771.75 149.02 771.67 146.33 771.72 143.02C771.77 139.71 771.92 137.03 772.07 137.03C772.21 137.03 772.29 139.72 772.24 143.03C772.19 146.34 772.04 149.02 771.89 149.02Z" fill="#263238"/>
<path d="M771.549 172.99C771.409 172.99 771.329 170.3 771.379 166.99C771.429 163.68 771.579 161 771.729 161C771.869 161 771.949 163.69 771.899 167C771.849 170.31 771.699 172.99 771.549 172.99Z" fill="#263238"/>
<path d="M771.2 196.96C771.06 196.96 770.98 194.27 771.03 190.96C771.08 187.65 771.23 184.97 771.38 184.97C771.52 184.97 771.6 187.66 771.55 190.97C771.5 194.28 771.35 196.96 771.2 196.96Z" fill="#263238"/>
<path d="M764.59 219.55C764.46 219.46 765.98 217.24 767.41 214.28C768.86 211.33 769.65 208.76 769.8 208.81C769.93 208.84 769.35 211.5 767.88 214.51C766.42 217.52 764.7 219.63 764.59 219.55Z" fill="#263238"/>
<path d="M745.79 233.87C745.74 233.72 748.23 232.73 751.11 231.14C754 229.56 756.17 227.99 756.26 228.11C756.35 228.21 754.29 229.99 751.36 231.59C748.44 233.2 745.83 233.99 745.79 233.86V233.87Z" fill="#263238"/>
<path d="M722.14 236.65C722.14 236.52 724.82 236.4 728.13 236.4C728.94 236.4 729.71 236.4 730.46 236.41C731.11 236.41 731.74 236.39 732.36 236.39C733.44 236.39 734.12 236.43 734.12 236.5C734.12 236.57 733.46 236.67 732.37 236.76C731.75 236.8 731.12 236.85 730.46 236.9C729.74 236.93 728.95 236.92 728.13 236.93C724.82 236.93 722.13 236.81 722.14 236.66V236.65Z" fill="#263238"/>
<path d="M699.499 229.74C699.589 229.61 701.859 231.03 704.849 232.41C707.829 233.8 710.379 234.63 710.339 234.78C710.309 234.91 707.659 234.29 704.629 232.88C701.599 231.48 699.419 229.85 699.499 229.74Z" fill="#263238"/>
<path d="M684.549 211.5C684.699 211.44 685.689 213.93 687.359 216.77C689.019 219.61 690.689 221.71 690.569 221.81C690.469 221.9 688.599 219.93 686.909 217.04C685.209 214.16 684.419 211.55 684.539 211.51L684.549 211.5Z" fill="#263238"/>
<path d="M682.28 187.8C682.42 187.8 682.54 190.48 682.54 193.79C682.54 197.1 682.42 199.78 682.29 199.78C682.14 199.78 682.02 197.1 682.02 193.79C682.02 190.48 682.14 187.8 682.28 187.8Z" fill="#263238"/>
<path d="M682.28 163.82C682.42 163.82 682.54 166.5 682.54 169.81C682.54 173.12 682.42 175.8 682.28 175.8C682.14 175.8 682.02 173.12 682.02 169.81C682.02 166.5 682.14 163.82 682.28 163.82Z" fill="#263238"/>
<path d="M682.28 139.85C682.42 139.85 682.54 142.53 682.54 145.84C682.54 149.15 682.42 151.83 682.28 151.83C682.14 151.83 682.02 149.15 682.02 145.84C682.02 142.53 682.14 139.85 682.28 139.85Z" fill="#263238"/>
<path d="M682.28 115.87C682.42 115.87 682.54 118.55 682.54 121.86C682.54 125.17 682.42 127.85 682.28 127.85C682.14 127.85 682.02 125.17 682.02 121.86C682.02 118.55 682.14 115.87 682.28 115.87Z" fill="#263238"/>
<path d="M682.22 91.9C682.29 91.9 682.37 92.56 682.45 93.65C682.5 94.74 682.53 96.23 682.53 97.89C682.53 101.2 682.41 103.88 682.27 103.88C682.13 103.88 682.01 101.2 682.01 97.89C682.01 96.24 682.04 94.74 682.08 93.65C682.1 92.57 682.15 91.9 682.22 91.89V91.9Z" fill="#263238"/>
<path d="M673.18 70.18C673.27 70.09 675.21 72 676.99 74.83C678.79 77.65 679.67 80.23 679.54 80.28C679.4 80.34 678.31 77.89 676.55 75.11C674.8 72.33 673.06 70.28 673.18 70.18Z" fill="#263238"/>
<path d="M653.039 57.79C653.069 57.66 655.729 58.2 658.799 59.52C661.869 60.83 664.089 62.4 664.019 62.51C663.939 62.64 661.619 61.29 658.599 60C655.579 58.69 653.009 57.94 653.049 57.79H653.039Z" fill="#263238"/>
<path d="M629.249 57.01C629.219 56.88 631.849 56.21 635.189 56.04C636.859 55.95 638.359 56.02 639.439 56.06C640.519 56.11 641.199 56.17 641.199 56.24C641.199 56.31 640.529 56.38 639.439 56.42C638.349 56.48 636.859 56.47 635.209 56.56C631.919 56.72 629.279 57.16 629.249 57.01Z" fill="#263238"/>
<path d="M608.13 67.68C608.03 67.59 609.88 65.59 612.62 63.68C615.36 61.76 617.86 60.7 617.92 60.83C617.99 60.97 615.62 62.22 612.92 64.11C610.22 65.99 608.24 67.79 608.13 67.68Z" fill="#263238"/>
<path d="M597.04 88.45C596.91 88.44 597.14 85.72 598.22 82.55C599.29 79.38 600.75 77.08 600.86 77.14C601 77.21 599.76 79.59 598.72 82.71C597.66 85.82 597.2 88.46 597.05 88.44L597.04 88.45Z" fill="#263238"/>
<path d="M596.629 112.4C596.489 112.4 596.369 109.72 596.369 106.41C596.369 103.1 596.489 100.42 596.629 100.42C596.769 100.42 596.889 103.1 596.889 106.41C596.889 109.72 596.769 112.4 596.629 112.4Z" fill="#263238"/>
<path d="M596.629 136.38C596.489 136.38 596.369 133.7 596.369 130.39C596.369 127.08 596.489 124.4 596.629 124.4C596.769 124.4 596.889 127.08 596.889 130.39C596.889 133.7 596.769 136.38 596.629 136.38Z" fill="#263238"/>
<path d="M596.02 160.31C595.87 160.28 596.32 157.64 596.36 154.35C596.36 151.05 596.48 148.36 596.62 148.36C596.76 148.36 596.88 151.04 596.88 154.36C596.84 157.71 596.14 160.35 596.01 160.31H596.02Z" fill="#263238"/>
<path d="M584.26 180.72C584.16 180.6 586.12 178.78 588.2 176.23C590.3 173.69 591.69 171.4 591.82 171.48C591.94 171.54 590.73 173.98 588.6 176.56C586.48 179.15 584.33 180.82 584.25 180.72H584.26Z" fill="#263238"/>
<path d="M562.859 190.8C562.839 190.65 565.469 190.17 568.619 189.2C571.769 188.24 574.219 187.16 574.289 187.3C574.349 187.42 571.969 188.73 568.769 189.7C565.579 190.68 562.869 190.94 562.859 190.81V190.8Z" fill="#263238"/>
<path d="M538.909 191.6C538.909 191.46 541.589 191.3 544.899 191.26C548.209 191.21 550.889 191.29 550.899 191.44C550.909 191.59 548.219 191.74 544.909 191.78C541.599 191.83 538.919 191.75 538.909 191.6Z" fill="#263238"/>
<path d="M514.939 191.94C514.939 191.8 517.619 191.64 520.929 191.6C524.239 191.55 526.919 191.63 526.929 191.78C526.929 191.92 524.249 192.08 520.939 192.12C517.629 192.17 514.949 192.09 514.939 191.94Z" fill="#263238"/>
<path d="M467 192.61C467 192.47 469.68 192.31 472.99 192.27C476.3 192.22 478.98 192.3 478.99 192.45C479 192.6 476.31 192.75 473 192.79C469.69 192.84 467.01 192.76 467 192.61Z" fill="#263238"/>
<path d="M443.17 192.86C443.17 192.72 444.51 192.58 446.17 192.56C447.83 192.54 449.17 192.63 449.17 192.78C449.17 192.93 447.83 193.06 446.17 193.08C444.51 193.1 443.17 193.01 443.17 192.86Z" fill="#263238"/>
<path d="M771.266 130C771.125 127.057 771.059 124.114 771 121.171L771.266 121.16C778.175 120.885 785.091 120.938 792 121.531C785.098 122.123 778.182 122.176 771.266 121.901L771.524 121.531C771.472 124.357 771.399 127.184 771.266 130Z" fill="#263238"/>
<path d="M156.08 116.35C155.9 113.69 155.8 111.02 155.73 108.35L156.08 108.7C146.72 108.96 137.35 108.91 128 108.35C137.35 107.79 146.72 107.74 156.08 108L156.44 108.01C156.36 110.79 156.27 113.57 156.08 116.35Z" fill="#263238"/>
<path d="M453.057 90.5039C448.82 90.1454 444.559 91.2754 440.704 93.0757C436.623 94.9774 432.776 97.7908 430.739 101.804C428.71 105.818 428.936 111.18 432.136 114.336C425.986 115.965 421.359 121.429 419.424 127.484C417.488 133.54 417.902 140.11 419.127 146.344C419.705 149.29 420.75 152.564 423.466 153.834C425.222 154.66 427.36 154.465 429.014 155.471C430.622 156.445 431.402 158.315 432.432 159.882C434.406 162.867 437.645 164.994 441.172 165.618C444.699 166.249 448.476 165.368 451.363 163.241L463.966 96.3101C461.5 92.8497 457.286 90.8702 453.049 90.5117L453.057 90.5039Z" fill="#455A64"/>
<path d="M461.539 97.7051C461.539 97.7051 461.25 98.0948 460.673 98.7494C460.095 99.4041 459.245 100.347 458.168 101.477C456.006 103.729 452.939 106.839 448.92 109.497C444.902 112.154 440.664 113.549 437.527 113.877C435.959 114.056 434.679 114.04 433.805 113.955C433.368 113.931 433.033 113.861 432.798 113.83C432.572 113.791 432.455 113.768 432.455 113.752C432.455 113.721 432.939 113.76 433.813 113.799C434.687 113.838 435.951 113.806 437.488 113.596C440.571 113.199 444.73 111.788 448.694 109.162C452.658 106.535 455.749 103.48 457.957 101.282C459.018 100.207 459.892 99.3183 460.556 98.6481C461.172 98.0246 461.523 97.6895 461.539 97.7129V97.7051Z" fill="#263238"/>
<path d="M436.95 117.766C436.903 117.781 436.7 117.454 436.537 116.854C436.365 116.261 436.271 115.381 436.42 114.438C436.568 113.495 436.935 112.692 437.278 112.178C437.621 111.656 437.918 111.406 437.957 111.437C438.058 111.507 437.091 112.7 436.825 114.5C436.521 116.293 437.075 117.727 436.958 117.758L436.95 117.766Z" fill="#263238"/>
<path d="M441.195 120.252C441.195 120.252 441.266 120.376 441.375 120.618C441.476 120.867 441.632 121.226 441.796 121.701C442.147 122.644 442.584 124.039 442.982 125.801C443.786 129.292 444.325 134.42 442.959 139.813C441.586 145.214 438.464 149.423 435.694 151.73C434.313 152.907 433.064 153.686 432.159 154.146C431.722 154.395 431.347 154.528 431.105 154.644C430.863 154.746 430.731 154.8 430.723 154.785C430.707 154.754 431.207 154.512 432.081 154.013C432.955 153.514 434.164 152.712 435.499 151.519C438.183 149.181 441.211 145.027 442.561 139.72C443.903 134.413 443.419 129.355 442.701 125.871C442.342 124.117 441.944 122.714 441.64 121.756C441.344 120.797 441.164 120.267 441.195 120.26V120.252Z" fill="#263238"/>
<path d="M443.372 130.796C443.372 130.796 443.021 130.75 442.42 130.586C441.811 130.422 440.938 130.204 439.845 129.947C437.668 129.44 434.617 128.864 431.222 128.552C427.82 128.248 424.722 128.271 422.482 128.388C421.366 128.443 420.461 128.505 419.837 128.56C419.212 128.606 418.861 128.622 418.861 128.591C418.861 128.56 419.197 128.497 419.821 128.404C420.445 128.302 421.351 128.201 422.467 128.108C424.706 127.921 427.835 127.85 431.261 128.154C434.687 128.466 437.746 129.09 439.923 129.674C441.008 129.962 441.882 130.227 442.475 130.438C443.068 130.641 443.396 130.773 443.388 130.796H443.372Z" fill="#263238"/>
<g opacity="0.3">
<path d="M433.002 113.822C437.247 116.558 442.967 116.238 447.47 113.947C451.972 111.655 455.273 107.385 457.013 102.646C451.13 109.395 442.413 114.313 433.002 113.822Z" fill="black"/>
</g>
<g opacity="0.3">
<path d="M430.724 154.785C434.165 154.621 437.708 152.634 439.659 149.797C441.61 146.96 442.507 143.531 442.928 140.117C441.703 143.071 440.447 145.885 438.652 148.534C437.755 149.851 436.459 150.833 435.289 151.909C434.118 152.984 432.222 154.037 430.731 154.793" fill="black"/>
</g>
<path d="M435.14 128.786C435.194 128.77 435.444 129.542 435.694 130.812C435.826 131.451 435.975 132.184 436.201 133.018C436.294 133.438 436.38 133.937 436.216 134.444C436.06 134.919 435.6 135.449 434.96 135.402C434.336 135.34 433.93 134.857 433.758 134.366C433.594 133.859 433.672 133.36 433.766 132.94C433.992 132.09 434.234 131.381 434.429 130.757C434.82 129.526 435.093 128.77 435.147 128.786C435.202 128.801 435.03 129.581 434.71 130.835C434.539 131.506 434.344 132.238 434.141 133.025C434.055 133.423 434.008 133.859 434.141 134.241C434.266 134.615 434.609 134.974 434.991 134.997C435.381 135.036 435.717 134.693 435.85 134.311C435.982 133.929 435.928 133.493 435.85 133.095C435.639 132.277 435.514 131.49 435.42 130.859C435.249 129.581 435.101 128.801 435.155 128.786H435.14Z" fill="#263238"/>
<path d="M453.58 103.737C453.549 103.784 452.604 103.207 451.083 102.28C449.561 101.36 447.446 100.09 444.973 98.9754C442.507 97.8532 440.134 97.1751 438.386 96.8712C436.638 96.5594 435.53 96.5516 435.53 96.4815C435.53 96.4581 435.803 96.4269 436.311 96.4269C436.81 96.4269 437.536 96.4659 438.433 96.5906C440.212 96.8244 442.639 97.4713 445.136 98.6091C447.634 99.7392 449.74 101.056 451.231 102.046C451.972 102.537 452.565 102.958 452.971 103.246C453.377 103.535 453.588 103.714 453.572 103.737H453.58Z" fill="#263238"/>
<path d="M452.409 103.215C452.456 103.215 452.503 103.48 452.276 103.815C452.074 104.135 451.543 104.517 450.895 104.384H450.872L450.614 104.337L450.731 104.096C450.997 103.558 451.473 103.246 451.832 103.137C452.191 103.02 452.432 103.067 452.432 103.114C452.432 103.176 452.23 103.231 451.949 103.394C451.668 103.55 451.317 103.846 451.098 104.275L450.965 103.987H450.981C451.418 104.08 451.839 103.854 452.05 103.636C452.276 103.418 452.339 103.207 452.401 103.215H452.409Z" fill="#263238"/>
<path d="M518.333 101.719C518.333 101.719 515.196 97.6194 515.22 95.9594L516.515 86.311C516.515 86.311 517.069 85.3368 517.951 86.9501C518.755 88.4308 518.294 90.7221 518.294 90.7221L518.841 92.9901L520.011 91.2755L521.338 84.8302C521.338 84.8302 522.188 80.1697 522.906 80.6607C523.632 81.1439 523.843 82.5 523.476 84.5107C523.109 86.5214 522.649 89.0699 522.649 89.0699C522.649 89.0699 522.555 89.8649 523.304 88.5322C524.053 87.1995 524.873 81.5726 525.169 80.8166C525.458 80.0606 525.575 78.0499 526.722 78.159C527.869 78.2681 527.198 80.8322 527.198 80.8322L526.09 89.1401C526.09 89.1401 527.167 85.7966 527.378 85.2277C527.581 84.6588 527.901 82.8351 528.283 81.8375C528.665 80.84 529.251 80.3256 529.766 80.3879C530.686 80.497 530.663 81.3387 530.663 81.3387L528.954 88.4464C528.954 88.4464 528.01 91.6885 528.072 91.8912C528.135 92.0938 529.336 90.5429 529.336 90.5429L530.249 88.2438C530.249 88.2438 531.006 84.9783 531.888 84.8848C532.77 84.7913 532.801 85.4537 532.801 85.4537L531.358 91.4236L528.704 98.1883L526.199 103.309C526.199 103.309 522.703 102.763 522.571 102.942C522.438 103.122 518.341 101.734 518.341 101.734L518.333 101.719Z" fill="#FFBE9D"/>
<path d="M524.529 98.843C524.467 98.8664 524.248 98.2585 523.811 97.3389C523.374 96.4504 522.641 95.1489 521.221 94.58C520.596 94.3228 519.941 94.276 519.387 94.4397L519.184 94.502L519.129 94.276C518.903 93.2862 518.599 92.3744 518.45 91.7509C518.286 91.1196 518.24 90.73 518.294 90.7222C518.333 90.7222 518.45 91.0729 518.684 91.6808C518.903 92.3043 519.246 93.1226 519.527 94.2292L519.277 94.0656C519.917 93.8552 520.69 93.9097 521.384 94.1903C522.157 94.502 522.773 95.0398 523.195 95.6009C523.624 96.162 523.889 96.7388 524.084 97.222C524.459 98.1961 524.576 98.8274 524.529 98.843Z" fill="#EB996E"/>
<path d="M491.287 97.0505L508.579 122.855L516.352 100.363L526.972 102.981C526.972 102.981 522.641 133.22 520.979 136.221C519.325 139.221 514.136 143.547 507.752 142.682C501.369 141.809 488.54 124.601 488.54 124.601L491.287 97.0505Z" fill="#649DE1"/>
<path d="M510.718 133.212C510.585 133.205 511.077 130.648 510.39 127.601C509.742 124.538 508.228 122.426 508.345 122.364C508.384 122.333 508.813 122.824 509.336 123.72C509.859 124.616 510.444 125.957 510.788 127.515C511.123 129.074 511.147 130.531 511.045 131.568C510.944 132.605 510.757 133.228 510.71 133.212H510.718Z" fill="#263238"/>
<g opacity="0.3">
<path d="M492.598 130.087C493.761 129.565 494.471 128.334 494.705 127.087C494.939 125.84 494.768 124.554 494.588 123.291C493.886 118.202 492.91 112.895 492.216 107.806L492.489 129.557" fill="black"/>
</g>
<g opacity="0.3">
<path d="M510.898 131.958C511.592 131.88 512.185 131.35 512.482 130.711C512.778 130.079 512.817 129.347 512.763 128.653C512.536 126.035 510.859 123.587 508.494 122.434C510.094 125.31 511.147 128.677 510.905 131.958" fill="black"/>
</g>
<path d="M511.17 265.172L521.041 287.641L549.29 275.756C547.987 273.137 529.961 274.47 529.961 274.47L523.702 259.218L511.17 265.172Z" fill="#649DE1"/>
<g opacity="0.6">
<path d="M521.845 276.332C521.361 276.714 521.244 277.486 521.603 277.977C521.962 278.476 522.75 278.6 523.242 278.234C523.733 277.86 523.905 276.94 523.491 276.488C523.078 276.036 522.149 275.935 521.759 276.41" fill="white"/>
</g>
<g opacity="0.6">
<path d="M521.041 287.633L520.151 285.318L547.565 274.789C547.565 274.789 549.056 274.805 549.282 275.748L521.033 287.633H521.041Z" fill="white"/>
</g>
<path d="M530.492 274.54C530.546 274.68 529.883 275.031 529.391 275.764C528.884 276.481 528.783 277.221 528.634 277.221C528.494 277.244 528.353 276.34 528.962 275.467C529.563 274.594 530.468 274.407 530.492 274.54Z" fill="#263238"/>
<path d="M534.737 274.267C534.823 274.384 534.323 274.875 534.105 275.654C533.855 276.426 534.003 277.104 533.863 277.159C533.746 277.236 533.309 276.473 533.605 275.506C533.894 274.54 534.682 274.142 534.737 274.275V274.267Z" fill="#263238"/>
<path d="M537.796 276.987C537.686 277.073 537.203 276.465 537.234 275.561C537.265 274.657 537.788 274.088 537.897 274.181C538.022 274.259 537.772 274.844 537.757 275.584C537.718 276.325 537.928 276.925 537.796 276.995V276.987Z" fill="#263238"/>
<path d="M528.681 270.861C528.681 271.009 527.963 271.087 527.206 271.469C526.441 271.836 525.942 272.35 525.825 272.264C525.7 272.202 526.082 271.438 526.98 271.002C527.877 270.557 528.704 270.721 528.681 270.861Z" fill="#263238"/>
<path d="M412.167 287.204L410.957 275.21L420.985 262.6L408.702 254.713L408.374 255.204L402.116 264.619L394.008 271.017L406.884 292.138L419.424 291.304C419.424 291.304 418.316 288.358 412.174 287.212L412.167 287.204Z" fill="#649DE1"/>
<g opacity="0.6">
<path d="M394 271.01L406.876 292.13L419.416 291.296L417.879 289.511L407.641 289.628L395.725 269.653L394 271.01Z" fill="white"/>
</g>
<path d="M411.722 281.702C411.636 281.835 410.887 281.476 409.919 281.57C408.952 281.632 408.265 282.115 408.164 281.991C408.039 281.905 408.694 281.11 409.873 281.016C411.051 280.915 411.831 281.593 411.722 281.702Z" fill="#263238"/>
<path d="M411.316 278.733C411.199 278.826 410.591 278.125 409.576 278C408.562 277.86 407.797 278.382 407.703 278.257C407.657 278.203 407.789 277.985 408.125 277.766C408.46 277.556 409.022 277.369 409.647 277.447C410.271 277.533 410.77 277.852 411.036 278.148C411.309 278.445 411.379 278.686 411.316 278.725V278.733Z" fill="#263238"/>
<path d="M411.144 274.898C411.011 274.976 410.535 274.283 409.638 274.041C408.748 273.784 407.976 274.135 407.906 274.002C407.866 273.94 408.015 273.753 408.35 273.605C408.686 273.449 409.216 273.355 409.786 273.511C410.348 273.667 410.762 274.026 410.964 274.33C411.175 274.633 411.206 274.867 411.144 274.898Z" fill="#263238"/>
<path d="M414.297 271.711C414.148 271.773 413.75 271.087 412.939 270.635C412.143 270.16 411.339 270.16 411.324 270.004C411.269 269.864 412.229 269.583 413.212 270.152C414.203 270.713 414.445 271.68 414.297 271.703V271.711Z" fill="#263238"/>
<path d="M415.764 269.03C415.702 269.077 415.257 268.601 414.578 267.791C414.196 267.323 413.813 266.848 413.415 266.357C413.212 266.076 412.947 265.835 412.768 265.383C412.69 265.157 412.674 264.876 412.791 264.619C412.9 264.346 413.244 264.151 413.524 264.175C414.079 264.221 414.398 264.479 414.734 264.705C415.062 264.946 415.327 265.227 415.553 265.523C415.998 266.115 416.232 266.746 416.334 267.284C416.529 268.383 416.209 269.038 416.162 269.014C416.061 268.999 416.224 268.344 415.951 267.378C415.811 266.894 415.569 266.349 415.155 265.842C414.945 265.593 414.703 265.351 414.414 265.149C414.133 264.954 413.774 264.743 413.517 264.736C413.392 264.736 413.337 264.775 413.29 264.868C413.244 264.962 413.236 265.102 413.283 265.227C413.368 265.492 413.634 265.78 413.829 266.068C414.188 266.583 414.547 267.082 414.898 267.573C415.491 268.438 415.827 268.999 415.772 269.046L415.764 269.03Z" fill="#263238"/>
<path d="M416.232 269.373C416.17 269.373 416.178 268.71 416.802 267.915C417.411 267.159 418.815 266.302 420.478 266.996C420.602 267.089 420.704 267.261 420.704 267.432C420.704 267.604 420.641 267.736 420.579 267.838C420.446 268.04 420.282 268.149 420.158 268.258C419.877 268.484 419.596 268.671 419.307 268.827C418.737 269.139 418.168 269.311 417.692 269.396C416.724 269.568 416.123 269.42 416.131 269.357C416.131 269.272 416.724 269.272 417.598 269.014C418.035 268.89 418.542 268.687 419.057 268.383C419.315 268.227 419.572 268.048 419.814 267.845C419.939 267.736 420.064 267.635 420.119 267.541C420.173 267.424 420.158 267.463 420.134 267.432C420.087 267.386 419.916 267.347 419.76 267.323C419.603 267.3 419.447 267.284 419.291 267.284C418.979 267.284 418.683 267.331 418.402 267.409C417.848 267.565 417.411 267.876 417.091 268.18C416.459 268.82 416.31 269.412 416.225 269.381L416.232 269.373Z" fill="#263238"/>
<g opacity="0.6">
<path d="M403.98 269.957C404.035 270.776 403.419 271.485 402.591 271.539C401.772 271.594 401.062 270.978 400.999 270.152C400.945 269.334 401.561 268.625 402.388 268.57C403.208 268.516 403.918 269.131 403.98 269.957Z" fill="white"/>
</g>
<path d="M470.271 56.7268C470.896 54.1784 471.653 51.6221 473.018 49.3776C474.384 47.133 476.436 45.208 478.965 44.4754C481.454 43.7506 484.45 43.8987 486.924 44.6703C488.969 45.3093 490.373 46.4082 491.801 47.6552C494.127 49.6737 495.329 52.8301 496.32 55.7449" fill="#649DE1"/>
<path d="M497.981 55.9397C497.529 53.1418 495.984 50.5154 493.721 48.8087C491.481 47.1175 488.648 46.3615 485.847 46.1433C481.469 45.8082 476.35 47.0006 473.346 50.1959C470.443 53.2899 468.593 57.74 468.968 61.6368C469.14 63.3903 470.841 68.1444 472.191 69.2822L497.271 68.6354C498.777 66.2272 498.442 58.7376 497.989 55.9397H497.981Z" fill="#649DE1"/>
<path d="M497.498 61.1926C496.936 53.9991 490.936 48.4502 483.71 48.4346H482.992C475.25 48.871 471.302 55.6747 471.95 63.3903L473.339 99.0301H491.076L490.92 87.4255C490.92 87.4255 498.365 86.2877 498.466 78.8604C498.521 75.2754 498.021 67.8794 497.498 61.1848V61.1926Z" fill="#FFBE9D"/>
<path d="M490.982 87.4255C490.982 87.4255 486.23 87.6983 481.243 84.5575C481.243 84.5575 483.522 89.9116 490.951 89.257L490.99 87.4255H490.982Z" fill="#EB996E"/>
<path d="M494.603 67.061C494.619 67.6222 494.166 68.0976 493.573 68.1287C492.988 68.1599 492.496 67.7313 492.481 67.1701C492.465 66.609 492.918 66.1336 493.503 66.1024C494.088 66.0713 494.58 66.4999 494.596 67.061H494.603Z" fill="#263238"/>
<path d="M495.899 64.8243C495.766 64.9646 494.962 64.3645 493.823 64.3645C492.684 64.3489 491.841 64.9334 491.716 64.7931C491.654 64.7308 491.786 64.4814 492.153 64.2164C492.512 63.9514 493.128 63.6942 493.839 63.702C494.549 63.702 495.15 63.967 495.493 64.2398C495.844 64.5125 495.961 64.7619 495.899 64.8243Z" fill="#263238"/>
<path d="M483.616 67.5676C483.632 68.1288 483.171 68.6042 482.586 68.6353C482.001 68.6665 481.509 68.2379 481.494 67.6767C481.478 67.1156 481.938 66.6402 482.516 66.609C483.101 66.5778 483.593 67.0065 483.608 67.5676H483.616Z" fill="#263238"/>
<path d="M484.646 65.3932C484.513 65.5335 483.709 64.9334 482.57 64.9334C481.431 64.9178 480.588 65.5023 480.463 65.362C480.401 65.2997 480.533 65.0503 480.9 64.7853C481.259 64.5203 481.876 64.2631 482.586 64.2709C483.296 64.2709 483.897 64.5359 484.24 64.8087C484.591 65.0815 484.708 65.3308 484.646 65.3932Z" fill="#263238"/>
<path d="M488.79 73.4906C488.79 73.4283 489.492 73.3036 490.647 73.1633C490.936 73.1321 491.217 73.0776 491.264 72.875C491.334 72.6645 491.209 72.3528 491.068 72.0099C490.795 71.3007 490.507 70.5603 490.21 69.7887C489.016 66.6246 488.158 64.0215 488.283 63.9748C488.407 63.928 489.484 66.4531 490.67 69.6173C490.959 70.3966 491.232 71.137 491.49 71.854C491.599 72.1891 491.786 72.5632 491.638 72.9997C491.56 73.2179 491.342 73.3737 491.154 73.4283C490.967 73.4828 490.803 73.4906 490.655 73.4984C489.492 73.5608 488.774 73.5608 488.774 73.4984L488.79 73.4906Z" fill="#263238"/>
<path d="M485.426 74.27C485.613 74.2622 485.613 75.5014 486.675 76.3821C487.736 77.2627 489.055 77.1303 489.063 77.3017C489.078 77.3797 488.766 77.5433 488.212 77.5589C487.666 77.5745 486.862 77.403 486.214 76.8575C485.567 76.3197 485.293 75.5949 485.247 75.0884C485.2 74.574 485.34 74.2622 485.426 74.27Z" fill="#263238"/>
<path d="M485.231 62.8058C485.121 63.1175 483.982 62.985 482.64 63.1565C481.298 63.3045 480.221 63.7098 480.041 63.4292C479.963 63.2967 480.143 63.0006 480.58 62.6966C481.009 62.3927 481.696 62.0965 482.499 62.003C483.303 61.9095 484.044 62.0264 484.536 62.2212C485.028 62.4161 485.277 62.6577 485.231 62.8058Z" fill="#263238"/>
<path d="M496.172 61.5277C495.953 61.8082 494.97 61.6368 493.815 61.7459C492.66 61.816 491.7 62.1356 491.451 61.8862C491.341 61.7615 491.466 61.4887 491.872 61.2003C492.27 60.912 492.949 60.647 493.745 60.5847C494.541 60.5223 495.251 60.686 495.68 60.912C496.117 61.138 496.273 61.3874 496.18 61.5277H496.172Z" fill="#263238"/>
<path d="M473.065 68.8925C472.94 68.838 467.954 67.3728 468.11 72.4542C468.258 77.5355 473.338 76.3353 473.338 76.1873C473.338 76.0392 473.065 68.8925 473.065 68.8925Z" fill="#FFBE9D"/>
<path d="M472.175 74.309C472.175 74.309 472.09 74.3713 471.941 74.4493C471.801 74.5194 471.551 74.574 471.278 74.4804C470.732 74.3012 470.256 73.4595 470.201 72.5476C470.178 72.0878 470.256 71.6436 470.412 71.2695C470.552 70.8954 470.786 70.6304 471.06 70.5681C471.325 70.498 471.52 70.6538 471.59 70.7941C471.66 70.9344 471.637 71.0357 471.66 71.0435C471.676 71.0591 471.77 70.9578 471.723 70.7473C471.699 70.646 471.637 70.5291 471.512 70.4356C471.387 70.3421 471.208 70.2953 471.021 70.3187C470.63 70.3577 470.287 70.7318 470.115 71.137C469.928 71.5423 469.819 72.0411 469.85 72.5632C469.912 73.5842 470.466 74.5272 471.208 74.7142C471.567 74.8 471.863 74.6831 472.012 74.5584C472.168 74.4259 472.191 74.3168 472.168 74.309H472.175Z" fill="#EB996E"/>
<path d="M476.397 53.7965L478.91 51.6299L486.908 52.8535L492.519 51.4117L493.994 53.0327C493.362 53.8744 494.704 50.2582 493.424 49.2918C490.67 47.2032 488.337 47.2811 484.88 47.2188C481.423 47.1564 474.384 51.3649 471.871 53.7497C469.866 55.6591 469.881 57.3036 469.881 57.3036C469.561 60.0469 471.099 63.1721 471.715 65.8686C472.027 67.2559 472.636 71.4644 472.636 71.4644C473.806 71.4644 474.236 70.5292 474.064 69.3757L473.845 64.8477C473.845 64.8477 477.817 62.0264 475.937 56.8671C475.632 56.4541 474.993 54.568 476.389 53.8043L476.397 53.7965Z" fill="#263238"/>
<path d="M475.359 55.0045C475.812 53.5549 477.388 52.6509 478.91 52.6742C480.432 52.6976 481.852 53.4848 482.96 54.5213C483.249 54.7863 483.522 55.0824 483.865 55.2695C484.208 55.4565 484.645 55.5267 484.997 55.3396C485.106 55.2851 485.215 55.1993 485.332 55.2305C485.418 55.2539 485.473 55.3318 485.519 55.402C485.832 55.8462 486.198 56.2904 486.698 56.5164C487.197 56.7425 487.853 56.7035 488.204 56.2904C488.758 56.797 489.616 56.9451 490.311 56.6411C491.005 56.3372 491.474 55.6046 491.474 54.8564C492.137 55.0824 492.863 54.6772 493.323 54.155C494.064 53.3211 494.4 52.1521 494.228 51.0532C494.049 49.9543 493.354 48.9489 492.394 48.3956C491.653 47.967 490.787 47.8033 489.936 47.6864C488.602 47.4993 487.252 47.398 485.91 47.3824C485.317 47.3824 484.716 47.3824 484.154 47.5929C483.381 47.8734 482.741 48.4969 481.922 48.5982C481.399 48.6606 480.884 48.4969 480.377 48.3488C479.651 48.1384 478.894 47.9514 478.137 48.0215C476.647 48.154 475.414 49.2217 474.431 50.344C473.736 51.1311 473.088 52.0118 472.87 53.0405C472.651 54.0693 472.971 55.2695 473.861 55.8228C474.212 56.041 474.665 56.1424 475.039 55.9787C475.422 55.815 475.656 55.324 475.461 54.9577" fill="#263238"/>
<path d="M471.848 66.6246C471.302 62.7512 471.957 58.0751 474.79 54.7317C477.623 51.3883 482.633 49.3698 485.949 50.0011C488.54 50.492 494.151 50.6869 496.211 56.0878L495.922 51.6299C495.922 51.6299 493.417 46.5719 486.05 46.72C478.684 46.8681 475.453 47.7331 471.895 52.0741C468.329 56.4151 469.382 60.1014 469.858 61.9719C470.334 63.8423 471.856 66.6246 471.856 66.6246H471.848Z" fill="#649DE1"/>
<path d="M492.152 47.8267C492.152 47.8267 492.059 47.8033 491.887 47.7332C491.715 47.6708 491.458 47.5617 491.13 47.4448C490.467 47.2188 489.484 46.9226 488.243 46.7044C487.002 46.4862 485.504 46.3693 483.842 46.4472C482.187 46.5407 480.361 46.8291 478.559 47.4993C476.78 48.193 475.18 49.1282 473.9 50.1881C473.26 50.7103 472.698 51.2714 472.222 51.8325C471.973 52.1053 471.77 52.4015 471.559 52.6665C471.364 52.947 471.177 53.2198 471.013 53.4848C470.357 54.5603 469.951 55.4955 469.71 56.1579C469.577 56.4853 469.499 56.7503 469.436 56.9217C469.374 57.0932 469.335 57.1867 469.335 57.1867C469.335 57.1867 469.351 57.0932 469.405 56.9139C469.46 56.7347 469.53 56.4697 469.647 56.1424C469.873 55.4721 470.264 54.5213 470.911 53.4302C471.067 53.1574 471.262 52.8847 471.45 52.5963C471.66 52.3235 471.863 52.0274 472.113 51.7468C472.589 51.1701 473.151 50.609 473.799 50.0712C475.086 48.9957 476.694 48.0449 478.496 47.3435C480.315 46.6654 482.156 46.3771 483.826 46.2914C485.504 46.2212 487.01 46.3537 488.259 46.5875C489.507 46.8213 490.483 47.1331 491.146 47.3902C491.474 47.5149 491.723 47.6318 491.895 47.7098C492.067 47.7877 492.152 47.8267 492.152 47.8345V47.8267Z" fill="#263238"/>
<path d="M472.339 60.1092C472.339 60.1092 472.253 60.0859 472.113 60.0001C471.972 59.9222 471.777 59.7897 471.559 59.5949C471.122 59.2208 470.591 58.5817 470.279 57.7478C469.967 56.9061 469.959 56.08 470.045 55.5111C470.092 55.2227 470.146 54.9967 470.201 54.8486C470.256 54.6927 470.295 54.6148 470.302 54.6226C470.334 54.6304 470.217 54.9655 470.162 55.5344C470.107 56.0956 470.139 56.8905 470.435 57.6932C470.732 58.496 471.231 59.1195 471.637 59.5091C472.043 59.8988 472.347 60.0859 472.331 60.1092H472.339Z" fill="#263238"/>
<path d="M474.485 55.6513C474.485 55.6513 474.204 55.5266 473.845 55.1837C473.487 54.8486 473.065 54.2875 472.823 53.5627C472.573 52.8457 472.573 52.1364 472.675 51.6532C472.776 51.17 472.917 50.8973 472.932 50.9051C472.964 50.9129 472.862 51.2012 472.8 51.6766C472.73 52.1442 472.753 52.8145 472.995 53.5081C473.229 54.1939 473.611 54.7473 473.939 55.098C474.259 55.4487 474.509 55.6279 474.493 55.6513H474.485Z" fill="#263238"/>
<path d="M477.981 52.3937C477.981 52.3937 477.747 52.2845 477.443 52.0196C477.139 51.7546 476.748 51.3259 476.467 50.7648C476.179 50.2037 476.07 49.6347 476.054 49.2295C476.038 48.8242 476.085 48.5748 476.109 48.5748C476.171 48.5748 476.07 49.6036 476.631 50.6869C477.185 51.7702 478.036 52.3469 477.997 52.3937H477.981Z" fill="#263238"/>
<path d="M481.345 46.6498C481.345 46.6498 481.493 46.8213 481.664 47.1408C481.836 47.4604 482.031 47.9202 482.172 48.4579C482.312 48.9957 482.359 49.4945 482.367 49.853C482.367 50.2115 482.351 50.4375 482.328 50.4375C482.273 50.4375 482.273 49.549 482 48.5047C481.727 47.4604 481.29 46.681 481.345 46.6576V46.6498Z" fill="#263238"/>
<path d="M487.814 46.5251C487.814 46.5251 487.954 46.7044 488.071 47.0473C488.188 47.3902 488.282 47.889 488.251 48.4424C488.219 48.9957 488.063 49.4867 487.915 49.8062C487.759 50.1335 487.619 50.305 487.603 50.2972C487.548 50.2738 488.032 49.5023 488.079 48.4346C488.149 47.3591 487.759 46.5407 487.814 46.5251Z" fill="#263238"/>
<path d="M491.974 47.6942C491.974 47.6942 492.145 47.8734 492.317 48.2241C492.489 48.5748 492.645 49.1126 492.66 49.7127C492.676 50.3206 492.543 50.8583 492.395 51.2246C492.247 51.5909 492.098 51.7857 492.083 51.7702C492.028 51.7546 492.528 50.8895 492.489 49.7205C492.465 48.5436 491.919 47.7175 491.974 47.6942Z" fill="#263238"/>
<path d="M495.968 51.1934C495.968 51.1934 496.046 51.3805 496.054 51.7C496.07 52.0195 496.023 52.4638 495.859 52.9236C495.695 53.3834 495.453 53.7575 495.243 53.9913C495.032 54.2329 494.868 54.342 494.852 54.3264C494.813 54.2874 495.383 53.7497 495.695 52.8612C496.015 51.9806 495.906 51.2012 495.968 51.1934Z" fill="#263238"/>
<path d="M497.998 55.55C498.045 55.55 497.998 56.1501 497.6 56.7424C497.21 57.3425 496.671 57.6231 496.656 57.5763C496.625 57.5295 497.085 57.21 497.452 56.6411C497.826 56.0799 497.943 55.5344 497.998 55.5422V55.55Z" fill="#263238"/>
<path d="M498.271 60.4521C498.318 60.4521 498.271 60.7561 498.005 60.9899C497.74 61.2237 497.444 61.2393 497.436 61.1925C497.428 61.1458 497.662 61.06 497.888 60.8574C498.115 60.6626 498.224 60.4288 498.271 60.4443V60.4521Z" fill="#263238"/>
<path d="M471.809 64.4891C471.809 64.5359 470.998 64.4268 470.194 63.8657C469.382 63.3201 468.984 62.6031 469.031 62.5875C469.078 62.5563 469.515 63.1954 470.295 63.7176C471.068 64.2553 471.825 64.4346 471.809 64.4813V64.4891Z" fill="#263238"/>
<path d="M472.222 66.9519C472.222 66.9519 471.972 67.2403 471.52 67.2636C471.067 67.2948 470.755 67.0688 470.786 67.0376C470.81 66.9909 471.114 67.1156 471.512 67.0922C471.91 67.0766 472.199 66.9129 472.222 66.9519Z" fill="#263238"/>
<g opacity="0.3">
<path d="M491.552 47.6552C488.376 45.5431 484.311 44.8105 480.596 45.6678C476.874 46.5251 473.51 49.1749 471.583 52.4638C471.583 52.4638 476.179 46.6576 482.765 46.455C489.352 46.2523 491.552 47.663 491.552 47.663V47.6552Z" fill="black"/>
</g>
<path d="M486.464 67.2246C486.464 67.2246 486.464 66.8895 486.316 66.3128C486.167 65.7439 485.785 64.91 484.934 64.2709C484.513 63.9592 483.982 63.6942 483.366 63.5851C482.757 63.4838 482.07 63.4993 481.415 63.7487C481.087 63.8656 480.767 64.0371 480.479 64.2553C480.182 64.4657 479.917 64.7307 479.698 65.0425C479.246 65.6504 478.988 66.4219 478.98 67.2246C478.98 68.0274 479.246 68.8067 479.698 69.4068C479.917 69.7108 480.182 69.9758 480.479 70.194C480.767 70.4122 481.087 70.5836 481.415 70.7005C482.07 70.9499 482.757 70.9733 483.366 70.8642C483.982 70.7551 484.513 70.4901 484.934 70.1784C485.785 69.5315 486.167 68.7054 486.316 68.1365C486.464 67.5598 486.44 67.2168 486.464 67.2246C486.464 67.2246 486.511 67.5598 486.378 68.1599C486.245 68.7444 485.879 69.6095 485.005 70.2875C484.575 70.6148 484.021 70.9032 483.389 71.0201C482.757 71.137 482.039 71.1136 481.36 70.8642C481.017 70.7473 480.681 70.5681 480.377 70.342C480.065 70.116 479.784 69.8433 479.558 69.5237C479.082 68.8925 478.809 68.0741 478.801 67.2324C478.801 66.3907 479.082 65.5802 479.558 64.9489C479.792 64.6294 480.073 64.3488 480.377 64.1306C480.681 63.9046 481.017 63.7254 481.36 63.6084C482.047 63.3513 482.757 63.3357 483.389 63.4526C484.029 63.5695 484.575 63.85 485.005 64.1852C485.879 64.8632 486.245 65.7283 486.378 66.3128C486.511 66.9051 486.464 67.248 486.464 67.248V67.2246Z" fill="#455A64"/>
<path d="M497.787 66.7804C497.787 66.7804 497.787 66.4453 497.639 65.8686C497.491 65.2997 497.108 64.4658 496.258 63.8267C495.836 63.515 495.306 63.25 494.689 63.1409C494.08 63.0396 493.394 63.0551 492.738 63.3045C492.41 63.4214 492.091 63.5929 491.802 63.8111C491.505 64.0215 491.24 64.2865 491.021 64.5983C490.569 65.2062 490.311 65.9777 490.303 66.7804C490.303 67.5832 490.569 68.3625 491.021 68.9626C491.24 69.2666 491.505 69.5393 491.802 69.7498C492.091 69.968 492.41 70.1394 492.738 70.2564C493.394 70.5057 494.08 70.5291 494.689 70.42C495.306 70.3109 495.836 70.0459 496.258 69.7342C497.108 69.0873 497.491 68.2612 497.639 67.6923C497.787 67.1156 497.764 66.7727 497.787 66.7804C497.787 66.7804 497.834 67.1156 497.701 67.7157C497.569 68.3002 497.202 69.1653 496.328 69.8433C495.899 70.1706 495.345 70.459 494.712 70.5759C494.08 70.6928 493.362 70.6694 492.684 70.42C492.34 70.3031 492.005 70.1239 491.7 69.8979C491.388 69.6718 491.107 69.3991 490.881 69.0795C490.405 68.4483 490.132 67.6299 490.124 66.796C490.124 65.9543 490.405 65.1438 490.881 64.5125C491.115 64.193 491.396 63.9124 491.7 63.6942C492.005 63.4682 492.34 63.289 492.684 63.172C493.37 62.9149 494.08 62.8993 494.712 63.0162C495.352 63.1331 495.899 63.4136 496.328 63.7488C497.202 64.4268 497.569 65.2919 497.701 65.8764C497.834 66.4687 497.787 66.8116 497.787 66.8116V66.7804Z" fill="#455A64"/>
<path d="M490.343 65.3386C490.343 65.3386 490.124 65.1905 489.75 65.0035C489.375 64.8242 488.813 64.645 488.181 64.684C487.549 64.7229 487.011 64.9567 486.66 65.1827C486.308 65.4088 486.129 65.6036 486.106 65.5802C486.09 65.5724 486.238 65.3386 486.589 65.0814C486.933 64.8242 487.502 64.5437 488.174 64.5047C488.845 64.4657 489.438 64.6684 489.812 64.8944C490.187 65.1126 490.366 65.323 490.351 65.3386H490.343Z" fill="#455A64"/>
<path d="M479.145 66.5233C479.16 66.57 477.639 67.0844 475.742 67.6689C473.846 68.2534 472.301 68.6977 472.285 68.6509C472.27 68.6041 473.791 68.0898 475.688 67.5053C477.584 66.9207 479.129 66.4765 479.145 66.5233Z" fill="#455A64"/>
<path d="M482.531 70.3655C482.531 70.3655 482.274 70.3889 481.868 70.2797C481.47 70.1706 480.94 69.9134 480.471 69.477C480.003 69.0406 479.707 68.5262 479.574 68.1365C479.433 67.7469 479.426 67.4819 479.441 67.4819C479.473 67.4819 479.527 67.7235 479.691 68.0898C479.855 68.4561 480.151 68.9315 480.596 69.3445C481.041 69.7576 481.54 70.0226 481.915 70.155C482.29 70.2953 482.539 70.3343 482.539 70.3577L482.531 70.3655Z" fill="white"/>
<path d="M491.825 69.1263C491.825 69.1263 491.575 69.0795 491.318 68.7912C491.06 68.5106 490.803 68.0274 490.694 67.4585C490.592 66.8896 490.631 66.3596 490.725 65.9933C490.819 65.627 490.951 65.4244 490.967 65.4322C490.99 65.44 490.904 65.6582 490.842 66.0167C490.779 66.3752 490.764 66.8818 490.858 67.4273C490.959 67.9728 491.177 68.4327 491.404 68.7132C491.622 69.0016 491.833 69.1029 491.817 69.1263H491.825Z" fill="white"/>
<path d="M461.774 190.962C462.718 190.962 501.704 231.473 501.704 234.302C501.704 237.131 507.487 265.663 510.32 270.059C513.152 274.454 514.791 273.425 514.791 273.425L527.745 267.393C527.745 267.393 520.566 222.994 518.997 217.967C517.429 212.94 487.682 173.684 487.682 173.684L459.565 179.023L461.766 190.955L461.774 190.962Z" fill="#263238"/>
<path d="M447.376 170.652L439.276 220.648C439.276 220.648 413.938 245.977 412.362 248.806C412.362 248.806 409.529 247.863 408.585 250.372C407.641 252.882 406.829 257.566 406.829 257.566L419.408 268.103C419.408 268.103 452.644 240.584 455.788 236.5C458.933 232.416 472.106 205.489 474.626 198.584C477.139 191.679 480.112 176.365 480.112 176.365L447.368 170.652H447.376Z" fill="#263238"/>
<path d="M508.236 225.223C508.283 225.238 508.095 225.854 507.682 226.789C507.26 227.724 506.582 228.979 505.684 230.273C504.787 231.559 503.819 232.626 503.062 233.32C502.297 234.014 501.743 234.341 501.712 234.302C501.673 234.255 502.157 233.85 502.859 233.117C503.554 232.385 504.467 231.309 505.349 230.047C507.143 227.514 508.127 225.184 508.236 225.23V225.223Z" fill="#455A64"/>
<path d="M443.825 224.108C443.825 224.209 442.444 224.007 441.156 222.955C439.861 221.918 439.369 220.609 439.471 220.585C439.58 220.523 440.197 221.669 441.414 222.635C442.616 223.625 443.864 223.983 443.825 224.108Z" fill="#455A64"/>
<path d="M417.668 255.329C417.637 255.422 415.858 254.526 414.477 252.578C413.072 250.645 412.791 248.673 412.893 248.673C413.018 248.634 413.462 250.489 414.812 252.336C416.139 254.207 417.747 255.22 417.676 255.321L417.668 255.329Z" fill="#455A64"/>
<path d="M457.833 178.08C457.833 178.08 457.802 178.29 457.677 178.641C457.552 178.999 457.334 179.49 457.022 180.09C456.397 181.283 455.328 182.834 453.822 184.252C452.308 185.663 450.685 186.629 449.452 187.167C448.836 187.44 448.321 187.627 447.962 187.728C447.603 187.829 447.4 187.876 447.392 187.853C447.369 187.79 448.149 187.51 449.335 186.91C450.514 186.31 452.074 185.328 453.549 183.956C455.024 182.576 456.101 181.088 456.78 179.95C457.459 178.812 457.786 178.056 457.849 178.08H457.833Z" fill="#455A64"/>
<path d="M477.701 190.845C477.701 190.845 477.568 191.313 477.264 192.124C476.92 192.996 476.475 194.15 475.929 195.553C474.774 198.436 473.151 202.411 471.208 206.736C469.265 211.062 467.369 214.912 465.98 217.694C465.301 219.035 464.731 220.133 464.31 220.967C463.904 221.739 463.67 222.152 463.646 222.144C463.623 222.129 463.81 221.692 464.169 220.897C464.567 220.048 465.09 218.925 465.722 217.569C467.041 214.764 468.89 210.89 470.834 206.573C472.769 202.255 474.439 198.304 475.656 195.451C476.249 194.072 476.741 192.934 477.115 192.077C477.467 191.282 477.669 190.845 477.701 190.861V190.845Z" fill="#455A64"/>
<path d="M470.873 89.5609C470.873 89.5609 462.305 93.0134 460.299 99.0378C459.285 102.085 453.37 124.367 453.37 124.367C453.37 124.367 445.566 167.153 446.643 171.229L491.295 178.08C492.301 178.08 493.082 177.254 493.027 176.248L492.13 160.474L492.653 105.522C492.653 105.109 492.629 104.704 492.567 104.298L491.388 96.0295C489.422 96.201 487.448 95.9204 485.606 95.1956L472.488 89.5687H470.873V89.5609Z" fill="#649DE1"/>
<path d="M491.482 97.3544C491.482 97.3544 491.521 97.4947 491.56 97.7597C491.599 98.0714 491.646 98.4533 491.701 98.9209C491.81 99.9341 491.951 101.399 492.091 103.215C492.38 106.847 492.669 111.866 492.832 117.415C492.989 122.964 492.981 127.999 492.856 131.638C492.801 133.454 492.723 134.927 492.645 135.94C492.606 136.408 492.575 136.797 492.551 137.109C492.528 137.374 492.505 137.514 492.489 137.514C492.473 137.514 492.466 137.374 492.466 137.101C492.466 136.79 492.481 136.4 492.489 135.932C492.512 134.919 492.552 133.446 492.567 131.63C492.614 127.999 492.583 122.972 492.427 117.423C492.263 111.882 492.021 106.863 491.802 103.231C491.693 101.462 491.607 100.004 491.545 98.9287C491.521 98.4611 491.498 98.0714 491.482 97.7597C491.475 97.4947 491.475 97.3466 491.482 97.3466V97.3544Z" fill="#263238"/>
<path d="M486.113 100.862C484.427 95.8971 480.338 91.5561 475.188 90.5351C470.038 89.5142 465.199 90.6053 461.524 94.8761L456.873 104.813C458.957 103.659 462.273 96.9258 466.144 94.6267C470.022 92.3354 474.322 92.2887 477.498 95.4762C479.854 97.8377 481.595 101.212 481.54 104.548C481.431 111.087 478.707 117.212 476.725 123.439C474.181 131.443 472.168 139.962 466.292 145.97C461.571 150.795 455.25 153.67 449.085 156.437C447.642 157.63 444.278 161.963 446.011 162.672C447.743 163.381 454.04 161.098 455.827 160.552C460.283 159.196 464.911 157.746 468.297 154.543C471.442 151.574 473.151 147.436 474.774 143.43C477.911 135.699 479.94 127.632 483.069 119.901C485.738 113.316 488.376 107.58 486.089 100.846L486.113 100.862Z" fill="#455A64"/>
<path d="M478.996 184.081L475.437 178.08L463.529 182.226C463.529 182.226 464.349 192.794 465.87 193.098C467.392 193.402 468.524 192.381 468.524 192.381C468.524 192.381 469.413 195.132 471.192 195.249C471.739 195.288 472.035 195.296 472.183 195.303C472.511 195.545 474.322 196.846 475.812 196.379C475.812 196.379 477.193 199.348 478.301 199.044C479.409 198.74 480.127 195.147 480.127 195.147L478.996 184.073V184.081Z" fill="#FFBE9D"/>
<path d="M468.235 93.2005C464.021 94.6579 461.016 98.2429 460.135 102.436C457.786 113.635 452.206 142.931 452.432 147.085C452.721 152.345 462.749 183.465 462.749 183.465L476.826 179.241L470.451 144.147C470.451 144.147 480.377 111.359 481.157 106.364C482.008 100.924 477.279 90.0753 468.227 93.1927L468.235 93.2005Z" fill="#649DE1"/>
<path d="M468.235 93.2239C468.235 93.2239 468.594 93.068 469.327 92.8732C470.053 92.6783 471.192 92.4679 472.651 92.7017C474.095 92.9277 475.827 93.7227 477.294 95.2658C478.769 96.7855 480.018 98.9521 480.767 101.555C481.134 102.857 481.391 104.275 481.376 105.779C481.376 106.535 481.243 107.299 481.087 108.055C480.931 108.819 480.736 109.59 480.541 110.37C479.745 113.503 478.793 116.862 477.763 120.431C475.695 127.57 473.291 135.558 470.622 144.186V144.1C472.589 154.855 474.75 166.717 477.021 179.186L477.053 179.366L476.881 179.42C474.79 180.051 472.55 180.722 470.295 181.392C467.727 182.163 465.183 182.927 462.803 183.636L462.616 183.691L462.554 183.504C460.47 177.121 458.511 170.886 456.693 164.854C455.796 161.838 454.922 158.876 454.134 155.954C453.743 154.496 453.353 153.055 453.025 151.613C452.846 150.896 452.69 150.179 452.557 149.454C452.401 148.745 452.315 148.004 452.253 147.28C452.253 145.807 452.471 144.404 452.635 143.009C452.83 141.622 453.025 140.25 453.244 138.909C453.665 136.221 454.126 133.625 454.571 131.116C455.468 126.097 456.358 121.444 457.177 117.212C458.012 112.98 458.769 109.162 459.432 105.803C459.791 104.135 460.017 102.553 460.493 101.158C460.977 99.7704 461.633 98.578 462.335 97.6038C463.763 95.6399 465.363 94.5722 466.463 93.9721C467.579 93.3798 468.227 93.2083 468.227 93.2083C468.227 93.2083 468.078 93.2784 467.782 93.4109C467.485 93.5278 467.048 93.7383 466.502 94.0422C465.425 94.6657 463.857 95.7412 462.46 97.6974C461.773 98.6715 461.133 99.8484 460.665 101.22C460.205 102.592 459.994 104.182 459.643 105.849C458.995 109.208 458.262 113.027 457.442 117.267C456.639 121.507 455.772 126.159 454.891 131.178C454.454 133.688 454.001 136.283 453.587 138.972C453.369 140.312 453.174 141.676 452.986 143.063C452.823 144.443 452.604 145.869 452.612 147.272C452.667 147.973 452.752 148.683 452.908 149.392C453.041 150.101 453.197 150.818 453.377 151.535C453.704 152.969 454.102 154.411 454.493 155.868C455.281 158.783 456.162 161.737 457.06 164.753C458.878 170.777 460.845 177.012 462.928 183.387L462.678 183.255C465.059 182.538 467.602 181.774 470.17 181.01C472.425 180.332 474.665 179.662 476.756 179.038L476.616 179.272C474.353 166.795 472.207 154.933 470.256 144.178V144.131V144.084C472.932 135.457 475.359 127.476 477.45 120.353C478.496 116.791 479.456 113.44 480.26 110.315C480.619 108.749 481.095 107.252 481.103 105.779C481.126 104.306 480.876 102.903 480.525 101.617C479.799 99.0378 478.582 96.8946 477.146 95.3827C475.718 93.8552 474.025 93.0524 472.605 92.8108C471.176 92.5614 470.045 92.7485 469.311 92.9199C468.937 92.9823 468.672 93.0992 468.484 93.1382C468.297 93.1927 468.203 93.2083 468.203 93.2083L468.235 93.2239Z" fill="#263238"/>
<path d="M470.591 143.975C470.513 144.077 469.109 142.822 466.963 142.113C464.824 141.372 462.952 141.52 462.944 141.396C462.913 141.302 464.856 140.967 467.087 141.731C469.335 142.471 470.669 143.921 470.583 143.975H470.591Z" fill="#263238"/>
<g opacity="0.3">
<path d="M459.354 173.645C452.807 163.942 449.366 150.389 453.151 140.757C452.128 146.524 453.104 151.808 454.828 157.411C456.553 163.015 458.613 168.603 458.949 174.456" fill="black"/>
</g>
<g clip-path="url(#clip2_1003_61)">
<path d="M113.773 101.66H110.434C109.819 101.66 109.32 101.087 109.32 100.473V97.1328H84.6797V100.473C84.6797 101.087 84.1812 101.66 83.5664 101.66H80.2266C78.9968 101.66 78 100.589 78 99.3594V89.3398C78 87.4953 79.4953 86 81.3398 86H88.0938C90.7813 86 93.0317 87.9157 93.5493 90.4531H112.66C114.505 90.4531 116 91.9484 116 93.793V99.3594C116 100.589 115.003 101.66 113.773 101.66Z" fill="#FF9933"/>
<path d="M110.434 101.66H113.773C115.003 101.66 116 100.589 116 99.3594V93.793C116 91.9484 114.505 90.4531 112.66 90.4531H97V97.1328H109.32V100.473C109.32 101.087 109.819 101.66 110.434 101.66Z" fill="#FF9933"/>
<path d="M110.434 101.66H83.5664C82.9511 101.66 82.4531 101.088 82.4531 100.473V96.0195C82.4531 95.4042 82.9511 94.9062 83.5664 94.9062H110.434C111.049 94.9062 111.547 95.4042 111.547 96.0195V100.473C111.547 101.088 111.049 101.66 110.434 101.66Z" fill="#FFF5F5"/>
<path d="M112.66 124H81.3398C79.4953 124 78 122.505 78 120.66V99.3594H97.2969L116 120.66C116 122.505 114.505 124 112.66 124Z" fill="#FBAD27"/>
<path d="M97 101.66H110.434C111.049 101.66 111.547 101.088 111.547 100.473V96.0195C111.547 95.4042 111.049 94.9062 110.434 94.9062H97V101.66Z" fill="#EFE2DD"/>
<path d="M116 99.3594H97V124H112.66C114.505 124 116 122.505 116 120.66V99.3594Z" fill="#FBAD27"/>
<path d="M103.68 115.094C103.064 115.094 102.566 115.592 102.566 116.207V117.32H91.4336V116.207C91.4336 115.592 90.9357 115.094 90.3203 115.094C89.705 115.094 89.207 115.592 89.207 116.207V118.434C89.207 119.049 89.705 119.547 90.3203 119.547H103.68C104.295 119.547 104.793 119.049 104.793 118.434V116.207C104.793 115.592 104.295 115.094 103.68 115.094Z" fill="white"/>
<path d="M104.793 118.434V116.207C104.793 115.592 104.295 115.094 103.68 115.094C103.064 115.094 102.566 115.592 102.566 116.207V117.32H97V119.547H103.68C104.295 119.547 104.793 119.049 104.793 118.434Z" fill="white"/>
<path d="M93.334 110.314L95.8867 107.762V113.98C95.8867 114.596 96.3847 115.094 97 115.094C97.6154 115.094 98.1133 114.596 98.1133 113.98V107.762L100.666 110.314C101.101 110.749 101.805 110.749 102.24 110.314C102.675 109.88 102.675 109.175 102.24 108.74L97.7885 104.288C97.3539 103.853 96.6435 103.855 96.2115 104.288L91.7597 108.74C91.3249 109.175 91.3249 109.88 91.7597 110.314C92.1946 110.749 92.8991 110.749 93.334 110.314Z" fill="white"/>
<path d="M98.1133 113.98V107.762L100.666 110.314C101.101 110.749 101.805 110.749 102.24 110.314C102.675 109.88 102.675 109.175 102.24 108.74L97.7885 104.288C97.5715 104.071 97.2857 103.963 97 103.963V115.094C97.6153 115.094 98.1133 114.596 98.1133 113.98Z" fill="white"/>
</g>
<path opacity="0.3" d="M839.379 97.1667V93.0833H831.189V89.5833H839.379V85.5L845.189 91.3333L839.379 97.1667Z" fill="white"/>
<path d="M819.5 91.3333C822.067 91.3333 824.167 89.2333 824.167 86.6667C824.167 84.1 822.067 82 819.5 82C816.933 82 814.833 84.1 814.833 86.6667C814.833 89.2333 816.933 91.3333 819.5 91.3333ZM810.773 99.2667L804.357 132.167H809.257L813.34 113.5L818.357 118.167V132.167H823.023V114.55L818.24 109.767L819.64 102.767C822.673 106.5 827.223 108.833 832.357 108.833V104.167C828.04 104.167 824.307 101.833 822.207 98.45L819.967 94.7167C819.15 93.3167 817.633 92.5 816 92.5C815.417 92.5 814.833 92.6167 814.25 92.85L802 97.8667V108.833H806.667V101.017L810.773 99.2667ZM827.667 83.1667V99.5H836.417V132.167H839.917V99.5H848.667V83.1667H827.667ZM839.38 97.1667V93.0833H831.19V89.5833H839.38V85.5L845.19 91.3333L839.38 97.1667Z" fill="#FBAD27"/>
<defs>
<clipPath id="clip0_1003_61">
<rect width="16" height="20" fill="white" transform="translate(276 91)"/>
</clipPath>
<clipPath id="clip1_1003_61">
<rect width="16" height="20" fill="white" transform="translate(629 24)"/>
</clipPath>
<clipPath id="clip2_1003_61">
<rect width="38" height="38" fill="white" transform="translate(78 86)"/>
</clipPath>
</defs>
</svg>
