<svg xmlns="http://www.w3.org/2000/svg" width="254.169" height="145.72" viewBox="0 0 254.169 145.72">
  <g id="Background_Complete" transform="translate(-5.899)">
    <path id="Path_5235" data-name="Path 5235" d="M448.074,229.016s-.264-.069-.737-.164a6.065,6.065,0,0,0-2.034-.057,5.506,5.506,0,0,0-2.72,1.19,5.675,5.675,0,0,0-1.914,3.047v.031l-.126.453-.176-.428a6.106,6.106,0,0,0-2.3-2.783,5.921,5.921,0,0,0-2.808-.951,7.654,7.654,0,0,0-2.751.353,2.481,2.481,0,0,1,.7-.3,5.8,5.8,0,0,1,2.065-.258,5.946,5.946,0,0,1,2.947.932,6.258,6.258,0,0,1,2.424,2.9l-.29.025v-.038a5.941,5.941,0,0,1,2.046-3.2,5.646,5.646,0,0,1,4.949-1.033,2.048,2.048,0,0,1,.711.283Z" transform="translate(-188.006 -127.5)" fill="#e0e0e0"/>
    <path id="Path_5236" data-name="Path 5236" d="M75.454,170.116s-.264-.069-.737-.164a6.065,6.065,0,0,0-2.034-.057,5.506,5.506,0,0,0-2.72,1.19,5.675,5.675,0,0,0-1.914,3.047v.031l-.126.453-.176-.428a6.106,6.106,0,0,0-2.3-2.783,5.921,5.921,0,0,0-2.808-.951,7.653,7.653,0,0,0-2.751.353,2.481,2.481,0,0,1,.7-.3,5.8,5.8,0,0,1,2.065-.258,5.946,5.946,0,0,1,2.947.932,6.258,6.258,0,0,1,2.424,2.9l-.29.025v-.038a5.941,5.941,0,0,1,2.046-3.2,5.646,5.646,0,0,1,4.949-1.033,2.322,2.322,0,0,1,.711.277Z" transform="translate(-49.986 -105.683)" fill="#5177a9"/>
    <path id="Path_5237" data-name="Path 5237" d="M336.228,149.735s-.239.283-.674.774a17.171,17.171,0,0,0-1.65,2.241,16.367,16.367,0,0,0-2.455,8.707v.107l-.3.025a14.634,14.634,0,0,0-4.01-7.99,19.845,19.845,0,0,0-2.928-2.374,1.341,1.341,0,0,1,.239.107c.151.088.384.2.655.378a13.147,13.147,0,0,1,2.185,1.738,14.373,14.373,0,0,1,4.155,8.1l-.3.025v-.113a16.013,16.013,0,0,1,2.575-8.827,15.134,15.134,0,0,1,1.744-2.21,7.388,7.388,0,0,1,.554-.529c.132-.12.2-.176.208-.164Z" transform="translate(-147.891 -98.304)" fill="#5177a9"/>
    <path id="Path_5241" data-name="Path 5241" d="M401.708,110.129c.447-3.242-4.13-5.912-7.574-6.189-1.643-.132-3.343.12-4.9-.422-3.368-1.171-4.716-5.522-8-6.913-2.455-1.039-5.282-.113-7.668,1.083s-4.735,2.707-7.4,2.877c-2.317.151-4.829-.711-6.85.422-1.511.844-2.3,2.581-3.689,3.608a8.844,8.844,0,0,1-4.823,1.31,13.618,13.618,0,0,0-4.974.812c-1.536.705-2.808,2.329-2.487,3.992l58.364-.573Z" transform="translate(-154.962 -78.46)" fill="#d2deee"/>
    <path id="Path_5242" data-name="Path 5242" d="M115.1,82.776c.472-3.419-4.357-6.233-7.983-6.523-1.731-.139-3.526.126-5.163-.447-3.551-1.24-4.968-5.824-8.43-7.284-2.588-1.089-5.572-.12-8.084,1.146S80.451,72.52,77.649,72.7c-2.437.157-5.087-.749-7.221.441-1.593.888-2.424,2.72-3.891,3.8a9.266,9.266,0,0,1-5.087,1.379,14.271,14.271,0,0,0-5.245.856c-1.618.743-2.959,2.455-2.625,4.206l61.518-.6Z" transform="translate(-47.63 -68.05)" fill="#d2deee"/>
    <path id="Path_5243" data-name="Path 5243" d="M405.64,286.523c.636-4.609-5.868-8.4-10.76-8.8-2.33-.189-4.753.17-6.957-.6-4.785-1.668-6.693-7.851-11.364-9.815-3.488-1.473-7.511-.164-10.892,1.543s-6.724,3.847-10.508,4.086c-3.286.208-6.856-1.007-9.734.6-2.141,1.2-3.268,3.664-5.245,5.125-1.933,1.423-4.458,1.725-6.85,1.857s-4.879.157-7.064,1.152-3.992,3.312-3.538,5.666l82.912-.818Z" transform="translate(-147.317 -141.621)" fill="#d2deee"/>
    <path id="Path_5244" data-name="Path 5244" d="M119.29,235.605c.573-4.174-5.314-7.606-9.74-7.964-2.109-.17-4.3.151-6.3-.541-4.332-1.511-6.063-7.108-10.288-8.89-3.161-1.335-6.8-.145-9.859,1.4s-6.088,3.482-9.513,3.7c-2.978.189-6.208-.913-8.814.541-1.939,1.083-2.959,3.318-4.747,4.64-1.75,1.291-4.036,1.561-6.2,1.681s-4.42.139-6.4,1.045-3.614,3-3.2,5.131l75.061-.743Z" transform="translate(-7.457 -123.456)" fill="#d2deee"/>
  </g>
</svg>
