<svg xmlns="http://www.w3.org/2000/svg" width="136.54" height="242.113" viewBox="0 0 136.54 242.113">
  <g id="Inclusion_Exclusion" data-name="Inclusion, Exclusion" transform="translate(-10654.073 -23088.566)">
    <g id="Group_117300" data-name="Group 117300" transform="translate(10654.073 23088.566)">
      <g id="Group_117300-2" data-name="Group 117300" transform="translate(0 0)">
        <g id="Group_107498" data-name="Group 107498" transform="translate(0 0)">
          <g id="Group_107489" data-name="Group 107489" transform="translate(40.24 131.858)">
            <path id="Path_8852" data-name="Path 8852" d="M2318.888,1582.363c0,25.025-17.575,54.428-45.458,54.428-17.3,0-31.531-10.582-39.833-24.751a57.043,57.043,0,0,1-8-28.491c0-25.633,28-24.417,45.732-24.417,19.46,0,42.539-1.49,46.857,16.633A29.291,29.291,0,0,1,2318.888,1582.363Z" transform="translate(-2225.6 -1559.102)" fill="#e6eefa"/>
            <path id="Path_8853" data-name="Path 8853" d="M2337.191,1620.5c0,25.025-17.575,54.428-45.458,54.428-17.3,0-31.532-10.581-39.833-24.751,17.332,8.149,66.682,25.055,84.592-36.275A29.261,29.261,0,0,1,2337.191,1620.5Z" transform="translate(-2243.903 -1597.238)" fill="#cbdbef"/>
            <path id="Path_8854" data-name="Path 8854" d="M2301.1,1579.07c-3.619,5.9-1.065,14.321,5.169,17.636,6.568,3.5,15.538.365,17.97-6.568,2.311-6.6-2.159-13.987-8.574-16.055C2310.527,1572.411,2304.111,1574.144,2301.1,1579.07Z" transform="translate(-2276.988 -1569.097)" fill="#fcfcfc"/>
          </g>
          <g id="Group_107490" data-name="Group 107490" transform="translate(0 113.396)">
            <path id="Path_8855" data-name="Path 8855" d="M2132.225,1543.087c13.288,2.007,21.924.365,19.248-9.183a27.459,27.459,0,0,0-2.4-5.625c-3.862-7.115-51.57-43.512-55.431-24.417a21.087,21.087,0,0,0,2.463,14.291C2102.944,1531.107,2120.67,1541.323,2132.225,1543.087Z" transform="translate(-2093.262 -1498.384)" fill="#e6eefa"/>
            <path id="Path_8856" data-name="Path 8856" d="M2138.723,1588.333c13.288,2.007,21.923.365,19.247-9.183-7.51,1.612-24.082,1.277-55.371-15.75C2109.442,1576.353,2127.169,1586.57,2138.723,1588.333Z" transform="translate(-2099.761 -1543.631)" fill="#cbdbef"/>
            <path id="Path_8857" data-name="Path 8857" d="M2146.364,1526.658c7.6,4.987,20.98,12.8,21.953,11.4.882-1.247-8.21-10.186-19.521-16.085-6.294-3.314-13.9-6.021-14.474-4.987C2133.623,1518.3,2143.992,1525.108,2146.364,1526.658Z" transform="translate(-2121.814 -1511.176)" fill="#fcfcfc"/>
          </g>
          <g id="Group_107497" data-name="Group 107497" transform="translate(35.441)">
            <path id="Path_8858" data-name="Path 8858" d="M2314.74,1292.779c-1.794,24.812-58.655,32.991-85.26,18-7.389-4.166-12.436-10.125-13.318-18-4.074-36.275,19.917-69.479,47.5-69.479,10,0,21.74,3.831,31.471,12.315C2307.564,1246.47,2316.747,1264.927,2314.74,1292.779Z" transform="translate(-2213.917 -1193.548)" fill="#e6eefa"/>
            <path id="Path_8859" data-name="Path 8859" d="M2259.25,1443.222a8.921,8.921,0,0,1-5.077-4.1c-1.794-3.04-1.582-6.416-.73-6.233,1.277.3,3.223,4.348,6.6,5.443,3.862,1.247,7.359-.365,9.4.182l.274.091C2271.717,1439.269,2266.882,1445.715,2259.25,1443.222Z" transform="translate(-2239.735 -1339.399)" fill="#3668a6"/>
            <path id="Path_8860" data-name="Path 8860" d="M2346.26,1320.965c-1.794,24.812-58.655,32.991-85.26,18,16.267,2.706,64.645,8.635,73.341-14.687,7.48-20.038-1.764-46.8-7.693-60.479C2339.085,1274.655,2348.267,1293.112,2346.26,1320.965Z" transform="translate(-2245.438 -1221.733)" fill="#cbdbef"/>
            <g id="Group_107491" data-name="Group 107491" transform="translate(0 51.938)">
              <path id="Path_8861" data-name="Path 8861" d="M2271.6,1325.375c-1.034,4.865-6.416,6.842-12.923,7.328a76.422,76.422,0,0,1-20.464-1.916c-7.936-1.794-22.9-6.6-27.214-13.44a6.743,6.743,0,0,1-1.034-5.139c1.125-5.26,3.831-10.642,7.723-13.44,3.892-2.767,8.97-2.949,13.774-1.946l26.758,5.717a17.255,17.255,0,0,1,12.193,10.308A20.755,20.755,0,0,1,2271.6,1325.375Z" transform="translate(-2209.819 -1296.265)" fill="#7699c4"/>
              <path id="Path_8862" data-name="Path 8862" d="M2274.3,1363.4c-1.034,4.865-6.417,6.842-12.923,7.328a76.435,76.435,0,0,1-20.464-1.916c-7.936-1.794-22.9-6.6-27.214-13.44,15.842,2.828,43.177,5.625,59.445-4.47A20.867,20.867,0,0,1,2274.3,1363.4Z" transform="translate(-2212.52 -1334.287)" fill="#547aa9"/>
              <path id="Path_8863" data-name="Path 8863" d="M2295.559,1309.323c-.061.608-3.831,1.216-7.541.821-6.021-.638-10.947-3.892-10.734-4.622.122-.334,3.831.426,11.281,1.946C2294.556,1308.714,2295.589,1308.988,2295.559,1309.323Z" transform="translate(-2256.766 -1302.653)" fill="#8fb0d8"/>
            </g>
            <g id="Group_107493" data-name="Group 107493" transform="translate(3.947 55.628)">
              <g id="Group_107492" data-name="Group 107492">
                <path id="Path_8864" data-name="Path 8864" d="M2244.068,1321.519a8.127,8.127,0,0,1-15.72,2.889,8.407,8.407,0,0,1-.547-2.889,8.123,8.123,0,0,1,15.537-3.314A7.558,7.558,0,0,1,2244.068,1321.519Z" transform="translate(-2226.28 -1311.88)" fill="#393760"/>
                <path id="Path_8865" data-name="Path 8865" d="M2232.469,1309.92a8.132,8.132,0,0,1,7.419,4.8,7.986,7.986,0,0,1,.7,3.315,8.127,8.127,0,0,1-15.72,2.888,8.4,8.4,0,0,1-.548-2.888,8.143,8.143,0,0,1,8.149-8.119Zm0-1.52a9.694,9.694,0,0,0-9.669,9.669,9.442,9.442,0,0,0,.638,3.436,9.672,9.672,0,0,0,18.7-3.466,9.34,9.34,0,0,0-.851-3.953,9.654,9.654,0,0,0-8.818-5.686Z" transform="translate(-2222.8 -1308.4)" fill="#46aed2"/>
              </g>
              <path id="Path_8866" data-name="Path 8866" d="M2243.438,1318.273c-3.04,7.328-10.551,7.115-14.99,6.264a8.4,8.4,0,0,1-.547-2.889,8.131,8.131,0,0,1,15.537-3.375Z" transform="translate(-2226.349 -1311.948)" fill="#2f4572"/>
              <circle id="Ellipse_129559" data-name="Ellipse 129559" cx="2.706" cy="2.706" r="2.706" transform="translate(3.376 9.031) rotate(-76.714)" fill="#b1eced"/>
              <path id="Path_8867" data-name="Path 8867" d="M2260.984,1345.24c.456.3-.152,3.132-2.159,4.226-1.794.973-4.166.244-4.227-.274-.03-.4,1.186-.486,3.254-1.733C2259.98,1346.153,2260.65,1345.027,2260.984,1345.24Z" transform="translate(-2244.929 -1334.02)" fill="#b1eced"/>
            </g>
            <g id="Group_107495" data-name="Group 107495" transform="translate(34.567 63.747)">
              <g id="Group_107494" data-name="Group 107494">
                <path id="Path_8868" data-name="Path 8868" d="M2344.768,1348.319a8.127,8.127,0,0,1-15.72,2.889,8.4,8.4,0,0,1-.547-2.889,8.124,8.124,0,0,1,15.538-3.315A7.555,7.555,0,0,1,2344.768,1348.319Z" transform="translate(-2326.98 -1338.65)" fill="#393760"/>
                <path id="Path_8869" data-name="Path 8869" d="M2333.139,1336.62a8.133,8.133,0,0,1,7.419,4.8,7.992,7.992,0,0,1,.7,3.314,8.127,8.127,0,0,1-15.72,2.889,8.409,8.409,0,0,1-.547-2.889,8.182,8.182,0,0,1,8.149-8.118Zm.031-1.52a9.694,9.694,0,0,0-9.67,9.669,9.437,9.437,0,0,0,.638,3.436,9.672,9.672,0,0,0,18.7-3.466,9.333,9.333,0,0,0-.852-3.953,9.737,9.737,0,0,0-8.817-5.686Z" transform="translate(-2323.5 -1335.1)" fill="#46aed2"/>
              </g>
              <path id="Path_8870" data-name="Path 8870" d="M2344.038,1344.973c-3.041,7.328-10.552,7.115-14.991,6.264a8.4,8.4,0,0,1-.547-2.888,8.132,8.132,0,0,1,15.538-3.375Z" transform="translate(-2326.98 -1338.649)" fill="#2f4572"/>
              <circle id="Ellipse_129560" data-name="Ellipse 129560" cx="2.706" cy="2.706" r="2.706" transform="translate(3.358 9.031) rotate(-76.714)" fill="#b1eced"/>
              <path id="Path_8871" data-name="Path 8871" d="M2361.584,1372.041c.456.3-.152,3.132-2.159,4.227-1.794.973-4.165.243-4.227-.274-.03-.4,1.186-.487,3.253-1.733C2360.611,1372.953,2361.28,1371.828,2361.584,1372.041Z" transform="translate(-2345.559 -1360.79)" fill="#b1eced"/>
            </g>
            <g id="Group_107496" data-name="Group 107496" transform="translate(54.199)">
              <path id="Path_8872" data-name="Path 8872" d="M2388.2,1180.049a25.565,25.565,0,0,1,1.855-12.315c2.432-6.112,8.331-14.5,22.592-19.734l.912,2.524c-10.643,3.892-17.7,9.974-20.951,18.062a23.7,23.7,0,0,0-1.733,11.068Z" transform="translate(-2388.066 -1141.145)" fill="#e6eefa"/>
              <circle id="Ellipse_129561" data-name="Ellipse 129561" cx="6.233" cy="6.233" r="6.233" transform="translate(20.989 12.34) rotate(-81.808)" fill="#294f81"/>
              <path id="Path_8873" data-name="Path 8873" d="M2472.96,1133.167a3.357,3.357,0,1,0,4.743-.182A3.361,3.361,0,0,0,2472.96,1133.167Z" transform="translate(-2446.526 -1130.082)" fill="#296abd"/>
            </g>
            <path id="Path_8874" data-name="Path 8874" d="M2340.857,1241.17c.882,5.291-8.818,12.375-18.122,13.257-8.27.76-18.365-3.193-18.882-8.24-.548-5.382,9.7-11.585,18.882-12.254C2330.184,1233.355,2340.036,1236.244,2340.857,1241.17Z" transform="translate(-2275.245 -1200.897)" fill="#fcfcfc"/>
          </g>
        </g>
        <ellipse id="Ellipse_129562" data-name="Ellipse 129562" cx="48.468" cy="12.558" rx="48.468" ry="12.558" transform="translate(37.716 216.997)" fill="#f0f4fa"/>
        <ellipse id="Ellipse_129573" data-name="Ellipse 129573" cx="20.618" cy="5.23" rx="20.618" ry="5.23" transform="translate(65.567 224.323)" fill="#e0eaf7"/>
      </g>
    </g>
  </g>
</svg>
