<svg xmlns="http://www.w3.org/2000/svg" width="40" height="40" viewBox="0 0 40 40">
  <g id="Group_114260" data-name="Group 114260" transform="translate(-156 -267)">
    <rect id="Rectangle_58945" data-name="Rectangle 58945" width="40" height="40" transform="translate(156 267)" fill="none"/>
    <path id="Vector-2" d="M12.336.26,1.79,4.947A3.011,3.011,0,0,0,0,7.7v7.081c0,11.8,9.7,17.3,13.559,18.079,3.858-.774,13.559-6.282,13.559-18.079V7.7a3.013,3.013,0,0,0-1.79-2.754L14.782.26A3.009,3.009,0,0,0,12.336.26Z" transform="translate(162.354 270.483)" fill="none" stroke="#b8d4f6" stroke-width="3"/>
    <path id="icons8-verified-account-50" d="M27.561,17.986a1.145,1.145,0,0,0-.787.346l-6.821,6.82-3.006-3.006a1.145,1.145,0,1,0-1.618,1.618l3.815,3.815a1.145,1.145,0,0,0,1.618,0l7.63-7.63a1.145,1.145,0,0,0-.831-1.964Z" transform="translate(154.054 263.963)" fill="#b8d4f6" stroke="#b8d4f6" stroke-width="0.4"/>
  </g>
</svg>
