<svg xmlns="http://www.w3.org/2000/svg" xmlns:xlink="http://www.w3.org/1999/xlink" width="79.214" height="123.025" viewBox="0 0 79.214 123.025">
  <defs>
    <linearGradient id="linear-gradient" x1="1.127" y1="0.942" x2="-1.611" y2="-0.525" gradientUnits="objectBoundingBox">
      <stop offset="0" stop-color="#e0707c"/>
      <stop offset="1" stop-color="#fbaea8"/>
    </linearGradient>
    <linearGradient id="linear-gradient-2" x1="1.784" y1="1.038" x2="-0.666" y2="-0.001" xlink:href="#linear-gradient"/>
    <linearGradient id="linear-gradient-3" x1="2.404" y1="2.159" x2="0.267" y2="-0.04" xlink:href="#linear-gradient"/>
    <linearGradient id="linear-gradient-4" x1="2.783" y1="1.173" x2="-0.949" y2="-0.052" xlink:href="#linear-gradient"/>
    <linearGradient id="linear-gradient-5" x1="2.201" y1="1.688" x2="-1.196" y2="-0.619" xlink:href="#linear-gradient"/>
    <linearGradient id="linear-gradient-6" x1="1" y1="0.499" x2="0" y2="0.499" xlink:href="#linear-gradient"/>
    <linearGradient id="linear-gradient-7" x1="-0.146" y1="-0.93" x2="-0.129" y2="0.136" xlink:href="#linear-gradient"/>
    <linearGradient id="linear-gradient-8" x1="-2.372" y1="-18.267" x2="-2.275" y2="-5.816" xlink:href="#linear-gradient"/>
    <linearGradient id="linear-gradient-9" x1="-2.161" y1="-4.96" x2="-2.086" y2="-0.984" xlink:href="#linear-gradient"/>
    <linearGradient id="linear-gradient-10" x1="0.883" y1="0.808" x2="-0.385" y2="0.205" xlink:href="#linear-gradient"/>
    <linearGradient id="linear-gradient-11" x1="8.213" y1="2.796" x2="-1.871" y2="-0.269" xlink:href="#linear-gradient"/>
    <linearGradient id="linear-gradient-12" x1="5.064" y1="2.065" x2="-0.483" y2="0.126" xlink:href="#linear-gradient"/>
    <linearGradient id="linear-gradient-13" x1="4.906" y1="1.75" x2="-1.119" y2="0.077" xlink:href="#linear-gradient"/>
    <linearGradient id="linear-gradient-14" x1="5.441" y1="2.831" x2="-0.447" y2="0.11" xlink:href="#linear-gradient"/>
  </defs>
  <g id="Group_110804" data-name="Group 110804" transform="translate(22936.299 -10658.759)">
    <g id="Group_110791" data-name="Group 110791" transform="translate(-22935.326 10746.675)">
      <rect id="Rectangle_57527" data-name="Rectangle 57527" width="27.326" height="35.109" transform="translate(33.962 0)" fill="#705ac9"/>
      <rect id="Rectangle_57528" data-name="Rectangle 57528" width="33.962" height="35.109" transform="translate(0 0)" fill="#7a62dc"/>
      <path id="Path_12112" data-name="Path 12112" d="M812.562,2489.1l-3.627,32.219-30.335,2.889h33.962Z" transform="translate(-778.6 -2489.1)" opacity="0.2"/>
    </g>
    <g id="Group_110794" data-name="Group 110794" transform="translate(-22936.299 10712.554)">
      <g id="Group_110792" data-name="Group 110792" transform="translate(9.149 0)">
        <path id="Path_12113" data-name="Path 12113" d="M938.071,1879.973a.277.277,0,0,1-.093-.016.269.269,0,0,1-.158-.344c.033-.093,3.359-9.209.759-13.032a3.982,3.982,0,0,0-3.414-1.666,3.745,3.745,0,0,0-2.764,1.136c-3.485,3.392-3.567,13.119-3.567,13.218a.268.268,0,0,1-.268.268h0a.268.268,0,0,1-.268-.268,40.342,40.342,0,0,1,.475-5.429c.623-3.927,1.715-6.675,3.255-8.171a4.263,4.263,0,0,1,3.146-1.289,4.482,4.482,0,0,1,3.845,1.9c1.163,1.715,1.4,4.517.694,8.329a35.169,35.169,0,0,1-1.393,5.189A.262.262,0,0,1,938.071,1879.973Z" transform="translate(-928.3 -1864.378)" fill="#271f4a"/>
      </g>
      <path id="Path_12114" data-name="Path 12114" d="M760.8,2104.579l10.088-.016,14.5-.076,3.681-20.99-1.873.787-1.295-1.535L766,2082.3Z" transform="translate(-760.8 -2070.397)" fill="#d9a64d"/>
      <path id="Path_12115" data-name="Path 12115" d="M791.3,2102.618l2.054,1.125,2.381.819,22.639.016-3.752-21.154-16.62-.377-1.873.787-1.294-1.535Z" transform="translate(-789.634 -2070.397)" fill="#d9a64d"/>
      <path id="Path_12116" data-name="Path 12116" d="M767.294,2083.835l-2.775,19.908-3.719.836L766,2082.3Z" transform="translate(-760.8 -2070.397)" fill="#edb656"/>
      <path id="Path_12117" data-name="Path 12117" d="M872.5,2117.514l25.955.093-3.747-21.159L874.767,2096Z" transform="translate(-866.399 -2083.349)" fill="#ffc45c"/>
      <circle id="Ellipse_129703" data-name="Ellipse 129703" cx="1.245" cy="1.245" r="1.245" transform="translate(11.92 14.141) rotate(-7.944)" fill="#d9a64d"/>
      <circle id="Ellipse_129704" data-name="Ellipse 129704" cx="1.245" cy="1.245" r="1.245" transform="matrix(0.997, -0.073, 0.073, 0.997, 21.321, 14.261)" fill="#d9a64d"/>
      <g id="Group_110793" data-name="Group 110793" transform="translate(11.852 0.006)">
        <path id="Path_12118" data-name="Path 12118" d="M988.608,1880.162h-.033a.265.265,0,0,1-.235-.295,31.6,31.6,0,0,0,.093-5.042c-.158-2.507-.715-5.92-2.5-7.969a5.207,5.207,0,0,0-3.976-1.83,2.76,2.76,0,0,0-2.365,1.054c-2.665,3.326-.262,13.223-.235,13.322a.267.267,0,1,1-.519.125,43.4,43.4,0,0,1-.907-5.516c-.371-3.992.049-6.773,1.245-8.269a3.321,3.321,0,0,1,2.8-1.256,5.724,5.724,0,0,1,4.37,2.015c1.508,1.737,2.392,4.528,2.627,8.3a31.591,31.591,0,0,1-.1,5.129A.275.275,0,0,1,988.608,1880.162Z" transform="translate(-977.804 -1864.485)" fill="#31275c"/>
      </g>
    </g>
    <g id="Group_110795" data-name="Group 110795" transform="translate(-22907.957 10731.087)">
      <path id="Path_12119" data-name="Path 12119" d="M1505.5,2203.7l1.639,14.545,13.693,1.3H1505.5Z" transform="translate(-1493.167 -2203.7)" opacity="0.2"/>
    </g>
    <g id="Group_110802" data-name="Group 110802" transform="translate(-22918.24 10658.759)">
      <g id="Group_110801" data-name="Group 110801" transform="translate(0 0)">
        <path id="Path_12120" data-name="Path 12120" d="M1130.37,2904.563h-6.27V2898.5h5.068l.443,2.212Z" transform="translate(-1071.672 -2788.222)" fill="#ffc45c"/>
        <path id="Path_12121" data-name="Path 12121" d="M1140.3,2901.689a3.622,3.622,0,0,1-1.426.2,30.2,30.2,0,0,0-3.6.044c-.164.011-.514.016-.672.005V2898.5h5.074Z" transform="translate(-1082.172 -2788.222)" opacity="0.2"/>
        <path id="Path_12122" data-name="Path 12122" d="M1669.954,2099.738l2.917,23.906-6.215-.147-.055-.005v-.027l-6.1-27.965,4.943,3.632Z" transform="translate(-1643.47 -2029.081)" fill="#62b7dc"/>
        <path id="Path_12123" data-name="Path 12123" d="M1129.174,2517.1c-.005.006-.005.011-.011.022a1.418,1.418,0,0,1-1.245.868c-.349-.021-.814-.071-1.333-.137a26.122,26.122,0,0,0-3.643-.333,1.089,1.089,0,0,1-.546-.12l-6.4-25.944,1.316-1.7a20.113,20.113,0,0,1,5.844-.841c1.037.115,1.873.486,2.065,1.316l3.938,26.8Z" transform="translate(-1070.033 -2400.981)" fill="#62b7dc"/>
        <path id="Path_12124" data-name="Path 12124" d="M1202.893,2041.642l-9.121,1.508a64.2,64.2,0,0,0-2.01-8.013c-1.12-3.37-2.523-6.412-3.408-8.581a5.688,5.688,0,0,1,.044-1.513s.284-3.741.2-4.337a13.522,13.522,0,0,1,.011-2.1,10.168,10.168,0,0,1,.573-2.9,1.893,1.893,0,0,1,1.153-1.262l.082-.016c1.961-.328,8.089.89,8.089.89.535.743,2.856,10.137,3.092,12.874S1202.893,2041.642,1202.893,2041.642Z" transform="translate(-1147.701 -1952.388)" fill="#62b7dc"/>
        <path id="Path_12125" data-name="Path 12125" d="M1648.785,2612.077c-1.365.005-4.025.011-4.025.011l-6.33-5.036,3.545-2.152h5.625a2.737,2.737,0,0,1,.568.06h0l1.251,6.33A.649.649,0,0,1,1648.785,2612.077Z" transform="translate(-1618.827 -2510.659)" fill="#31275c"/>
        <path id="Path_12126" data-name="Path 12126" d="M1685.27,2646.037c.246-2.737,3.119-4.665,4.965-4.987a9.815,9.815,0,0,1,5.855.3c2.512,1.114,5.129,3.2,4.763,4.626Z" transform="translate(-1672.839 -2544.548)" fill="#403379"/>
        <path id="Path_12127" data-name="Path 12127" d="M1102.2,3006.544a1.6,1.6,0,0,1-.792.208H1097.5l-6.1-2.5,2.223-4.32a.648.648,0,0,1,.562-.35c1.278-.005,5.32.016,6.38.066a.325.325,0,0,1,.3.257Z" transform="translate(-1041.719 -2883.786)" fill="#31275c"/>
        <path id="Path_12128" data-name="Path 12128" d="M1103.2,3046.219a5.48,5.48,0,0,1,4.113-4.719,9.673,9.673,0,0,1,5.828.475c1.633.89,3.288,2.753,2.977,4.184Z" transform="translate(-1056.319 -2923.193)" fill="#403379"/>
        <path id="Path_12129" data-name="Path 12129" d="M1925.3,1384.022l3.1,1.256,2.376-3.889-1.633-1.458-2.987-.431Z" transform="translate(-1915.835 -1352.188)" fill="url(#linear-gradient)"/>
        <path id="Path_12130" data-name="Path 12130" d="M2007.225,1331c-.492,3.223-1.977,2.786-3.151,2.5q-.205-.049-.393-.082c-1.213-.218-1.376-.36-2.223-1.983a3.811,3.811,0,0,1-.312-1.764c.038-1.781.8-3.916,1.606-4.091a4.178,4.178,0,0,1,3.676,2A5.926,5.926,0,0,1,2007.225,1331Z" transform="translate(-1996.466 -1301.181)" fill="url(#linear-gradient-2)"/>
        <path id="Path_12131" data-name="Path 12131" d="M2071.1,1289.062a28.929,28.929,0,0,0,2.747.912,5.628,5.628,0,0,0,1.327.846.02.02,0,0,0,.011.006l.656.278,1.567-1.731-6.39-2.1a.4.4,0,0,0-.5.246l-.06.164A1.083,1.083,0,0,0,2071.1,1289.062Z" transform="translate(-2070.4 -1264.979)" fill="url(#linear-gradient-3)"/>
        <path id="Path_12132" data-name="Path 12132" d="M2043.134,1358.424c.18,1,.306,3.987-.186,4.878a2.609,2.609,0,0,1-.459.6c-.12-.005-.24-.005-.355-.005-1.087.027-1.256-.066-2.277-1.327a3.273,3.273,0,0,1-.579-1.475c.027-1.589.568-2.927,1.065-3.239C2040.977,1357.452,2042.954,1357.425,2043.134,1358.424Z" transform="translate(-2034.581 -1331.478)" opacity="0.2"/>
        <path id="Path_12133" data-name="Path 12133" d="M2050.586,1347.667c.169.95,1.087,1.972,1.655,2.01a2.179,2.179,0,0,0,1.906-1.207c.491-.89.366-3.883.186-4.878s-2.157-.967-2.791-.568S2050.2,1345.509,2050.586,1347.667Z" transform="translate(-2046.392 -1317.46)" fill="url(#linear-gradient-4)"/>
        <path id="Path_12134" data-name="Path 12134" d="M2008.572,1356.259c-.011,0-.017-.006-.028-.006-.372-.071-.475-.344-.437-.716.59-.317,1.1-1.169,1.709-1.442.42-.186.939.2,1.371.027a2.882,2.882,0,0,1-1.071.568,6.633,6.633,0,0,1-.874,1.316A.685.685,0,0,1,2008.572,1356.259Z" transform="translate(-2000.773 -1328.122)" opacity="0.2"/>
        <path id="Path_12135" data-name="Path 12135" d="M1988.817,1328.139c.524-.956,1.18-.737,2.185-.306a1.33,1.33,0,0,1,.7.721l.257.645a3.521,3.521,0,0,1,.148.481l.306,1.458-1.354-.748a3.262,3.262,0,0,0-.35-1.245h0c-.732.246-.688.115-.688.115a6.616,6.616,0,0,1-.874,1.316.712.712,0,0,1-.677.246c-.005,0-.017-.005-.022-.005C1987.533,1330.635,1988.21,1329.242,1988.817,1328.139Z" transform="translate(-1980.897 -1302.996)" fill="url(#linear-gradient-5)"/>
        <path id="Path_12136" data-name="Path 12136" d="M1944.54,1376.3s1.049,3.2-.94,5.429l1.59.672,1.557-2.726-.956-3.058Z" transform="translate(-1932.808 -1349.163)" fill="#efecfd"/>
        <path id="Path_12137" data-name="Path 12137" d="M1502.837,1383.99c-.552-.087-15.375-3.943-16.566-4.042h-.005a52.43,52.43,0,0,1-7.466-1.327c3.08-3.763.726-6.451.661-6.522.115.038,27.168,5.658,27.168,5.658S1505.208,1384.356,1502.837,1383.99Z" transform="translate(-1467.303 -1345.192)" fill="#559fbf"/>
        <path id="Path_12138" data-name="Path 12138" d="M1293.217,1370.273l-1.07,1.251a23.758,23.758,0,0,1-2.321,1.251,56.225,56.225,0,0,1-7.494-.535c-.89-.18-2.857-2.141-1.426-3.031s4.462-1.961,4.817-3.031a3.685,3.685,0,0,0,.126-.5,18.628,18.628,0,0,0,.229-2.889l4.1-.89s-.06.836-.044,1.819a10.485,10.485,0,0,0,.219,2.1,2.509,2.509,0,0,0,1.606,1.786Z" transform="translate(-1243.056 -1335.55)" fill="url(#linear-gradient-6)"/>
        <path id="Path_12139" data-name="Path 12139" d="M1340.286,1363.519a7.559,7.559,0,0,1-4.293,1.961,18.627,18.627,0,0,0,.229-2.889l4.1-.89C1340.33,1361.7,1340.27,1362.536,1340.286,1363.519Z" transform="translate(-1293.2 -1335.361)" opacity="0.2"/>
        <path id="Path_12140" data-name="Path 12140" d="M1258.225,1455.382q.082-.868.213-1.606l.89-6.958a6.858,6.858,0,0,0-3.184-1.628h0L1254.61,1444l-5.877.3-2.627,1.426a13.265,13.265,0,0,0-3.545,3.053c-1.251,1.786-.891,5.172-1.251,7.494-.317,2.059-1.671,9.842-2.321,15.523-.077.672-1.469,6.516-.814,6.336.727-.2,1.682-.279,2.829-.519,4.211-.89,10.869-1.7,17.047.033.606.169.011-2-.06-2.633A125.776,125.776,0,0,1,1258.225,1455.382Z" transform="translate(-1206.851 -1413.165)" fill="#efecfd"/>
        <path id="Path_12141" data-name="Path 12141" d="M1388.376,1442.076l-3.976,10.552,1.546,5.8,3.146-3.834-.382-2.562.743-10.033Z" transform="translate(-1344.971 -1411.275)" fill="#dc6262"/>
        <path id="Path_12142" data-name="Path 12142" d="M1314.1,1432.067a1.78,1.78,0,0,0,1.01.612l1.354-.83.666.967a9.061,9.061,0,0,0,3.3-.847l.388-.645-6.221-.224Z" transform="translate(-1272.497 -1400.97)" fill="#dad6fe"/>
        <path id="Path_12143" data-name="Path 12143" d="M1447.1,1965.388s1.415,2.551,8.133,1.66l2.556-11.448-9.695,5.205Z" transform="translate(-1416.732 -1896.823)" opacity="0.2"/>
        <path id="Path_12144" data-name="Path 12144" d="M1260.318,1160.614a6.644,6.644,0,0,1-1.977,2.66c-2.25,1.447-6.707,1.884-7.778-1.371a12.128,12.128,0,0,1-.077-4.287,17.812,17.812,0,0,1,.869-3.7c.125-.371.213-.584.213-.584s.814-.65,2.31-1.617,8.045,2.42,8.193,3.048a13.738,13.738,0,0,1-.917,3.8A18.955,18.955,0,0,1,1260.318,1160.614Z" transform="translate(-1210.277 -1136.683)" fill="url(#linear-gradient-7)"/>
        <path id="Path_12145" data-name="Path 12145" d="M1259.3,1160.519a1,1,0,0,1-.207-.093.927.927,0,0,1-.426-1.114c.333-1.5-.137-5.79-8.22-5.369a1.608,1.608,0,0,1-.109-.126c.126-.371.213-.584.213-.584s.814-.65,2.31-1.617,8.046,2.42,8.193,3.048a13.735,13.735,0,0,1-.918,3.8A18.537,18.537,0,0,1,1259.3,1160.519Z" transform="translate(-1209.255 -1136.588)" opacity="0.2"/>
        <path id="Path_12146" data-name="Path 12146" d="M1225.362,1095.545a2.954,2.954,0,0,1-.219-.257,3.039,3.039,0,0,1,2.873-4.839,11.085,11.085,0,0,0,1.141.1c4.845.2,11.126,2.474,6.522,10.968a1.227,1.227,0,0,1-1.671.513.923.923,0,0,1-.426-1.109C1233.915,1099.423,1233.445,1095.125,1225.362,1095.545Z" transform="translate(-1184.07 -1078.895)" fill="#31275c"/>
        <path id="Path_12147" data-name="Path 12147" d="M1443.77,1449.5s-4.49,1.841-6.3,4.681-.59,3.61-2.168,12.8-3.3,19.417-3.3,19.417a17.145,17.145,0,0,0,8.444-.776l1.666-7.849s.475-11.951.89-15.1C1443.006,1462.663,1440.258,1455.126,1443.77,1449.5Z" transform="translate(-1401.889 -1418.365)" fill="#62b7dc"/>
        <path id="Path_12148" data-name="Path 12148" d="M1484.4,1972.724l-.492,2.311-7.8-2.764-.005-.732c.12-.71.246-1.458.382-2.239A81.567,81.567,0,0,1,1484.4,1972.724Z" transform="translate(-1444.924 -1909.774)" fill="#559fbf"/>
        <path id="Path_12149" data-name="Path 12149" d="M1436.246,1462.663l-.044.847a.717.717,0,0,0-.1-.076,10.623,10.623,0,0,1-3.5-3.747l1.732-2.589-2.234-1.972a5.807,5.807,0,0,1,1.152-3.851,9.6,9.6,0,0,1,3.752-1.775C1434.312,1454.563,1436.246,1462.663,1436.246,1462.663Z" transform="translate(-1395.129 -1418.365)" fill="#559fbf"/>
        <path id="Path_12150" data-name="Path 12150" d="M1209.916,1093.234a3.577,3.577,0,0,1,4.561,2.07c1.415,3.239,4.528-6.166-3.714-8.182s-8.635.262-8.723,2.512,1.054,2.059,1.054,2.059A12.533,12.533,0,0,1,1209.916,1093.234Z" transform="translate(-1161.803 -1075.044)" fill="#3e3079"/>
        <path id="Path_12151" data-name="Path 12151" d="M1215.4,1148.328a11.664,11.664,0,0,1,1.584.431,8.953,8.953,0,0,1,1.48.65,6.768,6.768,0,0,1,.677.431c.109.076.213.164.317.246s.208.175.3.268.191.191.284.284c.044.049.087.1.136.153l.066.076.066.082.131.158c.038.055.076.109.12.164a.771.771,0,0,1,.06.082l.055.087c.038.054.076.115.115.175-.022-.065-.044-.131-.071-.2l-.038-.1a.768.768,0,0,0-.044-.1c-.027-.065-.06-.126-.087-.191l-.1-.186-.055-.093-.06-.087a1.922,1.922,0,0,0-.12-.175c-.087-.109-.169-.229-.268-.333-.049-.054-.093-.109-.142-.158l-.153-.147c-.049-.049-.1-.093-.158-.142s-.109-.093-.164-.136c-.109-.093-.229-.169-.344-.251s-.24-.153-.366-.219a6.413,6.413,0,0,0-2.4-.748A4.067,4.067,0,0,0,1215.4,1148.328Z" transform="translate(-1167.079 -1133.633)" fill="#31275c"/>
        <path id="Path_12152" data-name="Path 12152" d="M1252,1171.419a4.844,4.844,0,0,1,1.431-.251,4.306,4.306,0,0,1,1.4.2,5.217,5.217,0,0,1,1.278.617,10.5,10.5,0,0,1,1.152.907,4.427,4.427,0,0,0-.983-1.136,3.92,3.92,0,0,0-.633-.432,3.693,3.693,0,0,0-.71-.3,3.627,3.627,0,0,0-1.529-.131,3.516,3.516,0,0,0-.743.18A2.848,2.848,0,0,0,1252,1171.419Z" transform="translate(-1205.547 -1154.944)" fill="#31275c"/>
        <path id="Path_12153" data-name="Path 12153" d="M1292.6,1097.226a3.884,3.884,0,0,1,.432-.306c.153-.087.306-.175.464-.246.077-.038.159-.071.24-.1a2.21,2.21,0,0,1,.246-.087l.126-.038.126-.038c.082-.027.169-.044.251-.066a5.477,5.477,0,0,1,1.027-.142l.131-.005h.131c.087,0,.175-.005.262,0l.262.005.257.022a10.559,10.559,0,0,1,2.048.415c.672.207,1.333.464,1.994.737a9.423,9.423,0,0,0-1.9-1,9.8,9.8,0,0,0-1.032-.328c-.087-.022-.175-.044-.268-.06l-.268-.049c-.087-.016-.18-.027-.268-.038s-.18-.027-.273-.033a5.6,5.6,0,0,0-2.168.213,4.41,4.41,0,0,0-.994.448,5.057,5.057,0,0,0-.442.317A2.289,2.289,0,0,0,1292.6,1097.226Z" transform="translate(-1251.101 -1084.022)" fill="#31275c"/>
        <path id="Path_12154" data-name="Path 12154" d="M1370.7,1136.018a2.8,2.8,0,0,1,.224-.322,2.5,2.5,0,0,1,.24-.289,2.622,2.622,0,0,1,.546-.47,2.156,2.156,0,0,1,.311-.175c.055-.027.109-.049.164-.071.027-.011.055-.022.087-.033s.055-.022.088-.033c.235-.076.48-.131.748-.191a1.818,1.818,0,0,0-1.212.016c-.066.022-.131.055-.2.082a1.636,1.636,0,0,0-.186.109,1.789,1.789,0,0,0-.574.606,1.948,1.948,0,0,0-.169.377,1.291,1.291,0,0,0-.049.2A.57.57,0,0,0,1370.7,1136.018Z" transform="translate(-1327.881 -1120.416)" fill="#31275c"/>
        <path id="Path_12155" data-name="Path 12155" d="M1433.109,1302.379c-.077.24-.606.284-1.174.1s-.972-.53-.9-.77.606-.284,1.174-.1S1433.186,1302.139,1433.109,1302.379Z" transform="translate(-1391.185 -1278.443)" fill="url(#linear-gradient-8)"/>
        <path id="Path_12156" data-name="Path 12156" d="M1379.9,1995.254l-.732,1.223s-27.042-7.893-27.435-8.029c0,0-.279-.426-.634-1.114a5.327,5.327,0,0,1,5.489-7.712c1.415.2,2.72.4,3.643.546,3.01.481,16.216,3.752,16.216,3.752l2.742,2.955Z" transform="translate(-1333.568 -1919.479)" fill="#62b7dc"/>
        <path id="Path_12157" data-name="Path 12157" d="M1116.587,1985.8s10.509,4.047,10.8,4.544a31.444,31.444,0,0,1,.989,3.8h0a64.129,64.129,0,0,1,1.4,7.051c.235,2.737,1.305,13.442,1.305,13.442h0l3.938,26.8.011.061c-.005.005-.005.01-.011.021a1.416,1.416,0,0,1-1.245.868c-.35-.021-.814-.071-1.333-.136-.8-.1-1.709-.224-2.474-.3-.6-.464-.961-.781-.961-.781s5.74.066,4.113-4.867-5.287-21.323-5.6-30.051a13.754,13.754,0,0,0-6.057-11.088,32.912,32.912,0,0,1-4.79.033l-.257-1.546a22.339,22.339,0,0,1-.3-3.3,12.37,12.37,0,0,1,.475-4.55Z" transform="translate(-1075.896 -1925.373)" fill="#559fbf"/>
        <path id="Path_12158" data-name="Path 12158" d="M1232.9,1489.615a36.831,36.831,0,0,1-10.8.3l-1.906-8.269v-6.926l.89-8.176c6.958-5.948,6.986-12.945,6.986-12.945a12.535,12.535,0,0,1,3.845,1.841l1.5,4.189-.934,2.6Z" transform="translate(-1179.974 -1422.241)" fill="#62b7dc"/>
        <path id="Path_12159" data-name="Path 12159" d="M1230.2,1591.811a36.838,36.838,0,0,1-10.8.3c3.539-2.174,9.1-.95,9.045-3.752s1.442-17.237-.3-19.619a8.483,8.483,0,0,1-1.693-4.735l4.309-2.305s-.994,2.709-.972,2.725Z" transform="translate(-1177.267 -1524.437)" opacity="0.2"/>
        <path id="Path_12160" data-name="Path 12160" d="M1270.427,1458.361l-2.764,1.72,1.1,2.376a27,27,0,0,0-6.751,4.637c-.038.038-.076.076-.115.12a2.067,2.067,0,0,1,.142-.77c1.311-3.567,6.986-12.945,6.986-12.945a6,6,0,0,1,3.07,1.191A35.445,35.445,0,0,0,1270.427,1458.361Z" transform="translate(-1220.927 -1422.147)" fill="#559fbf"/>
        <g id="Group_110796" data-name="Group 110796" transform="translate(40 44.282)">
          <path id="Path_12161" data-name="Path 12161" d="M1442.846,1705.335l.355-.022c-.29-4.571.879-14.966.89-15.075l-.355-.038C1443.731,1690.3,1442.556,1700.73,1442.846,1705.335Z" transform="translate(-1442.8 -1690.2)" fill="#559fbf"/>
        </g>
        <ellipse id="Ellipse_129705" data-name="Ellipse 129705" cx="0.666" cy="0.666" rx="0.666" ry="0.666" transform="matrix(-0.973, -0.23, 0.23, -0.973, 41.459, 46.621)" fill="#33285e"/>
        <path id="Path_12162" data-name="Path 12162" d="M1221.5,1528.29c1.453-8.477.53-9.788,1.8-12.169.022,1.792.147,4.544.7,4.544.639,0,2.867-1.256,4.206-2.043a20.341,20.341,0,0,0,1,5.358h0a20.114,20.114,0,0,0,6.314-9.351,7.873,7.873,0,0,1,1.775-.273,4.1,4.1,0,0,1,3.348,1.256,3.6,3.6,0,0,1,.841,1.6l-.885,2.458.016.983a1.868,1.868,0,0,1-.175.191c-1.644,1.639-5.058,4.228-12.011,7.193-.169.071-.377.164-.617.262-.262.109-.524.218-.792.328l-.011-.011a21.244,21.244,0,0,1-5.806,1.436C1221.3,1529.454,1221.4,1528.869,1221.5,1528.29Zm7.7-4.282c-.033.251-.065.563-.1.912Z" transform="translate(-1188.085 -1479.677)" opacity="0.2"/>
        <ellipse id="Ellipse_129706" data-name="Ellipse 129706" cx="0.666" cy="0.666" rx="0.666" ry="0.666" transform="matrix(-0.973, -0.23, 0.23, -0.973, 41.032, 51.41)" fill="#33285e"/>
        <ellipse id="Ellipse_129707" data-name="Ellipse 129707" cx="0.666" cy="0.666" rx="0.666" ry="0.666" transform="matrix(-0.973, -0.23, 0.23, -0.973, 40.612, 56.195)" fill="#33285e"/>
        <path id="Path_12163" data-name="Path 12163" d="M1458.3,2114.4l.006.175h.027l6.216.147-2.5-20.465c4.506,2.862,10.6,1.726,13.382,3.5.005-.027.508-.442.508-.442s-12.317-3.769-14.1-6.008-3.19-3.1-3.376-1.83,4.85,15.932,4.85,22.306C1463.319,2114.951,1458.3,2114.4,1458.3,2114.4Z" transform="translate(-1435.492 -2022.829)" fill="#559fbf"/>
        <path id="Path_12164" data-name="Path 12164" d="M1254.979,1246.382c-.339.918-1.158,1.458-1.819,1.212a1.588,1.588,0,0,1-.585-2.108c.339-.918,1.158-1.458,1.819-1.213A1.583,1.583,0,0,1,1254.979,1246.382Z" transform="translate(-1203.442 -1224.292)" fill="url(#linear-gradient-9)"/>
        <g id="Group_110799" data-name="Group 110799" transform="translate(8.057)">
          <path id="Path_12165" data-name="Path 12165" d="M1624.188,1262.044l-1.458,9.089a.864.864,0,0,1-1.174.666l-1.295-.519a1.527,1.527,0,0,1-.939-1.671l1.5-8.908Z" transform="translate(-1600.594 -1239.877)" fill="#705ac9"/>
          <path id="Path_12166" data-name="Path 12166" d="M1596.888,1272.844l-1.458,9.089a.864.864,0,0,1-1.174.667l-1.295-.519a1.527,1.527,0,0,1-.939-1.671l1.5-8.908Z" transform="translate(-1571.803 -1250.087)" fill="#7a62dc"/>
          <path id="Path_12167" data-name="Path 12167" d="M1527.521,936.119l1.48.59a3.683,3.683,0,0,1,2.054,4.779h0a3.683,3.683,0,0,1-4.779,2.054l-1.48-.59a23.417,23.417,0,0,0-9.624-1.682,19.438,19.438,0,0,0-8.444,2.207l4.025-10.088,4.025-10.088a19.482,19.482,0,0,0,4.6,7.417A23.529,23.529,0,0,0,1527.521,936.119Z" transform="translate(-1501.574 -920.905)" fill="#dc6262"/>
          <path id="Path_12168" data-name="Path 12168" d="M1514.76,1205.144a23.415,23.415,0,0,1,9.624,1.682l1.48.59a3.676,3.676,0,0,0,4.779-2.054h0a3.717,3.717,0,0,0,.257-1.562,3.676,3.676,0,0,1-4.719,4.916l-1.48-.59a23.414,23.414,0,0,0-9.624-1.682,19.436,19.436,0,0,0-8.444,2.206l.721-1.813A19.715,19.715,0,0,1,1514.76,1205.144Z" transform="translate(-1501.473 -1186.085)" fill="#944242"/>
          <ellipse id="Ellipse_129708" data-name="Ellipse 129708" cx="4.222" cy="11.284" rx="4.222" ry="11.284" transform="translate(7.842 24.09) rotate(-158.24)" fill="#dedde3"/>
          <path id="Path_12169" data-name="Path 12169" d="M1621.713,1128.576c.426.06,1.611-.956,2.518-3.228s.748-3.812.4-4.069a.224.224,0,0,0-.049-.027h-.005c-.186-.109-.371-.219-.557-.333a.882.882,0,0,1,.726-.087,1.033,1.033,0,0,1,.541.819,9.162,9.162,0,0,1-2.84,7.122,1.03,1.03,0,0,1-.956.224.9.9,0,0,1-.47-.562c.213.044.426.087.634.142Z" transform="translate(-1601.855 -1107.606)" fill="#dedde3"/>
          <path id="Path_12170" data-name="Path 12170" d="M1812.56,939.117c1.529.612,4.91-2.9,7.15-8.5s2.2-10.481.677-11.088-4.91,2.9-7.15,8.5S1811.031,938.505,1812.56,939.117Z" transform="translate(-1808.372 -917.273)" fill="#f2f1f7"/>
          <path id="Path_12171" data-name="Path 12171" d="M1824.2,1053.544l2.791,1.366a28.075,28.075,0,0,0,1.436-3.064,26.567,26.567,0,0,0,1.071-3.233l-2.971-.912Z" transform="translate(-1817.095 -1038.511)" fill="#705ac9"/>
          <path id="Path_12172" data-name="Path 12172" d="M1869.928,1052.975c.579.229,1.72-.759,2.387-2.436s.519-3.179-.054-3.408-1.721.759-2.387,2.436S1869.349,1052.746,1869.928,1052.975Z" transform="translate(-1862.824 -1037.942)" fill="#7a62dc"/>
          <path id="Path_12173" data-name="Path 12173" d="M1663.162,1287.333l.574.229a.252.252,0,0,0,.344-.2l.415-2.491a.423.423,0,0,0-.262-.464l-.573-.229a.252.252,0,0,0-.344.2l-.415,2.491A.423.423,0,0,0,1663.162,1287.333Z" transform="translate(-1643.288 -1262.059)" fill="#944242"/>
          <path id="Path_12174" data-name="Path 12174" d="M1671.964,1283.833l.573.23a.252.252,0,0,0,.344-.2l.415-2.491a.423.423,0,0,0-.262-.464l-.573-.229a.252.252,0,0,0-.344.2l-.415,2.491A.411.411,0,0,0,1671.964,1283.833Z" transform="translate(-1652.57 -1258.75)" fill="#dc6262"/>
          <g id="Group_110797" data-name="Group 110797" transform="translate(23.944 15.165)" opacity="0.3">
            <path id="Path_12175" data-name="Path 12175" d="M1525.1,1159.867v-.005l.732-.066a2.077,2.077,0,0,0-1.48-1.611c-.344-.131-.732-.251-1.142-.382-.579-.186-1.229-.4-1.9-.666a.37.37,0,1,0-.273.688c.693.279,1.36.492,1.95.683.4.131.776.251,1.109.371C1525.005,1159.218,1525.093,1159.846,1525.1,1159.867Z" transform="translate(-1520.8 -1157.11)" fill="#fff"/>
          </g>
          <g id="Group_110798" data-name="Group 110798" transform="translate(14.853 8.292)" opacity="0.3">
            <path id="Path_12176" data-name="Path 12176" d="M1661.722,1037.156a.376.376,0,0,0,.339-.219.368.368,0,0,0-.186-.486h0c-.038-.016-3.993-1.824-5.872-5a.367.367,0,1,0-.633.371,15.253,15.253,0,0,0,6.2,5.3A.285.285,0,0,0,1661.722,1037.156Z" transform="translate(-1655.319 -1031.267)" fill="#fff"/>
          </g>
        </g>
        <g id="Group_110800" data-name="Group 110800" transform="translate(26.367 22.936)">
          <path id="Path_12177" data-name="Path 12177" d="M1242.945,1423.01c1.114-1.322.628-2.764-4.539-3.037-3.5-.186-4.211,2.78-5.626,3.6-2.8,1.638-4.075,1.8-7.357,2.643-1.709.443-1.305-10.2-1.305-10.2s-3.343-.475-3.927-1.524c0,0,1.393,17.041,5.926,17.615S1239.979,1426.527,1242.945,1423.01Z" transform="translate(-1216.354 -1408.213)" fill="url(#linear-gradient-10)"/>
          <path id="Path_12178" data-name="Path 12178" d="M1233.109,1481.441c-1.748,1.748-5.516,4.572-13.42,7.783,0,0-1.464-.879-2.556-6.341,0,0,7.15-7.767,12.83-7.925a4.1,4.1,0,0,1,3.348,1.256A3.807,3.807,0,0,1,1233.109,1481.441Z" transform="translate(-1207.005 -1465.366)" fill="#62b7dc"/>
          <path id="Path_12179" data-name="Path 12179" d="M1455.314,1473.481s-4.3,2.665-5.238,2.665c-.819,0-.7-6.052-.7-6.052a16.877,16.877,0,0,0-6.177-.409s-.06,15.441,2.813,15.8,7.319-1.464,8.6-2.026-.688-3.769-.688-3.769Z" transform="translate(-1440.412 -1460.241)" fill="#62b7dc"/>
          <path id="Path_12180" data-name="Path 12180" d="M1592.991,1318.482a3.937,3.937,0,0,0-.918-2.824c-1.065-1.038-1.813-.573-1.982-.355s.95,1.273.885,1.759S1592.991,1318.482,1592.991,1318.482Z" transform="translate(-1586.118 -1314.156)" fill="url(#linear-gradient-11)"/>
          <path id="Path_12181" data-name="Path 12181" d="M1622.323,1344.189a17.368,17.368,0,0,1-3.392-.562s-.9-3.741.852-4.927a22.369,22.369,0,0,0,4.233.306A29.376,29.376,0,0,1,1622.323,1344.189Z" transform="translate(-1618.7 -1336.553)" fill="url(#linear-gradient-12)"/>
          <path id="Path_12182" data-name="Path 12182" d="M1576.342,1344.248a7.383,7.383,0,0,1,1.934,2.638,11.264,11.264,0,0,1,.519,2.72s-2.829,1.365-3.622.907-.983-1.136-1.251-1.305S1575.9,1344.106,1576.342,1344.248Z" transform="translate(-1571.031 -1341.795)" fill="url(#linear-gradient-13)"/>
          <path id="Path_12183" data-name="Path 12183" d="M1615.073,1300.776c.628.213.563.016,1.065.371a4.271,4.271,0,0,0,.715.967l.005.005,1.054,1.185,1.595-.808-2.644-2.338a1.545,1.545,0,0,0-.568-.322l-1.344-.432a.308.308,0,0,0-.377.2l-.038.126A.836.836,0,0,0,1615.073,1300.776Z" transform="translate(-1613.963 -1299.394)" fill="url(#linear-gradient-14)"/>
        </g>
      </g>
    </g>
    <g id="Group_110803" data-name="Group 110803" transform="translate(-22894.793 10760.188)">
      <rect id="Rectangle_57529" data-name="Rectangle 57529" width="16.812" height="21.596" transform="translate(0 0)" fill="#ffc45c"/>
      <rect id="Rectangle_57530" data-name="Rectangle 57530" width="20.892" height="21.596" transform="translate(16.812 0)" fill="#ebb455"/>
      <path id="Path_12184" data-name="Path 12184" d="M1828.5,2736.5l2.234,19.821,18.663,1.775h-20.9Z" transform="translate(-1811.688 -2736.5)" opacity="0.2"/>
    </g>
  </g>
</svg>
