<svg xmlns="http://www.w3.org/2000/svg" xmlns:xlink="http://www.w3.org/1999/xlink" width="166" height="118.631" viewBox="0 0 166 118.631">
  <defs>
    <clipPath id="clip-path">
      <rect id="Rectangle_57536" data-name="Rectangle 57536" width="166" height="118.631" rx="12" transform="translate(-22234.129 14218.605)" fill="none" stroke="#707070" stroke-width="1"/>
    </clipPath>
    <linearGradient id="linear-gradient" x1="-12.417" y1="-1.379" x2="-11.417" y2="-1.379" gradientUnits="objectBoundingBox">
      <stop offset="0" stop-color="#e0707c"/>
      <stop offset="1" stop-color="#fbaea8"/>
    </linearGradient>
    <linearGradient id="linear-gradient-2" x1="0.238" y1="0.778" x2="1.25" y2="0.778" xlink:href="#linear-gradient"/>
    <linearGradient id="linear-gradient-3" x1="0.219" y1="-0.095" x2="0.041" y2="1.017" xlink:href="#linear-gradient"/>
    <linearGradient id="linear-gradient-4" x1="-0.648" y1="-1.329" x2="-1.402" y2="2.675" xlink:href="#linear-gradient"/>
    <linearGradient id="linear-gradient-5" x1="0.246" y1="-1.421" x2="-0.33" y2="0.233" xlink:href="#linear-gradient"/>
    <linearGradient id="linear-gradient-6" x1="0.617" y1="-1.774" x2="0.105" y2="-0.145" xlink:href="#linear-gradient"/>
    <linearGradient id="linear-gradient-7" x1="0.614" y1="-2.778" x2="-0.209" y2="-0.428" xlink:href="#linear-gradient"/>
    <linearGradient id="linear-gradient-8" x1="0.754" y1="-2.663" x2="0.413" y2="-0.825" xlink:href="#linear-gradient"/>
    <linearGradient id="linear-gradient-9" x1="0.395" y1="0.4" x2="1.211" y2="0.4" xlink:href="#linear-gradient"/>
  </defs>
  <g id="Mask_Group_50" data-name="Mask Group 50" transform="translate(22234.129 -14218.605)" clip-path="url(#clip-path)">
    <g id="Group_110830" data-name="Group 110830" transform="translate(-22234.375 14239.403)">
      <g id="Group_110815" data-name="Group 110815" transform="translate(20.791 24.014) rotate(34)" opacity="0.08">
        <path id="Path_12209" data-name="Path 12209" d="M364.321,1520.086a6.031,6.031,0,0,1-.353-2.732,4.326,4.326,0,0,1,1.086-2.488,6.206,6.206,0,0,1,2.572-1.682,5.449,5.449,0,0,1,4.266-.032,5.864,5.864,0,0,1,2.692,7.279,5.458,5.458,0,0,1-3.257,2.756,6.194,6.194,0,0,1-3.048.4,4.314,4.314,0,0,1-2.444-1.182A6.088,6.088,0,0,1,364.321,1520.086Zm3.653-1.322a4.357,4.357,0,0,0,1.382,2.143,1.21,1.21,0,0,0,1.166.116,1.177,1.177,0,0,0,.8-.841,5.879,5.879,0,0,0-1.727-4.671,1.176,1.176,0,0,0-1.146-.108,1.211,1.211,0,0,0-.813.833A4.31,4.31,0,0,0,367.974,1518.763Zm10.648-9.65,2.744-1.013-3.469,24.384-2.712,1.005Zm3.221,16.184a6.142,6.142,0,0,1-.365-2.736,4.3,4.3,0,0,1,1.086-2.488,6.185,6.185,0,0,1,2.564-1.686,5.453,5.453,0,0,1,4.282-.028,5.865,5.865,0,0,1,2.7,7.279,5.465,5.465,0,0,1-3.269,2.768,6.2,6.2,0,0,1-3.044.388,4.3,4.3,0,0,1-2.444-1.182A6.089,6.089,0,0,1,381.843,1525.3Zm3.653-1.322a4.356,4.356,0,0,0,1.382,2.143,1.176,1.176,0,0,0,1.146.108,1.21,1.21,0,0,0,.813-.833,4.354,4.354,0,0,0-.345-2.528,4.42,4.42,0,0,0-1.39-2.155,1.212,1.212,0,0,0-1.158-.1,1.175,1.175,0,0,0-.8.841A4.418,4.418,0,0,0,385.5,1523.975Z" transform="translate(-363.938 -1508.1)" fill="#fff"/>
      </g>
      <g id="Group_110816" data-name="Group 110816" transform="matrix(0.899, -0.438, 0.438, 0.899, 134.369, -11.294)" opacity="0.15">
        <path id="Path_12210" data-name="Path 12210" d="M3321.459,703.109a4.614,4.614,0,0,1-.256-2.075,3.259,3.259,0,0,1,.837-1.883A4.687,4.687,0,0,1,3324,697.89a4.114,4.114,0,0,1,3.237,0,4.455,4.455,0,0,1,2.007,5.536,4.139,4.139,0,0,1-2.487,2.075,4.722,4.722,0,0,1-2.316.284,3.277,3.277,0,0,1-1.847-.909A4.682,4.682,0,0,1,3321.459,703.109Zm2.78-.985a3.306,3.306,0,0,0,1.038,1.634.91.91,0,0,0,.881.092.889.889,0,0,0,.609-.633,3.305,3.305,0,0,0-.249-1.919,3.357,3.357,0,0,0-1.037-1.634.906.906,0,0,0-.869-.088.92.92,0,0,0-.621.629A3.275,3.275,0,0,0,3324.239,702.124Zm8.125-7.267,2.086-.757-2.756,18.483-2.063.749Zm2.363,12.3a4.658,4.658,0,0,1-.261-2.075,3.267,3.267,0,0,1,.837-1.883,4.687,4.687,0,0,1,1.95-1.266,4.144,4.144,0,0,1,3.25,0,4.445,4.445,0,0,1,2.006,5.536,4.142,4.142,0,0,1-2.5,2.083,4.69,4.69,0,0,1-2.312.28,3.248,3.248,0,0,1-1.846-.909A4.653,4.653,0,0,1,3334.727,707.155Zm2.78-.985a3.3,3.3,0,0,0,1.038,1.634.894.894,0,0,0,.869.088.922.922,0,0,0,.622-.629,3.306,3.306,0,0,0-.249-1.919,3.379,3.379,0,0,0-1.041-1.642.914.914,0,0,0-.877-.084.887.887,0,0,0-.608.633A3.3,3.3,0,0,0,3337.507,706.17Z" transform="translate(-3321.178 -694.1)" fill="#fff"/>
      </g>
      <path id="Path_12211" data-name="Path 12211" d="M3822.2,2423.048h1.13a5.071,5.071,0,0,0,4.051-2.027l8.31-11.1a3.922,3.922,0,0,0,0-4.706l-2.634-3.519-8.443.032Zm6.438-18.625a3.145,3.145,0,1,1-3.145,3.145A3.144,3.144,0,0,1,3828.639,2404.424Z" transform="translate(-3691.962 -2325.428)" opacity="0.2"/>
      <g id="Group_110818" data-name="Group 110818" transform="translate(77.877 66.662)">
        <path id="Path_12212" data-name="Path 12212" d="M2222.939,2111.424l-8.31-11.1a5.065,5.065,0,0,0-4.054-2.027h-46.887a3.587,3.587,0,0,0-3.588,3.588v23.78a3.59,3.59,0,0,0,3.588,3.592h46.887a5.075,5.075,0,0,0,4.054-2.027l8.31-11.1A3.935,3.935,0,0,0,2222.939,2111.424Zm-7.056,5.5a3.145,3.145,0,1,1,3.144-3.145A3.145,3.145,0,0,1,2215.883,2116.921Z" transform="translate(-2158.272 -2098.3)" fill="#944242"/>
        <path id="Path_12213" data-name="Path 12213" d="M2165.236,2111.424l-8.31-11.1a5.063,5.063,0,0,0-4.053-2.027h-46.885a3.587,3.587,0,0,0-3.588,3.588v23.78a3.59,3.59,0,0,0,3.588,3.592h46.887a5.074,5.074,0,0,0,4.054-2.027l8.31-11.1A3.938,3.938,0,0,0,2165.236,2111.424Zm-7.053,5.5a3.145,3.145,0,1,1,3.145-3.145A3.144,3.144,0,0,1,2158.183,2116.921Z" transform="translate(-2102.399 -2098.3)" fill="#e85f5c"/>
        <g id="Group_110817" data-name="Group 110817" transform="translate(4.342 4.694)">
          <path id="Path_12214" data-name="Path 12214" d="M2239.5,2252.013a6.3,6.3,0,0,1,.636-2.777,4.462,4.462,0,0,1,1.948-2.027,6.436,6.436,0,0,1,3.1-.709,5.632,5.632,0,0,1,4.152,1.5,6.079,6.079,0,0,1,0,8.035,5.639,5.639,0,0,1-4.152,1.5,6.427,6.427,0,0,1-3.1-.71,4.443,4.443,0,0,1-1.948-2.027A6.326,6.326,0,0,1,2239.5,2252.013Zm4.025.029a4.506,4.506,0,0,0,.573,2.578,1.242,1.242,0,0,0,1.09.529,1.208,1.208,0,0,0,1.073-.529,6.078,6.078,0,0,0,0-5.156,1.215,1.215,0,0,0-1.073-.516,1.26,1.26,0,0,0-1.09.516A4.507,4.507,0,0,0,2243.525,2252.042Zm13.8-5.542h3.028l-12.129,22.425h-2.993Zm-2.689,16.87a6.34,6.34,0,0,1,.631-2.787,4.482,4.482,0,0,1,1.948-2.027,6.375,6.375,0,0,1,3.094-.716,5.65,5.65,0,0,1,4.168,1.51,6.074,6.074,0,0,1,0,8.031,5.65,5.65,0,0,1-4.168,1.511,6.384,6.384,0,0,1-3.094-.715,4.484,4.484,0,0,1-1.948-2.028A6.277,6.277,0,0,1,2254.638,2263.37Zm4.025.028a4.508,4.508,0,0,0,.573,2.578,1.216,1.216,0,0,0,1.074.516,1.258,1.258,0,0,0,1.089-.516,4.506,4.506,0,0,0,.574-2.578,4.563,4.563,0,0,0-.574-2.59,1.255,1.255,0,0,0-1.089-.516,1.211,1.211,0,0,0-1.074.528A4.506,4.506,0,0,0,2258.663,2263.4Z" transform="translate(-2239.5 -2246.5)" fill="#fff"/>
        </g>
      </g>
      <path id="Path_12215" data-name="Path 12215" d="M3050.294,2098.2h-11.55a21.436,21.436,0,0,1-1.992,4.627c-.479.814-.627,1.061-1.2,1.919-.779,7.018-2.631,15.312,1.007,15.417l.14,1.412.088.9-.18.019a.4.4,0,0,0-.33.247l-.573,1.434a3.409,3.409,0,0,0-2.122,3.1l7.969-.8v0a.975.975,0,0,0,.4-.161l-1.209-4.015a.2.2,0,0,0-.2-.143c-.114.007-.278.016-.484.032l-.038-.8-.044-.95c.88.073,1.133-.1,1.928-1.238,1.786-2.565,1.226-5.805.934-10.942-.013-.25-.016-.522-.013-.81C3045.144,2104.568,3048.409,2101.452,3050.294,2098.2Z" transform="translate(-2926.213 -2031.54)" opacity="0.2"/>
      <g id="Group_110822" data-name="Group 110822" transform="translate(74.503 -7.403)">
        <path id="Path_12216" data-name="Path 12216" d="M2711.746,1077.362s-.789-1.449-4.185-.588-4.134,3.209-3.765,3.282,1.472,4.185,1.472,4.185l6.552-4.23Z" transform="translate(-2683.275 -1049.102)" fill="#d9a64d"/>
        <path id="Path_12217" data-name="Path 12217" d="M2701.91,844.518c-.142-1.377.26-2.038-.7-2.822s-2.188-1.682-2.52-.83a11.079,11.079,0,0,0-.488,2.243l1.961.625.939,1.062Z" transform="translate(-2678.015 -823.88)" fill="#e68686"/>
        <path id="Path_12218" data-name="Path 12218" d="M2725.7,986.336l.355,6.619,5.384.246.661-2.539L2729.2,983.4Z" transform="translate(-2704.262 -960.245)" fill="#e68686"/>
        <path id="Path_12219" data-name="Path 12219" d="M2674.009,893.039c-.028,3.2-1.537,2.981-2.721,2.872-.137-.009-.269-.023-.393-.027-1.208-.041-1.39-.16-2.439-1.623a3.718,3.718,0,0,1-.547-1.677c-.21-1.741.233-3.92.994-4.207a4.1,4.1,0,0,1,3.852,1.436A5.864,5.864,0,0,1,2674.009,893.039Z" transform="translate(-2649.056 -869.452)" fill="#e68686"/>
        <path id="Path_12220" data-name="Path 12220" d="M2673.558,901.986c.132,1.117.073,4.444-.534,5.4a2.887,2.887,0,0,1-.547.634c-.137-.009-.268-.023-.392-.028-1.208-.041-1.391-.16-2.439-1.623a3.73,3.73,0,0,1-.547-1.677c.138-1.764.826-3.209,1.4-3.524C2671.224,900.769,2673.421,900.87,2673.558,901.986Z" transform="translate(-2650.241 -881.558)" opacity="0.2"/>
        <g id="Group_110821" data-name="Group 110821" transform="translate(0 0)">
          <path id="Path_12221" data-name="Path 12221" d="M2716.257,846.009l.191,9.883a1.161,1.161,0,0,1-1.153,1.126l-1.518-.041a1.345,1.345,0,0,1-1.358-1.363l-.119-9.714Z" transform="translate(-2691.473 -829.013)" fill="#705ac9"/>
          <path id="Path_12222" data-name="Path 12222" d="M2754.457,847.109l.191,9.883a1.162,1.162,0,0,1-1.154,1.126l-1.518-.041a1.345,1.345,0,0,1-1.358-1.363L2750.5,847Z" transform="translate(-2727.93 -830.063)" fill="#7a62dc"/>
          <path id="Path_12223" data-name="Path 12223" d="M2403.476,497.351l1.741.045a4.022,4.022,0,0,1,3.91,4.13h0a4.022,4.022,0,0,1-4.13,3.911l-1.742-.045a25.58,25.58,0,0,0-10.521,1.91,21.274,21.274,0,0,0-7.836,5.457l.319-11.88.32-11.88a21.271,21.271,0,0,0,7.531,5.876A25.644,25.644,0,0,0,2403.476,497.351Z" transform="translate(-2378.997 -488.383)" fill="#e85f5c"/>
          <path id="Path_12224" data-name="Path 12224" d="M2391.925,707.276a25.651,25.651,0,0,1,10.521-1.91l1.741.046a4.022,4.022,0,0,0,4.13-3.911h0a3.927,3.927,0,0,0-.328-1.7,4.02,4.02,0,0,1-2.99,6.824l-1.741-.046a25.581,25.581,0,0,0-10.521,1.91,21.274,21.274,0,0,0-7.836,5.457l.059-2.133A21.863,21.863,0,0,1,2391.925,707.276Z" transform="translate(-2378.998 -689.573)" fill="#944242"/>
          <ellipse id="Ellipse_129709" data-name="Ellipse 129709" cx="12.349" cy="4.618" rx="12.349" ry="4.618" transform="translate(0 24.688) rotate(-88.452)" fill="#dedde3"/>
          <path id="Path_12225" data-name="Path 12225" d="M2687.007,661.714c-.237.027-.47.059-.707.1a.967.967,0,0,0,.693.4,1.127,1.127,0,0,0,.894-.588,10.017,10.017,0,0,0,.227-8.388,1.138,1.138,0,0,0-.862-.638.966.966,0,0,0-.716.365c.234.05.466.091.7.132h0a.3.3,0,0,1,.059.009c.451.137,1.2,1.668,1.126,4.335s-.907,4.166-1.363,4.267A.127.127,0,0,1,2687.007,661.714Z" transform="translate(-2666.658 -644.522)" fill="#dedde3"/>
          <path id="Path_12226" data-name="Path 12226" d="M2283.655,518.772c1.8.05,3.943-4.832,4.125-11.437s-1.7-11.6-3.5-11.642-3.943,4.832-4.125,11.437S2281.855,518.726,2283.655,518.772Z" transform="translate(-2279.016 -494.769)" fill="#f2f1f7"/>
          <path id="Path_12227" data-name="Path 12227" d="M2366.4,676.47l3.382.346a30.639,30.639,0,0,0,.319-3.692,29.617,29.617,0,0,0-.123-3.724l-3.4.187Z" transform="translate(-2361.341 -660.559)" fill="#705ac9"/>
          <path id="Path_12228" data-name="Path 12228" d="M2338.182,680.475c.68.018,1.477-1.432,1.532-3.4s-.666-3.46-1.345-3.478-1.477,1.432-1.531,3.4S2337.5,680.457,2338.182,680.475Z" transform="translate(-2333.124 -664.564)" fill="#7a62dc"/>
          <path id="Path_12229" data-name="Path 12229" d="M2714.419,877.526l.669.018a.345.345,0,0,0,.342-.333l-.041-2.717a.374.374,0,0,0-.378-.378l-.67-.018a.346.346,0,0,0-.343.333l.042,2.717A.374.374,0,0,0,2714.419,877.526Z" transform="translate(-2693.095 -855.926)" fill="#944242"/>
          <path id="Path_12230" data-name="Path 12230" d="M2702.019,877.226l.67.018a.345.345,0,0,0,.341-.333l-.04-2.717a.376.376,0,0,0-.379-.379l-.671-.018a.345.345,0,0,0-.341.333l.041,2.717A.381.381,0,0,0,2702.019,877.226Z" transform="translate(-2681.26 -855.64)" fill="#dc6262"/>
          <g id="Group_110819" data-name="Group 110819" transform="translate(22.522 9.443)" opacity="0.3">
            <path id="Path_12231" data-name="Path 12231" d="M2754.831,684.045a1.5,1.5,0,0,0-1.408-.638c-.388,0-.821.018-1.277.036-.675.027-1.441.059-2.257.036a.4.4,0,1,1,.023-.807c.789.023,1.542-.009,2.2-.036.468-.018.911-.037,1.316-.037a2.267,2.267,0,0,1,2.134,1.094l-.729.346Z" transform="translate(-2749.497 -682.6)" fill="#fff"/>
          </g>
          <g id="Group_110820" data-name="Group 110820" transform="translate(10.58 5.897)" opacity="0.3">
            <path id="Path_12232" data-name="Path 12232" d="M2496.064,608.624h-.027c-.2-.014-5.041-.383-8.374-3.1a.4.4,0,1,1,.506-.625c3.132,2.548,7.873,2.913,7.923,2.917a.4.4,0,0,1-.027.8Z" transform="translate(-2487.513 -604.814)" fill="#fff"/>
          </g>
        </g>
        <path id="Path_12233" data-name="Path 12233" d="M2654.905,885.68c.123,1.067,1.071,2.261,1.7,2.343a2.411,2.411,0,0,0,2.193-1.212c.606-.953.665-4.28.533-5.4s-2.329-1.217-3.059-.816S2654.622,883.265,2654.905,885.68Z" transform="translate(-2636.645 -861.924)" fill="#e68686"/>
        <path id="Path_12234" data-name="Path 12234" d="M2700.6,869.812s1.513-.059,1.824.265a.914.914,0,0,0-.169-.684c-.232-.214-1.564-.05-1.564-.05Z" transform="translate(-2680.307 -851.33)" opacity="0.2"/>
        <path id="Path_12235" data-name="Path 12235" d="M2722.561,1074.4a37.891,37.891,0,0,0-2.325,3.2c-1.782,2.853-4.526,6.478-7.854,6.291-.56-.032-1.459-.966-2.275-2.051a13.975,13.975,0,0,1-2.215-4.444v0c-1.359-4.193-2.193-8.219-2.193-8.219,5.707,1.231,7.9-2.589,7.95-2.695.023.142.547,2.941,1.031,5.548.059.328.666-.748,1.354-1.55,2.444-2.835,4.818-5.379,4.818-5.379S2724.481,1072.257,2722.561,1074.4Z" transform="translate(-2685.173 -1038.22)" fill="#edb656"/>
        <path id="Path_12236" data-name="Path 12236" d="M2902.6,1144.565a13.176,13.176,0,0,1,.812,3.9l2.215-7.362Z" transform="translate(-2873.098 -1110.757)" opacity="0.2"/>
        <path id="Path_12237" data-name="Path 12237" d="M3026.16,2676.033l-.059.556.15,3.1.114,2.453-4.691-.06-.214-2.12-.369-3.706-.192-1.915,5.466-.237Z" transform="translate(-2986.006 -2573.875)" fill="url(#linear-gradient)"/>
        <path id="Path_12238" data-name="Path 12238" d="M3030.11,2717.151l.145,3.1a4.524,4.524,0,0,1-.5.028,33.316,33.316,0,0,0-3.875.215c-.1.008-.26.022-.41.031l-.369-3.7,5.069-.219Z" transform="translate(-2990.014 -2614.436)" opacity="0.2"/>
        <path id="Path_12239" data-name="Path 12239" d="M2972.262,2275.385c.419,7.394,1.226,12.052-1.345,15.749-1.978,2.845-1.614,1.505-7.667,1.391-5.283-.1-2.607-12.066-1.481-22.191a106.855,106.855,0,0,1,10.758.25A29.454,29.454,0,0,0,2972.262,2275.385Z" transform="translate(-2927.964 -2188.47)" fill="#7a62dc"/>
        <path id="Path_12240" data-name="Path 12240" d="M3020.225,1573.367a13.192,13.192,0,0,1-1.746,5.643c-3.123,5.68-9.318,11.077-12.627,15.932-3.062-1.864-5.616-4.5-8.853-6.053.829-1.235,1.039-1.591,1.727-2.763,5.406-9.194,4.65-20.842,4.65-20.842l2.607-8.984S3020.772,1560.48,3020.225,1573.367Z" transform="translate(-2963.195 -1507.029)" fill="#7a62dc"/>
        <path id="Path_12241" data-name="Path 12241" d="M3040.48,1510.877l.811,1.135c.587,1.34,2.49,2.383,2.616,3.61,2.791,1.641,7.937,8.419,5.931,15.143-1.924,6.45-8.046,10.808-12.363,17.058a5.093,5.093,0,0,0-.059,2.434c.538,7.385,1.294,10.772-1.218,14.505-1.933,2.876-1.746,1.4-7.8,1.381,6.869-1.076,7.025-3.7,7.554-8.383s-3.719-10.676-.756-13.493,12.476-14.473,12.343-15.941-.236-7.339-9.153-9.144c-4.272-.862-5.416-8.1-6.159-9.883A26.923,26.923,0,0,1,3040.48,1510.877Z" transform="translate(-2993.163 -1462.172)" opacity="0.2"/>
        <path id="Path_12242" data-name="Path 12242" d="M3245.706,682.145l-1.965.857.078-2.849-.94,2.781-1.855.264.109-2.389-.469,1.951-1.108-.342.378-3.164-.428,1.632-1.6.055s4.823-13.069-.793-11.857l-.219-2.5s6.24-3.9,7.836,2.986A41.6,41.6,0,0,1,3245.706,682.145Z" transform="translate(-3192.159 -656.825)" fill="#3e3079"/>
        <path id="Path_12243" data-name="Path 12243" d="M3256.81,665.919a4.069,4.069,0,0,1,.25,3.638.9.9,0,0,1-.72.556l-.479.06-.861-4.431.647-.251A.94.94,0,0,1,3256.81,665.919Z" transform="translate(-3209.433 -656.768)" fill="#dc6262"/>
        <path id="Path_12244" data-name="Path 12244" d="M3038.391,910.554l-.893,1.422a24.045,24.045,0,0,1-2.152,1.609,58.2,58.2,0,0,1-7.639.588,1.882,1.882,0,0,1-.739-3.145c1.3-1.116,3.378-2.854,3.784-3.929a4.493,4.493,0,0,0,.15-.506c0-.009,0-.018,0-.027a18.784,18.784,0,0,0,.347-2.908l3.856-.757s-.1.853-.113,1.855a10.249,10.249,0,0,0,.141,2.156c.305,1.468,1.19,1.655,1.19,1.655Z" transform="translate(-2991.229 -883.415)" fill="url(#linear-gradient-2)"/>
        <path id="Path_12245" data-name="Path 12245" d="M2974.288,1050.065a89.025,89.025,0,0,1-23.9.665s-4.261-25.951,1.491-33.537c0,0,1.75-2.12,2.48-2.1s2.4,1.5,4.736.136,3.191-2.4,4.805-1.974c.437.118,1.4,2.885,2.575,6.856C2969.633,1030.76,2974.288,1050.065,2974.288,1050.065Z" transform="translate(-2917.258 -988.651)" fill="#ffc45c"/>
        <path id="Path_12246" data-name="Path 12246" d="M2950.564,1532s7.915,3.5,13.129,14.378c0,0-2.812.128-4.157.064s-6.989.374-6.989.374S2950.218,1538.03,2950.564,1532Z" transform="translate(-2918.843 -1483.837)" opacity="0.2"/>
        <path id="Path_12247" data-name="Path 12247" d="M3006.1,1195.649a89.016,89.016,0,0,1-23.9.665s18.417,2.047,20.19-2.092-3.109-20.978-4.386-22.766a43.542,43.542,0,0,1-2.853-5.123,7.426,7.426,0,0,0,3.142-.634C3001.446,1176.344,3006.1,1195.649,3006.1,1195.649Z" transform="translate(-2949.069 -1134.235)" opacity="0.2"/>
        <path id="Path_12248" data-name="Path 12248" d="M3129.884,904.651a8.122,8.122,0,0,1-4.084,1.814,18.913,18.913,0,0,0,.347-2.908L3130,902.8S3129.906,903.648,3129.884,904.651Z" transform="translate(-3086.124 -883.319)" opacity="0.2"/>
        <path id="Path_12249" data-name="Path 12249" d="M3020.4,697.759a5.342,5.342,0,0,1-2.019,2.471c-2.056,1.8-6.1,3.41-7.673.283a12.53,12.53,0,0,1-.683-4.308,17.866,17.866,0,0,1,.324-3.861c.073-.392.127-.62.127-.62s.726-.779,2.093-1.978,8.483,1.236,8.725,1.846a13.891,13.891,0,0,1-.356,3.97A19.96,19.96,0,0,1,3020.4,697.759Z" transform="translate(-2975.616 -679.665)" fill="url(#linear-gradient-3)"/>
        <path id="Path_12250" data-name="Path 12250" d="M3027.352,697.759a.988.988,0,0,1-.821-1.121c.114-1.559-1-5.826-9.1-4.185a1.592,1.592,0,0,1-.128-.109c.073-.392.128-.62.128-.62s.726-.779,2.093-1.978,8.484,1.235,8.724,1.846a13.882,13.882,0,0,1-.356,3.971A20.42,20.42,0,0,1,3027.352,697.759Z" transform="translate(-2982.569 -679.665)" opacity="0.2"/>
        <path id="Path_12251" data-name="Path 12251" d="M2994.287,2826.881a1.47,1.47,0,0,1-.684.251l-3.474.328-5.629-1.7,1.614-4.025a.569.569,0,0,1,.474-.355c1.135-.115,4.727-.433,5.67-.483a.283.283,0,0,1,.287.205Z" transform="translate(-2951.265 -2713.979)" fill="#31275c"/>
        <path id="Path_12252" data-name="Path 12252" d="M2934.78,2878.134a4.9,4.9,0,0,1,3.254-4.54,8.589,8.589,0,0,1,5.215-.068c1.527.656,3.149,2.169,3,3.464Z" transform="translate(-2903.81 -2763.845)" fill="#403379"/>
        <path id="Path_12253" data-name="Path 12253" d="M3028.278,617.825a1.25,1.25,0,0,1-1.609.766.936.936,0,0,1-.6-1.057c.114-1.559-1-5.826-9.1-4.189a5.548,5.548,0,0,1,.41-3.884,5.34,5.34,0,0,1,4.3-2.161C3026.258,607.3,3031.263,609.629,3028.278,617.825Z" transform="translate(-2982.115 -601.29)" fill="#3e3079"/>
        <path id="Path_12254" data-name="Path 12254" d="M3210.147,783.6c-.206.976-.948,1.646-1.655,1.5a1.622,1.622,0,0,1-.907-2.038c.205-.976.948-1.646,1.655-1.5A1.621,1.621,0,0,1,3210.147,783.6Z" transform="translate(-3164.13 -767.584)" fill="url(#linear-gradient-4)"/>
        <path id="Path_12255" data-name="Path 12255" d="M3411.142,1472s-.73.939,2.238,3.068,3.52.214,3.52.214l-.4-4.787Z" transform="translate(-3358.382 -1425.141)" fill="#d9a64d"/>
        <path id="Path_12256" data-name="Path 12256" d="M3441.806,1493.5l-.606,2.079,2.731,2.726,1.158-3.095Z" transform="translate(-3387.146 -1447.092)" fill="url(#linear-gradient-5)"/>
        <path id="Path_12257" data-name="Path 12257" d="M3241.288,1016.028c-1.518-.428-2.94,2.489-1.222,6.9,1.162,2.982,2.658,3.533,4.153,3.542a7,7,0,0,1,5.606,3.077c1.855,2.489-2.634,8.671-2.634,8.671s4.614.793,5.757,3.282c0,0,4.389-11.606,3.163-15.6S3245.345,1017.176,3241.288,1016.028Z" transform="translate(-3194.432 -991.346)" fill="#ffc45c"/>
        <path id="Path_12258" data-name="Path 12258" d="M3414.734,1536.505a4.358,4.358,0,0,0-1.145,3.1,4.434,4.434,0,0,0,3.66,1.768,10.144,10.144,0,0,0,.634-1.313,4.243,4.243,0,0,0-.625-2.758C3416.912,1536.76,3415.217,1536.459,3414.734,1536.505Z" transform="translate(-3360.794 -1488.133)" fill="url(#linear-gradient-6)"/>
        <path id="Path_12259" data-name="Path 12259" d="M3381.668,1536.6a3.689,3.689,0,0,0-2.412,1.377,1.324,1.324,0,0,0,.288,2c.232.114.77-1.017,1.23-1.048S3381.668,1536.6,3381.668,1536.6Z" transform="translate(-3327.727 -1488.228)" fill="url(#linear-gradient-7)"/>
        <path id="Path_12260" data-name="Path 12260" d="M3365.51,1598.962a2.247,2.247,0,0,1-.6.889c-.378.278-1.308.223-1.673.729s3.169,2.507,3.984,2.671,2.111-1.541,2.375-1.992a3.563,3.563,0,0,0,.1-1.965C3369.6,1598.816,3365.51,1598.962,3365.51,1598.962Z" transform="translate(-3312.71 -1547.727)" fill="url(#linear-gradient-8)"/>
        <path id="Path_12261" data-name="Path 12261" d="M2605.925,1387.239s9.934,17.692,12.437,18.895,8.26,2.448,10.544-.123c1.805-2.033-2.2-9.217-2.2-9.217s-11.415-19.21-15.112-21.494-9.3.739-9.45,4a55.77,55.77,0,0,1-.546,5.712Z" transform="translate(-2585.82 -1333.519)" fill="#7a62dc"/>
        <path id="Path_12262" data-name="Path 12262" d="M2775.649,1609.325c-1.577-.756-6.113-8.078-9.249-13.379a23.039,23.039,0,0,0,1.258-8.547,33.4,33.4,0,0,1,.984,6.409,3.671,3.671,0,0,0,.055.4v.009C2768.752,1594.5,2776.227,1609.6,2775.649,1609.325Z" transform="translate(-2743.107 -1536.711)" opacity="0.2"/>
        <path id="Path_12263" data-name="Path 12263" d="M2528.7,1826.892l-.58,1.91-.187.3-.975,1.546-1.623,2.58-3.939-.474.789-3.309.4-1.7.115-.478,1.13-2.266Z" transform="translate(-2509.274 -1763.481)" fill="url(#linear-gradient-9)"/>
        <path id="Path_12264" data-name="Path 12264" d="M2533.812,1853.461l-.128,1.131-.67,1.7h-.082c-.839-.014-1.69,0-2.521.023a6.282,6.282,0,0,1-2.312-.328l.087-1.741.5-1.741Z" transform="translate(-2515.669 -1789.727)" opacity="0.2"/>
        <path id="Path_12265" data-name="Path 12265" d="M2473.072,1987.41c-1,0-2.949-.009-2.949-.009l-4.622-3.715,2.607-1.568,4.422-.018a1.651,1.651,0,0,1,.411.073h0l.606,4.663A.485.485,0,0,1,2473.072,1987.41Z" transform="translate(-2455.924 -1913.419)" fill="#31275c"/>
        <path id="Path_12266" data-name="Path 12266" d="M2349.7,2017.808c.191-2.005,2.3-3.41,3.661-3.642a7.219,7.219,0,0,1,4.294.237c1.842.824,3.752,2.366,3.478,3.41Z" transform="translate(-2345.402 -1943.822)" fill="#403379"/>
        <path id="Path_12267" data-name="Path 12267" d="M2485.091,1499.606c-3.351-.643-5.124.6-7.5-1.112h0a2.65,2.65,0,0,1-.324-.269c-1.969-1.873-.565-6.427,1.568-10.817a63.539,63.539,0,0,0,3.5-8.78.235.235,0,0,0,.009-.055,3.208,3.208,0,0,1,.374-.921,1.648,1.648,0,0,1,1.185.41c1.162.889,4.987,1.75,6.974,3.779-.073.4-.136,3.784-.2,4.171C2490.11,1489.773,2488.441,1500.253,2485.091,1499.606Z" transform="translate(-2466.247 -1431.96)" fill="#7a62dc"/>
        <path id="Path_12268" data-name="Path 12268" d="M3037.575,1969.6l-3.976,5.484a11.2,11.2,0,0,0,2.426.37A39,39,0,0,0,3037.575,1969.6Z" transform="translate(-2998.126 -1901.489)" opacity="0.2"/>
      </g>
      <g id="Group_110825" data-name="Group 110825" transform="translate(40.302 44.533)">
        <path id="Path_12269" data-name="Path 12269" d="M1847.4,3011.486h-7.5l.26-1.828,5.546-.359Z" transform="translate(-1813.201 -2958.396)" fill="#46839e"/>
        <g id="Group_110823" data-name="Group 110823" transform="translate(11.813)">
          <path id="Path_12270" data-name="Path 12270" d="M1389.112,1477.9a.291.291,0,0,1-.276-.2,38.622,38.622,0,0,1-1.427-5.74,22.274,22.274,0,0,1-.329-4.891,8.185,8.185,0,0,1,1.265-4.267,4.924,4.924,0,0,1,4.274-2.008h.02a4.677,4.677,0,0,1,3.419,1.486,10.632,10.632,0,0,1,2.3,4.093,27.369,27.369,0,0,1,1.114,4.971,44.2,44.2,0,0,1,.411,5.986.294.294,0,0,1-.588-.01,43.957,43.957,0,0,0-.407-5.907c-.579-4.142-1.7-7.16-3.248-8.721a4.123,4.123,0,0,0-3-1.308h-.017a4.367,4.367,0,0,0-3.793,1.762c-1.207,1.706-1.5,4.72-.838,8.714a37.943,37.943,0,0,0,1.4,5.651.294.294,0,0,1-.181.375A.369.369,0,0,1,1389.112,1477.9Z" transform="translate(-1387.053 -1460.8)" fill="#271f4a"/>
        </g>
        <path id="Path_12271" data-name="Path 12271" d="M1171.283,1927.723l-3.784-.914-3.09.914-23.609-.454,3.517-38.487,18.313-.069,2.018.68,1.755-.694Z" transform="translate(-1137.082 -1874.633)" fill="#4e92b0"/>
        <path id="Path_12272" data-name="Path 12272" d="M1055.027,1928.11H1027.7l3.583-38.925,21.966-.085Z" transform="translate(-1027.7 -1875.02)" fill="#62b7dc"/>
        <circle id="Ellipse_129710" data-name="Ellipse 129710" cx="1.371" cy="1.371" r="1.371" transform="translate(18.093 16.787) rotate(-45)" fill="#46839e"/>
        <circle id="Ellipse_129711" data-name="Ellipse 129711" cx="1.371" cy="1.371" r="1.371" transform="translate(7.819 16.828) rotate(-45)" fill="#46839e"/>
        <g id="Group_110824" data-name="Group 110824" transform="translate(9.351)">
          <path id="Path_12273" data-name="Path 12273" d="M1312.576,1477.92a.3.3,0,0,1-.293-.263,35.447,35.447,0,0,1,0-5.648,23.622,23.622,0,0,1,.852-4.839,10.894,10.894,0,0,1,2.213-4.241,6.3,6.3,0,0,1,4.852-2.13h.02a3.63,3.63,0,0,1,3.031,1.44,7.912,7.912,0,0,1,1.328,4.119,25.331,25.331,0,0,1-.128,5.01,45.923,45.923,0,0,1-1.111,6.051.293.293,0,1,1-.566-.151c.03-.109,2.88-10.954.013-14.671a3.034,3.034,0,0,0-2.568-1.21h-.016a5.741,5.741,0,0,0-4.418,1.936c-2,2.219-2.689,5.97-2.913,8.724a35.418,35.418,0,0,0,0,5.552.3.3,0,0,1-.263.322A.091.091,0,0,0,1312.576,1477.92Z" transform="translate(-1312.17 -1460.8)" fill="#403379"/>
        </g>
        <path id="Path_12274" data-name="Path 12274" d="M1866.3,1889.393l2.85,37.416,3.784.914-4.878-39.023Z" transform="translate(-1838.733 -1874.633)" fill="#559fbf"/>
      </g>
      <g id="Group_110829" data-name="Group 110829" transform="translate(62.113 -3.671)">
        <g id="Group_110826" data-name="Group 110826" transform="translate(3.609)">
          <path id="Path_12275" data-name="Path 12275" d="M2043.52,469.106a.334.334,0,0,1-.225-.08l-6.938-5.56a.362.362,0,1,1,.452-.565l6.934,5.56a.363.363,0,0,1-.224.645Z" transform="translate(-2036.221 -462.822)" fill="#3e3079"/>
        </g>
        <g id="Group_110827" data-name="Group 110827" transform="translate(3.101 7.603)">
          <path id="Path_12276" data-name="Path 12276" d="M2028.723,654.611a.369.369,0,0,1-.092-.012l-4.831-1.258a.362.362,0,0,1,.18-.7l4.831,1.258a.362.362,0,0,1-.088.713Z" transform="translate(-2023.529 -652.629)" fill="#3e3079"/>
        </g>
        <g id="Group_110828" data-name="Group 110828" transform="translate(0 11.906)">
          <path id="Path_12277" data-name="Path 12277" d="M1946.484,765.484a.36.36,0,0,1-.148-.689l10.583-4.739a.36.36,0,1,1,.3.657l-10.583,4.739A.414.414,0,0,1,1946.484,765.484Z" transform="translate(-1946.125 -760.025)" fill="#3e3079"/>
        </g>
      </g>
    </g>
  </g>
</svg>
