<svg xmlns="http://www.w3.org/2000/svg" width="40" height="40" viewBox="0 0 40 40">
  <g id="Group_114258" data-name="Group 114258" transform="translate(-261 -267)">
    <rect id="Rectangle_58946" data-name="Rectangle 58946" width="40" height="40" transform="translate(261 267)" fill="none"/>
    <path id="icons8-warranty" d="M15.65,0a3.518,3.518,0,0,0-2.432.9l-.782.706L11.4,1.392a3.368,3.368,0,0,0-2.432.384A3.722,3.722,0,0,0,7.356,3.748l-.313,1-1,.333A3.276,3.276,0,0,0,4.124,6.607a3.645,3.645,0,0,0-.413,2.509l.228,1.021-.7.778a3.46,3.46,0,0,0,.03,4.654l.712.771-.216,1.022a3.516,3.516,0,0,0,.074,1.672,3.349,3.349,0,0,0,.833,1.42L.346,24.734a1.118,1.118,0,0,0-.3.5,1.177,1.177,0,0,0-.011.6,1.221,1.221,0,0,0,.294.528,1.116,1.116,0,0,0,.5.3l4.493,1.369L6.7,32.487A1.222,1.222,0,0,0,7.025,33a1.119,1.119,0,0,0,.519.277,1.161,1.161,0,0,0,.592-.007,1.212,1.212,0,0,0,.521-.3l6.729-6.661c.078,0,.156.023.232.025h.064c.077,0,.156-.018.232-.025l6.729,6.661a1.212,1.212,0,0,0,.521.3,1.161,1.161,0,0,0,.592.007A1.119,1.119,0,0,0,24.27,33a1.223,1.223,0,0,0,.323-.51l1.382-4.449,4.493-1.369a1.114,1.114,0,0,0,.5-.3,1.22,1.22,0,0,0,.293-.528,1.176,1.176,0,0,0-.011-.6,1.117,1.117,0,0,0-.3-.5l-4.32-4.283a3.35,3.35,0,0,0,.833-1.418,3.516,3.516,0,0,0,.075-1.671l-.216-1.022.712-.771a3.459,3.459,0,0,0,.03-4.654l-.7-.788.228-1.019A3.648,3.648,0,0,0,27.18,6.6a3.279,3.279,0,0,0-1.915-1.533l-1-.333-.313-1a3.72,3.72,0,0,0-1.624-1.967,3.368,3.368,0,0,0-2.435-.374L18.859,1.6,18.077.9A3.518,3.518,0,0,0,15.65,0Zm-.034,2.316h.067a1.135,1.135,0,0,1,.812.293L17.715,3.72a1.211,1.211,0,0,0,.486.264A1.164,1.164,0,0,0,18.746,4l1.621-.333a1.091,1.091,0,0,1,.806.12,1.207,1.207,0,0,1,.53.656l.5,1.565a1.217,1.217,0,0,0,.29.473,1.12,1.12,0,0,0,.461.281l1.574.513a1.063,1.063,0,0,1,.636.5,1.184,1.184,0,0,1,.129.831l-.358,1.6a1.174,1.174,0,0,0,.012.55,1.124,1.124,0,0,0,.259.476l1.1,1.222a1.083,1.083,0,0,1,.222.353,1.138,1.138,0,0,1-.006.833,1.077,1.077,0,0,1-.227.349L25.17,15.2a1.123,1.123,0,0,0-.265.472,1.176,1.176,0,0,0-.02.549l.338,1.605a1.173,1.173,0,0,1-.112.774,1.063,1.063,0,0,1-.564.5,1.182,1.182,0,0,0-.341.12l-1.344.42a1.121,1.121,0,0,0-.464.275,1.218,1.218,0,0,0-.3.469L21.6,21.953a1.209,1.209,0,0,1-.539.649,1.094,1.094,0,0,1-.808.11l-1.626-.355a1.163,1.163,0,0,0-.546.01,1.209,1.209,0,0,0-.489.259l-1.236,1.091a1.029,1.029,0,0,1-.313.19l-.083.022a.8.8,0,0,1-.626,0h-.019l-.041-.008a1.043,1.043,0,0,1-.327-.2l-1.236-1.091a1.209,1.209,0,0,0-.489-.259,1.164,1.164,0,0,0-.546-.009l-1.616.356a1.1,1.1,0,0,1-.814-.111,1.211,1.211,0,0,1-.54-.658L9.184,20.4a1.218,1.218,0,0,0-.3-.469,1.121,1.121,0,0,0-.464-.275l-1.372-.428a1.181,1.181,0,0,0-.289-.1,1.063,1.063,0,0,1-.584-.5,1.176,1.176,0,0,1-.118-.789l.338-1.6a1.176,1.176,0,0,0-.02-.549,1.123,1.123,0,0,0-.265-.472L5,14a1.078,1.078,0,0,1-.227-.35,1.137,1.137,0,0,1-.005-.833,1.081,1.081,0,0,1,.222-.353l1.1-1.222a1.124,1.124,0,0,0,.259-.475,1.174,1.174,0,0,0,.012-.549l-.358-1.6a1.184,1.184,0,0,1,.129-.831,1.063,1.063,0,0,1,.636-.5L8.333,6.77a1.12,1.12,0,0,0,.461-.281,1.217,1.217,0,0,0,.29-.473l.5-1.565a1.207,1.207,0,0,1,.531-.658,1.091,1.091,0,0,1,.807-.12l1.621.333a1.162,1.162,0,0,0,.546-.016,1.209,1.209,0,0,0,.486-.265l1.221-1.107A1.132,1.132,0,0,1,15.615,2.318ZM6.838,21.592l.313.1.33,1a3.717,3.717,0,0,0,1.644,1.951,3.371,3.371,0,0,0,2.44.349l1.03-.225.545.481L8.375,29.956l-.992-3.192a1.219,1.219,0,0,0-.3-.488,1.12,1.12,0,0,0-.481-.281l-3.223-.982Zm17.623,0,3.455,3.422L24.693,26a1.118,1.118,0,0,0-.481.281,1.217,1.217,0,0,0-.3.488l-.992,3.192-4.765-4.722.546-.48,1.03.225a3.371,3.371,0,0,0,2.44-.349,3.718,3.718,0,0,0,1.644-1.951l.33-1Z" transform="translate(265.354 270.344)" fill="#b8d4f6" stroke="#b8d4f6" stroke-width="0.4"/>
  </g>
</svg>
