<svg width="22" height="22" viewBox="0 0 22 22" fill="none" xmlns="http://www.w3.org/2000/svg">
<path d="M10.6372 1.0083C8.68814 1.13671 6.8611 2.02484 5.53153 3.49018C4.20197 4.95553 3.47086 6.8868 3.48846 8.88713V12.614L2.16156 15.3485L2.15455 15.3633C2.03497 15.6373 1.98347 15.9373 2.00464 16.2366C2.02581 16.5359 2.11899 16.8252 2.27587 17.0787C2.43274 17.3321 2.64844 17.5419 2.90371 17.6892C3.15898 17.8365 3.44588 17.9168 3.73882 17.9229H7.99493C7.99493 18.739 8.31146 19.5217 8.87488 20.0987C9.4383 20.6758 10.2025 21 10.9992 21C11.796 21 12.5602 20.6758 13.1236 20.0987C13.687 19.5217 14.0036 18.739 14.0036 17.9229H18.2597C18.5527 17.917 18.8397 17.8368 19.0951 17.6897C19.3505 17.5425 19.5664 17.3328 19.7234 17.0794C19.8805 16.826 19.9739 16.5368 19.9953 16.2374C20.0166 15.9381 19.9654 15.6379 19.846 15.3638L19.8389 15.349L18.51 12.614V8.69173C18.5082 7.65087 18.3004 6.62119 17.8993 5.66481C17.4983 4.70844 16.9122 3.84519 16.1765 3.12716C15.4408 2.40913 14.5706 1.8512 13.6186 1.48703C12.6666 1.12287 11.6524 0.960012 10.6372 1.0083ZM10.7078 2.54683C11.5208 2.5045 12.3336 2.63214 13.0968 2.922C13.86 3.21185 14.5576 3.65783 15.147 4.23277C15.7365 4.80771 16.2055 5.49956 16.5254 6.26615C16.8453 7.03275 17.0095 7.85804 17.0079 8.69173V12.7945C17.0077 12.9133 17.0345 13.0306 17.086 13.1371L18.4845 16.0198C18.5082 16.0579 18.5208 16.1022 18.5208 16.1473C18.5209 16.1925 18.5084 16.2368 18.4849 16.275C18.4613 16.3132 18.4276 16.3438 18.3878 16.3632C18.3479 16.3825 18.3035 16.3899 18.2597 16.3844H3.73882C3.69488 16.3903 3.6502 16.3833 3.61005 16.3641C3.5699 16.3449 3.53595 16.3143 3.51221 16.2759C3.48847 16.2376 3.47593 16.1931 3.47607 16.1477C3.47621 16.1023 3.48902 16.0579 3.513 16.0198L4.91151 13.1381C4.96353 13.0314 4.99061 12.9138 4.99062 12.7945V8.88713C4.97143 7.2818 5.55327 5.72991 6.61658 4.55034C7.67989 3.37076 9.14392 2.65309 10.7078 2.54478V2.54683ZM9.49709 17.9229H12.5014C12.5014 18.331 12.3431 18.7223 12.0614 19.0108C11.7797 19.2994 11.3976 19.4615 10.9992 19.4615C10.6009 19.4615 10.2188 19.2994 9.93706 19.0108C9.65535 18.7223 9.49709 18.331 9.49709 17.9229Z" fill="white"/>
</svg>
